<?xml version="1.0" encoding="utf-8"?>
<!-- Generator: Adobe Illustrator 23.1.1, SVG Export Plug-In . SVG Version: 6.00 Build 0)  -->
<svg version="1.0" id="Livello_1" xmlns="http://www.w3.org/2000/svg" xmlns:xlink="http://www.w3.org/1999/xlink" x="0px" y="0px"
	 width="319.406px" height="44.931px" viewBox="0 0 319.406 44.931" style="enable-background:new 0 0 319.406 44.931;"
	 xml:space="preserve">
<g>
	<g>
		<path style="fill:#FF0000;" d="M319.203,24.966c0,10.6-17.1,19.1-38.2,19.1s-38.2-8.6-38.2-19.1s17.1-19.1,38.2-19.1
			C302.103,5.766,319.203,14.366,319.203,24.966"/>
		<path style="fill:#FFFFFF;" d="M266.403,17.866v1c-0.2,0.1-0.2-0.2-0.3-0.2c-1-1.1-2.7-1.3-4.1-0.9c-1.3,0.5-2.3,1.7-2.5,3
			c-0.3,1.8-0.2,3.7,0.8,5.1l0,0c0.7,1.1,2,1.9,3.4,1.9c1,0,1.8-0.5,2.5-1h0.2l-0.1,0.8c-0.9,0.5-1.7,0.9-2.7,1
			c-0.9,0.1-2-0.1-2.7-0.4c-2.1-0.7-3.5-2.5-3.8-4.7c-0.3-2,0.4-4.1,2-5.4s3.9-1.8,5.9-1
			C265.503,17.266,266.003,17.566,266.403,17.866"/>
		<path style="fill:#FFFFFF;" d="M285.603,18.566c0.4,1,0.6,2.3,0,3c-0.6,0.9-1.5,1.1-2.3,1.4c0.9,1.8,2,3.6,2.9,5.3
			c-0.7,0-1.6,0-2.4,0c-1.1-1.9-2.2-3.8-3.2-5.7c0.6-0.1,1.3-0.2,1.9-0.4c0.8-0.2,1.4-1,1.5-1.8c0.1-1.1-0.2-2.1-1.2-2.7
			c-0.7-0.4-2.4-0.1-2.6-0.2v3.4v2.3v5h-2.2v-11.3h2.2C280.603,16.866,284.603,16.566,285.603,18.566"/>
		<polygon style="fill:#FFFFFF;" points="295.203,16.966 295.203,17.866 290.703,17.866 290.703,21.266 290.703,21.966 
			294.903,21.966 294.903,22.866 290.703,22.866 290.703,23.566 290.703,24.366 290.703,27.366 295.203,27.366 295.203,28.366 
			288.303,28.366 288.303,27.666 288.303,16.966 290.303,16.966 		"/>
		<polygon style="fill:#FFFFFF;" points="300.303,16.966 300.303,18.966 300.303,27.366 304.803,27.366 304.803,28.366 
			298.003,28.366 298.003,16.966 298.803,16.966 		"/>
		<path style="fill:#FFFFFF;" d="M271.503,16.466l-4.9,11.4l-0.2,0.4h1c0.5-0.9,1-2,1.4-3h3.8c0.4,0.8,0.9,2.1,1.2,3h2.3
			C274.603,24.466,273.103,20.466,271.503,16.466 M269.303,24.366c0.4-1.2,1-2.4,1.5-3.6c0.5,1.1,1,2.4,1.5,3.6H269.303z"/>
		<path style="fill:#FFFFFF;" d="M257.203,33.366v-1.4h31.8c0,0.1,0,1.4,0,1.4H257.203"/>
		<path style="fill:#FFFFFF;" d="M293.703,31.966v1.4h-3.5v-1.4C289.803,31.966,292.703,31.966,293.703,31.966"/>
		<rect x="294.803" y="31.966" style="fill:#FFFFFF;" width="10" height="1.4"/>
	</g>
	<g>
		<path d="M71.803,8.666h-7.3c-6,0-10.9,4.9-10.9,10.9v7.4c0,6,4.9,10.9,10.9,10.9h7.3c6,0,10.9-4.9,10.9-10.9v-7.4
			C82.603,13.466,77.803,8.666,71.803,8.666 M80.103,26.866c0,4.6-3.7,8.3-8.3,8.3h-7.3c-4.6,0-8.3-3.7-8.3-8.3v-7.4
			c0-4.6,3.7-8.3,8.3-8.3h7.3c4.6,0,8.3,3.7,8.3,8.3V26.866z"/>
		<path d="M9.103,2.866h-3.5c-3,0-5.4,2.4-5.4,5.4v3.6c0,3,2.4,5.4,5.4,5.4h3.6c2.7,0,4.9-2,5.3-4.5h4.7v-5.3h-4.7
			C14.003,4.866,11.803,2.866,9.103,2.866"/>
		<path d="M40.303,7.566h-8.3v5.1h8.3c3.5,0,6.3,2.8,6.3,6.3v7.3c0,3.5-2.8,6.3-6.3,6.3h-6.8c-3.5,0-6.3-2.8-6.3-6.3v-25.4h-5.1
			v25.4c0,6.3,5.1,11.4,11.4,11.4h6.7c6.3,0,11.4-5.1,11.4-11.4v-7.3C51.703,12.666,46.603,7.566,40.303,7.566"/>
		<path d="M99.803,17.766h-7.8c-1.6-0.2-2.9-1.6-2.9-3.3c0-1.8,1.4-3.3,3.2-3.3h11.1v-2.5h-11.1c-3.2,0-5.8,2.6-5.8,5.9
			c0,3,2.3,5.6,5.2,5.8h0.1h0.5l0,0h7.4c4,0,7.2,3.3,7.2,7.4s-3.2,7.4-7.2,7.4h-13.1v2.5h13.2c5.4,0,9.7-4.5,9.7-10
			C109.503,22.266,105.103,17.766,99.803,17.766"/>
		<path d="M127.003,17.766h-7.8c-1.6-0.2-2.9-1.6-2.9-3.3c0-1.8,1.4-3.3,3.2-3.3h11.1v-2.5h-11.1c-3.2,0-5.8,2.6-5.8,5.9
			c0,3,2.3,5.6,5.2,5.8h0.1h0.5l0,0h7.4c4,0,7.2,3.3,7.2,7.4s-3.2,7.4-7.2,7.4h-13.2v2.5h13.2c5.4,0,9.7-4.5,9.7-10
			C136.703,22.266,132.303,17.766,127.003,17.766"/>
		<g>
			<path d="M145.829,24.434c0-1.591-0.073-2.785-0.144-4.16h1.591l0.145,3.075h0.072c1.086-1.99,2.75-3.473,5.608-3.473
				c2.424,0,4.269,1.592,4.992,3.798h0.073c0.506-1.049,1.121-1.808,1.773-2.351c1.121-0.942,2.315-1.448,4.16-1.448
				c1.7,0,5.643,0.94,5.643,7.525V37.64h-1.699V27.582c0-3.907-1.519-6.223-4.523-6.223c-2.171,0-3.907,1.592-4.558,3.438
				c-0.181,0.506-0.326,1.085-0.326,1.7V37.64h-1.7V26.786c0-3.147-1.519-5.427-4.304-5.427c-2.352,0-4.161,1.882-4.813,3.907
				c-0.181,0.471-0.289,1.086-0.289,1.664V37.64h-1.7V24.434z"/>
			<path d="M177.704,15.318c0,0.796-0.542,1.483-1.447,1.483c-0.796,0-1.339-0.687-1.339-1.483s0.613-1.519,1.409-1.519
				C177.162,13.799,177.704,14.486,177.704,15.318z M175.461,37.64V20.274h1.7V37.64H175.461z"/>
			<path d="M194.999,36.88c-0.761,0.398-2.569,1.158-5.065,1.158c-5.03,0-8.357-3.654-8.357-8.9c0-5.498,3.762-9.261,8.973-9.261
				c2.135,0,3.87,0.615,4.558,1.085l-0.615,1.411c-0.869-0.47-2.207-1.013-4.124-1.013c-4.668,0-7.056,3.582-7.056,7.67
				c0,4.522,2.86,7.489,6.875,7.489c2.062,0,3.4-0.579,4.34-0.977L194.999,36.88z"/>
			<path d="M199.16,25.484c0-1.737-0.073-3.546-0.143-5.21h1.59l0.073,3.509h0.073c0.761-2.171,2.569-3.907,4.957-3.907
				c0.216,0,0.47,0.036,0.686,0.073v1.664c-0.251-0.073-0.505-0.073-0.831-0.073c-2.388,0-4.088,2.063-4.558,4.848
				c-0.073,0.507-0.145,1.086-0.145,1.665v9.587h-1.7V25.484z"/>
			<path d="M224.269,28.776c0,6.512-4.45,9.261-8.32,9.261c-4.487,0-7.96-3.509-7.96-8.936c0-5.969,3.907-9.225,8.214-9.225
				C221.014,19.876,224.269,23.458,224.269,28.776z M209.726,28.993c0,4.341,2.785,7.597,6.331,7.597
				c3.619,0,6.476-3.256,6.476-7.706c0-3.183-1.81-7.597-6.368-7.597C211.753,21.288,209.726,25.267,209.726,28.993z"/>
		</g>
	</g>
</g>
</svg>
