<?xml version="1.0" encoding="UTF-8" standalone="no"?>
<!-- Generator: Adobe Illustrator 19.0.0, SVG Export Plug-In . SVG Version: 6.00 Build 0)  -->

<svg
   xmlns:dc="http://purl.org/dc/elements/1.1/"
   xmlns:cc="http://creativecommons.org/ns#"
   xmlns:rdf="http://www.w3.org/1999/02/22-rdf-syntax-ns#"
   xmlns:svg="http://www.w3.org/2000/svg"
   xmlns="http://www.w3.org/2000/svg"
   xmlns:sodipodi="http://sodipodi.sourceforge.net/DTD/sodipodi-0.dtd"
   xmlns:inkscape="http://www.inkscape.org/namespaces/inkscape"
   version="1.0"
   x="0px"
   y="0px"
   viewBox="0 0 34 34"
   enable-background="new 0 0 34 34"
   xml:space="preserve"
   id="svg2"
   inkscape:version="0.48.4 r"
   width="100%"
   height="100%"
   sodipodi:docname="help.svg"><metadata
     id="metadata20"><rdf:RDF><cc:Work
         rdf:about=""><dc:format>image/svg+xml</dc:format><dc:type
           rdf:resource="http://purl.org/dc/dcmitype/StillImage" /></cc:Work></rdf:RDF></metadata><defs
     id="defs18" /><sodipodi:namedview
     pagecolor="#ffffff"
     bordercolor="#666666"
     borderopacity="1"
     objecttolerance="10"
     gridtolerance="10"
     guidetolerance="10"
     inkscape:pageopacity="0"
     inkscape:pageshadow="2"
     inkscape:window-width="1920"
     inkscape:window-height="1018"
     id="namedview16"
     showgrid="false"
     inkscape:zoom="6.9411765"
     inkscape:cx="-8.427966"
     inkscape:cy="17"
     inkscape:window-x="-8"
     inkscape:window-y="-8"
     inkscape:window-maximized="1"
     inkscape:current-layer="svg2" /><g
     id="Livello_1"
     display="none"><path
       id="XMLID_495_"
       display="inline"
       fill="#FFFFFF"
       d="M0.5,30.8c0-2.3,1.6-3.3,3.5-3.8c2.8-0.7,5.3-2.1,7.7-3.7   c0.4-0.3,0.6-0.6,0.7-1.2c0.3-2.1,0.1-4.1-0.8-5.9c-0.3-0.7-0.8-1.3-1.1-2c-0.3-0.8-0.4-1.5-0.1-2.3c0.1-0.4,0-0.8,0-1.2   c0-1,0-2.1,0.1-3.1c0.3-2.1,1.9-3.1,3.6-4.1c0.2-0.1,0.4-0.2,0.6-0.3C15,3.1,15,2.8,15.1,2.7c0.2,0,0.6,0,1.1-0.1   c0.4,0.1,1,0.1,1.5,0.2c1.4,0.4,2.8,0.9,3.9,1.9c1.7,1.6,2.3,3.6,1.9,5.9c-0.1,0.6-0.3,1.1,0,1.7c0.2,0.3,0.2,0.9,0,1.3   c-0.4,0.8-0.2,1.9-1.2,2.5c-0.3,0.2-0.2,0.8-0.4,1.2c-0.7,1.6-0.6,3.4-0.4,5.1c0,0.3,0.3,0.7,0.5,0.9c2.4,1.6,4.7,3.1,7.6,3.8   c0.9,0.2,1.8,0.8,2.6,1.4c0.8,0.5,1.1,1.4,1.2,2.3c0,0.2,0,0.6,0,0.8c-0.2,0-0.2,0-0.6,0c-10.5,0-20.9,0-31.4,0c-0.5,0-0.4,0-1,0   C0.5,31.1,0.5,31,0.5,30.8z" /></g><g
     id="Livello_2"
     display="none"><g
       id="XMLID_507_"
       display="inline"><path
         id="XMLID_566_"
         fill="#FFFFFF"
         d="M17.1,34C8,34,0.6,26.6,0.6,17.5C0.6,8.4,8,1,17.1,1c9.1,0,16.5,7.4,16.5,16.5    C33.6,26.6,26.2,34,17.1,34L17.1,34z" /><path
         id="XMLID_508_"
         fill="#1A171B"
         d="M22,25.6c0,0.2-0.1,0.5-0.2,1.1c0.2,0,0.5,0,0.7-0.1c0.3-0.6,0.6-1.3,0.9-1.9    c-0.1,0-0.1-0.1-0.2-0.2c0-0.1,0-0.4,0-0.9c-0.4,0.3-0.6,0.5-0.7,0.6c-0.1,0.1-0.3,0.1-0.6,0.2c0,0.2,0,0.4,0,0.7    C22.1,25.2,22.1,25.4,22,25.6z M10.3,23.8c0-0.4-0.1-0.8-0.1-1.2c-1.4-0.5-2.4-1.1-2.9-2c-0.4-0.6-0.7-0.9-1-1.2    c-0.3-0.2-0.5-0.3-0.7-0.3c-0.1-0.1-0.3-0.1-0.6-0.1c-0.1,0-0.4,0-0.6,0c-0.3,0-0.4,0-0.5,0c-0.3,0-0.7-0.1-0.9-0.3    c-0.3-0.1-0.5-0.5-0.7-1c-0.2,0-0.4-0.1-0.6-0.2c-0.1-0.1-0.2-0.2-0.4-0.3c0,0.1,0,0.1,0,0.2c0,0.3,0,0.6,0,0.8c0,0,0.1,0,0.1,0    c0.5,0,1.2,0.6,2.1,1.7C3.1,21,3,21.7,3.1,22.2c0.1,0.4,0.4,0.9,1.1,1.3c0.7,0.4,1.2,0.9,1.5,1.4c0.3,0.5,0.5,1,0.7,1.5    c0.1,0.3,0.1,0.6,0.2,0.8c0,0.2,0.1,0.4,0.2,0.5c0.2,0.5,0.4,0.9,0.9,1.4c0.4,0.4,1.1,1.1,2,1.8c-0.6-1.1-0.7-2-0.5-2.3    C9.5,27.8,9.8,26.4,10.3,23.8z M33,17.5c0-3.2-0.9-6.1-2.5-8.6c-1.2-0.4-2-0.6-2.2-0.8c-0.8-0.5-1.4-0.9-1.7-1.1    c-1.1-0.7-1.7-1.1-1.8-1.1c-0.3,0.2-0.7,0.4-1.1,0.7c-0.4,0.3-1.2,0.5-2.3,0.8c-0.3,0.1-0.8-0.1-1.6-0.6c-0.8-0.4-1.2-0.6-1.4-0.5    C18.1,6.4,18,6.5,18,6.6c-0.4,0.6-0.9,1.2-1.4,1.9c0.1,0.3,0.2,0.6,0.3,0.9c0,0.1,0,0.2-0.1,0.3c-0.1,0.2-0.2,0.4-0.2,0.7    c-0.2-0.4-0.4-0.7-0.5-0.9C15.9,9.2,15.8,9,15.8,9c0,0-0.1,0.2-0.2,0.5c-0.2,0.5-0.4,1-0.6,1.5c0.2,0,0.3,0,0.5,0    c0.4,0,0.5,0.3,0.4,1c-0.3,0.1-0.5,0.2-0.8,0.3c-0.3,0.1-0.5,0.3-0.5,0.7c0,0.3,0.1,0.7,0.3,1.1c-0.2,0.5-0.5,1.1-0.9,1.9    c-0.6,1.3-1,1.9-1,2c0,1,0.3,1.6,0.7,2c0.4,0.4,1.1,0.6,1.9,0.6c0.5,0,1.1-0.1,1.7-0.2c0,2.8,0.2,5,0.5,6.5c0.3,1.4,0.6,2.1,1,2.1    c0.6,0,1.2-0.4,1.7-1.3c0.5-1,1-2.2,1.6-3.3c0-0.4-0.1-0.7-0.2-1.1c0.1-0.2,0.4-0.7,0.9-1.3c0.2-0.4,0.6-0.9,1.1-1.5    c0-0.4,0-0.8,0-1.2c-0.1,0-0.2,0.1-0.4,0.2c0-0.1-0.1-0.1-0.1-0.1c-0.1-0.2-0.2-0.3-0.3-0.5c0.3-0.3,0.8-0.8,1.4-1.5    c0.6-0.6,1-0.9,1-0.9c0.8,0,1.4,0.4,1.7,1.1c0,0.1,0.2,0.7,0.6,2c0.3,0.2,0.5,0.5,0.8,0.7c0.2-0.7,0.3-1.3,0.4-1.9    c0.1-0.4,0.4-0.8,0.9-1.3c0.7,1,1.2,1.9,1.4,2.5c0,0.1,0.1,0.2,0.1,0.3c-0.1,1.1,0,1.8,0.3,2.1c0.1,0.2,0.4,0.3,0.7,0.4    c0-0.1,0.1-0.2,0.1-0.3c0,0-0.1,0-0.1,0c0.1-1,0.2-1.6,0.1-1.8c-0.1-0.1-0.2-0.2-0.3-0.4c0.2,0.1,0.3,0.2,0.5,0.3    c0.1-0.1,0.2-0.1,0.2-0.2c0.1-0.6,0.2-1.3,0.2-1.9c0-0.1,0-0.1-0.1-0.2c0,0,0,0,0.1,0C33,17.7,33,17.6,33,17.5z M20.5,14.3    c-0.2,0.5-0.3,0.7-0.4,0.7c-0.3-0.2-0.6-0.4-0.7-0.4c-0.1,0-0.3,0.1-0.4,0.3c-0.2,0.2-0.3,0.2-0.4,0.2c-0.1,0-0.3-0.1-0.4-0.2    c-0.3-0.3-0.6-0.6-0.9-0.9c-0.3-0.2-0.6-0.3-0.9-0.3c0,0-0.2,0-0.3,0c-0.1,0-0.3,0-0.4,0.1c0.2-0.2,0.5-0.4,0.7-0.6    c0.4-0.3,0.5-0.7,0.4-0.9c0.3-0.1,0.6-0.1,0.8,0.2c0.2,0.2,0.2,0.6,0.1,1c0.3,0.1,0.5,0.1,0.7-0.2c0.1-0.3,0.2-0.7,0.2-0.9    c0.3,0.2,0.6,0.5,0.9,1c0.2,0.3,0.4,0.5,0.8,0.5c0,0,0.1,0,0.2,0c0.1,0,0.2,0,0.3-0.1C20.7,13.8,20.6,14,20.5,14.3z M14,8    c0.3,0,0.5,0.1,0.7,0.1c-0.3-0.2-0.6-0.4-0.8-0.7c0.5-0.6,0.8-1,1-1.1c0.1-0.1,0.4-0.7,0.8-1.6c-0.5-0.1-1,0-1.6,0    c-0.6,0.1-1.2,0.2-1.8,0.4c-0.6,0.2-1.3,0.3-1.9,0.5C10,5.9,10,6,10,6.1C9.9,6.3,9.7,6.6,9.5,6.9c0.1,0,0.1,0,0.2,0    c0.2,0,0.4-0.1,0.7-0.2c0.3-0.1,0.5-0.2,0.6-0.2c0.4-0.1,0.5,0.3,0.3,1.1c0,0.2-0.1,0.4-0.2,0.5c-0.1,0.2-0.2,0.5-0.3,0.9    C10.8,9,10.9,9,11,9c0.1,0.1,0.1,0.1,0.2,0.2c0.4-0.3,0.9-0.6,1.4-0.9C12.9,8.1,13,8,13.2,8C13.4,8,13.7,8,14,8z M8.6,6.3    c0.1,0.2,0.2,0.4,0.3,0.5c0.1,0.1,0.3,0.1,0.5,0.1C9.2,6.6,8.9,6.5,8.6,6.3C8.6,6.3,8.6,6.3,8.6,6.3z M5.6,8c-1.2,1.1-2,1.8-2.6,2    c-1,2-1.7,4.2-1.8,6.5c0,0,0,0,0,0c0.1-0.1,0.2-0.2,0.3-0.2c0.4-0.3,0.8-0.4,1.1-0.5c0.3,0,0.5,0.1,0.8,0.4    c0.1,0.2,0.2,0.4,0.3,0.5c-0.3,0.2-0.4,0.4-0.5,0.5c-0.1,0.1-0.1,0.2-0.3,0.3c0.4,0,0.8,0.1,1.2,0.3c0.1,0,0.3,0.1,0.6,0.2    c0.2-0.1,0.3-0.2,0.5-0.3c-0.3-0.1-0.6-0.2-0.9-0.2c-0.2-0.1-0.3-0.4-0.3-1c0-0.2,0.2-0.6,0.6-1.1C4.9,15,5.4,14.5,6,14    c0.5-0.5,1.1-1,1.8-1.4c0.2-0.1,0.5-0.3,0.8-0.6c0.1,0,0.3,0,0.4,0.1c0.1,0,0.2,0.1,0.4,0.2c0-0.4,0.1-0.7,0.1-1.1    c-0.2-0.3-0.4-0.6-0.6-1c-0.2-0.1-0.3-0.2-0.4-0.3c0.4-0.4,0.8-0.8,1.2-1.2C9.8,8.8,9.9,8.9,10,9C9.9,8.4,9.7,8,9.6,7.8    C9.5,7.6,9.4,7.5,9.2,7.6c-0.1,0-0.2,0-0.4,0.1c-0.2,0-0.4,0-0.5-0.1C8.1,7.5,8,7.2,7.8,6.7C8,6.5,8.2,6.4,8.4,6.2    C8.3,6.1,8.1,6.1,8.1,6.1C7.7,6.2,6.9,6.8,5.6,8z M5.2,13.7c-0.1,0.2-0.2,0.2-0.3,0.2c-0.1,0-0.2-0.1-0.3-0.4c0-0.2,0-0.5,0-0.8    c0.1,0,0.2,0.1,0.3,0c0.3,0.1,0.5,0.2,0.5,0.5C5.4,13.4,5.3,13.5,5.2,13.7z M7,8.4c0.1-0.4,0.3-0.8,0.4-1.2C7.3,7.6,7.2,8,7,8.4    C7,8.8,6.9,9,6.8,9c0-0.1,0-0.2-0.2-0.1c-0.1-0.1-0.2,0-0.5,0C6.5,8.7,6.7,8.5,7,8.4z M6.2,11.7c-0.1-0.2-0.2-0.5-0.4-0.6    c0.2-0.3,0.5-0.6,0.8-1c0-0.1,0.4-0.3,1-0.7C7.1,10.2,6.6,11,6.2,11.7z M9.5,6.9C9.5,6.9,9.5,6.9,9.5,6.9C9.5,6.9,9.5,6.9,9.5,6.9    C9.5,6.9,9.5,6.9,9.5,6.9z M8.4,6.2c0.1,0,0.1,0.1,0.2,0.1c0-0.1,0-0.2-0.1-0.3C8.5,6.1,8.4,6.1,8.4,6.2z" /></g></g><g
     id="Livello_3"
     display="none"><g
       id="XMLID_469_"
       display="inline"><path
         id="XMLID_497_"
         fill="#FFFFFF"
         d="M31,24.6c-1.6-0.9-5.6-3.9-5.6-12.3c0-0.2,0-0.4-0.1-0.6c-0.3-1.8-1.2-3.4-2.5-4.6    c-0.2-0.2-1.7-1.9-1.7-3.4c0,0,0-0.1,0-0.1c0-1.9-1.6-3.4-3.5-3.4c-1.9,0-3.5,1.6-3.5,3.5c0,0.1,0,0.1,0,0.2    c-0.1,1.4-1.5,3.1-1.7,3.3c-1.3,1.2-2.2,2.8-2.5,4.6c-0.1,0.2-0.1,0.4-0.1,0.6c0,8.4-4,11.4-5.6,12.3c-0.3,0.2-0.6,0.6-0.6,1v1.7    c0,0.4,0.3,0.7,0.7,0.7h26.6c0.4,0,0.7-0.3,0.7-0.7v-1.7C31.6,25.3,31.3,24.8,31,24.6z M17.6,5.1c-0.8,0-1.4-0.6-1.4-1.4    s0.6-1.4,1.4-1.4c0.8,0,1.4,0.6,1.4,1.4S18.4,5.1,17.6,5.1z" /><path
         id="XMLID_70_"
         fill="#FFFFFF"
         d="M17.4,33.4c1.9,0,3.4-1.5,3.4-3.3H14C14,31.9,15.5,33.4,17.4,33.4z" /></g></g><path
     style="fill:#1a171b;fill-opacity:1"
     inkscape:connector-curvature="0"
     d="M 17,0.5 C 7.9,0.5 0.5,7.9 0.5,17 0.5,26.1 7.9,33.5 17,33.5 26.1,33.5 33.5,26.1 33.5,17 33.5,7.9 26.1,0.5 17,0.5 z m -0.3,26.1 c -1,0 -1.7,-0.8 -1.7,-1.8 0,-1.1 0.7,-1.8 1.7,-1.8 1.1,0 1.7,0.8 1.7,1.8 0,1 -0.6,1.8 -1.7,1.8 z m 2.8,-11 c -1.3,1.5 -1.8,2.8 -1.7,4.3 l 0.1,0.7 h -2.3 l -0.1,-0.8 c -0.2,-1.6 0.3,-3.3 1.8,-5.1 1.3,-1.6 2,-2.7 2,-4 0,-1.5 -0.9,-2.5 -2.8,-2.5 -1.1,0 -2.2,0.4 -3,0.9 L 13,7.4 c 1,-0.7 2.6,-1.2 4.2,-1.2 3.4,0 4.9,2.1 4.9,4.3 -0.1,2 -1.2,3.5 -2.6,5.1 z"
     id="XMLID_521_" /></svg>