<?xml version="1.0" encoding="UTF-8" standalone="no"?>
<!-- Generator: Adobe Illustrator 19.0.0, SVG Export Plug-In . SVG Version: 6.00 Build 0)  -->

<svg
   xmlns:dc="http://purl.org/dc/elements/1.1/"
   xmlns:cc="http://creativecommons.org/ns#"
   xmlns:rdf="http://www.w3.org/1999/02/22-rdf-syntax-ns#"
   xmlns:svg="http://www.w3.org/2000/svg"
   xmlns="http://www.w3.org/2000/svg"
   xmlns:sodipodi="http://sodipodi.sourceforge.net/DTD/sodipodi-0.dtd"
   xmlns:inkscape="http://www.inkscape.org/namespaces/inkscape"
   version="1.0"
   id="Livello_1"
   x="0px"
   y="0px"
   viewBox="-5 6 34 34"
   enable-background="new -5 6 34 34"
   xml:space="preserve"
   inkscape:version="0.48.4 r"
   width="100%"
   height="100%"
   sodipodi:docname="pswd.svg"><metadata
     id="metadata9"><rdf:RDF><cc:Work
         rdf:about=""><dc:format>image/svg+xml</dc:format><dc:type
           rdf:resource="http://purl.org/dc/dcmitype/StillImage" /></cc:Work></rdf:RDF></metadata><defs
     id="defs7" /><sodipodi:namedview
     pagecolor="#ffffff"
     bordercolor="#666666"
     borderopacity="1"
     objecttolerance="10"
     gridtolerance="10"
     guidetolerance="10"
     inkscape:pageopacity="0"
     inkscape:pageshadow="2"
     inkscape:window-width="1920"
     inkscape:window-height="1018"
     id="namedview5"
     showgrid="false"
     inkscape:zoom="9.8163059"
     inkscape:cx="-3.3663657"
     inkscape:cy="27.741492"
     inkscape:window-x="-8"
     inkscape:window-y="-8"
     inkscape:window-maximized="1"
     inkscape:current-layer="Livello_1" /><path
     inkscape:connector-curvature="0"
     style="fill:#1a171b;fill-opacity:1"
     d="m 27.9,23.1 -3.4,-2.9 c 0,0 -9.1,0 -13,0 -0.8,0 -1.2,-0.2 -1.7,-0.9 -0.7,-0.9 -1.6,-1.9 -2.6,-2.4 -3.3,-2 -7.6,-0.8 -9.6,2.5 -2.1,3.5 -1,7.7 2.4,9.9 3.2,2 7.7,1.1 9.7,-2.1 0.6,-0.9 1.1,-1.1 2.1,-1.1 0.1,0 0.5,0 0.5,0 h 1.8 l 0,0 0.9,-1.2 1,1.3 0,0 h 0.4 l 0,0 0.9,-1.3 1,1.3 0,0 h 0.4 l 0,0 0.9,-1.3 1,1.3 0,0 H 21 l 0,0 0.9,-1.3 1,1.3 h 0.4 v -0.1 l 0.4,-0.1 4.2,-2.9 z m -26,1.6 c -0.9,1 -2.4,1 -3.3,0 -0.9,-0.9 -0.9,-2.3 0,-3.2 0.9,-0.9 2.4,-0.9 3.2,0 0.9,0.9 1,2.3 0.1,3.2 z"
     id="XMLID_499_" /></svg>