<?xml version="1.0" encoding="utf-8"?>
<!-- Generator: Adobe Illustrator 19.2.1, SVG Export Plug-In . SVG Version: 6.00 Build 0)  -->
<!DOCTYPE svg PUBLIC "-//W3C//DTD SVG 1.0//EN" "http://www.w3.org/TR/2001/REC-SVG-20010904/DTD/svg10.dtd">
<svg version="1.0" id="Livello_1" xmlns="http://www.w3.org/2000/svg" xmlns:xlink="http://www.w3.org/1999/xlink" x="0px" y="0px"
	 viewBox="0 0 34 34" enable-background="new 0 0 34 34" xml:space="preserve">
<g id="Livello_12">
	<path fill="#FFFFFF" d="M17,0.5C7.9,0.5,0.5,7.9,0.5,17S7.9,33.5,17,33.5S33.5,26.1,33.5,17S26.1,0.5,17,0.5z"/>
	<g>
		<path fill="#000000" d="M16.9,27c1.1,0,2-0.9,2.1-2h-4.1C14.8,26.1,15.7,27,16.9,27z"/>
		<path fill="#000000" d="M25.1,21.7c-1-0.5-3.4-2.4-3.4-7.4c0-0.1,0-0.3,0-0.4c-0.2-1.1-0.7-2.1-1.5-2.8c-0.1-0.1-1-1.2-1-2
			c0,0,0,0,0-0.1c-0.1-1.1-1.1-2-2.2-2c-1.2,0-2.1,0.9-2.1,2.1v0.1c0,0.8-0.9,1.9-1,2c-0.8,0.7-1.3,1.7-1.5,2.8c0,0.1,0,0.2,0,0.4
			c0,5-2.4,6.9-3.4,7.4c-0.2,0.1-0.4,0.4-0.4,0.6v1c0,0.2,0.2,0.4,0.4,0.4h16c0.2,0,0.4-0.2,0.4-0.4v-1
			C25.4,22.1,25.3,21.8,25.1,21.7z M17,9.9c-0.5,0-0.8-0.4-0.8-0.8c0-0.5,0.4-0.8,0.8-0.8s0.8,0.4,0.8,0.8S17.5,9.9,17,9.9z"/>
	</g>
</g>
</svg>
