<?xml version="1.0" encoding="utf-8"?>
<!-- Generator: Adobe Illustrator 19.2.1, SVG Export Plug-In . SVG Version: 6.00 Build 0)  -->
<!DOCTYPE svg PUBLIC "-//W3C//DTD SVG 1.0//EN" "http://www.w3.org/TR/2001/REC-SVG-20010904/DTD/svg10.dtd">
<svg version="1.0" id="Livello_1" xmlns="http://www.w3.org/2000/svg" xmlns:xlink="http://www.w3.org/1999/xlink" x="0px" y="0px"
	 viewBox="0 0 300 50" enable-background="new 0 0 300 50" xml:space="preserve">
<g>
	<g id="XMLID_697_">
		<path id="XMLID_702_" d="M96.8,11h-9.5c-7.8,0-14.1,6.3-14.1,14.1v9.5c0,7.8,6.3,14.1,14.1,14.1h9.5c7.8,0,14.1-6.3,14.1-14.1
			v-9.5C110.9,17.4,104.6,11,96.8,11z M107.5,34.6c0,5.9-4.8,10.7-10.7,10.7h-9.5c-5.9,0-10.7-4.8-10.7-10.7v-9.5
			c0-5.9,4.8-10.7,10.7-10.7h9.5c5.9,0,10.7,4.8,10.7,10.7V34.6z"/>
		<path id="XMLID_701_" d="M28.7,16.4h-6c-0.5,3.3-3.4,5.9-6.9,5.9h-4.6c-3.9,0-7-3.1-7-7v-4.6c0-3.9,3.1-7,7-7h4.6
			c3.5,0,6.4,2.5,6.9,5.9h6V16.4z"/>
		<path id="XMLID_700_" d="M70.8,33.9c0,8.1-6.6,14.8-14.8,14.8h-8.7c-8.2,0-14.8-6.6-14.8-14.8V1l6.6,0v32.9c0,4.5,3.7,8.1,8.1,8.1
			H56c4.5,0,8.1-3.7,8.1-8.1v-9.4c0-4.5-3.7-8.1-8.1-8.1H45.2V9.7H56c8.1,0,14.8,6.6,14.8,14.8V33.9z"/>
		<path id="XMLID_699_" d="M133,48.7H116v-3.3H133c5.1,0,9.3-4.3,9.3-9.5s-4.2-9.5-9.3-9.5h-9.5v0l-0.6,0l-0.1,0
			c-3.8-0.3-6.8-3.6-6.8-7.6c0-4.2,3.3-7.6,7.4-7.6h14.3v3.3h-14.3c-2.3,0-4.2,1.9-4.2,4.3c0,2.2,1.6,4,3.7,4.2l10.1,0
			c6.9,0,12.6,5.8,12.6,12.9C145.6,42.9,140,48.7,133,48.7z"/>
		<path id="XMLID_698_" d="M168.2,48.7h-17.1v-3.3h17.1c5.1,0,9.3-4.3,9.3-9.5s-4.2-9.5-9.3-9.5h-9.5v0l-0.6,0l-0.1,0
			c-3.8-0.3-6.8-3.6-6.8-7.6c0-4.2,3.3-7.6,7.4-7.6h14.3v3.3h-14.3c-2.3,0-4.2,1.9-4.2,4.3c0,2.2,1.6,4,3.7,4.2l10.1,0
			c6.9,0,12.6,5.8,12.6,12.9C180.8,42.9,175.2,48.7,168.2,48.7z"/>
	</g>
	<g>
		<g>
			<path fill="#E2231A" d="M295.9,25.4c0-13-21.8-23.6-48.6-23.6c-26.9,0-48.6,10.6-48.6,23.6c0,13,21.8,23.6,48.6,23.6
				C274.1,49,295.9,38.4,295.9,25.4z"/>
			<g>
				<path fill="#FFFFFF" d="M229,16.6l0,1.2c-0.2,0.1-0.2-0.2-0.4-0.3c-1.2-1.3-3.3-1.6-5.1-1.1c-1.6,0.6-2.8,2.1-3.1,3.7
					c-0.4,2.2-0.2,4.6,1,6.3l0,0c0.9,1.3,2.5,2.4,4.2,2.3c1.2,0,2.2-0.6,3.1-1.3h0.2l-0.1,1c-1.1,0.7-2.1,1.1-3.4,1.2
					c-1.1,0.2-2.5-0.1-3.3-0.5c-2.6-0.9-4.3-3.1-4.7-5.8c-0.3-2.5,0.5-5.1,2.4-6.7c1.9-1.7,4.9-2.2,7.3-1.2
					C227.9,15.8,228.5,16.2,229,16.6z"/>
				<path fill="#FFFFFF" d="M252.8,17.4c0.5,1.2,0.7,2.8,0,3.8c-0.7,1-1.9,1.4-2.9,1.7c1.2,2.2,2.4,4.4,3.6,6.5c-0.9,0-2,0-3,0
					c-1.3-2.4-2.7-4.7-3.9-7.1c0.7-0.2,1.6-0.2,2.3-0.4c1-0.2,1.7-1.3,1.8-2.2c0.1-1.3-0.2-2.7-1.5-3.3c-0.9-0.5-3-0.1-3.2-0.2
					c0,0.6,0,3.9,0,4.3v2.9v6.2h-2.7V15.3h2.7C246.6,15.2,251.6,14.9,252.8,17.4z"/>
				<path fill="#FFFFFF" d="M264.8,15.4c0,0,0,1,0,1.1h-5.7c0,0.3,0,2.5,0,4.2v0.9h5.3c0,0.1,0,0.6,0,1.1c-1.8,0-5,0-5.3,0
					c0,0,0,0.6,0,0.8v1v3.8c1.8,0,4.8,0,5.7,0c0,0.4,0,1.1,0,1.2h-8.6l0-0.9l0-13.3h2.5H264.8z"/>
				<path fill="#FFFFFF" d="M271.1,15.4c0,0.8,0,1.8,0,2.5v10.4c1.3,0,5.6,0,5.6,0v1.2h-8.5V15.4l1,0L271.1,15.4z"/>
				<path fill="#FFFFFF" d="M235.3,14.9l-6,14.2l-0.2,0.5h1.3c0.6-1.1,1.2-2.5,1.8-3.7h4.7c0.5,1,1.1,2.6,1.5,3.7c0.5,0,2.1,0,2.9,0
					C239.2,24.7,237.3,19.7,235.3,14.9z M232.6,24.6c0.5-1.4,1.3-3,1.9-4.5c0.7,1.4,1.2,3,1.9,4.5H232.6z"/>
				<path fill="#FFFFFF" d="M217.6,35.7l0-1.7h39.5c0,0.1,0,1.7,0,1.7H217.6"/>
				<path fill="#FFFFFF" d="M262.8,34v1.7c0,0-4.7,0-4.3,0l0-1.7C258,34,261.6,34,262.8,34z"/>
				<polygon fill="#FFFFFF" points="276.7,34 276.7,35.7 264.3,35.7 264.3,34 264.3,34 				"/>
			</g>
		</g>
	</g>
</g>
</svg>
