<?xml version="1.0" encoding="utf-8"?>
<!-- Generator: Adobe Illustrator 22.0.1, SVG Export Plug-In . SVG Version: 6.00 Build 0)  -->
<svg version="1.1" id="Livello_1" xmlns="http://www.w3.org/2000/svg" xmlns:xlink="http://www.w3.org/1999/xlink" x="0px" y="0px"
	 viewBox="0 0 300 50" style="enable-background:new 0 0 300 50;" xml:space="preserve">
<style type="text/css">
	.st0{fill:#E30613;}
	.st1{fill:#FFFFFF;}
</style>
<path d="M72.3,12H65c-6,0-10.9,4.9-10.9,10.9v7.4c0,6,4.9,10.9,10.9,10.9h7.3c6,0,10.9-4.9,10.9-10.9v-7.4
	C83.1,16.8,78.3,12,72.3,12 M80.6,30.2c0,4.6-3.7,8.3-8.3,8.3h-7.3c-4.6,0-8.3-3.7-8.3-8.3v-7.4c0-4.6,3.7-8.3,8.3-8.3h7.3
	c4.6,0,8.3,3.7,8.3,8.3V30.2z"/>
<path d="M9.6,6.2H6.1c-3,0-5.4,2.4-5.4,5.4v3.6c0,3,2.4,5.4,5.4,5.4h3.6c2.7,0,4.9-2,5.3-4.5h4.7v-5.3H15C14.5,8.2,12.3,6.2,9.6,6.2
	"/>
<path d="M40.8,10.9h-8.3V16h8.3c3.5,0,6.3,2.8,6.3,6.3v7.3c0,3.5-2.8,6.3-6.3,6.3H34c-3.5,0-6.3-2.8-6.3-6.3V4.2l-5.1,0v25.4
	C22.6,35.9,27.7,41,34,41h6.7c6.3,0,11.4-5.1,11.4-11.4v-7.3C52.2,16,47.1,10.9,40.8,10.9"/>
<path d="M100.3,21.1h-7.8c-1.6-0.2-2.9-1.6-2.9-3.3c0-1.8,1.4-3.3,3.2-3.3h11.1V12H92.8c-3.2,0-5.8,2.6-5.8,5.9c0,3,2.3,5.6,5.2,5.8
	l0.1,0l0.5,0v0h7.4c4,0,7.2,3.3,7.2,7.4s-3.2,7.4-7.2,7.4H87.1V41h13.2c5.4,0,9.7-4.5,9.7-10C110,25.6,105.6,21.1,100.3,21.1"/>
<path d="M127.5,21.1h-7.8c-1.6-0.2-2.9-1.6-2.9-3.3c0-1.8,1.4-3.3,3.2-3.3h11.1V12H120c-3.2,0-5.8,2.6-5.8,5.9c0,3,2.3,5.6,5.2,5.8
	l0.1,0l0.5,0v0h7.4c4,0,7.2,3.3,7.2,7.4s-3.2,7.4-7.2,7.4h-13.2V41h13.2c5.4,0,9.7-4.5,9.7-10C137.2,25.6,132.8,21.1,127.5,21.1"/>
<path d="M164.7,23.3c-1.8,0-3,0.5-4.2,1.4c-0.7,0.5-1.3,1.3-1.8,2.3h-0.1c-0.7-2.2-2.6-3.8-5-3.8c-2.9,0-4.5,1.5-5.6,3.5h-0.1
	l-0.1-3.1h-1.6c0.1,1.4,0.1,2.6,0.1,4.2V41h1.7V30.3c0-0.6,0.1-1.2,0.3-1.7c0.7-2,2.5-3.9,4.8-3.9c2.8,0,4.3,2.3,4.3,5.4V41h1.7
	V29.9c0-0.6,0.1-1.2,0.3-1.7c0.7-1.8,2.4-3.4,4.6-3.4c3,0,4.5,2.3,4.5,6.2v10h1.7V30.8C170.4,24.2,166.4,23.3,164.7,23.3"/>
<path d="M176.9,17.2c-0.8,0-1.4,0.7-1.4,1.5c0,0.8,0.5,1.5,1.3,1.5c0.9,0,1.4-0.7,1.4-1.5C178.3,17.9,177.8,17.2,176.9,17.2"/>
<rect x="176.1" y="23.7" width="1.7" height="17.3"/>
<path d="M191.2,23.3c-2.9,0-5,1.6-6,3.5h-0.1l-0.1-3.1h-1.6c0.1,1.4,0.1,2.6,0.1,4.2V41h1.7V30.3c0-0.5,0.1-1.1,0.3-1.6
	c0.7-2.2,2.7-4,5.2-4c3.6,0,4.8,2.9,4.8,6V41h1.7V30.6C197.3,24.1,192.9,23.3,191.2,23.3"/>
<rect x="203" y="23.7" width="1.7" height="17.3"/>
<path d="M203.8,17.2c-0.8,0-1.4,0.7-1.4,1.5c0,0.8,0.5,1.5,1.3,1.5c0.9,0,1.4-0.7,1.4-1.5C205.2,17.9,204.7,17.2,203.8,17.2"/>
<g>
	<path class="st0" d="M299.7,28.3c0,10.6-17.1,19.1-38.2,19.1c-21.1,0-38.2-8.6-38.2-19.1s17.1-19.1,38.2-19.1
		C282.6,9.1,299.7,17.7,299.7,28.3"/>
	<path class="st1" d="M246.9,21.2l0,1c-0.2,0.1-0.2-0.2-0.3-0.2c-1-1.1-2.7-1.3-4.1-0.9c-1.3,0.5-2.3,1.7-2.5,3
		c-0.3,1.8-0.2,3.7,0.8,5.1l0,0c0.7,1.1,2,1.9,3.4,1.9c1,0,1.8-0.5,2.5-1h0.2l-0.1,0.8c-0.9,0.5-1.7,0.9-2.7,1
		c-0.9,0.1-2-0.1-2.7-0.4c-2.1-0.7-3.5-2.5-3.8-4.7c-0.3-2,0.4-4.1,2-5.4c1.6-1.3,3.9-1.8,5.9-1C246,20.6,246.5,20.9,246.9,21.2"/>
	<path class="st1" d="M266.1,21.9c0.4,1,0.6,2.3,0,3c-0.6,0.9-1.5,1.1-2.3,1.4c0.9,1.8,2,3.6,2.9,5.3c-0.7,0-1.6,0-2.4,0
		c-1.1-1.9-2.2-3.8-3.2-5.7c0.6-0.1,1.3-0.2,1.9-0.4c0.8-0.2,1.4-1,1.5-1.8c0.1-1.1-0.2-2.1-1.2-2.7c-0.7-0.4-2.4-0.1-2.6-0.2v3.4
		v2.3v5h-2.2V20.2h2.2C261.1,20.2,265.1,19.9,266.1,21.9"/>
	<polygon class="st1" points="275.7,20.3 275.7,21.2 271.2,21.2 271.2,24.6 271.2,25.3 275.4,25.3 275.4,26.2 271.2,26.2 
		271.2,26.9 271.2,27.7 271.2,30.7 275.7,30.7 275.7,31.7 268.8,31.7 268.8,31 268.8,20.3 270.8,20.3 	"/>
	<polygon class="st1" points="280.8,20.3 280.8,22.3 280.8,30.7 285.3,30.7 285.3,31.7 278.5,31.7 278.5,20.3 279.3,20.3 	"/>
	<path class="st1" d="M252,19.8l-4.9,11.4l-0.2,0.4h1c0.5-0.9,1-2,1.4-3h3.8c0.4,0.8,0.9,2.1,1.2,3h2.3
		C255.1,27.8,253.6,23.8,252,19.8 M249.8,27.7c0.4-1.2,1-2.4,1.5-3.6c0.5,1.1,1,2.4,1.5,3.6H249.8z"/>
	<path class="st1" d="M237.7,36.7l0-1.4h31.8c0,0.1,0,1.4,0,1.4H237.7"/>
	<path class="st1" d="M274.2,35.3v1.4h-3.5l0-1.4C270.3,35.3,273.2,35.3,274.2,35.3"/>
	<rect x="275.3" y="35.3" class="st1" width="10" height="1.4"/>
</g>
</svg>
