<?xml version="1.0" encoding="utf-8"?>
<!-- Generator: Adobe Illustrator 19.0.0, SVG Export Plug-In . SVG Version: 6.00 Build 0)  -->
<!DOCTYPE svg PUBLIC "-//W3C//DTD SVG 1.0//EN" "http://www.w3.org/TR/2001/REC-SVG-20010904/DTD/svg10.dtd">
<svg version="1.0" id="Livello_1" xmlns="http://www.w3.org/2000/svg" xmlns:xlink="http://www.w3.org/1999/xlink" x="0px" y="0px"
	 viewBox="0 0 42 12" enable-background="new 0 0 42 12" xml:space="preserve">
<g id="XMLID_34_">
	<path id="XMLID_6_" fill="#FFFFFF" d="M26.7,11.2v-0.6h4c1.3,0,2.3-1.1,2.3-2.4c0-1.3-1-2.4-2.3-2.4h-2.4v0l0,0h0l0,0
		c-0.9-0.1-1.6-0.8-1.6-1.7c0-1,0.8-1.7,1.7-1.7h3.3V3h-3.3c-0.6,0-1.1,0.5-1.1,1.1c0,0.6,0.4,1,1,1.1h2.4c1.6,0,2.9,1.3,2.9,3
		c0,1.6-1.3,3-2.9,3H26.7z"/>
	<path id="XMLID_5_" fill="#FFFFFF" d="M35.1,11.2v-0.6h4c1.3,0,2.3-1.1,2.3-2.4c0-1.3-1-2.4-2.3-2.4h-2.4v0l0,0h0l0,0
		c-0.9-0.1-1.6-0.8-1.6-1.7c0-1,0.8-1.7,1.7-1.7h3.3V3h-3.3c-0.6,0-1.1,0.5-1.1,1.1c0,0.6,0.4,1,1,1.1h2.4c1.6,0,2.9,1.3,2.9,3
		c0,1.6-1.3,3-2.9,3H35.1z"/>
	<path id="XMLID_37_" fill="#FFFFFF" d="M22,2.4h-2.3c-1.8,0-3.3,1.5-3.3,3.3v2.3c0,1.8,1.5,3.3,3.3,3.3H22c1.8,0,3.3-1.5,3.3-3.3
		V5.7C25.3,3.9,23.8,2.4,22,2.4z M24.7,7.9c0,1.5-1.2,2.6-2.6,2.6h-2.3c-1.5,0-2.6-1.2-2.6-2.6V5.7c0-1.5,1.2-2.6,2.6-2.6H22
		c1.5,0,2.6,1.2,2.6,2.6V7.9z"/>
	<path id="XMLID_2_" fill="#FFFFFF" d="M12.3,11.2h-2.1c-1.9,0-3.4-1.5-3.4-3.4V0l1.4,0v7.8c0,1.1,0.9,2,2,2h2.1c1.1,0,2-0.9,2-2
		V5.5c0-1.1-0.9-2-2-2H9.8V2.1h2.5c1.9,0,3.4,1.5,3.4,3.4v2.3C15.7,9.7,14.2,11.2,12.3,11.2L12.3,11.2z"/>
	<path id="XMLID_1_" fill="#FFFFFF" d="M5.7,2H4.3C4.2,1.2,3.5,0.6,2.7,0.6H1.6C0.7,0.6,0,1.3,0,2.2v1.1c0,0.9,0.7,1.6,1.6,1.6h1.1
		c0.8,0,1.5-0.6,1.6-1.4h1.4V2z"/>
</g>
</svg>
