<?xml version="1.0" encoding="utf-8"?>
<!-- Generator: Adobe Illustrator 23.1.1, SVG Export Plug-In . SVG Version: 6.00 Build 0)  -->
<svg version="1.0" id="Livello_1" xmlns="http://www.w3.org/2000/svg" xmlns:xlink="http://www.w3.org/1999/xlink" x="0px" y="0px"
	 width="294.372px" height="44.931px" viewBox="0 0 294.372 44.931" style="enable-background:new 0 0 294.372 44.931;"
	 xml:space="preserve">
<g>
	<g>
		<path d="M71.524,8.666h-7.3c-6,0-10.9,4.9-10.9,10.9v7.4c0,6,4.9,10.9,10.9,10.9h7.3c6,0,10.9-4.9,10.9-10.9v-7.4
			C82.324,13.466,77.524,8.666,71.524,8.666 M79.824,26.866c0,4.6-3.7,8.3-8.3,8.3h-7.3c-4.6,0-8.3-3.7-8.3-8.3v-7.4
			c0-4.6,3.7-8.3,8.3-8.3h7.3c4.6,0,8.3,3.7,8.3,8.3V26.866z"/>
		<path d="M8.824,2.866h-3.5c-3,0-5.4,2.4-5.4,5.4v3.6c0,3,2.4,5.4,5.4,5.4h3.6c2.7,0,4.9-2,5.3-4.5h4.7v-5.3h-4.7
			C13.724,4.866,11.524,2.866,8.824,2.866"/>
		<path d="M40.024,7.566h-8.3v5.1h8.3c3.5,0,6.3,2.8,6.3,6.3v7.3c0,3.5-2.8,6.3-6.3,6.3h-6.8c-3.5,0-6.3-2.8-6.3-6.3v-25.4h-5.1
			v25.4c0,6.3,5.1,11.4,11.4,11.4h6.7c6.3,0,11.4-5.1,11.4-11.4v-7.3C51.424,12.666,46.324,7.566,40.024,7.566"/>
		<path d="M99.524,17.766h-7.8c-1.6-0.2-2.9-1.6-2.9-3.3c0-1.8,1.4-3.3,3.2-3.3h11.1v-2.5h-11.1c-3.2,0-5.8,2.6-5.8,5.9
			c0,3,2.3,5.6,5.2,5.8h0.1h0.5l0,0h7.4c4,0,7.2,3.3,7.2,7.4s-3.2,7.4-7.2,7.4h-13.1v2.5h13.2c5.4,0,9.7-4.5,9.7-10
			C109.224,22.266,104.824,17.766,99.524,17.766"/>
		<path d="M126.724,17.766h-7.8c-1.6-0.2-2.9-1.6-2.9-3.3c0-1.8,1.4-3.3,3.2-3.3h11.1v-2.5h-11.1c-3.2,0-5.8,2.6-5.8,5.9
			c0,3,2.3,5.6,5.2,5.8h0.1h0.5l0,0h7.4c4,0,7.2,3.3,7.2,7.4s-3.2,7.4-7.2,7.4h-13.2v2.5h13.2c5.4,0,9.7-4.5,9.7-10
			C136.424,22.266,132.024,17.766,126.724,17.766"/>
	</g>
	<g>
		<path style="fill:#FF0000;" d="M294.448,24.966c0,10.6-17.1,19.1-38.2,19.1s-38.2-8.6-38.2-19.1s17.1-19.1,38.2-19.1
			C277.348,5.766,294.448,14.366,294.448,24.966"/>
		<path style="fill:#FFFFFF;" d="M241.648,17.866v1c-0.2,0.1-0.2-0.2-0.3-0.2c-1-1.1-2.7-1.3-4.1-0.9c-1.3,0.5-2.3,1.7-2.5,3
			c-0.3,1.8-0.2,3.7,0.8,5.1l0,0c0.7,1.1,2,1.9,3.4,1.9c1,0,1.8-0.5,2.5-1h0.2l-0.1,0.8c-0.9,0.5-1.7,0.9-2.7,1
			c-0.9,0.1-2-0.1-2.7-0.4c-2.1-0.7-3.5-2.5-3.8-4.7c-0.3-2,0.4-4.1,2-5.4s3.9-1.8,5.9-1
			C240.748,17.266,241.248,17.566,241.648,17.866"/>
		<path style="fill:#FFFFFF;" d="M260.848,18.566c0.4,1,0.6,2.3,0,3c-0.6,0.9-1.5,1.1-2.3,1.4c0.9,1.8,2,3.6,2.9,5.3
			c-0.7,0-1.6,0-2.4,0c-1.1-1.9-2.2-3.8-3.2-5.7c0.6-0.1,1.3-0.2,1.9-0.4c0.8-0.2,1.4-1,1.5-1.8c0.1-1.1-0.2-2.1-1.2-2.7
			c-0.7-0.4-2.4-0.1-2.6-0.2v3.4v2.3v5h-2.2v-11.3h2.2C255.848,16.866,259.848,16.566,260.848,18.566"/>
		<polygon style="fill:#FFFFFF;" points="270.448,16.966 270.448,17.866 265.948,17.866 265.948,21.266 265.948,21.966 
			270.148,21.966 270.148,22.866 265.948,22.866 265.948,23.566 265.948,24.366 265.948,27.366 270.448,27.366 270.448,28.366 
			263.548,28.366 263.548,27.666 263.548,16.966 265.548,16.966 		"/>
		<polygon style="fill:#FFFFFF;" points="275.548,16.966 275.548,18.966 275.548,27.366 280.048,27.366 280.048,28.366 
			273.248,28.366 273.248,16.966 274.048,16.966 		"/>
		<path style="fill:#FFFFFF;" d="M246.748,16.466l-4.9,11.4l-0.2,0.4h1c0.5-0.9,1-2,1.4-3h3.8c0.4,0.8,0.9,2.1,1.2,3h2.3
			C249.848,24.466,248.348,20.466,246.748,16.466 M244.548,24.366c0.4-1.2,1-2.4,1.5-3.6c0.5,1.1,1,2.4,1.5,3.6H244.548z"/>
		<path style="fill:#FFFFFF;" d="M232.448,33.366v-1.4h31.8c0,0.1,0,1.4,0,1.4H232.448"/>
		<path style="fill:#FFFFFF;" d="M268.948,31.966v1.4h-3.5v-1.4C265.048,31.966,267.948,31.966,268.948,31.966"/>
		<rect x="270.048" y="31.966" style="fill:#FFFFFF;" width="10" height="1.4"/>
	</g>
	<g>
		<path d="M161.974,28.324c0,6.57-4.514,9.344-8.44,9.344c-4.551,0-8.074-3.54-8.074-9.016c0-6.021,3.963-9.307,8.331-9.307
			C158.672,19.346,161.974,22.959,161.974,28.324z M147.222,28.543c0,4.38,2.826,7.665,6.422,7.665c3.67,0,6.568-3.285,6.568-7.774
			c0-3.212-1.835-7.664-6.458-7.664C149.277,20.77,147.222,24.784,147.222,28.543z"/>
		<path d="M166.455,23.944c0-1.605-0.074-2.811-0.147-4.197h1.615l0.146,3.176h0.073c0.954-1.972,3.156-3.577,6.056-3.577
			c1.688,0,6.128,0.84,6.128,7.409v10.512h-1.725V26.9c0-3.175-1.248-6.059-4.881-6.059c-2.495,0-4.587,1.752-5.284,4.016
			c-0.147,0.438-0.257,1.021-0.257,1.569v10.84h-1.725V23.944z"/>
		<path d="M186.384,28.324c0,5.621,3.083,7.811,6.716,7.811c2.568,0,3.89-0.511,4.881-0.985l0.44,1.388
			c-0.661,0.364-2.459,1.131-5.542,1.131c-5.063,0-8.22-3.687-8.22-8.833c0-5.84,3.376-9.489,7.927-9.489
			c5.762,0,6.862,5.401,6.862,7.92c0,0.475,0,0.767-0.073,1.059H186.384z M197.613,26.938c0.037-2.445-0.991-6.168-5.248-6.168
			c-3.89,0-5.578,3.467-5.871,6.168H197.613z"/>
	</g>
</g>
</svg>
