<svg width="30" xmlns:atv="http://webmi.atvise.com/2007/svgext" height="30" xmlns="http://www.w3.org/2000/svg" xmlns:xlink="http://www.w3.org/1999/xlink">
 <defs/>
 <metadata>
  <atv:gridconfig width="20" height="20" enabled="false" gridstyle="lines"/>
  <atv:snapconfig width="10" height="10" enabled="false"/>
 </metadata>
 <g atv:refpx="15" id="id_1" atv:refpy="15">
  <rect width="30" x="0" fill="#a2b2d8" height="30" opacity="0" atv:refpx="15" id="area" atv:refpy="15" stroke-width="1" y="0"/>
  <path d="M14.123,16.292C14.223,17.904 13.738,19.498 12.757,20.781C11.803,21.866 10.405,22.455 8.963,22.38C7.522,22.452 6.126,21.87 5.164,20.797C4.174,19.537 3.676,17.961 3.762,16.361L3.762,13.904C3.663,12.25 4.149,10.613 5.134,9.281C6.073,8.161 7.483,7.546 8.942,7.619C10.387,7.551 11.781,8.154 12.722,9.252C13.716,10.566 14.213,12.189 14.123,13.835ZM11.212,13.885C11.275,12.89 11.085,11.895 10.659,10.994C10.315,10.375 9.649,10.008 8.942,10.046C8.247,10.006 7.588,10.359 7.235,10.959C6.81,11.82 6.613,12.777 6.663,13.736L6.663,16.292C6.597,17.252 6.791,18.211 7.225,19.069C7.596,19.664 8.263,20.007 8.962,19.963C9.642,20.003 10.29,19.668 10.649,19.089C11.076,18.253 11.27,17.318 11.211,16.381ZM26.25,22.183L23.349,22.183L19.106,12.759L19.106,22.183L16.205,22.183L16.205,7.816L19.106,7.816L23.359,17.249L23.359,7.816L26.25,7.816Z" fill="#3B4961" atv:refpx="15" id="bgColor00" atv:refpy="15" stroke-width="1"/>
 </g>
</svg>
