<svg width="30" xmlns:atv="http://webmi.atvise.com/2007/svgext" height="30" xmlns="http://www.w3.org/2000/svg" xmlns:xlink="http://www.w3.org/1999/xlink">
 <defs/>
 <metadata>
  <atv:gridconfig width="20" height="20" enabled="false" gridstyle="lines"/>
  <atv:snapconfig width="10" height="10" enabled="false"/>
 </metadata>
 <g atv:refpx="15" id="id_1" atv:refpy="15">
  <g atv:refpx="15" id="id_0" atv:refpy="15">
   <rect width="30" x="0" fill="#a2b2d8" height="30" opacity="0" atv:refpx="15" id="area" atv:refpy="15" stroke-width="1" y="0"/>
   <path d="M10.366,16.291C10.466,17.902 9.982,19.496 9.001,20.778C8.048,21.862 6.651,22.451 5.209,22.376C3.77,22.448 2.375,21.866 1.412,20.793C0.424,19.534 -0.073,17.959 0.012,16.36L0.012,13.904C-0.086,12.251 0.398,10.616 1.383,9.284C2.321,8.165 3.73,7.55 5.189,7.623C6.632,7.555 8.026,8.158 8.966,9.255C9.96,10.568 10.456,12.191 10.366,13.835ZM7.457,13.885C7.52,12.89 7.33,11.896 6.905,10.995C6.561,10.378 5.895,10.01 5.189,10.049C4.494,10.009 3.836,10.361 3.483,10.961C3.058,11.822 2.861,12.777 2.911,13.736L2.911,16.291C2.845,17.25 3.039,18.209 3.473,19.067C3.844,19.661 4.51,20.004 5.209,19.96C5.888,20 6.536,19.665 6.895,19.086C7.321,18.251 7.515,17.316 7.457,16.38ZM19.853,16.32L15.346,16.32L15.346,22.178L12.447,22.178L12.447,7.82L20.395,7.82L20.395,10.236L15.346,10.236L15.346,13.914L19.853,13.914ZM29.457,16.32L24.95,16.32L24.95,22.178L22.051,22.178L22.051,7.82L29.999,7.82L29.999,10.236L24.95,10.236L24.95,13.914L29.457,13.914Z" fill="#3B4961" atv:refpx="15" id="bgColor00" atv:refpy="15" stroke-width="1"/>
  </g>
 </g>
</svg>
