<svg width="30" xmlns:atv="http://webmi.atvise.com/2007/svgext" height="30" xmlns="http://www.w3.org/2000/svg" xmlns:xlink="http://www.w3.org/1999/xlink">
 <defs/>
 <metadata>
  <atv:gridconfig width="20" height="20" enabled="false" gridstyle="lines"/>
  <atv:snapconfig width="10" height="10" enabled="false"/>
 </metadata>
 <g atv:refpx="15" id="id_1" atv:refpy="15">
  <rect width="30" x="0" fill="#a2b2d8" height="30" opacity="0" atv:refpx="15" id="area" atv:refpy="15" stroke-width="1" y="0"/>
  <g transform="matrix(1.4987,0,0,1.4987,-8.6154,-8.6154)" atv:refpx="15" id="id_0" atv:refpy="15">
   <path d="M15.757,7.983L15.757,6.244C15.759,6.047 15.641,5.869 15.459,5.795C15.277,5.72 15.068,5.763 14.931,5.904L12.21,8.615C12.117,8.706 12.064,8.83 12.064,8.96C12.064,9.09 12.117,9.214 12.21,9.305L14.921,12.016C15.062,12.154 15.273,12.195 15.455,12.118C15.637,12.042 15.756,11.864 15.757,11.666L15.757,9.927C18.976,9.929 21.584,12.538 21.587,15.757C21.591,16.507 21.445,17.25 21.159,17.943C21.023,18.294 21.111,18.693 21.383,18.954C21.615,19.185 21.948,19.285 22.269,19.218C22.589,19.152 22.855,18.928 22.976,18.624C23.344,17.713 23.532,16.739 23.53,15.757C23.531,11.463 20.05,7.982 15.757,7.983M15.757,21.587C12.538,21.584 9.929,18.976 9.927,15.757C9.923,15.007 10.068,14.264 10.354,13.57C10.49,13.219 10.402,12.821 10.131,12.56C9.899,12.328 9.566,12.229 9.245,12.295C8.924,12.362 8.658,12.585 8.537,12.89C8.169,13.801 7.981,14.774 7.983,15.757C7.982,20.05 11.463,23.531 15.757,23.53L15.757,25.269C15.755,25.466 15.873,25.644 16.055,25.719C16.237,25.794 16.446,25.751 16.583,25.609L19.294,22.898C19.387,22.808 19.439,22.683 19.439,22.553C19.439,22.424 19.387,22.299 19.294,22.208L16.583,19.497C16.443,19.36 16.234,19.321 16.053,19.397C15.872,19.474 15.756,19.651 15.757,19.847ZM17.537,15.957C18.132,17.057 18.032,18.757 15.757,18.757C13.481,18.757 13.382,17.057 13.976,15.957C14.569,14.857 15.757,12.757 15.757,12.757C15.757,12.757 16.943,14.857 17.537,15.957" fill="#3B4961" atv:refpx="15.757" id="bgColor00" atv:refpy="15.757" stroke-width="1"/>
  </g>
 </g>
</svg>
