<svg width="30" xmlns:atv="http://webmi.atvise.com/2007/svgext" height="30" xmlns="http://www.w3.org/2000/svg" xmlns:xlink="http://www.w3.org/1999/xlink">
 <defs/>
 <metadata>
  <atv:gridconfig width="20" height="20" enabled="false" gridstyle="lines"/>
  <atv:snapconfig width="10" height="10" enabled="false"/>
 </metadata>
 <g atv:refpx="15" id="id_0" atv:refpy="15">
  <rect width="30" x="0" fill="#a2b2d8" height="30" opacity="0" atv:refpx="15" id="area" atv:refpy="15" stroke-width="1" y="0"/>
  <path d="M9.249,27.852L6.877,27.852C5.151,27.851 3.752,26.453 3.75,24.727L3.75,5.272C3.752,3.547 5.151,2.149 6.877,2.147L9.249,2.148C9.168,2.467 9.125,2.796 9.122,3.126L9.122,4.232L6.877,4.232C6.302,4.232 5.836,4.698 5.835,5.273L5.835,24.727C5.836,25.302 6.302,25.768 6.877,25.768L9.122,25.768L9.122,26.875C9.125,27.204 9.168,27.532 9.249,27.852M23.245,27.85C24.922,27.782 26.247,26.404 26.25,24.727L26.25,5.272C26.247,3.595 24.922,2.217 23.245,2.149L13.547,0.024L13.324,0C11.599,0.001 10.199,1.399 10.197,3.124L10.197,26.875C10.199,28.6 11.599,29.998 13.324,29.999L13.437,30ZM22.898,4.207L23.122,4.231C23.697,4.231 24.163,4.697 24.164,5.272L24.164,24.727C24.163,25.302 23.697,25.768 23.122,25.768L13.231,27.911C12.694,27.862 12.282,27.412 12.282,26.873L12.282,3.125C12.282,2.586 12.694,2.136 13.231,2.088ZM16.075,16.073L16.075,13.926C16.054,13.347 15.579,12.889 15,12.889C14.421,12.889 13.946,13.347 13.926,13.926L13.926,16.073C13.946,16.652 14.421,17.11 15,17.11C15.579,17.11 16.054,16.652 16.075,16.073" fill="#3B4961" atv:refpx="15" id="bgColor00" atv:refpy="15" stroke-width="1"/>
 </g>
</svg>
