<?xml version="1.0" encoding="utf-8"?>
<!-- Generator: Adobe Illustrator 19.2.1, SVG Export Plug-In . SVG Version: 6.00 Build 0)  -->
<!DOCTYPE svg PUBLIC "-//W3C//DTD SVG 1.0//EN" "http://www.w3.org/TR/2001/REC-SVG-20010904/DTD/svg10.dtd">
<svg version="1.0" id="Livello_1" xmlns="http://www.w3.org/2000/svg" xmlns:xlink="http://www.w3.org/1999/xlink" x="0px" y="0px"
	 viewBox="0 0 140 140" enable-background="new 0 0 140 140" xml:space="preserve">
<g id="Livello_2">
	<g opacity="0.8">
		<circle fill="#9E9E9E" cx="70" cy="70" r="69.1"/>
		<g>
			<path fill="#FFFFFF" d="M26.1,111.1c2.3-2.2,4.7-4.4,6.9-6.5c-7.5-13.4-2.6-23.3,7.9-31.8c-1.3-1.4-2.5-2.5-3.4-3.8
				c-1.8-2.4-0.5-5.7,2.5-5.7c1.2,0,2.6,0.8,3.5,1.7c6.7,6.6,13.3,13.2,19.9,19.8c4.7,4.7,9.4,9.3,14,14.1c0.8,0.9,1.6,2.2,1.6,3.4
				c0,2.9-3.3,4.3-5.6,2.6c-1.3-1-2.5-2.2-3.9-3.5c-1.6,1.6-3.3,3.1-4.7,4.8c-6.3,7.2-17.3,9-25.5,4.1c-1.1-0.6-1.6-0.5-2.4,0.3
				c-1.8,1.9-3.8,3.7-5.7,5.6c-1.7,0-3.3,0-5,0C26.1,114.5,26.1,112.8,26.1,111.1z"/>
			<path fill="#FFFFFF" d="M74.8,39.4c2.2-2.4,4.2-4.9,6.5-7c6.3-5.7,16.2-6.5,23.5-2.1c1.1,0.6,1.6,0.5,2.4-0.3
				c1.4-1.5,2.8-2.9,4.3-4.3c1.8-1.7,4-1.8,5.6-0.2c1.3,1.4,1.2,3.6-0.4,5.3c-1.8,1.8-3.6,3.6-5,5c1,3.7,2.4,6.9,2.8,10.3
				c0.9,6.5-1.4,12-6,16.7c-1.7,1.7-3.5,3.4-5.5,5.4c1.1,1,2.1,1.7,3,2.6c1.8,1.9,2,4.3,0.5,5.7c-1.7,1.6-3.7,1.4-5.7-0.5
				c-2.5-2.4-4.9-4.9-7.4-7.5c-3.7,3.7-7.2,7.3-10.8,10.8c-0.6,0.6-1.4,1.2-2.2,1.5c-1.6,0.6-3.3-0.1-4.1-1.3
				c-0.9-1.5-0.8-3.2,0.5-4.6c3.3-3.4,6.7-6.7,10-10c0.5-0.5,0.9-0.9,1.2-1.3c-3-3-6-6-9.1-9c-3.7,3.7-7.5,7.5-11.3,11.3
				c-1.3,1.3-2.7,1.3-4.2,0.7c-1.5-0.6-2-2-1.8-3.4c0.1-1,0.8-2.1,1.5-2.9c3.5-3.6,7.2-7.2,11-11c-2-2-4-4-5.9-6
				c-1-1.1-2.1-2.1-2.8-3.4c-0.9-1.6-0.3-3.1,1.1-4.1c1.4-1.1,2.9-1,4.3,0C71.9,36.7,73.1,37.9,74.8,39.4z"/>
		</g>
	</g>
</g>
</svg>
