<?xml version="1.0" encoding="utf-8"?>
<!-- Generator: Adobe Illustrator 19.2.1, SVG Export Plug-In . SVG Version: 6.00 Build 0)  -->
<!DOCTYPE svg PUBLIC "-//W3C//DTD SVG 1.0//EN" "http://www.w3.org/TR/2001/REC-SVG-20010904/DTD/svg10.dtd">
<svg version="1.0" id="Livello_1" xmlns="http://www.w3.org/2000/svg" xmlns:xlink="http://www.w3.org/1999/xlink" x="0px" y="0px"
	 viewBox="0 0 24 24" style="enable-background:new 0 0 24 24;" xml:space="preserve">
<g id="Livello_33">
	<path d="M23.2,11.3l-6.3-5.4c-0.2-0.2-0.6,0-0.6,0.2l0.4,4.5c-1.8,0-4.4,0-5,0C11.1,10.1,5.8,3,5.8,3H1.7C1.1,3,0.5,3.6,0.5,4.2
		s0.6,1.2,1.2,1.2c0,0,2.2,0,3.1,0c0.4,0.4,2.5,3.2,4.1,5.3H1.7c-0.7,0-1.2,0.6-1.2,1.2c0,0.7,0.6,1.2,1.2,1.2h7.1
		c-1.5,2-3.6,4.9-4,5.3c-0.9,0-3.1,0-3.1,0c-0.7,0-1.2,0.6-1.2,1.2c0,0.7,0.6,1.2,1.2,1.2h4.1l6-7.8h4.9l-0.4,4.4
		c0,0.3,0.4,0.4,0.6,0.2l6.3-5.4C23.6,12.1,23.6,11.6,23.2,11.3z"/>
</g>
</svg>
