<?xml version="1.0" encoding="utf-8"?>
<!-- Generator: Adobe Illustrator 19.2.1, SVG Export Plug-In . SVG Version: 6.00 Build 0)  -->
<!DOCTYPE svg PUBLIC "-//W3C//DTD SVG 1.0//EN" "http://www.w3.org/TR/2001/REC-SVG-20010904/DTD/svg10.dtd">
<svg version="1.0" id="Livello_1" xmlns="http://www.w3.org/2000/svg" xmlns:xlink="http://www.w3.org/1999/xlink" x="0px" y="0px"
	 viewBox="0 0 24 24" style="enable-background:new 0 0 24 24;" xml:space="preserve">
<style type="text/css">
	.st0{fill:#1A171B;}
</style>
<g id="Livello_35">
	<g>
		<path class="st0" d="M20.3,7.1l-3.5-3c-0.1-0.1-0.3,0-0.3,0.1L16.6,6h-3.3c-0.2,0-0.4,0.2-0.4,0.4v2.1c0,0.2,0.2,0.4,0.4,0.4h3.3
			l-0.1,1.7c0,0.1,0.2,0.2,0.3,0.1l3.5-3C20.5,7.5,20.5,7.3,20.3,7.1z"/>
		<g>
			<path d="M18.1,21.3c-1.3,0-2.6-0.5-3.5-1.5c-0.9-0.9-1.5-2.2-1.5-3.5s0.5-2.6,1.5-3.5c0.9-0.9,2.2-1.5,3.5-1.5l0,0l0,0
				c1.3,0,2.6,0.5,3.5,1.5c0.9,0.9,1.5,2.2,1.5,3.5C23,19.1,20.8,21.3,18.1,21.3L18.1,21.3z M18.1,12.4c-1.1,0-2.1,0.4-2.8,1.2
				c-0.8,0.8-1.2,1.8-1.2,2.8c0,1.1,0.4,2.1,1.2,2.8c0.8,0.8,1.7,1.2,2.8,1.2l0,0c2.2,0,4-1.8,4-4c0-1.1-0.4-2-1.2-2.8
				C20.1,12.8,19.1,12.4,18.1,12.4L18.1,12.4z"/>
		</g>
		<rect x="15.2" y="15.6" width="5.7" height="1.5"/>
		<g>
			<path class="st0" d="M15.2,5.3V3.5c0-0.2-0.2-0.4-0.4-0.4h-13c-0.2,0-0.4,0.2-0.4,0.4v8.3c0,0.2,0.2,0.4,0.4,0.4h4.3l-0.4,2H4.4
				v0.6h8v-0.6H11l-0.3-2h4.2c0.2,0,0.4-0.2,0.4-0.4V9.9H14v1.2H2.7V4.2H14v1.1C14,5.3,15.2,5.3,15.2,5.3z"/>
		</g>
	</g>
</g>
</svg>
