<?xml version="1.0" encoding="utf-8"?>
<!-- Generator: Adobe Illustrator 19.2.1, SVG Export Plug-In . SVG Version: 6.00 Build 0)  -->
<!DOCTYPE svg PUBLIC "-//W3C//DTD SVG 1.0//EN" "http://www.w3.org/TR/2001/REC-SVG-20010904/DTD/svg10.dtd">
<svg version="1.0" id="Livello_1" xmlns="http://www.w3.org/2000/svg" xmlns:xlink="http://www.w3.org/1999/xlink" x="0px" y="0px"
	 viewBox="0 0 24 24" style="enable-background:new 0 0 24 24;" xml:space="preserve">
<style type="text/css">
	.st0{display:none;}
	.st1{display:inline;fill:#1A171B;}
	.st2{display:inline;}
	.st3{fill:#1A171B;}
</style>
<g id="Livello_1_1_" class="st0">
	<polygon class="st1" points="24,8.9 15.1,8.9 15.1,0 8.9,0 8.9,8.9 0,8.9 0,15.1 8.9,15.1 8.9,24 15.1,24 15.1,15.1 24,15.1 	"/>
</g>
<g id="Livello_2" class="st0">
	<g class="st2">
		<path class="st3" d="M0,8.9v5.7h24V8.9H0z"/>
	</g>
</g>
<g id="Livello_3" class="st0">
	<path class="st1" d="M13,23.5l9.4-11.1c0.3-0.4,0.1-1-0.4-1l-5.5,0.3V1.3C16.5,0.6,16,0,15.3,0L8.7,0C8,0,7.5,0.6,7.5,1.3v10.4
		L2,11.4c-0.5,0-0.7,0.6-0.4,1l9.5,11.1C11.6,24.1,12.5,24.1,13,23.5z"/>
</g>
<g id="Livello_4" class="st0">
	<g id="XMLID_19_" class="st2">
		<g id="XMLID_21_">
			<path id="XMLID_3861_" class="st3" d="M20.1,5v1.5c0,1-0.8,2.1-2.2,2.1c-1.4,0-2.3-1.3-2.3-2.1V5L7.9,5v1.5c0,0.9-0.8,2-2.2,2
				s-2.3-1.2-2.3-2V5H0.5v17.8h23V5H20.1z M22.4,21.6h-21V9.9h21V21.6z"/>
			<g id="XMLID_3576_">
				<path id="XMLID_3764_" class="st3" d="M5.6,7.6c-0.5,0-0.9-0.4-0.9-0.9V2.1c0-0.5,0.4-0.9,0.9-0.9s0.9,0.4,0.9,0.9v4.6
					C6.5,7.2,6.1,7.6,5.6,7.6L5.6,7.6z"/>
			</g>
			<g id="XMLID_3471_">
				<path id="XMLID_3480_" class="st3" d="M18,7.5c-0.5,0-0.9-0.4-0.9-0.9V2c0-0.5,0.4-0.9,0.9-0.9s0.9,0.4,0.9,0.9v4.6
					C18.8,7.1,18.4,7.5,18,7.5L18,7.5z"/>
			</g>
			<g id="XMLID_3346_">
				<path id="XMLID_3379_" class="st3" d="M12.5,19.6H5.7c0.1-0.7,0.3-1.3,0.7-1.9c0.4-0.6,1.1-1.3,2.2-2.1c0.7-0.5,1.1-0.9,1.3-1.1
					c0.2-0.3,0.3-0.5,0.3-0.7s-0.1-0.5-0.3-0.6c-0.2-0.2-0.4-0.3-0.7-0.3S8.7,13,8.5,13.2s-0.3,0.5-0.4,1L5.8,14
					c0.1-0.6,0.3-1.1,0.5-1.5s0.6-0.6,1-0.8s1-0.3,1.8-0.3s1.4,0.1,1.9,0.3c0.4,0.2,0.8,0.5,1,0.8c0.3,0.4,0.4,0.8,0.4,1.3
					s-0.1,1-0.4,1.4c-0.3,0.4-0.8,0.9-1.6,1.5c-0.5,0.3-0.8,0.5-0.9,0.7c-0.2,0.1-0.3,0.3-0.5,0.5h3.5V19.6z"/>
				<path id="XMLID_3377_" class="st3" d="M18.6,11.3v8.3h-2.3v-5.4c-0.4,0.3-0.7,0.5-1.1,0.7c-0.3,0.2-0.8,0.3-1.3,0.5v-1.9
					c0.8-0.2,1.4-0.5,1.8-0.9c0.4-0.3,0.8-0.8,1-1.3L18.6,11.3z"/>
			</g>
		</g>
	</g>
</g>
<g id="Livello_5">
	<g>
		<path d="M19.1,17.1l-4.3,3l5.4,3.3c0.1,0,0.2,0.1,0.2,0.1c0.2,0,0.3-0.2,0.2-0.4L19.1,17.1z"/>
		<polygon class="st3" points="9.7,2.9 9.7,2.9 9.7,3 		"/>
		<polygon points="13.8,19 18.6,15.7 10.6,4.3 5.9,7.6 		"/>
		<path class="st3" d="M9.7,3L9.7,3L9.7,3z"/>
		<path d="M4.9,6.3l4.8-3.4L8.3,1C8.1,0.7,7.8,0.5,7.4,0.5C7.2,0.5,7,0.6,6.8,0.7l-3,2.1c-0.5,0.3-0.6,1-0.3,1.5L4.9,6.3z"/>
	</g>
</g>
</svg>
