<?xml version="1.0" encoding="utf-8"?>
<!-- Generator: Adobe Illustrator 19.2.1, SVG Export Plug-In . SVG Version: 6.00 Build 0)  -->
<!DOCTYPE svg PUBLIC "-//W3C//DTD SVG 1.0//EN" "http://www.w3.org/TR/2001/REC-SVG-20010904/DTD/svg10.dtd">
<svg version="1.0" id="Livello_1" xmlns="http://www.w3.org/2000/svg" xmlns:xlink="http://www.w3.org/1999/xlink" x="0px" y="0px"
	 viewBox="0 0 24 24" style="enable-background:new 0 0 24 24;" xml:space="preserve">
<path d="M9.9,20c0,0,0,0.1,0,0.3c0,0.2,0,0.3,0,0.4c0,0.1,0,0.2,0,0.3c0,0.1-0.1,0.2-0.1,0.3c-0.1,0.1-0.2,0.1-0.3,0.1H4.7
	c-1.2,0-2.2-0.4-3-1.2c-0.8-0.8-1.2-1.8-1.2-3V6.8c0-1.2,0.4-2.2,1.2-3s1.8-1.2,3-1.2h4.7c0.1,0,0.2,0,0.3,0.1
	C9.8,2.8,9.9,3,9.9,3.1c0,0,0,0.1,0,0.3s0,0.3,0,0.4c0,0.1,0,0.2,0,0.3c0,0.1-0.1,0.2-0.1,0.3C9.6,4.5,9.5,4.5,9.4,4.5H4.7
	c-0.6,0-1.2,0.2-1.7,0.7s-0.7,1-0.7,1.7v10.3c0,0.6,0.2,1.2,0.7,1.7c0.5,0.5,1,0.7,1.7,0.7h4.6c0,0,0.1,0,0.2,0s0.2,0,0.2,0
	c0,0,0,0,0.1,0.1c0.1,0,0.1,0.1,0.1,0.1C9.8,19.8,9.9,19.9,9.9,20L9.9,20z M23.5,12c0,0.3-0.1,0.5-0.3,0.7l-8,8
	c-0.2,0.2-0.4,0.3-0.7,0.3s-0.5-0.1-0.7-0.3c-0.2-0.2-0.3-0.4-0.3-0.7v-4.2H7.1c-0.3,0-0.5-0.1-0.7-0.3c-0.2-0.2-0.3-0.4-0.3-0.7
	V9.2c0-0.3,0.1-0.5,0.3-0.7c0.2-0.2,0.4-0.3,0.7-0.3h6.6V4c0-0.3,0.1-0.5,0.3-0.7c0.2-0.2,0.4-0.3,0.7-0.3s0.5,0.1,0.7,0.3l8,8
	C23.4,11.5,23.5,11.7,23.5,12L23.5,12z"/>
</svg>
