<?xml version="1.0" encoding="utf-8"?>
<!-- Generator: Adobe Illustrator 19.2.1, SVG Export Plug-In . SVG Version: 6.00 Build 0)  -->
<!DOCTYPE svg PUBLIC "-//W3C//DTD SVG 1.0//EN" "http://www.w3.org/TR/2001/REC-SVG-20010904/DTD/svg10.dtd">
<svg version="1.0" id="Livello_1" xmlns="http://www.w3.org/2000/svg" xmlns:xlink="http://www.w3.org/1999/xlink" x="0px" y="0px"
	 viewBox="0 0 24 24" style="enable-background:new 0 0 24 24;" xml:space="preserve">
<style type="text/css">
	.st0{fill:#1A171B;}
</style>
<g id="Livello_33">
	<g>
		<path class="st0" d="M0.5,9.5c0.1,0.3,0.4,0.4,0.8,0.3l2.1-0.7c2.2,4.5,6.6,6.7,10.1,5.2c-2.9-0.2-5.1-2.5-6.1-5.8
			c0-0.2-0.1-0.4-0.1-0.6l2-0.7c0.4-0.1,0.6-0.4,0.5-0.7c0-0.1-0.2-0.3-0.3-0.4L4,1.9C3.4,1.5,2.8,1.7,2.6,2.4L0.6,9
			C0.5,9.2,0.5,9.4,0.5,9.5L0.5,9.5z"/>
		<path class="st0" d="M19,22.3h-5v-5.6l0.6-0.6v-4.2L14,11.6v-6h4.9v2h2.3c0.7,0.2,0.8,0.7,0.8,1v1.7h0.7l0.1,0.3
			c1.5,3.4,0.1,6.6,0,6.7l-0.1,0.3H22v1.8c-0.1,0.4-0.5,0.7-0.8,0.7H19V22.3L19,22.3z M15.2,21.2h2.7v-2.1h3v-2.5H22
			c0.3-0.8,0.8-2.9,0-5.1h-1.1V8.8h-3.1v-2h-2.7v4.1l0.7,0.3V17h-0.5l-0.2,0.2v4H15.2z"/>
	</g>
</g>
</svg>
