<?xml version="1.0" encoding="utf-8"?>
<!-- Generator: Adobe Illustrator 19.2.1, SVG Export Plug-In . SVG Version: 6.00 Build 0)  -->
<!DOCTYPE svg PUBLIC "-//W3C//DTD SVG 1.0//EN" "http://www.w3.org/TR/2001/REC-SVG-20010904/DTD/svg10.dtd">
<svg version="1.0" id="Livello_1" xmlns="http://www.w3.org/2000/svg" xmlns:xlink="http://www.w3.org/1999/xlink" x="0px" y="0px"
	 viewBox="0 0 24 24" style="enable-background:new 0 0 24 24;" xml:space="preserve">
<style type="text/css">
	.st0{fill:#1A171B;}
</style>
<g id="Livello_31">
	<g>
		<path class="st0" d="M13.1,11.3c-1.1-1.1-2.9-1.1-3.9,0c-1.1,1.1-1.1,2.9,0,4s2.9,1.1,4,0C14.2,14.1,14.2,12.4,13.1,11.3z"/>
		<path class="st0" d="M17.5,19.7c1.8-1.9,2.7-4.3,2.6-6.7h-2.4c0.1,1.8-0.6,3.7-2,5.1c-2.6,2.6-6.9,2.6-9.5,0s-2.6-6.9,0-9.5
			c1.4-1.4,3.2-2,5.1-2V4.2C9,4.1,6.5,5,4.7,6.8c-3.6,3.6-3.6,9.3,0,12.9C8.2,23.2,14,23.2,17.5,19.7z"/>
		<polygon class="st0" points="23,3.6 21.3,1.9 16.6,6.7 15.9,4 14.1,10.8 20.9,9 18.3,8.3 		"/>
	</g>
</g>
</svg>
