<?xml version="1.0" encoding="utf-8"?>
<!-- Generator: Adobe Illustrator 19.2.1, SVG Export Plug-In . SVG Version: 6.00 Build 0)  -->
<!DOCTYPE svg PUBLIC "-//W3C//DTD SVG 1.0//EN" "http://www.w3.org/TR/2001/REC-SVG-20010904/DTD/svg10.dtd">
<svg version="1.0" id="Livello_1" xmlns="http://www.w3.org/2000/svg" xmlns:xlink="http://www.w3.org/1999/xlink" x="0px" y="0px"
	 viewBox="0 0 24 24" style="enable-background:new 0 0 24 24;" xml:space="preserve">
<style type="text/css">
	.st0{fill:#1A171B;}
</style>
<g id="Livello_32">
	<g>
		<path class="st0" d="M8.1,16.1c-0.3,0-0.5-0.2-0.5-0.6v-1.9C3.3,13,0.2,9.9,0.5,6.5C1.5,8.8,4,10,7,10c0.2,0,0.4,0,0.6,0V8.1
			c0-0.4,0.2-0.6,0.5-0.6c0.1,0,0.3,0.1,0.5,0.2l4.9,3.5c0.5,0.4,0.5,0.9,0,1.3L8.6,16C8.4,16,8.2,16.1,8.1,16.1L8.1,16.1z"/>
		<path class="st0" d="M19.5,19.4h-4.3v-4.9l0.6-0.5v-3.7L15.1,10V4.6h4.3v1.8h2C22,6.6,22.1,7,22.1,7.2v1.5h0.6L22.8,9
			c1.3,3,0.1,5.8,0,5.9l-0.1,0.3h-0.6v1.6c-0.1,0.4-0.4,0.6-0.7,0.6h-2L19.5,19.4L19.5,19.4z M16.1,18.4h2.4v-1.9h2.7v-2.2h0.9
			c0.2-0.7,0.7-2.6,0-4.5h-0.9V7.4h-2.7V5.6h-2.4v3.6l0.6,0.2v5.2h-0.4l-0.2,0.2V18.4L16.1,18.4z"/>
	</g>
</g>
</svg>
