<?xml version="1.0" encoding="utf-8"?>
<!-- Generator: Adobe Illustrator 19.2.1, SVG Export Plug-In . SVG Version: 6.00 Build 0)  -->
<!DOCTYPE svg PUBLIC "-//W3C//DTD SVG 1.0//EN" "http://www.w3.org/TR/2001/REC-SVG-20010904/DTD/svg10.dtd">
<svg version="1.0" id="Livello_1" xmlns="http://www.w3.org/2000/svg" xmlns:xlink="http://www.w3.org/1999/xlink" x="0px" y="0px"
	 viewBox="0 0 24 24" style="enable-background:new 0 0 24 24;" xml:space="preserve">
<style type="text/css">
	.st0{display:none;}
	.st1{display:inline;fill:#1A171B;}
	.st2{display:inline;}
	.st3{fill:#1A171B;}
</style>
<g id="Livello_1_1_" class="st0">
	<polygon class="st1" points="24,8.9 15.1,8.9 15.1,0 8.9,0 8.9,8.9 0,8.9 0,15.1 8.9,15.1 8.9,24 15.1,24 15.1,15.1 24,15.1 	"/>
</g>
<g id="Livello_2" class="st0">
	<g class="st2">
		<path class="st3" d="M0,8.9v5.7h24V8.9H0z"/>
	</g>
</g>
<g id="Livello_3" class="st0">
	<path class="st1" d="M13,23.5l9.4-11.1c0.3-0.4,0.1-1-0.4-1l-5.5,0.3V1.3C16.5,0.6,16,0,15.3,0L8.7,0C8,0,7.5,0.6,7.5,1.3v10.4
		L2,11.4c-0.5,0-0.7,0.6-0.4,1l9.5,11.1C11.6,24.1,12.5,24.1,13,23.5z"/>
</g>
<g id="Livello_4" class="st0">
	<g id="XMLID_19_" class="st2">
		<g id="XMLID_21_">
			<path id="XMLID_3861_" class="st3" d="M20.1,5v1.5c0,1-0.8,2.1-2.2,2.1c-1.4,0-2.3-1.3-2.3-2.1V5L7.9,5v1.5c0,0.9-0.8,2-2.2,2
				s-2.3-1.2-2.3-2V5H0.5v17.8h23V5H20.1z M22.4,21.6h-21V9.9h21V21.6z"/>
			<g id="XMLID_3576_">
				<path id="XMLID_3764_" class="st3" d="M5.6,7.6c-0.5,0-0.9-0.4-0.9-0.9V2.1c0-0.5,0.4-0.9,0.9-0.9s0.9,0.4,0.9,0.9v4.6
					C6.5,7.2,6.1,7.6,5.6,7.6L5.6,7.6z"/>
			</g>
			<g id="XMLID_3471_">
				<path id="XMLID_3480_" class="st3" d="M18,7.5c-0.5,0-0.9-0.4-0.9-0.9V2c0-0.5,0.4-0.9,0.9-0.9s0.9,0.4,0.9,0.9v4.6
					C18.8,7.1,18.4,7.5,18,7.5L18,7.5z"/>
			</g>
			<g id="XMLID_3346_">
				<path id="XMLID_3379_" class="st3" d="M12.5,19.6H5.7c0.1-0.7,0.3-1.3,0.7-1.9c0.4-0.6,1.1-1.3,2.2-2.1c0.7-0.5,1.1-0.9,1.3-1.1
					c0.2-0.3,0.3-0.5,0.3-0.7s-0.1-0.5-0.3-0.6c-0.2-0.2-0.4-0.3-0.7-0.3S8.7,13,8.5,13.2s-0.3,0.5-0.4,1L5.8,14
					c0.1-0.6,0.3-1.1,0.5-1.5s0.6-0.6,1-0.8s1-0.3,1.8-0.3s1.4,0.1,1.9,0.3c0.4,0.2,0.8,0.5,1,0.8c0.3,0.4,0.4,0.8,0.4,1.3
					s-0.1,1-0.4,1.4c-0.3,0.4-0.8,0.9-1.6,1.5c-0.5,0.3-0.8,0.5-0.9,0.7c-0.2,0.1-0.3,0.3-0.5,0.5h3.5V19.6z"/>
				<path id="XMLID_3377_" class="st3" d="M18.6,11.3v8.3h-2.3v-5.4c-0.4,0.3-0.7,0.5-1.1,0.7c-0.3,0.2-0.8,0.3-1.3,0.5v-1.9
					c0.8-0.2,1.4-0.5,1.8-0.9c0.4-0.3,0.8-0.8,1-1.3L18.6,11.3z"/>
			</g>
		</g>
	</g>
</g>
<g id="Livello_5" class="st0">
	<g class="st2">
		<path class="st3" d="M19.1,17.1l-4.3,3l5.4,3.3c0.1,0,0.2,0.1,0.2,0.1c0.2,0,0.3-0.2,0.2-0.4L19.1,17.1z"/>
		<polygon class="st3" points="9.7,2.9 9.7,2.9 9.7,3 		"/>
		<polygon class="st3" points="13.8,19 18.6,15.7 10.6,4.3 5.9,7.6 		"/>
		<path class="st3" d="M9.7,3L9.7,3L9.7,3z"/>
		<path class="st3" d="M4.9,6.3l4.8-3.4L8.3,1C8.1,0.7,7.8,0.5,7.4,0.5C7.2,0.5,7,0.6,6.8,0.7l-3,2.1c-0.5,0.3-0.6,1-0.3,1.5
			L4.9,6.3z"/>
	</g>
</g>
<g id="Livello_6" class="st0">
	<g class="st2">
		<path class="st3" d="M11.7,23.5l-6.5-3.7l6.5-3.7l-0.2,2.5h0.6c3.5-0.1,6.3-3,6.3-6.5c0-1.1-0.2-2-0.7-3l-0.2-0.4l2.3-1.3l0.3,0.5
			c0.7,1.3,1.1,2.8,1.1,4.3c0,5-4,9.1-9,9.1h-0.6L11.7,23.5z M4.1,16.6l-0.2-0.5c-0.6-1.2-0.9-2.6-0.9-4C2.9,7.1,7,3,12,3h0.6
			l-0.2-2.5l6.5,3.7L12.4,8l0.2-2.3H12c-3.6,0-6.4,2.9-6.4,6.5c0,1,0.2,1.9,0.6,2.7l0.2,0.4L4.1,16.6z"/>
	</g>
</g>
<g id="Livello_7" class="st0">
	<g id="Livello_5_1_" class="st2">
		<g id="XMLID_749_">
			<path class="st3" d="M18.8,23.9H5c-1,0-1.9-0.8-1.9-1.9V5.2c0-0.7,0.3-1.2,0.7-1.7l3-2.7c0.4-0.4,1-0.6,1.6-0.6H19
				C20,0.1,20.9,1,20.9,2v19.9C20.9,23,20,23.9,18.8,23.9z M8.5,0.9C8.1,0.9,7.7,1,7.4,1.3L4.4,4C4.1,4.3,3.9,4.7,3.9,5.2V22
				c0,0.6,0.5,1.1,1.1,1.1h13.8c0.7,0,1.3-0.6,1.3-1.3V2c0-0.6-0.5-1.1-1-1.1H8.5z"/>
			<polygon id="XMLID_1023_" points="4.4,4.5 8.1,1.3 8.3,1.3 8.3,4.6 4.4,4.6 			"/>
			<rect id="XMLID_5617_" x="5.2" y="8" width="13.6" height="0.7"/>
			<rect id="XMLID_1314_" x="12.5" y="4" width="6.2" height="0.7"/>
			<rect id="XMLID_754_" x="5.1" y="20.3" width="13.4" height="0.7"/>
			<rect id="XMLID_751_" x="5.1" y="12.1" width="13.6" height="0.7"/>
			<rect id="XMLID_752_" x="5.1" y="16.2" width="13.6" height="0.7"/>
		</g>
	</g>
</g>
<g id="Livello_8" class="st0">
	<g class="st2">
		<path class="st3" d="M13.9,15.2l-0.5,0.3c-0.5,0.4-1.1,0.6-1.8,0.6l0,0c-0.7,0-1.3-0.2-1.8-0.6l-0.4-0.2l-8,6.2
			c0.3,0.2,0.6,0.3,1,0.3l0,0h18.3c0.4,0,0.8-0.1,1.1-0.3L13.9,15.2L13.9,15.2L13.9,15.2z"/>
		<path class="st3" d="M0.6,9.1L0.6,9.1C0.5,9.3,0.5,9.5,0.5,9.7v10c0,0.3,0.1,0.6,0.2,0.8l7.8-6L0.6,9.1z"/>
		<path class="st3" d="M22.7,9.7c0-0.2,0-0.4-0.1-0.6l0,0l-7.7,5.4l7.7,6c0.1-0.2,0.1-0.5,0.1-0.8V9.7z"/>
		<path class="st3" d="M16.3,10.1V9.4c-2.3,0.1-4,1-4.8,2.4l-0.2,0.3c-0.3,0.5-0.6,0.8-1,0.8s-0.9-0.3-1-1.1c-0.1-1.4,0.2-2.8,1-4
			H1.8C1.6,7.8,1.4,7.9,1.2,8l9.1,6.4c0.3,0.3,0.8,0.4,1.3,0.4s0.9-0.1,1.3-0.4l4.1-2.9C16.5,11.2,16.3,10.7,16.3,10.1z"/>
		<path class="st3" d="M17.8,2.3c-0.3,0-0.4,0.2-0.4,0.6v1.9c-4.3,0.6-7.3,3.6-7,7c0.9-2.4,3.4-3.5,6.4-3.5c0.2,0,0.4,0,0.6,0v1.9
			c0,0.4,0.2,0.6,0.4,0.6c0.1,0,0.3-0.1,0.5-0.2l4.9-3.4c0.5-0.4,0.5-0.9,0-1.3l-4.9-3.4C18.1,2.3,17.9,2.3,17.8,2.3L17.8,2.3z"/>
	</g>
</g>
<g id="Livello_9" class="st0">
	<g class="st2">
		<path class="st3" d="M14.3,12.4l-0.5,0.3c-0.5,0.4-1.2,0.6-1.9,0.6l0,0c-0.7,0-1.4-0.2-1.9-0.6l-0.4-0.3l-8.3,6.4
			c0.3,0.2,0.6,0.3,1,0.3l0,0h19c0.4,0,0.8-0.1,1.1-0.4L14.3,12.4L14.3,12.4L14.3,12.4z"/>
		<path class="st3" d="M0.6,6.1L0.6,6.1C0.5,6.3,0.5,6.5,0.5,6.8v10.4c0,0.3,0.1,0.6,0.2,0.9l8-6.2L0.6,6.1z"/>
		<path class="st3" d="M23.5,6.8c0-0.2,0-0.4-0.1-0.7l0,0l-8,5.6l8,6.2c0.1-0.2,0.1-0.5,0.1-0.8V6.8z"/>
		<path class="st3" d="M22.8,4.9c-0.2-0.1-0.4-0.2-0.7-0.2H1.9c-0.2,0-0.5,0.1-0.7,0.2l5.2,3.7l0,0l4.2,3C11,11.9,11.5,12,12,12l0,0
			l0,0c0.5,0,1-0.1,1.3-0.4l4.2-3l0,0L22.8,4.9z"/>
	</g>
</g>
<g id="Livello_10" class="st0">
	<path class="st1" d="M22.6,1.6C21.7,1,20.5,1.3,20,2.2l-9.9,15.3l-4.9-6.4H0.5l0.1,0.2l8.1,10.6c0.4,0.5,0.9,0.7,1.5,0.7h0.1
		c0.6,0,1.2-0.4,1.5-0.9L23.2,4.3C23.8,3.4,23.5,2.2,22.6,1.6z"/>
</g>
<g id="Livello_11" class="st0">
	<path id="XMLID_4726_" class="st2" d="M15.6,0.3H2v23l19.7-0.1V6.4L15.6,0.3z M20.9,6.4h-5.6V0.8L20.9,6.4z M20.9,17.2H2.8V9.8
		h18.1V17.2z"/>
	<g class="st2">
		<path d="M6.5,11.3c0.3,0,0.7-0.1,1.2-0.1c0.6,0,1,0.1,1.3,0.4c0.3,0.2,0.4,0.6,0.4,1s-0.1,0.8-0.4,1c-0.3,0.3-0.8,0.5-1.4,0.5
			c-0.2,0-0.3,0-0.5,0V16H6.5V11.3z M7.1,13.5c0.1,0,0.3,0,0.5,0c0.7,0,1.2-0.4,1.2-1s-0.4-0.9-1.1-0.9c-0.3,0-0.5,0-0.6,0
			C7.1,11.6,7.1,13.5,7.1,13.5z"/>
		<path d="M10.2,11.3c0.4-0.1,0.8-0.1,1.3-0.1c0.9,0,1.5,0.2,1.9,0.6c0.4,0.4,0.7,0.9,0.7,1.7s-0.2,1.4-0.7,1.8
			C13,15.7,12.2,16,11.3,16c-0.4,0-0.8,0-1.1-0.1C10.2,15.9,10.2,11.3,10.2,11.3z M10.8,15.4c0.2,0,0.4,0,0.6,0c1.3,0,2-0.7,2-2
			c0-1.1-0.6-1.8-1.9-1.8c-0.3,0-0.5,0-0.7,0.1C10.8,11.7,10.8,15.4,10.8,15.4z"/>
		<path d="M14.8,11.2h2.5v0.5h-1.9v1.6h1.8v0.5h-1.8v2.1h-0.6C14.8,15.9,14.8,11.2,14.8,11.2z"/>
	</g>
</g>
<g id="Livello_12">
	<g id="XMLID_83_">
		<path id="XMLID_11153_" d="M1,16.6c0.4-3.4,0.8-6.7,1.2-10.1c1.7,0,3.1,0,4.6,0c0-2.1,0-4.1,0-6.2c4.2,0,8.2,0,12.3,0
			c0,2,0,4,0,6.1c1.3,0,2.4,0,3.5,0c1,2.1,1.7,7.6,1.3,10.2C16.4,16.6,8.9,16.6,1,16.6z M7.9,1.4c0,3,0,5.8,0,8.6
			c3.5,0,6.8,0,10.1,0c0-2.9,0-5.7,0-8.6C14.6,1.4,11.3,1.4,7.9,1.4z"/>
		<path id="XMLID_11137_" d="M4.3,23.1c0.2-1.1,0.4-2,0.6-3C4,20,3,20.1,2.5,19.7s-0.6-1.4-1-2.3c7.5,0,14.8,0,22.2,0
			c-0.1,2-0.6,2.4-3.1,2.6c0.2,1,0.3,2,0.5,3.1C15.5,23.1,10,23.1,4.3,23.1z M19.2,18.8c-4.3,0-8.5,0-12.9,0
			c-0.2,1.1-0.5,2.2-0.7,3.3c4.8,0,9.5,0,14.3,0C19.6,21,19.4,19.9,19.2,18.8z"/>
	</g>
</g>
</svg>
