<?xml version="1.0" encoding="utf-8"?>
<!-- Generator: Adobe Illustrator 19.2.1, SVG Export Plug-In . SVG Version: 6.00 Build 0)  -->
<!DOCTYPE svg PUBLIC "-//W3C//DTD SVG 1.0//EN" "http://www.w3.org/TR/2001/REC-SVG-20010904/DTD/svg10.dtd">
<svg version="1.0" id="Livello_1" xmlns="http://www.w3.org/2000/svg" xmlns:xlink="http://www.w3.org/1999/xlink" x="0px" y="0px"
	 viewBox="0 0 24 24" style="enable-background:new 0 0 24 24;" xml:space="preserve">
<g id="Livello_29">
	<g>
		<path d="M0.5,7.6h3.4c2.1,0,3.4,1,3.4,2.5c0,1-0.5,1.6-1.8,2.1c0.9,0.4,1.3,2.4,2.2,4.3H5.2l-0.6-1.7c-0.7-1.9-0.8-2.1-1.8-2.1
			v3.7H0.5V7.6z M3.6,11.2c0.8,0,1.3-0.4,1.3-1.1c0-0.7-0.4-1-1.3-1H2.9v2.1C2.9,11.2,3.6,11.2,3.6,11.2z"/>
		<path d="M9.1,13.9c1,0.7,1.6,0.9,2.2,0.9c0.6,0,1-0.3,1-0.7c0-1.3-3.3-2.3-3.3-4.4c0-1.3,1.3-2.3,3-2.3c0.8,0,1.5,0.2,2.3,0.5v1.7
			c-1-0.5-1.5-0.6-2-0.6c-0.6,0-1,0.2-1,0.6c0,1,3.4,2.3,3.4,4.4c0,1.4-1.3,2.5-3,2.5c-0.8,0-1.6-0.2-2.6-0.7V13.9z"/>
		<path d="M18.7,9.1h-2.4V7.6h7.1v1.5H21v7.3h-2.4L18.7,9.1L18.7,9.1z"/>
	</g>
</g>
</svg>
