<?xml version="1.0" encoding="utf-8"?>
<!-- Generator: Adobe Illustrator 19.2.1, SVG Export Plug-In . SVG Version: 6.00 Build 0)  -->
<!DOCTYPE svg PUBLIC "-//W3C//DTD SVG 1.0//EN" "http://www.w3.org/TR/2001/REC-SVG-20010904/DTD/svg10.dtd">
<svg version="1.0" id="Livello_1" xmlns="http://www.w3.org/2000/svg" xmlns:xlink="http://www.w3.org/1999/xlink" x="0px" y="0px"
	 viewBox="0 0 24 24" style="enable-background:new 0 0 24 24;" xml:space="preserve">
<style type="text/css">
	.st0{fill:#1A171B;}
</style>
<g id="Livello_26">
	<g>
		<path id="XMLID_1_" class="st0" d="M22.9,20l-8.2-7.8c1.7-3,1.2-6.8-1.3-9.3C12,1.6,10.1,0.8,8.1,0.8c-2.1,0-4,0.8-5.5,2.3
			C1.2,4.6,0.5,6.5,0.5,8.6c0,2,0.9,3.9,2.3,5.3C4.3,15.3,6.1,16,8.1,16c1.5,0,2.8-0.4,4.1-1.2l8.2,7.8c0.3,0.3,0.8,0.5,1.3,0.5
			s1-0.2,1.3-0.6s0.5-0.8,0.5-1.3C23.5,20.8,23.3,20.4,22.9,20z M8.2,14.1c-1,0-1.9-0.2-2.7-0.7l0,0l0,0c-0.5-0.2-0.9-0.6-1.3-0.9
			c-1.1-1.1-1.7-2.5-1.7-4C2.4,7,3,5.6,4,4.5c1.1-1.1,2.5-1.7,4.1-1.7c1.5,0,2.9,0.6,3.9,1.6c0.6,0.6,1,1.2,1.3,1.9c0,0,0,0,0,0.1
			s0.1,0.2,0.1,0.3l0,0c0.2,0.6,0.3,1.2,0.3,1.8C13.8,11.6,11.3,14.1,8.2,14.1z"/>
	</g>
</g>
</svg>
