<?xml version="1.0" encoding="utf-8"?>
<!-- Generator: Adobe Illustrator 22.0.1, SVG Export Plug-In . SVG Version: 6.00 Build 0)  -->
<svg version="1.0" id="Livello_1" xmlns="http://www.w3.org/2000/svg" xmlns:xlink="http://www.w3.org/1999/xlink" x="0px" y="0px"
	 width="30px" height="30px" viewBox="0 0 30 30" enable-background="new 0 0 30 30" xml:space="preserve">
<rect fill="#979797" fill-opacity="0" width="30" height="30"/>
<path fill="#979797" d="M0,21.3c0,1.6,0.4,3,1.2,4.3l1.7-1.7c-0.3-0.8-0.5-1.6-0.5-2.6c0-0.4,0.9-1.7,5.3-2.8
	c0.2-0.1,0.5-0.1,0.8-0.2l2.5-2.5c-0.1-0.2-0.2-0.4-0.3-0.5c0-0.4,0-0.6,0.2-0.9c0,0,0,0,0-0.2l3.1-3.1c0,0,0.2-0.2,0.4-0.2h0.2
	c0.2,0,0.2,0,0.4,0c0.2,0,0.2,0,0.4,0c0.2,0,0.3,0.1,0.4,0.2L18,8.8V3.3c0-1.1,2.6-1.1,2.9-1.1c0.2,0,0.2,0,0.4,0
	c1,0,1.9,0.2,2.7,0.6l1.6-1.6C24.3,0.4,22.9,0,21.3,0c0,0-0.2,0-0.4,0c-1.3,0-5.2,0.2-5.2,3.3c0,1.3,0,3.1,0,5c-0.2,0-0.4,0-0.7,0
	c-0.4,0-0.7,0-0.9,0.2C13.3,4.6,11.6,0,8.8,0C4,0,0.2,3.9,0.2,8.7c0,0-0.4,5.6,3.3,5.6c1.3,0,3.1,0,5,0c-0.2,0.6,0,1.1,0,1.7
	C4.6,16.9,0,18.5,0,21.3z M3.5,12.1L3.5,12.1c-0.4-0.1-0.4-0.3-0.6-0.3c-0.6-0.6-0.7-2-0.7-3c0-3.5,2.8-6.5,6.4-6.5
	c0.4,0,1.7,0.9,2.8,5.4c0.2,0.7,0.4,1.5,0.6,2.2l-2.2,2.2H3.5z M30,8.7c0-1.6-0.4-3-1.2-4.3l-1.7,1.7c0.3,0.8,0.5,1.7,0.5,2.6
	c0,0.4-0.9,1.7-5.3,2.8c-0.3,0.1-0.6,0.2-0.9,0.3l-2.6,2.6c0,0.1,0.1,0.2,0.1,0.3v0.2c0,0.2,0,0.2,0,0.4s0,0.2,0,0.4
	c0,0.2-0.2,0.2-0.2,0.4c0,0,0,0,0,0.2l-3,2.9c0,0-0.2,0.2-0.4,0.2h-0.2c-0.2,0-0.2,0-0.4,0s-0.2,0-0.4,0c-0.1,0-0.3-0.1-0.3-0.1
	l-2,2c0,1.5,0,5.6,0,5.6c0,1.1-2.8,1.1-2.9,1.1c-0.1,0-0.4,0-0.4,0c-1,0-1.9-0.2-2.7-0.6l-1.7,1.7C5.7,29.6,7.1,30,8.7,30
	c0,0,0.2,0,0.4,0c1.3,0,5.2-0.2,5.2-3.3c0-1.3,0-3.1,0-5c0.2,0,0.4,0,0.7,0c0.4,0,0.7,0,0.9-0.2c0.9,3.9,2.6,8.5,5.3,8.5
	c4.8,0,8.7-3.9,8.7-8.7c0.1,0,0.5-5.6-3.2-5.6c-1.3,0-3.1,0-5,0c0-0.2,0-0.4,0-0.7c0-0.4,0-0.7-0.2-0.9C25.4,13.2,30,11.5,30,8.7z
	 M26.6,17.8c0.4,0,0.4,0.2,0.6,0.2c0.4,0.7,0.6,2.2,0.6,3.1c0,3.7-2.9,6.5-6.4,6.5c-0.4,0-1.7-0.9-2.8-5.4c-0.2-0.7-0.4-1.5-0.6-2.2
	l2.2-2.2H26.6z M1.4,29.9l-1.4-1.4L28.6,0.1l1.4,1.4L1.4,29.9z"/>
</svg>
