<?xml version="1.0" encoding="utf-8"?>
<!-- Generator: Adobe Illustrator 22.0.1, SVG Export Plug-In . SVG Version: 6.00 Build 0)  -->
<svg version="1.0" id="Livello_1" xmlns="http://www.w3.org/2000/svg" xmlns:xlink="http://www.w3.org/1999/xlink" x="0px" y="0px"
	 width="30px" height="30px" viewBox="0 0 30 30" enable-background="new 0 0 30 30" xml:space="preserve">
<path fill="#979797" d="M17.8,9.9c1.1,0,2,0.9,2,2v5.9c0,1.1-0.9,2-2,2h-5.9c-1.1,0-2-0.9-2-2V12c0-1.1,0.9-2,2-2H17.8 M17.8,7.9
	h-5.9c-2.2,0-4.1,1.8-4.1,4v5.9c0,2.2,1.9,4,4.1,4h5.9c2.2,0,4.1-1.8,4.1-4V12C22,9.8,20.2,7.9,17.8,7.9L17.8,7.9z M12,28
	c0.6,1.1,1.5,2,2.4,2h1.1c0.9,0,1.7-0.9,2.4-2H12z M19.3,23.4c0-0.2-0.2-0.4-0.4-0.4h-8c-0.2,0-0.4,0.2-0.4,0.4v3.5
	c0,0.2,0.2,0.4,0.4,0.4h8c0.2,0,0.4-0.2,0.4-0.4V23.4z"/>
</svg>
