<?xml version="1.0" encoding="utf-8"?>
<!-- Generator: Adobe Illustrator 19.2.1, SVG Export Plug-In . SVG Version: 6.00 Build 0)  -->
<!DOCTYPE svg PUBLIC "-//W3C//DTD SVG 1.0//EN" "http://www.w3.org/TR/2001/REC-SVG-20010904/DTD/svg10.dtd">
<svg version="1.0" id="Livello_1" xmlns="http://www.w3.org/2000/svg" xmlns:xlink="http://www.w3.org/1999/xlink" x="0px" y="0px"
	 viewBox="0 0 24 24" style="enable-background:new 0 0 24 24;" xml:space="preserve">
<g id="Livello_22">
	<path id="XMLID_4158_" d="M16.3,13.8c-1-1-2-2.8-2-6.2c0-0.1,0-0.2-0.1-0.4c-0.2-1.1-0.7-2-1.5-2.7c-0.1-0.1-1-1.1-1-2l0,0
		c0-1.1-0.9-2-2.1-2s-2,0.9-2,2.1c0,0.1,0,0.1,0,0.1c-0.1,0.8-0.9,1.8-1,1.9C5.8,5.3,5.3,6.3,5.1,7.4c0,0.1,0,0.2,0,0.3
		c0,5-2.4,6.7-3.3,7.3c-0.2,0.1-0.4,0.4-0.4,0.6v1c0,0.2,0.2,0.4,0.4,0.4H13c0,0,0.4-1.4,1.3-2.1c0.6-0.5,1.3-0.8,1.6-0.9
		C16,13.9,16.3,13.9,16.3,13.8z M9.7,3.4C9.2,3.4,8.8,3,8.8,2.6s0.4-0.8,0.8-0.8s0.8,0.4,0.8,0.8S10.1,3.4,9.7,3.4z"/>
	<path id="XMLID_4157_" d="M9.5,20.1c1.1,0,2-0.9,2-1.9h-4C7.5,19.2,8.4,20.1,9.5,20.1z"/>
	<path d="M17.7,14.6c-2.2,0-4,1.8-4,4s1.8,4,4,4s4-1.8,4-4S19.9,14.6,17.7,14.6z M19.9,17.1l-2.2,3.6c-0.1,0.1-0.2,0.3-0.3,0.3l0,0
		c-0.1,0-0.2-0.2-0.3-0.3l-1.6-2.4V18h0.9l0.9,1.4l1.9-2.9c0.1-0.2,0.3-0.2,0.5-0.1C19.9,16.6,20,16.9,19.9,17.1z"/>
</g>
</svg>
