<?xml version="1.0" encoding="utf-8"?>
<!-- Generator: Adobe Illustrator 19.2.1, SVG Export Plug-In . SVG Version: 6.00 Build 0)  -->
<!DOCTYPE svg PUBLIC "-//W3C//DTD SVG 1.0//EN" "http://www.w3.org/TR/2001/REC-SVG-20010904/DTD/svg10.dtd">
<svg version="1.0" id="Livello_1" xmlns="http://www.w3.org/2000/svg" xmlns:xlink="http://www.w3.org/1999/xlink" x="0px" y="0px"
	 viewBox="0 0 24 24" style="enable-background:new 0 0 24 24;" xml:space="preserve">
<style type="text/css">
	.st0{fill:#1A171B;}
</style>
<g id="Livello_23">
	<path id="XMLID_914_" class="st0" d="M21.2,19.3c-0.7-0.3-1.2-0.5-1.8-0.8v0.6H5.8c0.2-0.9,0.5-2,0.7-2.6c1,0.3,4.9,1.5,4.9,1.5
		s0.7-4.2,0.9-5.3c1.2,0.3,6.5,1.6,6.5,1.6L21.3,6l-1.4-0.4c0,0-1.7,5.7-2.1,6.8c-1.1-0.3-6.7-1.6-6.7-1.6s-0.7,4.1-0.9,5.2
		c-1.1-0.3-4.8-1.4-4.8-1.4l-0.6,2.2V4.4h0.6C5.3,4.2,5,3.3,4.7,2.6C4.4,1.7,4.2,1,4.2,0.5C4.1,1,3.9,1.7,3.6,2.6
		C3.4,3.3,3.1,3.8,2.9,4.4h0.6v14.7H0.9v1.5h2.6v2.9H5v-2.9h14.4v0.6c0.2-0.1,1.1-0.5,1.8-0.8c0.8-0.3,1.5-0.5,2-0.5
		C22.7,19.8,22,19.6,21.2,19.3z"/>
</g>
</svg>
