<?xml version="1.0" encoding="utf-8"?>
<!-- Generator: Adobe Illustrator 19.2.1, SVG Export Plug-In . SVG Version: 6.00 Build 0)  -->
<!DOCTYPE svg PUBLIC "-//W3C//DTD SVG 1.0//EN" "http://www.w3.org/TR/2001/REC-SVG-20010904/DTD/svg10.dtd">
<svg version="1.0" id="Livello_1" xmlns="http://www.w3.org/2000/svg" xmlns:xlink="http://www.w3.org/1999/xlink" x="0px" y="0px"
	 viewBox="0 0 24 24" style="enable-background:new 0 0 24 24;" xml:space="preserve">
<g id="Livello_4">
	<g id="XMLID_19_">
		<g id="XMLID_21_">
			<path id="XMLID_3861_" d="M20.1,5v1.5c0,1-0.8,2.1-2.2,2.1c-1.4,0-2.3-1.3-2.3-2.1V5H7.9v1.5c0,0.9-0.8,2-2.2,2s-2.3-1.2-2.3-2V5
				H0.5v17.8h23V5H20.1z M22.4,21.6h-21V9.9h21V21.6z"/>
			<g id="XMLID_3576_">
				<path id="XMLID_3764_" d="M5.6,7.6c-0.5,0-0.9-0.4-0.9-0.9V2.1c0-0.5,0.4-0.9,0.9-0.9s0.9,0.4,0.9,0.9v4.6
					C6.5,7.2,6.1,7.6,5.6,7.6L5.6,7.6z"/>
			</g>
			<g id="XMLID_3471_">
				<path id="XMLID_3480_" d="M18,7.5c-0.5,0-0.9-0.4-0.9-0.9V2c0-0.5,0.4-0.9,0.9-0.9s0.9,0.4,0.9,0.9v4.6
					C18.8,7.1,18.4,7.5,18,7.5L18,7.5z"/>
			</g>
			<g id="XMLID_3346_">
				<path id="XMLID_3379_" d="M12.5,19.6H5.7c0.1-0.7,0.3-1.3,0.7-1.9c0.4-0.6,1.1-1.3,2.2-2.1c0.7-0.5,1.1-0.9,1.3-1.1
					c0.2-0.3,0.3-0.5,0.3-0.7s-0.1-0.5-0.3-0.6c-0.2-0.2-0.4-0.3-0.7-0.3S8.7,13,8.5,13.2s-0.3,0.5-0.4,1L5.8,14
					c0.1-0.6,0.3-1.1,0.5-1.5s0.6-0.6,1-0.8s1-0.3,1.8-0.3s1.4,0.1,1.9,0.3c0.4,0.2,0.8,0.5,1,0.8c0.3,0.4,0.4,0.8,0.4,1.3
					s-0.1,1-0.4,1.4c-0.3,0.4-0.8,0.9-1.6,1.5c-0.5,0.3-0.8,0.5-0.9,0.7c-0.2,0.1-0.3,0.3-0.5,0.5h3.5V19.6z"/>
				<path id="XMLID_3377_" d="M18.6,11.3v8.3h-2.3v-5.4c-0.4,0.3-0.7,0.5-1.1,0.7c-0.3,0.2-0.8,0.3-1.3,0.5v-1.9
					c0.8-0.2,1.4-0.5,1.8-0.9c0.4-0.3,0.8-0.8,1-1.3L18.6,11.3z"/>
			</g>
		</g>
	</g>
</g>
</svg>
