<?xml version="1.0" encoding="utf-8"?>
<!-- Generator: Adobe Illustrator 19.2.1, SVG Export Plug-In . SVG Version: 6.00 Build 0)  -->
<!DOCTYPE svg PUBLIC "-//W3C//DTD SVG 1.0//EN" "http://www.w3.org/TR/2001/REC-SVG-20010904/DTD/svg10.dtd">
<svg version="1.0" id="Livello_1" xmlns="http://www.w3.org/2000/svg" xmlns:xlink="http://www.w3.org/1999/xlink" x="0px" y="0px"
	 viewBox="0 0 24 24" style="enable-background:new 0 0 24 24;" xml:space="preserve">
<style type="text/css">
	.st0{fill:#1A171B;}
</style>
<g id="Livello_25">
	<g>
		<path class="st0" d="M15.6,12.4l3.7,3.2c0.1,0.1,0.3,0,0.3-0.1l-0.1-1.8H23c0.2,0,0.4-0.2,0.4-0.4v-2.2c0-0.2-0.2-0.4-0.4-0.4
			h-3.5l0.1-1.8c0-0.2-0.2-0.2-0.3-0.1L15.6,12C15.4,11.9,15.4,12.2,15.6,12.4z"/>
		<path class="st0" d="M8.3,11.5L4.6,8.4c-0.1-0.1-0.3,0-0.3,0.1l0.1,1.8H1c-0.2,0-0.4,0.2-0.4,0.4v2.2c0,0.2,0.2,0.4,0.4,0.4h3.4
			l-0.1,1.8c0,0.2,0.2,0.2,0.3,0.1l3.7-3.1C8.5,12,8.5,11.7,8.3,11.5z"/>
		<path d="M12,14.1c-1,0-1.9-0.8-1.9-1.9c0-1,0.8-1.9,1.9-1.9c1,0,1.9,0.8,1.9,1.9C13.9,13.2,13,14.1,12,14.1z"/>
	</g>
</g>
</svg>
