<?xml version="1.0" encoding="utf-8"?>
<!-- Generator: Adobe Illustrator 19.2.1, SVG Export Plug-In . SVG Version: 6.00 Build 0)  -->
<!DOCTYPE svg PUBLIC "-//W3C//DTD SVG 1.0//EN" "http://www.w3.org/TR/2001/REC-SVG-20010904/DTD/svg10.dtd">
<svg version="1.0" id="Livello_1" xmlns="http://www.w3.org/2000/svg" xmlns:xlink="http://www.w3.org/1999/xlink" x="0px" y="0px"
	 viewBox="0 0 24 24" style="enable-background:new 0 0 24 24;" xml:space="preserve">
<style type="text/css">
	.st0{fill:#1A171B;}
</style>
<g id="Livello_34">
	<g>
		<g id="Livello_3_2_">
			<g id="XMLID_86_">
				<path id="XMLID_4856_" class="st0" d="M8.6,13.7c-0.5-0.3-1.7-1.2-1.7-3.6c0-0.1,0-0.1,0-0.2c-0.1-0.5-0.4-1-0.7-1.4
					c-0.1-0.1-0.5-0.6-0.5-1l0,0c0-0.6-0.5-1-1-1s-1,0.5-1,1c0,0,0,0,0,0.1c0,0.4-0.4,0.9-0.5,1C2.7,8.9,2.5,9.4,2.4,9.9
					c0,0.1,0,0.1,0,0.2c0,2.5-1.2,3.4-1.7,3.6c-0.1,0.1-0.2,0.2-0.2,0.3v0.5c0,0.1,0.1,0.2,0.2,0.2h7.9c0.1,0,0.2-0.1,0.2-0.2V14
					C8.8,13.9,8.7,13.7,8.6,13.7z M4.6,7.9c-0.2,0-0.4-0.2-0.4-0.4c0-0.2,0.2-0.4,0.4-0.4C4.8,7.1,5,7.3,5,7.5S4.9,7.9,4.6,7.9z"/>
				<path id="XMLID_4855_" class="st0" d="M4.6,16.3c0.6,0,1-0.4,1-1h-2C3.6,15.8,4,16.3,4.6,16.3z"/>
			</g>
		</g>
		<path d="M23.3,11.9l-3.7-3.1c-0.1-0.1-0.3,0-0.3,0.1l0.3,2.7c-1.1,0-2.6,0-2.9,0C16.2,11.2,13.2,7,13.2,7h-2.4
			C10.3,7,10,7.3,10,7.7c0,0.4,0.3,0.7,0.7,0.7c0,0,1.3,0,1.8,0c0.2,0.2,1.5,1.9,2.4,3.1h-4.2c-0.4,0-0.7,0.3-0.7,0.7
			s0.3,0.7,0.7,0.7h4.2c-0.9,1.2-2.1,2.9-2.4,3.1c-0.5,0-1.8,0-1.8,0c-0.4,0-0.7,0.3-0.7,0.7c0,0.4,0.3,0.7,0.7,0.7h2.4l3.5-4.6h2.9
			l-0.2,2.6c0,0.2,0.2,0.2,0.3,0.1l3.7-3.2C23.6,12.3,23.6,12,23.3,11.9z"/>
	</g>
</g>
</svg>
