<?xml version="1.0" encoding="utf-8"?>
<!-- Generator: Adobe Illustrator 19.2.1, SVG Export Plug-In . SVG Version: 6.00 Build 0)  -->
<!DOCTYPE svg PUBLIC "-//W3C//DTD SVG 1.0//EN" "http://www.w3.org/TR/2001/REC-SVG-20010904/DTD/svg10.dtd">
<svg version="1.0" id="Livello_1" xmlns="http://www.w3.org/2000/svg" xmlns:xlink="http://www.w3.org/1999/xlink" x="0px" y="0px"
	 viewBox="0 0 24 24" style="enable-background:new 0 0 24 24;" xml:space="preserve">
<g id="Livello_8">
	<g>
		<path d="M13.9,15.2l-0.5,0.3c-0.5,0.4-1.1,0.6-1.8,0.6l0,0c-0.7,0-1.3-0.2-1.8-0.6l-0.4-0.2l-8,6.2c0.3,0.2,0.6,0.3,1,0.3l0,0
			h18.3c0.4,0,0.8-0.1,1.1-0.3L13.9,15.2L13.9,15.2L13.9,15.2z"/>
		<path d="M0.6,9.1L0.6,9.1C0.5,9.3,0.5,9.5,0.5,9.7v10c0,0.3,0.1,0.6,0.2,0.8l7.8-6L0.6,9.1z"/>
		<path d="M22.7,9.7c0-0.2,0-0.4-0.1-0.6l0,0l-7.7,5.4l7.7,6c0.1-0.2,0.1-0.5,0.1-0.8V9.7z"/>
		<path d="M16.3,10.1V9.4c-2.3,0.1-4,1-4.8,2.4l-0.2,0.3c-0.3,0.5-0.6,0.8-1,0.8s-0.9-0.3-1-1.1c-0.1-1.4,0.2-2.8,1-4H1.8
			C1.6,7.8,1.4,7.9,1.2,8l9.1,6.4c0.3,0.3,0.8,0.4,1.3,0.4s0.9-0.1,1.3-0.4l4.1-2.9C16.5,11.2,16.3,10.7,16.3,10.1z"/>
		<path d="M17.8,2.3c-0.3,0-0.4,0.2-0.4,0.6v1.9c-4.3,0.6-7.3,3.6-7,7c0.9-2.4,3.4-3.5,6.4-3.5c0.2,0,0.4,0,0.6,0v1.9
			c0,0.4,0.2,0.6,0.4,0.6c0.1,0,0.3-0.1,0.5-0.2l4.9-3.4c0.5-0.4,0.5-0.9,0-1.3l-4.9-3.4C18.1,2.3,17.9,2.3,17.8,2.3L17.8,2.3z"/>
	</g>
</g>
</svg>
