<?xml version="1.0" encoding="utf-8"?>
<!-- Generator: Adobe Illustrator 19.2.1, SVG Export Plug-In . SVG Version: 6.00 Build 0)  -->
<!DOCTYPE svg PUBLIC "-//W3C//DTD SVG 1.0//EN" "http://www.w3.org/TR/2001/REC-SVG-20010904/DTD/svg10.dtd">
<svg version="1.0" id="Livello_1" xmlns="http://www.w3.org/2000/svg" xmlns:xlink="http://www.w3.org/1999/xlink" x="0px" y="0px"
	 viewBox="0 0 24 24" style="enable-background:new 0 0 24 24;" xml:space="preserve">
<style type="text/css">
	.st0{display:none;}
	.st1{display:inline;fill:#1A171B;}
	.st2{display:inline;}
	.st3{fill:#1A171B;}
</style>
<g id="Livello_1_1_" class="st0">
	<circle id="XMLID_9061_" class="st1" cx="12.4" cy="-2.5" r="6.9"/>
	<circle id="XMLID_9062_" class="st1" cx="-1.3" cy="26.8" r="6.9"/>
	<circle id="XMLID_9063_" class="st1" cx="25.8" cy="27.3" r="6.9"/>
	<g id="XMLID_913_" class="st2">
		
			<rect id="XMLID_4_" x="-3.6" y="10.8" transform="matrix(0.513 -0.8584 0.8584 0.513 -8.7116 8.4231)" class="st3" width="13.4" height="2.1"/>
	</g>
	<g id="XMLID_912_" class="st2">
		
			<rect id="XMLID_3_" x="19.8" y="5.3" transform="matrix(0.8729 -0.488 0.488 0.8729 -3.2701 11.7257)" class="st3" width="2.1" height="13.7"/>
	</g>
	<g id="XMLID_911_" class="st2">
		
			<rect id="XMLID_2_" x="11.6" y="22.4" transform="matrix(1.204684e-03 -1 1 1.204684e-03 -14.5647 39.1176)" class="st3" width="1.4" height="8.9"/>
	</g>
</g>
<g id="Livello_2" class="st0">
	<polygon id="XMLID_916_" class="st1" points="25.2,31.7 24,33 19.9,32.3 15.5,27.7 16.1,20.7 15.8,20.1 14.1,20.4 3.6,9.9 3.5,8.2 
		3,7.6 1.4,7.6 0.6,8.4 -4.6,8.1 -9,3.3 -9,-0.1 -7.1,-1.7 -2.7,2.5 2.4,-2.6 -1.8,-7.1 0.1,-9 3.3,-9 8.2,-4.5 8.2,0.8 7.3,2.6 
		8,3.4 9.7,3.5 20.1,13.7 20.2,15.6 20.8,16.1 27.8,15.3 32.3,19.8 33,23.9 31.8,25.2 30.8,25.3 26.5,20.9 21.1,26.2 25.3,30.8 	"/>
</g>
<g id="Livello_3" class="st0">
	<g id="XMLID_757_" class="st2">
		<g id="XMLID_148_">
			<path id="XMLID_152_" class="st3" d="M-9.3,15.5h2.7v2.8h3v-2.8h2.7v7.8h-2.7v-2.9h-3v2.9h-2.7V15.5z M3.3,15.5h2.9l3.5,7.8H7
				L6.5,22H3l-0.5,1.3h-2.7L3.3,15.5z M5.9,20.6l-1.2-3.1l-1.2,3.1H5.9z M16.6,22.7c-0.8,0.5-1.8,0.7-2.9,0.7c-3.3,0-4.4-2.2-4.4-4
				c0-2.3,1.7-4,4.5-4c1,0,1.9,0.2,2.7,0.5v2.3c-0.8-0.5-1.5-0.7-2.3-0.7c-1.4,0-2.2,0.7-2.2,1.9c0,1.2,0.9,1.9,2.2,1.9
				c0.8,0,1.4-0.2,2.3-0.7L16.6,22.7L16.6,22.7z M24.9,22.7c-0.8,0.5-1.8,0.7-2.9,0.7c-3.2,0-4.4-2.2-4.4-4c0-2.3,1.7-4,4.5-4
				c1,0,1.9,0.2,2.7,0.5v2.3c-0.8-0.5-1.5-0.7-2.3-0.7c-1.4,0-2.2,0.7-2.2,1.9c0,1.2,0.9,1.9,2.2,1.9c0.8,0,1.4-0.2,2.3-0.7
				L24.9,22.7C24.8,22.7,24.9,22.7,24.9,22.7z M26.2,15.5h4c2.3,0,3.1,1.2,3.1,2.4c0,1.2-0.8,2.6-3.2,2.6H29v2.8h-2.7L26.2,15.5
				L26.2,15.5z M29.6,19.1c0.9,0,1.2-0.4,1.2-1.1s-0.3-1-1.2-1h-0.7v2.1H29.6z"/>
			<path id="XMLID_149_" class="st3" d="M12-8.4l-0.5,0.3l-21,15.3l1.6,5h1.7c-0.1-0.4-1.1-3.5-1.4-4.3C-6.7,7.1,11.1-5.8,12-6.5
				C12.9-5.9,30.7,7.1,31.6,7.8c-0.3,0.8-1.3,4-1.4,4.3h1.7l1.6-5L12-8.4z M24.1,30.8H-0.1C-0.3,30.2-1,28.1-1.3,27H-3l1.7,5.4h26.6
				L27,27h-1.7C25,28.1,24.3,30.2,24.1,30.8z"/>
		</g>
	</g>
</g>
<g id="Livello_4" class="st0">
	<g id="XMLID_771_" class="st2">
		<path id="XMLID_779_" class="st3" d="M29.4,22c-2-1.1-7.1-5-7.1-15.5c0-0.3,0-0.5-0.1-0.8c-0.3-2.3-1.5-4.3-3.1-5.8
			c-0.3-0.3-2.2-2.4-2.2-4.3c0-0.1,0-0.1,0-0.2c0-2.4-2-4.3-4.4-4.3s-4.4,2-4.4,4.4c0,0.1,0,0.1,0,0.2C8-2.5,6.2-0.4,5.9-0.1
			C4.3,1.4,3.1,3.4,2.8,5.7C2.7,6,2.7,6.2,2.7,6.5c0,10.6-5.1,14.4-7.1,15.5c-0.4,0.2-0.8,0.8-0.8,1.3v2.1c0,0.5,0.4,0.9,0.9,0.9
			h33.6c0.5,0,0.9-0.4,0.9-0.9v-2.1C30.2,22.8,29.8,22.2,29.4,22z M12.5-2.8c-1,0-1.8-0.8-1.8-1.8s0.8-1.7,1.8-1.7s1.8,0.8,1.8,1.8
			S13.5-2.8,12.5-2.8z"/>
		<path id="XMLID_778_" class="st3" d="M12.2,33.1c2.4,0,4.3-1.9,4.3-4.2H7.9C8,31.2,9.9,33.1,12.2,33.1z"/>
	</g>
</g>
<g id="Livello_5">
	<path id="XMLID_914_" d="M21.1,19.2c-0.8-0.3-1.3-0.5-1.8-0.8V19H5.7c0.2-0.9,0.5-2.1,0.7-2.7c1,0.3,4.9,1.5,4.9,1.5
		s0.7-4.2,0.9-5.3c1.2,0.3,6.5,1.6,6.5,1.6l2.5-8.2l-1.4-0.4c0,0-1.7,5.8-2.1,6.9C16.6,12,11,10.6,11,10.6s-0.7,4.1-0.9,5.2
		c-1.1-0.3-4.8-1.5-4.8-1.5l-0.5,2.2V4.3h0.6C5.3,4,4.9,3.2,4.6,2.4c-0.3-0.9-0.5-1.6-0.5-2C4,0.8,3.9,1.5,3.5,2.4
		C3.3,3.2,3,3.7,2.8,4.3h0.5V19H0.8v1.5h2.6v2.9h1.5v-2.9h14.4v0.6c0.2-0.1,1.1-0.5,1.8-0.8c0.8-0.3,1.5-0.5,2-0.5
		C22.6,19.7,21.9,19.4,21.1,19.2z"/>
</g>
<g id="Livello_6" class="st0">
	<g id="XMLID_6_" class="st2">
		<g id="XMLID_935_">
			<path id="XMLID_9_" class="st3" d="M11.7,27.6c-0.2,0-0.5-0.1-0.7-0.3l-6.9-6.8c-0.2-0.2-0.3-0.4-0.3-0.7V-2.6c0-0.5,0.4-1,1-1h9
				c0.5,0,1,0.4,1,1v18.7c0,0.3-0.1,0.5-0.3,0.7L12.3,19c-0.4,0.4-1,0.4-1.3,0l-2.3-2.2c-0.2-0.2-0.3-0.4-0.3-0.7V3.4
				c0-0.5,0.4-1,1-1s1,0.4,1,1v12.2l1.3,1.3l1.2-1.2V-1.7h-7v21l5.9,5.9l5.7-5.7V0.1c0-0.5,0.4-1,1-1c0.5,0,1,0.4,1,1v19.8
				c0,0.3-0.1,0.5-0.3,0.7l-6.7,6.7C12.2,27.5,11.9,27.6,11.7,27.6z"/>
		</g>
		<g id="XMLID_943_">
			<path id="XMLID_7_" class="st3" d="M1.5,3.4H-8c-0.5,0-1-0.4-1-1s0.4-1,1-1h9.5c0.5,0,1,0.4,1,1S2.1,3.4,1.5,3.4z"/>
		</g>
		<g id="XMLID_942_">
			<path id="XMLID_5_" class="st3" d="M32.1,3.4h-9.3c-0.5,0-1-0.4-1-1s0.4-1,1-1h9.3c0.5,0,1,0.4,1,1S32.6,3.4,32.1,3.4z"/>
		</g>
	</g>
</g>
</svg>
