<?xml version="1.0" encoding="utf-8"?>
<!-- Generator: Adobe Illustrator 19.2.1, SVG Export Plug-In . SVG Version: 6.00 Build 0)  -->
<!DOCTYPE svg PUBLIC "-//W3C//DTD SVG 1.0//EN" "http://www.w3.org/TR/2001/REC-SVG-20010904/DTD/svg10.dtd">
<svg version="1.0" id="Livello_1" xmlns="http://www.w3.org/2000/svg" xmlns:xlink="http://www.w3.org/1999/xlink" x="0px" y="0px"
	 viewBox="0 0 24 24" style="enable-background:new 0 0 24 24;" xml:space="preserve">
<style type="text/css">
	.st0{display:none;}
	.st1{display:inline;fill:#1A171B;}
	.st2{display:inline;}
	.st3{fill:#1A171B;}
</style>
<g id="Livello_1_1_" class="st0">
	<circle id="XMLID_9061_" class="st1" cx="12.4" cy="-2.5" r="6.9"/>
	<circle id="XMLID_9062_" class="st1" cx="-1.3" cy="26.8" r="6.9"/>
	<circle id="XMLID_9063_" class="st1" cx="25.8" cy="27.3" r="6.9"/>
	<g id="XMLID_913_" class="st2">
		
			<rect id="XMLID_4_" x="-3.6" y="10.8" transform="matrix(0.513 -0.8584 0.8584 0.513 -8.6949 8.471)" class="st3" width="13.4" height="2.1"/>
	</g>
	<g id="XMLID_912_" class="st2">
		
			<rect id="XMLID_3_" x="19.8" y="5.3" transform="matrix(0.8729 -0.488 0.488 0.8729 -3.2625 11.7072)" class="st3" width="2.1" height="13.7"/>
	</g>
	<g id="XMLID_911_" class="st2">
		
			<rect id="XMLID_2_" x="11.6" y="22.3" transform="matrix(1.204685e-03 -1 1 1.204685e-03 -14.4648 39.1176)" class="st3" width="1.4" height="8.9"/>
	</g>
</g>
<g id="Livello_2">
	<polygon id="XMLID_916_" class="st3" points="19.2,22.8 18.6,23.5 16.3,23.1 13.9,20.6 14.2,16.8 14.1,16.4 13.2,16.6 7.4,10.8 
		7.3,9.9 7.1,9.6 6.2,9.6 5.8,10 2.9,9.9 0.5,7.2 0.5,5.4 1.5,4.5 4,6.8 6.7,4 4.4,1.5 5.5,0.5 7.2,0.5 9.9,3 9.9,5.9 9.4,6.9 
		9.8,7.3 10.7,7.3 16.4,12.9 16.5,14 16.8,14.2 20.7,13.8 23.1,16.3 23.5,18.5 22.8,19.2 22.3,19.3 19.9,16.9 17,19.8 19.3,22.3 	
		"/>
</g>
</svg>
