<?xml version="1.0" encoding="utf-8"?>
<!-- Generator: Adobe Illustrator 19.2.1, SVG Export Plug-In . SVG Version: 6.00 Build 0)  -->
<!DOCTYPE svg PUBLIC "-//W3C//DTD SVG 1.0//EN" "http://www.w3.org/TR/2001/REC-SVG-20010904/DTD/svg10.dtd">
<svg version="1.0" xmlns="http://www.w3.org/2000/svg" xmlns:xlink="http://www.w3.org/1999/xlink" x="0px" y="0px"
	 viewBox="0 0 24 24" style="enable-background:new 0 0 24 24;" xml:space="preserve">
<style type="text/css">
	.st0{display:none;}
	.st1{display:inline;}
	.st2{fill:#1A171B;}
	.st3{fill:#FFFFFF;}
</style>
<g id="Livello_1" class="st0">
	<polygon class="st1" points="24,8.9 15.1,8.9 15.1,0 8.9,0 8.9,8.9 0,8.9 0,15.1 8.9,15.1 8.9,24 15.1,24 15.1,15.1 24,15.1 	"/>
</g>
<g id="Livello_2" class="st0">
	<g class="st1">
		<path d="M0,8.9v5.7h24V8.9H0z"/>
	</g>
</g>
<g id="Livello_3" class="st0">
	<path class="st1" d="M13,23.5l9.4-11.1c0.3-0.4,0.1-1-0.4-1l-5.5,0.3l0-10.4c0-0.7-0.5-1.3-1.2-1.3L8.7,0C8,0,7.5,0.6,7.5,1.3
		l0,10.4L2,11.4c-0.5,0-0.7,0.6-0.4,1l9.5,11.1C11.6,24.1,12.5,24.1,13,23.5z"/>
</g>
<g id="Livello_4" class="st0">
	<g id="XMLID_19_" class="st1">
		<g id="XMLID_21_">
			<path id="XMLID_3861_" d="M20.1,5l0,1.5c0,1-0.8,2.1-2.2,2.1c-1.4,0-2.3-1.3-2.3-2.1l0-1.5L7.9,5l0,1.5c0,0.9-0.8,2-2.2,2
				c-1.4,0-2.3-1.2-2.3-2l0-1.5L0.5,5l0,17.8l23,0l0-17.8L20.1,5z M22.4,21.6l-21,0l0-11.7l21,0L22.4,21.6z"/>
			<g id="XMLID_3576_">
				<path id="XMLID_3764_" d="M5.6,7.6c-0.5,0-0.9-0.4-0.9-0.9l0-4.6c0-0.5,0.4-0.9,0.9-0.9c0.5,0,0.9,0.4,0.9,0.9l0,4.6
					C6.5,7.2,6.1,7.6,5.6,7.6L5.6,7.6z"/>
			</g>
			<g id="XMLID_3471_">
				<path id="XMLID_3480_" d="M18,7.5c-0.5,0-0.9-0.4-0.9-0.9l0-4.6c0-0.5,0.4-0.9,0.9-0.9c0.5,0,0.9,0.4,0.9,0.9l0,4.6
					C18.8,7.1,18.4,7.5,18,7.5L18,7.5z"/>
			</g>
			<g id="XMLID_3346_">
				<path id="XMLID_3379_" d="M12.5,19.6l-6.8,0c0.1-0.7,0.3-1.3,0.7-1.9c0.4-0.6,1.1-1.3,2.2-2.1c0.7-0.5,1.1-0.9,1.3-1.1
					c0.2-0.3,0.3-0.5,0.3-0.7c0-0.2-0.1-0.5-0.3-0.6c-0.2-0.2-0.4-0.3-0.7-0.3c-0.3,0-0.5,0.1-0.7,0.3c-0.2,0.2-0.3,0.5-0.4,1
					l-2.3-0.2c0.1-0.6,0.3-1.1,0.5-1.5c0.2-0.4,0.6-0.6,1-0.8c0.4-0.2,1-0.3,1.8-0.3c0.8,0,1.4,0.1,1.9,0.3c0.4,0.2,0.8,0.5,1,0.8
					c0.3,0.4,0.4,0.8,0.4,1.3c0,0.5-0.1,1-0.4,1.4c-0.3,0.4-0.8,0.9-1.6,1.5c-0.5,0.3-0.8,0.5-0.9,0.7c-0.2,0.1-0.3,0.3-0.5,0.5
					l3.5,0L12.5,19.6z"/>
				<path id="XMLID_3377_" d="M18.6,11.3l0,8.3l-2.3,0l0-5.4c-0.4,0.3-0.7,0.5-1.1,0.7c-0.3,0.2-0.8,0.3-1.3,0.5l0-1.9
					c0.8-0.2,1.4-0.5,1.8-0.9c0.4-0.3,0.8-0.8,1-1.3L18.6,11.3z"/>
			</g>
		</g>
	</g>
</g>
<g id="Livello_5" class="st0">
	<g class="st1">
		<path d="M19.1,17.1l-4.3,3l5.4,3.3c0.1,0,0.2,0.1,0.2,0.1c0.2,0,0.3-0.2,0.2-0.4L19.1,17.1z"/>
		<polygon class="st2" points="9.7,2.9 9.7,2.9 9.7,3 		"/>
		<polygon points="13.8,19 18.6,15.7 10.6,4.3 5.9,7.6 		"/>
		<polygon class="st2" points="9.7,3 9.7,3 9.7,3 		"/>
		<path d="M4.9,6.3l4.8-3.4L8.3,1C8.1,0.7,7.8,0.5,7.4,0.5C7.2,0.5,7,0.6,6.8,0.7l-3,2.1c-0.5,0.3-0.6,1-0.3,1.5L4.9,6.3z"/>
	</g>
</g>
<g id="Livello_6" class="st0">
	<g class="st1">
		<path d="M11.7,23.5l-6.5-3.7l6.5-3.7l-0.2,2.5l0.6,0c3.5-0.1,6.3-3,6.3-6.5c0-1.1-0.2-2-0.7-3l-0.2-0.4l2.3-1.3l0.3,0.5
			c0.7,1.3,1.1,2.8,1.1,4.3c0,5-4,9.1-9,9.1l-0.6,0L11.7,23.5z M4.1,16.6l-0.2-0.5c-0.6-1.2-0.9-2.6-0.9-4C2.9,7.1,7,3,12,3l0.6,0
			l-0.2-2.5l6.5,3.7L12.4,8l0.2-2.3l-0.6,0c-3.6,0-6.4,2.9-6.4,6.5c0,1,0.2,1.9,0.6,2.7l0.2,0.4L4.1,16.6z"/>
	</g>
</g>
<g id="Livello_7" class="st0">
	<g id="Livello_5_1_" class="st1">
		<g id="XMLID_749_">
			<path d="M18.8,23.9H5c-1,0-1.9-0.8-1.9-1.9V5.2c0-0.7,0.3-1.2,0.7-1.7l3-2.7c0.4-0.4,1-0.6,1.6-0.6h10.6C20,0.1,20.9,1,20.9,2
				v19.9C20.9,23,20,23.9,18.8,23.9z M8.5,0.9C8.1,0.9,7.7,1,7.4,1.3L4.4,4C4.1,4.3,3.9,4.7,3.9,5.2V22c0,0.6,0.5,1.1,1.1,1.1h13.8
				c0.7,0,1.3-0.6,1.3-1.3V2c0-0.6-0.5-1.1-1-1.1H8.5z"/>
			<polygon id="XMLID_1023_" points="4.4,4.5 8.1,1.3 8.3,1.3 8.3,4.6 4.4,4.6 			"/>
			<rect id="XMLID_5617_" x="5.2" y="8" width="13.6" height="0.7"/>
			<rect id="XMLID_1314_" x="12.5" y="4" width="6.2" height="0.7"/>
			<rect id="XMLID_754_" x="5.1" y="20.3" width="13.4" height="0.7"/>
			<rect id="XMLID_751_" x="5.1" y="12.1" width="13.6" height="0.7"/>
			<rect id="XMLID_752_" x="5.1" y="16.2" width="13.6" height="0.7"/>
		</g>
	</g>
</g>
<g id="Livello_8" class="st0">
	<g class="st1">
		<path d="M13.9,15.2l-0.5,0.3c-0.5,0.4-1.1,0.6-1.8,0.6h0c-0.7,0-1.3-0.2-1.8-0.6l-0.4-0.2l-8,6.2c0.3,0.2,0.6,0.3,1,0.3
			c0,0,0,0,0,0h18.3c0.4,0,0.8-0.1,1.1-0.3L13.9,15.2L13.9,15.2L13.9,15.2z"/>
		<path d="M0.6,9.1L0.6,9.1C0.5,9.3,0.5,9.5,0.5,9.7l0,10c0,0.3,0.1,0.6,0.2,0.8l7.8-6L0.6,9.1z"/>
		<path d="M22.7,9.7c0-0.2,0-0.4-0.1-0.6l0,0l-7.7,5.4l7.7,6c0.1-0.2,0.1-0.5,0.1-0.8L22.7,9.7z"/>
		<path d="M16.3,10.1V9.4c-2.3,0.1-4,1-4.8,2.4l-0.2,0.3c-0.3,0.5-0.6,0.8-1,0.8c-0.4,0-0.9-0.3-1-1.1c-0.1-1.4,0.2-2.8,1-4H1.8
			C1.6,7.8,1.4,7.9,1.2,8l9.1,6.4c0.3,0.3,0.8,0.4,1.3,0.4c0.5,0,0.9-0.1,1.3-0.4l4.1-2.9C16.5,11.2,16.3,10.7,16.3,10.1z"/>
		<path d="M17.8,2.3c-0.3,0-0.4,0.2-0.4,0.6v1.9c-4.3,0.6-7.3,3.6-7,7c0.9-2.4,3.4-3.5,6.4-3.5c0.2,0,0.4,0,0.6,0v1.9
			c0,0.4,0.2,0.6,0.4,0.6c0.1,0,0.3-0.1,0.5-0.2l4.9-3.4c0.5-0.4,0.5-0.9,0-1.3l-4.9-3.4C18.1,2.3,17.9,2.3,17.8,2.3L17.8,2.3z"/>
	</g>
</g>
<g id="Livello_9" class="st0">
	<g class="st1">
		<path d="M14.3,12.4l-0.5,0.3c-0.5,0.4-1.2,0.6-1.9,0.6h0c-0.7,0-1.4-0.2-1.9-0.6l-0.4-0.3l-8.3,6.4c0.3,0.2,0.6,0.3,1,0.3
			c0,0,0,0,0,0h19c0.4,0,0.8-0.1,1.1-0.4L14.3,12.4L14.3,12.4L14.3,12.4z"/>
		<path d="M0.6,6.1L0.6,6.1C0.5,6.3,0.5,6.5,0.5,6.8l0,10.4c0,0.3,0.1,0.6,0.2,0.9l8-6.2L0.6,6.1z"/>
		<path d="M23.5,6.8c0-0.2,0-0.4-0.1-0.7l0,0l-8,5.6l8,6.2c0.1-0.2,0.1-0.5,0.1-0.8L23.5,6.8z"/>
		<path d="M22.8,4.9c-0.2-0.1-0.4-0.2-0.7-0.2H1.9c-0.2,0-0.5,0.1-0.7,0.2l5.2,3.7c0,0,0,0,0,0l4.2,3C11,11.9,11.5,12,12,12
			c0,0,0,0,0,0s0,0,0,0c0.5,0,1-0.1,1.3-0.4l4.2-3c0,0,0,0,0,0L22.8,4.9z"/>
	</g>
</g>
<g id="Livello_10" class="st0">
	<path class="st1" d="M22.6,1.6c-0.9-0.6-2.1-0.3-2.6,0.6l-9.9,15.3l-4.9-6.4H0.5l0.1,0.2l8.1,10.6c0.4,0.5,0.9,0.7,1.5,0.7h0.1
		c0.6,0,1.2-0.4,1.5-0.9L23.2,4.3C23.8,3.4,23.5,2.2,22.6,1.6z"/>
</g>
<g id="Livello_11" class="st0">
	<path id="XMLID_4726_" class="st1" d="M15.6,0.3H2v23l19.7-0.1V6.4L15.6,0.3z M20.9,6.4h-5.6l0-5.6L20.9,6.4z M20.9,17.2H2.8V9.8
		h18.1V17.2z"/>
	<g class="st1">
		<path d="M6.5,11.3c0.3,0,0.7-0.1,1.2-0.1c0.6,0,1,0.1,1.3,0.4c0.3,0.2,0.4,0.6,0.4,1c0,0.4-0.1,0.8-0.4,1
			c-0.3,0.3-0.8,0.5-1.4,0.5c-0.2,0-0.3,0-0.5,0v1.9H6.5V11.3z M7.1,13.5c0.1,0,0.3,0,0.5,0c0.7,0,1.2-0.4,1.2-1
			c0-0.6-0.4-0.9-1.1-0.9c-0.3,0-0.5,0-0.6,0V13.5z"/>
		<path d="M10.2,11.3c0.4-0.1,0.8-0.1,1.3-0.1c0.9,0,1.5,0.2,1.9,0.6c0.4,0.4,0.7,0.9,0.7,1.7c0,0.8-0.2,1.4-0.7,1.8
			c-0.4,0.4-1.2,0.7-2.1,0.7c-0.4,0-0.8,0-1.1-0.1V11.3z M10.8,15.4c0.2,0,0.4,0,0.6,0c1.3,0,2-0.7,2-2c0-1.1-0.6-1.8-1.9-1.8
			c-0.3,0-0.5,0-0.7,0.1V15.4z"/>
		<path d="M14.8,11.2h2.5v0.5h-1.9v1.6h1.8v0.5h-1.8v2.1h-0.6V11.2z"/>
	</g>
</g>
<g id="Livello_12" class="st0">
	<g id="XMLID_83_" class="st1">
		<path id="XMLID_11153_" d="M0.5,16.6c0.4-3.4,0.8-6.7,1.2-10.1c1.7,0,3.1,0,4.6,0c0-2.1,0-4.1,0-6.2c4.2,0,8.2,0,12.3,0
			c0,2,0,4,0,6.1c1.3,0,2.4,0,3.5,0c1,2.1,1.7,7.6,1.3,10.2C15.9,16.6,8.4,16.6,0.5,16.6z M7.4,1.4c0,3,0,5.8,0,8.6
			c3.5,0,6.8,0,10.1,0c0-2.9,0-5.7,0-8.6C14.1,1.4,10.8,1.4,7.4,1.4z"/>
		<path id="XMLID_11137_" d="M3.8,23.1c0.2-1.1,0.4-2,0.6-3c-0.9-0.1-1.9,0-2.4-0.4c-0.5-0.4-0.6-1.4-1-2.3c7.5,0,14.8,0,22.2,0
			c-0.1,2-0.6,2.4-3.1,2.6c0.2,1,0.3,2,0.5,3.1C15,23.1,9.5,23.1,3.8,23.1z M18.7,18.8c-4.3,0-8.5,0-12.9,0
			c-0.2,1.1-0.5,2.2-0.7,3.3c4.8,0,9.5,0,14.3,0C19.1,21,18.9,19.9,18.7,18.8z"/>
	</g>
</g>
<g id="Livello_13" class="st0">
	<g class="st1">
		<path id="XMLID_4442_" d="M15.7,0.5H2.1v23l19.7-0.1V6.6L15.7,0.5z M21,6.6h-5.6l0-5.6L21,6.6z M21,17.4H2.9V10H21V17.4z"/>
		<g>
			<path d="M9.9,16c-0.2,0.1-0.7,0.2-1.2,0.2c-1.3,0-2.3-0.8-2.3-2.4c0-1.5,1-2.4,2.4-2.4c0.6,0,0.9,0.1,1.1,0.2l-0.1,0.5
				c-0.2-0.1-0.6-0.2-0.9-0.2c-1.1,0-1.8,0.7-1.8,1.9c0,1.1,0.7,1.9,1.8,1.9c0.4,0,0.7-0.1,1-0.2L9.9,16z"/>
			<path d="M11.7,16.1l-1.5-4.7h0.7l0.7,2.3c0.2,0.6,0.4,1.2,0.5,1.7h0c0.1-0.5,0.3-1.1,0.5-1.7l0.8-2.3H14l-1.7,4.7H11.7z"/>
			<path d="M14.5,15.4c0.3,0.2,0.7,0.3,1.1,0.3c0.6,0,1-0.3,1-0.8c0-0.4-0.2-0.7-0.9-0.9c-0.8-0.3-1.2-0.7-1.2-1.3
				c0-0.7,0.6-1.3,1.5-1.3c0.5,0,0.8,0.1,1,0.2l-0.2,0.5c-0.2-0.1-0.5-0.2-0.9-0.2c-0.6,0-0.9,0.4-0.9,0.7c0,0.4,0.3,0.6,0.9,0.9
				c0.8,0.3,1.2,0.7,1.2,1.4c0,0.7-0.5,1.3-1.6,1.3c-0.4,0-0.9-0.1-1.2-0.3L14.5,15.4z"/>
		</g>
	</g>
</g>
<g id="Livello_14" class="st0">
	<g id="Livello_4_1_" class="st1">
		<path id="XMLID_4284_" d="M12,0.5C5.7,0.5,0.5,5.7,0.5,12S5.7,23.5,12,23.5S23.5,18.3,23.5,12S18.3,0.5,12,0.5z M11.8,18.7
			c-0.7,0-1.2-0.6-1.2-1.3c0-0.8,0.5-1.3,1.2-1.3c0.8,0,1.2,0.6,1.2,1.3C13,18.1,12.6,18.7,11.8,18.7z M13.7,11c-0.9,1-1.3,2-1.2,3
			l0.1,0.5H11L11,14c-0.1-1.1,0.2-2.3,1.3-3.6c0.9-1.1,1.4-1.9,1.4-2.8c0-1-0.6-1.7-2-1.7c-0.8,0-1.5,0.3-2.1,0.6L9.2,5.3
			c0.7-0.5,1.8-0.8,2.9-0.8c2.4,0,3.4,1.5,3.4,3C15.5,8.9,14.7,9.9,13.7,11z"/>
	</g>
</g>
<g id="Livello_15" class="st0">
	<g class="st1">
		<path d="M17,17.4l-7.3,0c-0.1,0-0.2-0.1-0.2-0.1l0-4.2C9.5,13,9.5,13,9.6,13l7.3,0l-0.2-3.6l6.7,5.7l0.1,0.1l-0.1,0.1L16.7,21
			L17,17.4z"/>
		<path d="M9.6,18.7c-0.8,0-1.4-0.6-1.4-1.3l0-4.2c0-0.7,0.6-1.4,1.4-1.4l5.5,0V7.5L10.6,3H0.5v17l14.6,0v-1.3L9.6,18.7z M14.5,7.5
			h-4.1l0-4.1L14.5,7.5z"/>
	</g>
</g>
<g id="Livello_16" class="st0">
	<g class="st1">
		<path id="XMLID_4482_" d="M15.8,0.5H2.2v23l19.7-0.1V6.6L15.8,0.5z M21,6.6h-5.6l0-5.6L21,6.6z M21.1,17.4H3V10h18.1V17.4z"/>
		<g>
			<path d="M4.6,11.4v2h2.3v-2h0.6v4.7H6.8v-2.2H4.6v2.2H4v-4.7H4.6z"/>
			<path d="M9.4,12H7.9v-0.5h3.5V12H10v4.2H9.4V12z"/>
			<path d="M15.8,14.1c0-0.7-0.1-1.4-0.1-2h0c-0.2,0.5-0.4,1.1-0.6,1.8l-0.8,2.3h-0.5l-0.8-2.2c-0.2-0.7-0.4-1.3-0.5-1.8h0
				c0,0.6,0,1.4-0.1,2.1l-0.1,2h-0.6l0.3-4.7h0.8l0.8,2.3c0.2,0.6,0.4,1.1,0.5,1.6h0c0.1-0.5,0.3-1,0.5-1.6l0.8-2.3h0.8l0.3,4.7H16
				L15.8,14.1z"/>
			<path d="M17.5,11.4h0.6v4.2h2v0.5h-2.6V11.4z"/>
		</g>
	</g>
</g>
<g id="Livello_17" class="st0">
	<g class="st1">
		<rect x="17.2" y="2.7" width="3.9" height="3.9"/>
		<g>
			<path d="M7.6,21.2H2.6v-4.9h4.9V21.2z"/>
		</g>
		<rect x="2.7" y="4.1" width="13.6" height="1"/>
		<rect x="9" y="17.7" width="12.7" height="1"/>
		<rect x="9" y="19.7" width="12.7" height="1"/>
		<g>
			<polygon points="11,8 10,8 10,12 9,12 10.5,14.6 12,12 11,12 			"/>
			<polygon points="16.2,11 14.5,8.3 12.8,11 14,11 14,15 15,15 15,11 			"/>
		</g>
	</g>
</g>
<g id="Livello_18" class="st0">
	<g class="st1">
		<path d="M0.5,9.3h2.1c1.3,0,2.1,0.6,2.1,1.5c0,0.6-0.3,1-1.1,1.3c0.6,0.3,0.8,1.5,1.3,2.7H3.4l-0.3-1c-0.4-1.2-0.5-1.3-1.1-1.3
			v2.3H0.5V9.3z M2.4,11.5c0.5,0,0.8-0.2,0.8-0.7c0-0.4-0.3-0.6-0.8-0.6H2v1.3H2.4z"/>
		<path d="M5.7,9.3h3.8v0.9H7.2v1.3h2.1v0.9H7.2v1.4h2.4v0.9H5.7V9.3z"/>
		<path d="M10.3,13.2c0.6,0.4,1,0.6,1.4,0.6c0.3,0,0.6-0.2,0.6-0.5c0-0.8-2-1.4-2-2.7c0-0.8,0.8-1.4,1.8-1.4c0.5,0,0.9,0.1,1.4,0.3
			v1c-0.6-0.3-0.9-0.4-1.2-0.4c-0.4,0-0.6,0.2-0.6,0.4c0,0.6,2.1,1.4,2.1,2.7c0,0.9-0.8,1.5-1.9,1.5c-0.5,0-1-0.1-1.6-0.4V13.2z"/>
		<path d="M14.8,9.3h3.8v0.9h-2.3v1.3h2.1v0.9h-2.1v1.4h2.4v0.9h-3.8V9.3z"/>
		<path d="M20.6,10.2h-1.5V9.3h4.4v0.9H22v4.5h-1.5V10.2z"/>
	</g>
</g>
<g id="Livello_19" class="st0">
	<g id="bngkVd_1_" class="st1">
		<g>
			<path class="st3" d="M16.8,10.3c-0.8,0-1.7,0-2.5,0c-0.2,0-0.4,0.1-0.7,0.2c0.1,0.2,0.1,0.4,0.3,0.6c1.3,1.7,2.7,3.3,4,5
				c0.5,0.6,0.7,0.6,1.2,0c1.4-1.7,2.7-3.3,4.1-5c0.1-0.1,0.1-0.2,0.2-0.2c0.2-0.3,0.1-0.4-0.2-0.5c-0.2,0-0.4,0-0.6,0
				c-0.8,0-1.6,0-2.3,0C19.3,5,14.7,1.9,10,2c-4.5,0.2-8.4,3.5-9.3,8c-0.9,4.4,1.4,9,5.6,10.9c4.1,1.9,8.5,0.6,10.7-1.6
				c-0.7-0.8-1.3-1.7-2-2.5c-1.3,1.1-2.8,1.7-4.5,1.7c-1.7,0-3.2-0.6-4.4-1.7c-2.2-2-2.9-5.1-1.6-7.8C5.8,6.5,8.6,5,11.6,5.5
				C14.1,5.8,16.5,8.1,16.8,10.3z"/>
			<path d="M16.8,10.3c-0.3-2.2-2.8-4.5-5.2-4.9c-3-0.5-5.8,1-7.1,3.7c-1.3,2.7-0.7,5.8,1.6,7.8c1.3,1.1,2.8,1.7,4.4,1.7
				c1.7,0,3.2-0.6,4.5-1.7c0.7,0.9,1.4,1.7,2,2.5c-2.2,2.2-6.6,3.5-10.7,1.6c-4.1-1.9-6.5-6.5-5.6-10.9C1.6,5.6,5.5,2.2,10,2
				c4.7-0.2,9.3,3,10.3,8.3c0.8,0,1.6,0,2.3,0c0.2,0,0.4,0,0.6,0c0.3,0,0.4,0.2,0.2,0.5c-0.1,0.1-0.1,0.2-0.2,0.2
				c-1.4,1.7-2.7,3.3-4.1,5c-0.5,0.6-0.7,0.6-1.2,0c-1.3-1.7-2.7-3.3-4-5c-0.1-0.2-0.2-0.4-0.3-0.6c0.2-0.1,0.4-0.1,0.7-0.2
				C15.2,10.3,16,10.3,16.8,10.3z"/>
		</g>
	</g>
</g>
<g id="Livello_20" class="st0">
	<g class="st1">
		<path d="M19.3,3.7H9.8v6.1l5.8,5l0.1,0.1L15.6,15L10,19.7l13.5,0V7.9L19.3,3.7z M19.1,7.9l0-3.9L23,7.9H19.1z"/>
		<path d="M7.6,16.9l-6.9,0c-0.1,0-0.2-0.1-0.2-0.1l0-3.9c0.1-0.1,0.1-0.1,0.2-0.1l6.9,0L7.4,9.3l6.3,5.3l0.1,0.1L13.7,15l-6.3,5.4
			L7.6,16.9z"/>
	</g>
</g>
<g id="Livello_21">
	<g>
		<path d="M4.8,7.3C6.8,7.3,9,8.6,9,12c0,3.6-2.4,4.7-4.3,4.7c-2.1,0-4.3-1.4-4.3-4.8C0.5,8.8,2.7,7.3,4.8,7.3z M4.8,14.9
			c1.1,0,1.8-0.7,1.8-2.9c0-1.6-0.3-2.9-1.8-2.9C3.4,9.1,3,10.2,3,12C3,13.8,3.4,14.9,4.8,14.9z"/>
		<path d="M10.7,7.4h5.7V9h-3.2v2.2h3.1v1.6h-3.1v3.8h-2.5V7.4z"/>
		<path d="M17.8,7.4h5.7V9h-3.2v2.2h3.1v1.6h-3.1v3.8h-2.5V7.4z"/>
	</g>
</g>
</svg>
