<?xml version="1.0" encoding="utf-8"?>
<!-- Generator: Adobe Illustrator 19.2.1, SVG Export Plug-In . SVG Version: 6.00 Build 0)  -->
<!DOCTYPE svg PUBLIC "-//W3C//DTD SVG 1.0//EN" "http://www.w3.org/TR/2001/REC-SVG-20010904/DTD/svg10.dtd">
<svg version="1.0" id="Livello_1" xmlns="http://www.w3.org/2000/svg" xmlns:xlink="http://www.w3.org/1999/xlink" x="0px" y="0px"
	 viewBox="0 0 24 24" style="enable-background:new 0 0 24 24;" xml:space="preserve">
<g id="Livello_30">
	<g>
		<path d="M5.8,5.5c2.6,0,5.5,1.6,5.5,6.1c0,4.6-3.1,6.1-5.5,6.1c-2.7,0-5.5-1.8-5.5-6.2C0.3,7.5,3,5.5,5.8,5.5z M5.8,15.3
			c1.5,0,2.3-0.9,2.3-3.8c0-2-0.4-3.7-2.3-3.7c-1.7,0-2.3,1.4-2.3,3.7C3.5,13.9,4,15.3,5.8,15.3z"/>
		<path d="M13.5,5.7h3l3.8,6.7l0,0V5.7h3v11.8h-2.8l-4-7l0,0v7h-3V5.7z"/>
	</g>
</g>
</svg>
