<?xml version="1.0" encoding="utf-8"?>
<!-- Generator: Adobe Illustrator 19.2.1, SVG Export Plug-In . SVG Version: 6.00 Build 0)  -->
<!DOCTYPE svg PUBLIC "-//W3C//DTD SVG 1.0//EN" "http://www.w3.org/TR/2001/REC-SVG-20010904/DTD/svg10.dtd">
<svg version="1.0" id="Livello_1" xmlns="http://www.w3.org/2000/svg" xmlns:xlink="http://www.w3.org/1999/xlink" x="0px" y="0px"
	 viewBox="0 0 24 24" style="enable-background:new 0 0 24 24;" xml:space="preserve">
<style type="text/css">
	.st0{fill:#1A171B;}
</style>
<g id="Livello_34">
	<g>
		<path class="st0" d="M14.8,1.3c-0.2-0.1-0.5,0-0.6,0.4l-0.7,1.7c-4-1.1-7.8,0.4-8.8,3.4C6.4,5.1,9,5,11.6,6.1
			c0.2,0.1,0.3,0.2,0.5,0.2L11.4,8c-0.1,0.3-0.1,0.6,0.2,0.7c0.1,0,0.3,0.1,0.5,0l5.5-1.2c0.6-0.1,0.8-0.6,0.5-1.1l-3-4.8
			C15,1.5,14.9,1.4,14.8,1.3L14.8,1.3z"/>
		<path class="st0" d="M4.6,22.6h-4V18l0.5-0.5v-3.4l-0.6-0.2v-5h4v1.7h1.9c0.5,0.2,0.7,0.5,0.6,0.8v1.4h0.6L7.8,13
			c1.2,2.8,0,5.4,0,5.5l-0.1,0.3H7.1v1.5c-0.1,0.4-0.4,0.6-0.7,0.6H4.6L4.6,22.6L4.6,22.6z M1.5,21.7h2.2V20h2.5v-2.1H7
			c0.2-0.7,0.7-2.4,0-4.2H6.2v-2.2H3.6V9.8H1.4v3.4L2,13.4v4.8H1.6l-0.1,0.1V21.7L1.5,21.7z"/>
		<path class="st0" d="M19.8,22.7h-4v-4.6l0.5-0.5v-3.4L15.7,14V9h4v1.7h1.9c0.5,0.2,0.7,0.5,0.6,0.8v1.4h0.6l0.1,0.3
			c1.2,2.8,0,5.4,0,5.5L22.8,19h-0.6v1.5c-0.1,0.4-0.4,0.6-0.7,0.6h-1.8v1.6H19.8z M16.6,21.8h2.2v-1.7h2.5V18h0.9
			c0.2-0.7,0.7-2.4,0-4.2h-0.9v-2.2h-2.6V9.9h-2.2v3.4l0.6,0.2v4.8h-0.4l-0.1,0.1V21.8L16.6,21.8z"/>
	</g>
</g>
</svg>
