<?xml version="1.0" encoding="utf-8"?>
<!-- Generator: Adobe Illustrator 19.2.1, SVG Export Plug-In . SVG Version: 6.00 Build 0)  -->
<!DOCTYPE svg PUBLIC "-//W3C//DTD SVG 1.0//EN" "http://www.w3.org/TR/2001/REC-SVG-20010904/DTD/svg10.dtd">
<svg version="1.0" id="Livello_1" xmlns="http://www.w3.org/2000/svg" xmlns:xlink="http://www.w3.org/1999/xlink" x="0px" y="0px"
	 viewBox="0 0 24 24" style="enable-background:new 0 0 24 24;" xml:space="preserve">
<g id="Livello_6">
	<g>
		<path d="M11.7,23.5l-6.5-3.7l6.5-3.7l-0.2,2.5h0.6c3.5-0.1,6.3-3,6.3-6.5c0-1.1-0.2-2-0.7-3l-0.2-0.4l2.3-1.3l0.3,0.5
			c0.7,1.3,1.1,2.8,1.1,4.3c0,5-4,9.1-9,9.1h-0.6L11.7,23.5z M4.1,16.6l-0.2-0.5c-0.6-1.2-0.9-2.6-0.9-4C2.9,7.1,7,3,12,3h0.6
			l-0.2-2.5l6.5,3.7L12.4,8l0.2-2.3H12c-3.6,0-6.4,2.9-6.4,6.5c0,1,0.2,1.9,0.6,2.7l0.2,0.4L4.1,16.6z"/>
	</g>
</g>
</svg>
