<?xml version="1.0" encoding="utf-8"?>
<!-- Generator: Adobe Illustrator 19.2.1, SVG Export Plug-In . SVG Version: 6.00 Build 0)  -->
<!DOCTYPE svg PUBLIC "-//W3C//DTD SVG 1.0//EN" "http://www.w3.org/TR/2001/REC-SVG-20010904/DTD/svg10.dtd">
<svg version="1.0" id="Livello_1" xmlns="http://www.w3.org/2000/svg" xmlns:xlink="http://www.w3.org/1999/xlink" x="0px" y="0px"
	 viewBox="0 0 24 24" style="enable-background:new 0 0 24 24;" xml:space="preserve">
<g id="Livello_38">
	<g>
		<path d="M2.5,4.8c6.2,0,12.3,0,18.5,0c0,4.8,0,9.6,0,14.5c-6.2,0-12.3,0-18.5,0C2.5,14.5,2.5,9.6,2.5,4.8z M19.9,6
			C14.5,6,9.1,6,3.7,6c0,4.1,0,8.1,0,12.2c5.4,0,10.8,0,16.2,0C19.9,14.1,19.9,10,19.9,6z"/>
		<path d="M8.6,11.8c0.6,0.7,1.1,1.3,1.7,2c1.1-1.3,2.1-2.5,3.3-3.8c1.7,2,3.4,4,5.2,6c-4.7,0-9.2,0-13.9,0
			C6.1,14.6,7.3,13.3,8.6,11.8z"/>
		<path d="M11.2,8.9c0,0.6-0.5,1.1-1.1,1.2c-0.6,0-1.2-0.5-1.2-1.1S9.4,7.9,10,7.9C10.6,7.7,11.2,8.2,11.2,8.9z"/>
		<g>
			<polygon points="1.4,6.7 0.5,6.7 0.5,2.3 4.9,2.3 4.9,3.2 1.4,3.2 			"/>
		</g>
		<g>
			<polygon points="4.9,21.7 0.5,21.7 0.5,17.3 1.4,17.3 1.4,20.8 4.9,20.8 			"/>
		</g>
		<g>
			<polygon points="23.5,6.7 22.6,6.7 22.6,3.2 19.1,3.2 19.1,2.3 23.5,2.3 			"/>
		</g>
		<g>
			<polygon points="23.5,21.7 19.1,21.7 19.1,20.8 22.6,20.8 22.6,17.3 23.5,17.3 			"/>
		</g>
	</g>
</g>
</svg>
