<?xml version="1.0" encoding="utf-8"?>
<!-- Generator: Adobe Illustrator 19.2.1, SVG Export Plug-In . SVG Version: 6.00 Build 0)  -->
<!DOCTYPE svg PUBLIC "-//W3C//DTD SVG 1.0//EN" "http://www.w3.org/TR/2001/REC-SVG-20010904/DTD/svg10.dtd">
<svg version="1.0" id="Livello_1" xmlns="http://www.w3.org/2000/svg" xmlns:xlink="http://www.w3.org/1999/xlink" x="0px" y="0px"
	 viewBox="0 0 24 24" style="enable-background:new 0 0 24 24;" xml:space="preserve">
<g id="Livello_27">
	<g>
		<path d="M11.3,0.5c0.5,0,1,0,1.4,0c0.1,0,0.1,0,0.2,0c0.7,0.1,1.3,0.2,2,0.3c4.3,1.1,7.7,4.8,8.5,9.2c0.1,0.4,0.1,0.8,0.2,1.3
			c0,0.5,0,1,0,1.4c0,0.1,0,0.1,0,0.2c-0.1,0.7-0.2,1.4-0.4,2.1c-1.1,4.3-4.8,7.6-9.1,8.3c-0.4,0.1-0.8,0.1-1.3,0.2
			c-0.5,0-1,0-1.4,0c-0.1,0-0.1,0-0.2,0c-0.5-0.1-1.1-0.1-1.6-0.2c-4.6-1-8.2-4.8-8.9-9.3c-0.1-0.4-0.1-0.9-0.2-1.3c0-0.5,0-1,0-1.4
			c0-0.1,0-0.1,0-0.2c0.1-0.5,0.1-1.1,0.2-1.6c1-4.4,4.8-8.1,9.3-8.8C10.4,0.6,10.9,0.6,11.3,0.5z M9.6,12c0,1.2,0,2.4,0,3.6
			c0,0.3,0.1,0.5,0.3,0.6s0.5,0.1,0.7-0.1c1.7-1.2,3.4-2.4,5.2-3.6c0.4-0.3,0.4-0.8,0-1c-1.7-1.2-3.4-2.4-5.2-3.6
			c-0.2-0.2-0.4-0.2-0.7-0.1S9.6,8.1,9.6,8.4C9.6,9.6,9.6,10.8,9.6,12z"/>
	</g>
</g>
</svg>
