<?xml version="1.0" encoding="utf-8"?>
<!-- Generator: Adobe Illustrator 22.0.1, SVG Export Plug-In . SVG Version: 6.00 Build 0)  -->
<svg version="1.0" id="Livello_1" xmlns="http://www.w3.org/2000/svg" xmlns:xlink="http://www.w3.org/1999/xlink" x="0px" y="0px"
	 width="30px" height="30px" viewBox="0 0 30 30" enable-background="new 0 0 30 30" xml:space="preserve">
<circle fill="#666666" cx="15" cy="15" r="15"/>
<path fill="#FFFFFF" d="M15,30C6.7,30,0,23.3,0,15S6.7,0,15,0s15,6.7,15,15S23.3,30,15,30z M15,0.5C7,0.5,0.5,7,0.5,15
	S7,29.5,15,29.5S29.5,23,29.5,15S23,0.5,15,0.5z M20.5,18H20v-5.5c0-2.6-1.9-4.7-4.4-5C15.6,7.2,15.3,7,15,7s-0.6,0.2-0.6,0.5
	c-2.6,0.4-4.4,2.5-4.4,5V18H9.5c-0.3,0-0.5,0.3-0.5,0.5s0.2,0.5,0.5,0.5h11c0.3,0,0.5-0.3,0.5-0.5C21.1,18.3,20.8,18,20.5,18z
	 M11,12.5c0-2,1.5-3.7,3.5-3.9c0.2,0,0.5-0.1,1,0h0.1l0,0c2,0.3,3.5,1.9,3.5,3.9V18h-8L11,12.5L11,12.5z M12.5,20
	c-0.1,0.2-0.1,0.4-0.1,0.5c0,1.4,1.1,2.5,2.5,2.5s2.5-1.1,2.5-2.5c0-0.2,0-0.4-0.1-0.5H12.5z"/>
</svg>
