<?xml version="1.0" encoding="utf-8"?>
<!-- Generator: Adobe Illustrator 19.0.0, SVG Export Plug-In . SVG Version: 6.00 Build 0)  -->
<!DOCTYPE svg PUBLIC "-//W3C//DTD SVG 1.0//EN" "http://www.w3.org/TR/2001/REC-SVG-20010904/DTD/svg10.dtd">
<svg version="1.0" id="Livello_1" xmlns="http://www.w3.org/2000/svg" xmlns:xlink="http://www.w3.org/1999/xlink" x="0px" y="0px"
	 viewBox="0 0 45 45" enable-background="new 0 0 45 45" xml:space="preserve">
<g id="Livello_2">
	<circle id="XMLID_650_" fill="#1A171B" cx="35.5" cy="33.5" r="9.4"/>
	<rect id="XMLID_649_" x="0.8" y="2.4" fill="#1A171B" width="4.8" height="4.8"/>
	<rect id="XMLID_648_" x="0.8" y="14.6" fill="#1A171B" width="4.8" height="4.8"/>
	<rect id="XMLID_647_" x="0.8" y="27.2" fill="#1A171B" width="4.8" height="4.8"/>
	<rect id="XMLID_646_" x="10.8" y="2.9" fill="#1A171B" width="19.7" height="3.5"/>
	<rect id="XMLID_645_" x="10.8" y="15.4" fill="#1A171B" width="19.9" height="3.3"/>
	<g id="XMLID_643_">
		<path id="XMLID_644_" fill="#1A171B" d="M25.8,28.2H10.7v3.1h13.8C24.8,30.2,25.2,29.1,25.8,28.2z"/>
	</g>
	<g id="XMLID_469_">
		<path id="XMLID_497_" fill="#FFFFFF" d="M41,36.2c-0.6-0.3-2.2-1.5-2.2-4.8c0-0.1,0-0.2,0-0.3c-0.1-0.7-0.5-1.3-1-1.8
			c-0.1-0.1-0.7-0.8-0.7-1.3l0,0c0-0.7-0.6-1.3-1.4-1.3c-0.8,0-1.4,0.6-1.4,1.4c0,0,0,0,0,0.1c0,0.6-0.6,1.2-0.7,1.3
			c-0.5,0.5-0.9,1.1-1,1.8c0,0.1,0,0.2,0,0.2c0,3.3-1.6,4.5-2.2,4.8c-0.1,0.1-0.2,0.2-0.2,0.4v0.6c0,0.2,0.1,0.3,0.3,0.3H41
			c0.2,0,0.3-0.1,0.3-0.3v-0.6C41.3,36.5,41.2,36.3,41,36.2z M35.8,28.5c-0.3,0-0.5-0.2-0.5-0.5s0.2-0.5,0.5-0.5s0.5,0.2,0.5,0.5
			S36.1,28.5,35.8,28.5z"/>
		<path id="XMLID_70_" fill="#FFFFFF" d="M35.7,39.7c0.7,0,1.3-0.6,1.3-1.3h-2.7C34.4,39.1,35,39.7,35.7,39.7z"/>
	</g>
</g>
</svg>
