<?xml version="1.0" encoding="utf-8"?>
<!-- Generator: Adobe Illustrator 19.0.0, SVG Export Plug-In . SVG Version: 6.00 Build 0)  -->
<!DOCTYPE svg PUBLIC "-//W3C//DTD SVG 1.0//EN" "http://www.w3.org/TR/2001/REC-SVG-20010904/DTD/svg10.dtd">
<svg version="1.0" id="Livello_1" xmlns="http://www.w3.org/2000/svg" xmlns:xlink="http://www.w3.org/1999/xlink" x="0px" y="0px"
	 viewBox="0 0 45 45" enable-background="new 0 0 45 45" xml:space="preserve">
<g id="Livello_4">
	<g id="XMLID_630_">
		<path id="XMLID_634_" d="M18.3,19.2c0.6,0.5,0.5,2,0.3,2.4s-1,0.6-1.7,0.4c-0.8-0.2-1.6,0.6-1.8,1.6s0.2,2,1,2.2
			c0.8,0.2,1.4,1.5,1.4,1.9s-0.5,1-1.3,1.2c-0.7,0.2-1.1,1.3-0.8,2.3s1.2,1.7,1.9,1.4c0.7-0.2,1.5-0.1,1.8,0.3
			c0.2,0.4,0.5,1.8,0,2.4c-0.5,0.6-0.3,1.6,0.5,2.3s1.9,0.8,2.4,0.3c0.5-0.6,2-0.5,2.4-0.3s0.6,1,0.4,1.7c-0.2,0.8,0.6,1.6,1.6,1.8
			s2-0.2,2.2-1s1.5-1.4,1.9-1.4s1,0.5,1.2,1.3c0.2,0.7,1.3,1.1,2.3,0.8s1.7-1.2,1.4-1.9c-0.2-0.7,0.6-1.9,0.9-2.2
			c0.4-0.3,1.1,0,1.7,0.5c0.6,0.5,1.6,0.3,2.3-0.5s0.8-1.9,0.3-2.4c-0.6-0.5-0.5-2-0.3-2.4s1-0.6,1.7-0.4c0.8,0.2,1.6-0.6,1.8-1.6
			s-0.2-2-1-2.2s-1.4-1.5-1.4-1.9s0.5-1,1.3-1.2c0.7-0.2,1.1-1.3,0.8-2.3s-1.2-1.7-1.9-1.4c-0.7,0.2-1.9-0.6-2.2-1s0-1.1,0.5-1.7
			s0.3-1.6-0.5-2.3s-1.9-0.8-2.4-0.3c-0.5,0.6-2,0.5-2.4,0.3s-0.6-1-0.4-1.7c0.2-0.8-0.6-1.6-1.6-1.8s-2,0.2-2.2,1s-1.5,1.4-1.9,1.4
			s-1-0.5-1.2-1.3C27,12.7,26,12.4,25,12.7s-1.7,1.2-1.4,1.9c0.2,0.7-0.6,1.9-0.9,2.2c-0.4,0.3-1.1,0-1.7-0.5s-1.6-0.3-2.3,0.5
			C17.9,17.6,17.8,18.7,18.3,19.2z M26.9,18.7c4.5-1.4,9.2,1,10.7,5.5c1.4,4.5-1,9.2-5.5,10.7s-9.2-1-10.7-5.5
			C20,24.9,22.5,20.1,26.9,18.7z"/>
		<path id="XMLID_631_" d="M3.1,8.3c0.4,0.3,0.3,1.3,0.2,1.5c-0.1,0.3-0.6,0.4-1.1,0.3c-0.5-0.1-1,0.4-1.2,1
			c-0.1,0.7,0.1,1.3,0.6,1.4c0.5,0.1,0.9,0.9,0.9,1.2s-0.3,0.6-0.8,0.8S1,15.3,1.2,16c0.2,0.7,0.8,1.1,1.2,0.9
			c0.5-0.2,1-0.1,1.1,0.2c0.1,0.3,0.3,1.2,0,1.5c-0.3,0.4-0.2,1.1,0.3,1.5c0.5,0.5,1.2,0.5,1.5,0.2C5.8,19.9,6.7,20,7,20.1
			s0.4,0.6,0.3,1.1s0.4,1,1,1.2c0.7,0.1,1.3-0.1,1.4-0.6c0.1-0.5,0.9-0.9,1.2-0.9s0.6,0.3,0.8,0.8s0.8,0.7,1.5,0.5s1.1-0.8,0.9-1.2
			c-0.2-0.5,0.4-1.2,0.6-1.4c0.2-0.2,0.7,0,1.1,0.3s1,0.2,1.5-0.3s0.5-1.2,0.2-1.5c-0.4-0.3-0.3-1.3-0.2-1.5
			c0.1-0.3,0.6-0.4,1.1-0.3s1-0.4,1.2-1c0.1-0.7-0.1-1.3-0.6-1.4c-0.5-0.1-0.9-0.9-0.9-1.2s0.3-0.6,0.8-0.8s0.7-0.8,0.5-1.5
			s-0.8-1.1-1.2-0.9c-0.5,0.2-1.2-0.4-1.4-0.6c-0.2-0.2,0-0.7,0.3-1.1s0.2-1.1-0.3-1.5c-0.5-0.5-1.2-0.5-1.5-0.2
			C15,6.5,14,6.4,13.8,6.3C13.4,6,13.2,5.5,13.3,5s-0.4-1-1-1.2C11.6,3.7,11,4,10.9,4.4c-0.1,0.5-0.9,0.9-1.2,1C9.4,5.4,9,5,8.9,4.5
			C8.7,4.1,8.1,3.9,7.4,4.1C6.8,4.3,6.3,4.8,6.5,5.3S6.1,6.5,5.9,6.7c-0.2,0.2-0.7,0-1.1-0.3s-1-0.2-1.5,0.3S2.7,7.9,3.1,8.3z
			 M8.6,7.9c2.9-0.9,5.9,0.7,6.9,3.5c0.9,2.9-0.7,5.9-3.5,6.9c-2.9,0.9-5.9-0.7-6.9-3.5C4.2,11.9,5.8,8.8,8.6,7.9z"/>
	</g>
</g>
</svg>
