<?xml version="1.0" encoding="utf-8"?>
<!-- Generator: Adobe Illustrator 19.0.0, SVG Export Plug-In . SVG Version: 6.00 Build 0)  -->
<!DOCTYPE svg PUBLIC "-//W3C//DTD SVG 1.0//EN" "http://www.w3.org/TR/2001/REC-SVG-20010904/DTD/svg10.dtd">
<svg version="1.0" id="Livello_1" xmlns="http://www.w3.org/2000/svg" xmlns:xlink="http://www.w3.org/1999/xlink" x="0px" y="0px"
	 viewBox="0 0 45 45" enable-background="new 0 0 45 45" xml:space="preserve">
<g id="Livello_5">
	<g id="XMLID_720_">
		<g id="XMLID_721_">
			<path id="XMLID_731_" fill="#1A171B" d="M36.2,10.1v2.6c0,1.7-1.3,3.6-3.7,3.6s-3.9-2.2-3.9-3.6v-2.6H15.4v2.6
				c0,1.5-1.4,3.5-3.8,3.5s-3.8-2-3.8-3.5v-2.6h-5v30.3h39.1V10.1C41.9,10.1,36.2,10.1,36.2,10.1z M40,38.3H4.3V18.4H40V38.3z"/>
			<g id="XMLID_729_">
				<path id="XMLID_730_" fill="#1A171B" d="M11.5,14.5c-0.8,0-1.5-0.6-1.5-1.5V5.1c0-0.8,0.7-1.5,1.5-1.5s1.4,0.7,1.4,1.5V13
					C13,13.9,12.3,14.5,11.5,14.5L11.5,14.5z"/>
			</g>
			<g id="XMLID_727_">
				<path id="XMLID_728_" fill="#1A171B" d="M32.6,14.4c-0.8,0-1.4-0.7-1.4-1.5V5c0-0.8,0.6-1.5,1.4-1.5C33.4,3.6,34,4.2,34,5v7.9
					C34,13.7,33.4,14.4,32.6,14.4L32.6,14.4z"/>
			</g>
			<g id="XMLID_722_">
				<path id="XMLID_725_" fill="#1A171B" d="M23.2,34.8H11.7c0.1-1.1,0.5-2.2,1.2-3.2s1.9-2.2,3.8-3.6c1.1-0.8,1.8-1.5,2.2-1.9
					c0.3-0.4,0.5-0.8,0.5-1.2c0-0.4-0.2-0.8-0.5-1.1c-0.3-0.3-0.7-0.4-1.2-0.4s-0.9,0.2-1.2,0.5c-0.3,0.3-0.5,0.9-0.6,1.6L12,25.2
					c0.2-1.1,0.4-1.9,0.8-2.5c0.4-0.6,1-1.1,1.7-1.4s1.7-0.5,3-0.5c1.4,0,2.4,0.2,3.2,0.5c0.8,0.3,1.3,0.8,1.8,1.4
					c0.4,0.6,0.6,1.4,0.6,2.2c0,0.8-0.2,1.7-0.7,2.4c-0.5,0.8-1.4,1.6-2.7,2.5c-0.8,0.5-1.3,0.9-1.6,1.1c-0.3,0.2-0.6,0.5-0.9,0.8h6
					L23.2,34.8z"/>
				<path id="XMLID_723_" fill="#1A171B" d="M33.6,20.8v14.1h-3.9v-9.2c-0.6,0.5-1.2,0.9-1.8,1.2c-0.6,0.3-1.3,0.6-2.2,0.8v-3.2
					c1.3-0.4,2.3-0.9,3.1-1.5c0.7-0.6,1.3-1.3,1.7-2.2H33.6z"/>
			</g>
		</g>
	</g>
</g>
</svg>
