<?xml version="1.0" encoding="utf-8"?>
<!-- Generator: Adobe Illustrator 21.1.0, SVG Export Plug-In . SVG Version: 6.00 Build 0)  -->
<svg version="1.0" id="Livello_1" xmlns="http://www.w3.org/2000/svg" xmlns:xlink="http://www.w3.org/1999/xlink" x="0px" y="0px"
	 width="30px" height="30px" viewBox="0 0 30 30" enable-background="new 0 0 30 30" xml:space="preserve">
<rect fill="#979797" width="30" height="30" opacity="0"/>
<circle fill="#3F4760" cx="15" cy="15" r="15"/>
<path fill="#FFFFFF" d="M15,30C6.7,30,0,23.3,0,15C0,6.7,6.7,0,15,0c8.3,0,15,6.7,15,15C30,23.3,23.3,30,15,30z M15,0.5
	C7,0.5,0.5,7,0.5,15S7,29.5,15,29.5S29.5,23,29.5,15S23,0.5,15,0.5z M16.5,12.2c0.6,0,1.1,0.5,1.1,1.1v3.2c0,0.6-0.5,1.1-1.1,1.1
	h-3.2c-0.6,0-1.1-0.5-1.1-1.1v-3.2c0-0.6,0.5-1.1,1.1-1.1H16.5 M16.5,11.1h-3.2c-1.2,0-2.2,1-2.2,2.2v3.2c0,1.2,1,2.2,2.2,2.2h3.2
	c1.2,0,2.2-1,2.2-2.2v-3.2C18.8,12.1,17.8,11.1,16.5,11.1L16.5,11.1z M21.9,20.6c0.1-0.1,0.1-0.4,0-0.5l-2-2c-0.1-0.1-0.4-0.1-0.5,0
	c-0.1,0.1-0.1,0.4,0,0.5l2,2c0.1,0.1,0.2,0.1,0.3,0.1S21.8,20.7,21.9,20.6z M23.1,14.8c0-0.2-0.2-0.4-0.4-0.4h-2.8
	c-0.2,0-0.4,0.2-0.4,0.4s0.2,0.4,0.4,0.4h2.8C22.9,15.2,23.1,15,23.1,14.8z M15.5,10V7.2c0-0.2-0.2-0.4-0.4-0.4S14.8,7,14.8,7.2V10
	c0,0.2,0.2,0.4,0.4,0.4S15.5,10.2,15.5,10z M19.9,11.5l2-2C22,9.4,22,9.2,21.8,9c-0.1-0.1-0.4-0.1-0.5,0l-2,2
	c-0.1,0.1-0.1,0.4,0,0.5c0.1,0.1,0.2,0.1,0.3,0.1S19.8,11.5,19.9,11.5z M10.6,11.5c0.1-0.1,0.1-0.4,0-0.5l-2-2
	C8.5,8.9,8.2,8.9,8.1,9C8,9.2,8,9.4,8.1,9.5l2,2c0.1,0.1,0.2,0.1,0.3,0.1S10.5,11.5,10.6,11.5z M10.4,14.8c0-0.2-0.2-0.4-0.4-0.4
	H7.3c-0.2,0-0.4,0.2-0.4,0.4s0.2,0.4,0.4,0.4h2.8C10.3,15.2,10.4,15,10.4,14.8z M8.7,20.6l2-2c0.1-0.1,0.1-0.4,0-0.5
	c-0.1-0.1-0.4-0.1-0.5,0l-2,2c-0.1,0.1-0.1,0.4,0,0.5c0.1,0.1,0.2,0.1,0.3,0.1S8.6,20.7,8.7,20.6z M13.4,22c0.3,0.6,0.8,1.1,1.3,1.1
	h0.6c0.5,0,0.9-0.5,1.3-1.1H13.4z M17.3,19.5c0-0.1-0.1-0.2-0.2-0.2h-4.3c-0.1,0-0.2,0.1-0.2,0.2v1.9c0,0.1,0.1,0.2,0.2,0.2h4.3
	c0.1,0,0.2-0.1,0.2-0.2V19.5z"/>
</svg>
