<?xml version="1.0" encoding="utf-8"?>
<!-- Generator: Adobe Illustrator 19.0.0, SVG Export Plug-In . SVG Version: 6.00 Build 0)  -->
<!DOCTYPE svg PUBLIC "-//W3C//DTD SVG 1.0//EN" "http://www.w3.org/TR/2001/REC-SVG-20010904/DTD/svg10.dtd">
<svg version="1.0" id="Livello_1" xmlns="http://www.w3.org/2000/svg" xmlns:xlink="http://www.w3.org/1999/xlink" x="0px" y="0px"
	 viewBox="0 0 45 45" enable-background="new 0 0 45 45" xml:space="preserve">
<g id="Livello_6">
	<g id="XMLID_628_">
		<path id="XMLID_629_" fill="#1A171B" d="M38.8,2.9c-4.5,4-8.9,8-13.5,12c-0.4,0.4-0.3,1.1,0.2,1.3l4,1.6c0.5,0.2,0.7,0.9,0.2,1.3
			L18,29.6c-0.4,0.3-0.3,1,0.1,1.3l3,1.9c0.4,0.3,0.5,0.9,0.1,1.2c-1.8,1.9-6.7,6.3-10,9.3c-0.7,0.6-1.6-0.2-1.2-0.9
			c0.9-1.8,2-4,2.9-5.7c0.2-0.4,0-0.9-0.4-1.1L8,33.8c-0.5-0.2-0.7-0.9-0.3-1.3l8.1-9.1c0.4-0.4,0.2-1.2-0.4-1.3l-8.4-2
			C6.4,20,6.2,19.4,6.4,19c1.7-3.2,3.5-6.4,5.2-9.5c1.3-2.3,2.5-4.7,3.8-7c0.2-0.4,0.9-0.9,1.3-0.9c6.1,0,17-0.1,21.6-0.1
			C39,1.5,39.4,2.4,38.8,2.9z"/>
	</g>
</g>
</svg>
