<?xml version="1.0" encoding="utf-8"?>
<!-- Generator: Adobe Illustrator 19.0.0, SVG Export Plug-In . SVG Version: 6.00 Build 0)  -->
<!DOCTYPE svg PUBLIC "-//W3C//DTD SVG 1.0//EN" "http://www.w3.org/TR/2001/REC-SVG-20010904/DTD/svg10.dtd">
<svg version="1.0" id="Livello_1" xmlns="http://www.w3.org/2000/svg" xmlns:xlink="http://www.w3.org/1999/xlink" x="0px" y="0px"
	 viewBox="0 0 45 45" enable-background="new 0 0 45 45" xml:space="preserve">
<g id="XMLID_655_">
	<path id="XMLID_657_" fill="#1A171B" d="M35.2,38.6h-5.9c-5.4,0-9.8-4.4-9.8-9.8V6.6l4.1,0v22.2c0,3.2,2.6,5.8,5.8,5.8h5.9
		c3.2,0,5.8-2.6,5.8-5.8v-6.4c0-3.2-2.6-5.8-5.8-5.8H28v-4.1h7.1c5.4,0,9.8,4.4,9.8,9.8v6.4C45,34.2,40.6,38.6,35.2,38.6L35.2,38.6z
		"/>
	<path id="XMLID_656_" fill="#1A171B" d="M16.3,12.4h-4.1c-0.3-2.2-2.2-4-4.5-4H4.5C2,8.4,0,10.4,0,12.9V16c0,2.5,2,4.5,4.5,4.5h3.1
		c2.3,0,4.2-1.8,4.5-4h4.1V12.4z"/>
</g>
</svg>
