<?xml version="1.0" encoding="utf-8"?>
<!-- Generator: Adobe Illustrator 19.0.0, SVG Export Plug-In . SVG Version: 6.00 Build 0)  -->
<!DOCTYPE svg PUBLIC "-//W3C//DTD SVG 1.0//EN" "http://www.w3.org/TR/2001/REC-SVG-20010904/DTD/svg10.dtd">
<svg version="1.0" id="Livello_1" xmlns="http://www.w3.org/2000/svg" xmlns:xlink="http://www.w3.org/1999/xlink" x="0px" y="0px"
	 viewBox="0 0 45 45" enable-background="new 0 0 45 45" xml:space="preserve">
<g id="Livello_3">
	<g id="XMLID_699_">
		<path id="XMLID_715_" fill="#FFFFFF" stroke="#1A171B" stroke-width="1.235" stroke-miterlimit="10" d="M35.5,2H16.7
			c-0.9,0-1.8,0.3-2.4,0.9L8.9,7.7c-0.7,0.7-1.2,1.6-1.2,2.6v30c0,1.5,1.2,2.7,2.7,2.7H35c1.7,0,3-1.3,3-3V4.6
			C38.1,3.2,36.9,2,35.5,2z"/>
		<rect id="XMLID_712_" x="10.8" y="18" fill="#1A171B" width="24.3" height="1.2"/>
		<rect id="XMLID_709_" x="23.9" y="8.2" fill="#1A171B" width="11.1" height="1.2"/>
		<polygon id="XMLID_706_" fill="#1A171B" points="9.4,9.2 16,3.3 16.2,3.3 16.2,9.3 9.4,9.3 		"/>
		<rect id="XMLID_703_" x="10.7" y="37.3" fill="#1A171B" width="23.8" height="1.2"/>
		<rect id="XMLID_700_" x="10.7" y="26.9" fill="#1A171B" width="24.4" height="1.2"/>
	</g>
</g>
</svg>
