<?xml version="1.0" encoding="utf-8"?>
<!-- Generator: Adobe Illustrator 21.0.2, SVG Export Plug-In . SVG Version: 6.00 Build 0)  -->
<svg version="1.0" id="Livello_1" xmlns="http://www.w3.org/2000/svg" xmlns:xlink="http://www.w3.org/1999/xlink" x="0px" y="0px"
	 viewBox="0 0 45 45" enable-background="new 0 0 45 45" xml:space="preserve">
<g id="Livello_6">
	<path d="M13.7,42.9l7.6-9.6c0,0,3.7-5.3,6.9-6.1c3.2-0.8,4.4-1.1,6.5-1.5s4-1.6,5.5-3.7s2.8-5.2,3.7-9.2c0,0,0.2-1.5-0.9-1.7
		c0,0-0.5,0-1.4,0.6c0,0-4.1,3.3-6.1,4.8c0,0-2.2,1.3-5.9-2c0,0-2.1-1.8-1.6-5.2c0-0.1,0.4-0.6,0.4-0.6l6.1-5.1c0,0,1.3-1,0.1-1.3
		C33.2,2,30.9,2,27,3.2c-7.5,2.3-7.6,6.7-7.4,8.5s1,6.1-0.9,9.3c-1.9,3.2-5.7,8-5.7,8l-7.7,9.8c-0.5,0.6-0.3,1.5,0.4,1.9l5.3,2.8
		C11.9,43.9,13,43.7,13.7,42.9z"/>
</g>
</svg>
