<?xml version="1.0" encoding="utf-8"?>
<!-- Generator: Adobe Illustrator 19.1.0, SVG Export Plug-In . SVG Version: 6.00 Build 0)  -->
<svg version="1.1" id="Layer_1" xmlns="http://www.w3.org/2000/svg" xmlns:xlink="http://www.w3.org/1999/xlink" x="0px" y="0px"
	 viewBox="-17 18 45 45" style="enable-background:new -17 18 45 45;" xml:space="preserve">
<g id="Layer_23">
	<path d="M5.5,19C-6.4,19-16,28.6-16,40.5S-6.4,62,5.5,62S27,52.4,27,40.5S17.4,19,5.5,19z M12,49H-2v-2.4l2.7-2.3
		c4.3-3.8,6.5-6.1,6.5-8.4C7.2,34.3,6.3,33,4,33c-1.7,0-3.2,0.8-4.2,1.6l-1.3-3.3c1.5-1.1,3.8-2,6.5-2c4.4,0,6.9,2.6,6.9,6.2
		c0,3.3-2.3,5.9-5.2,8.5L5,45.5V46h7V49z"/>
</g>
</svg>
