<?xml version="1.0" encoding="utf-8"?>
<!-- Generator: Adobe Illustrator 19.1.0, SVG Export Plug-In . SVG Version: 6.00 Build 0)  -->
<svg version="1.1" id="Layer_1" xmlns="http://www.w3.org/2000/svg" xmlns:xlink="http://www.w3.org/1999/xlink" x="0px" y="0px"
	 viewBox="-17 18 45 45" style="enable-background:new -17 18 45 45;" xml:space="preserve">
<g id="Layer_27">
	<g>
		<path d="M5.5,39.5c-1.2,0-2.3,0.8-2.7,1.8c-0.1,0.2-0.2,0.4-0.2,1c0.1,2.1,1.1,3.8,3.2,3.8l0,0c1.6,0,2.6-1.3,2.6-3.3
			C8.4,40.9,7.5,39.5,5.5,39.5z"/>
		<path d="M5.5,19C-6.4,19-16,28.6-16,40.5S-6.4,62,5.5,62S27,52.4,27,40.5S17.4,19,5.5,19z M5.8,49.7c-5.2,0-7.8-3.9-7.8-8.6
			c0-3.7,1.4-6.8,3.5-8.7c2-1.8,4.5-2.8,7.6-2.9c0.8-0.1,0.9-0.1,1.9,0V33c-1,0-1.1,0.1-1.8,0.2C5.1,33.5,3.3,35,2.8,38h0.1
			c1-1,2.3-1.7,4.2-1.7c3.3,0,6.1,2.3,6.1,6.4C13.1,46.6,10.1,49.7,5.8,49.7z"/>
	</g>
</g>
</svg>
