<?xml version="1.0" encoding="utf-8"?>
<!-- Generator: Adobe Illustrator 19.1.0, SVG Export Plug-In . SVG Version: 6.00 Build 0)  -->
<svg version="1.1" id="Layer_1" xmlns="http://www.w3.org/2000/svg" xmlns:xlink="http://www.w3.org/1999/xlink" x="0px" y="0px"
	 viewBox="-17 18 45 45" style="enable-background:new -17 18 45 45;" xml:space="preserve">
<g id="Layer_30">
	<g>
		<path d="M3.4,45.6c0,0.1,0.1,0.2,0.2,0.3c1.6-3.2,4.6-5.5,8.2-6.2c-0.3-0.6-0.2-1.6,0-1.9c0.2-0.4,0.9-0.6,1.6-0.4
			s1.5-0.5,1.7-1.5c0.2-1-0.2-1.9-0.9-2.1c-0.7-0.2-1.3-1.4-1.4-1.8c0-0.4,0.5-1,1.2-1.2s1-1.2,0.7-2.2s-1.1-1.6-1.9-1.4
			c-0.7,0.2-1.8-0.6-2.1-0.9c-0.2-0.3,0-1.1,0.5-1.6c0.5-0.6,0.3-1.6-0.5-2.2c-0.8-0.7-1.8-0.8-2.3-0.2c-0.5,0.6-1.9,0.4-2.3,0.3
			c-0.4-0.2-0.6-0.9-0.4-1.6c0.2-0.7-0.5-1.5-1.5-1.7c-1-0.2-1.9,0.2-2.1,0.9c-0.2,0.7-1.4,1.3-1.8,1.4c-0.4,0-1-0.5-1.2-1.2
			c-0.2-0.7-1.2-1-2.2-0.7c-1,0.3-1.6,1.1-1.4,1.9c0.3,0.4-0.5,1.5-0.9,1.8c-0.3,0.2-1.1,0-1.6-0.5s-1.6-0.3-2.2,0.5
			c-0.7,0.7-0.8,1.8-0.3,2.3c0.6,0.5,0.4,1.9,0.3,2.3c-0.2,0.4-0.9,0.6-1.6,0.4c-0.7-0.2-1.5,0.5-1.7,1.5c-0.2,1,0.2,1.9,0.9,2.1
			c0.7,0.2,1.3,1.4,1.4,1.8c0,0.4-0.5,1-1.2,1.2s-1,1.2-0.7,2.2s1.1,1.6,1.9,1.4c0.7-0.2,1.5-0.1,1.7,0.3c0.2,0.4,0.5,1.7,0,2.3
			C-9,41.7-8.8,42.8-8,43.4c0.8,0.7,1.8,0.8,2.3,0.2s1.9-0.4,2.3-0.3c0.4,0.2,0.6,0.9,0.4,1.6c-0.2,0.7,0.5,1.5,1.5,1.7
			s1.9-0.2,2.1-0.9C0.8,45,2,44.4,2.4,44.3C2.6,44.3,3.1,44.9,3.4,45.6z M-6.5,35.3c-1.4-4.3,1-8.8,5.2-10.2c4.3-1.4,8.8,1,10.2,5.2
			c1.4,4.3-1,8.8-5.2,10.2C-0.6,41.9-5.1,39.6-6.5,35.3z"/>
	</g>
	<g>
		<path d="M13.8,40c-6.1,0-11,4.9-11,11s4.9,11,11,11s11-4.9,11-11S19.9,40,13.8,40z M13.8,58.1c-1.2,0-2.2-0.1-2.2-2.1H16
			C16,58,15,58.1,13.8,58.1z M20,55.2c0,0.2-0.2-0.2-0.4-0.2H8c-0.2,0,0,0.4,0,0.2v-0.7c0-0.2,0-0.4,0.1-0.4
			c0.7-0.4,2.4-1.7,2.4-5.4c0-0.1,0-0.2,0-0.3c0.1-0.8,0.5-1.5,1.1-2c0.1-0.1,0.7-0.8,0.7-1.4c0,0,0,0,0-0.1c0-0.8,0.7-1.5,1.5-1.5
			s1.5,0.7,1.5,1.5c0,0,0,0,0,0.1c0,0.6,0.7,1.4,0.7,1.5c0.6,0.5,1,1.2,1.1,2c0,0.1,0,0.2,0,0.3c0,3.7,1.8,5,2.5,5.4
			c0.1,0.1,0.3,0.3,0.3,0.4L20,55.2L20,55.2z"/>
		<circle cx="13.8" cy="44.9" r="0.6"/>
	</g>
</g>
</svg>
