<?xml version="1.0" encoding="utf-8"?>
<!-- Generator: Adobe Illustrator 19.1.0, SVG Export Plug-In . SVG Version: 6.00 Build 0)  -->
<svg version="1.1" id="Layer_1" xmlns="http://www.w3.org/2000/svg" xmlns:xlink="http://www.w3.org/1999/xlink" x="0px" y="0px"
	 viewBox="-17 18 45 45" style="enable-background:new -17 18 45 45;" xml:space="preserve">
<g id="Layer_42_-_old">
	<path id="XMLID_3945_" d="M-3.6,52.7c2.4,0,4.4-1.9,4.4-4.3h-8.9C-8,50.8-6.1,52.7-3.6,52.7z"/>
	<g>
		<g>
			<path d="M6.6,42.7c-1.6-1.5-3.5-4.5-3.5-9.8c0-0.2,0-0.4-0.1-0.6c-0.2-1.6-1-3.1-2.2-4.1c-0.2-0.2-1.5-1.7-1.5-3v-0.1
				c0-1.7-1.4-3-3.1-3s-3.1,1.4-3.1,3.1v0.1C-7,26.5-8.3,28-8.4,28.2c-1.1,1-1.9,2.5-2.2,4.1c0,0.2-0.1,0.4-0.1,0.6
				c0,7.4-3.6,10.1-5,10.8c0,0.1-0.3,0.4-0.3,0.8V46c0,0.3,0.3,1,0.6,1H4.7C5.1,45,5.8,43.9,6.6,42.7z M-3.6,26.3
				c-0.7,0-1.2-0.6-1.2-1.2c0-0.7,0.6-1.2,1.2-1.2c0.7,0,1.2,0.6,1.2,1.2C-2.4,25.8-3,26.3-3.6,26.3z"/>
		</g>
		<path d="M16,38.5c-6.1,0-11,4.9-11,11s4.9,11,11,11s11-4.9,11-11S22.1,38.5,16,38.5z M14,55h-4V44h4V55z M22,55h-4V44h4V55z"/>
	</g>
</g>
</svg>
