<?xml version="1.0" encoding="utf-8"?>
<!-- Generator: Adobe Illustrator 19.1.0, SVG Export Plug-In . SVG Version: 6.00 Build 0)  -->
<svg version="1.1" id="Layer_1" xmlns="http://www.w3.org/2000/svg" xmlns:xlink="http://www.w3.org/1999/xlink" x="0px" y="0px"
	 viewBox="-17 18 45 45" style="enable-background:new -17 18 45 45;" xml:space="preserve">
<g id="Layer_66">
	<g>
		<path id="XMLID_4724_" d="M-3.6,52c2.4,0,4.4-1.9,4.4-4.3h-8.9C-8,50.1-6.1,52-3.6,52z"/>
		<path d="M6.4,41.6c-1.5-1.5-3.2-4.4-3.2-9.6c0-0.2,0-0.4-0.1-0.6c-0.2-1.6-1-3-2.2-4.1c-0.2-0.2-1.5-1.7-1.5-3v-0.1
			c0-1.7-1.4-3-3.1-3s-3.1,1.4-3.1,3.1v0.1c-0.1,1.2-1.4,2.7-1.5,2.9c-1.1,1-1.9,2.5-2.2,4.1c0,0.2-0.1,0.4-0.1,0.6
			c0,7.4-3.6,10.1-5,10.8c-0.1,0.3-0.4,0.6-0.4,1v1.5c0,0.3,0.3,0.7,0.6,0.7H4.3C4.7,44,5.5,42.9,6.4,41.6z M-3.6,25.6
			c-0.7,0-1.2-0.6-1.2-1.2c0-0.7,0.6-1.2,1.2-1.2c0.7,0,1.2,0.6,1.2,1.2C-2.4,25-3,25.6-3.6,25.6z"/>
	</g>
	<path d="M16,38.3c-5.8,0-10.5,4.7-10.5,10.5S10.2,59.3,16,59.3s10.5-4.7,10.5-10.5S21.8,38.3,16,38.3z M19.1,55L16,50l-3,5h-2.4
		l4.3-6.1L10.8,43h2.4l2.9,4l3-4h2.4l-4.1,5.8l4.2,6.2H19.1z"/>
</g>
</svg>
