<?xml version="1.0" encoding="utf-8"?>
<!-- Generator: Adobe Illustrator 19.2.1, SVG Export Plug-In . SVG Version: 6.00 Build 0)  -->
<!DOCTYPE svg PUBLIC "-//W3C//DTD SVG 1.0//EN" "http://www.w3.org/TR/2001/REC-SVG-20010904/DTD/svg10.dtd">
<svg version="1.0" id="Livello_1" xmlns="http://www.w3.org/2000/svg" xmlns:xlink="http://www.w3.org/1999/xlink" x="0px" y="0px"
	 viewBox="0 0 45 45" enable-background="new 0 0 45 45" xml:space="preserve">
<g id="Livello_16">
	<g>
		<path id="XMLID_4876_" d="M27.9,30.1c0.4,0.3,0.3,1.2,0.2,1.4c-0.1,0.2-0.6,0.4-1,0.3c-0.5-0.1-1,0.3-1.1,1
			c-0.1,0.6,0.1,1.2,0.6,1.3s0.8,0.9,0.9,1.2c0,0.3-0.3,0.6-0.8,0.8c-0.5,0.1-0.7,0.8-0.5,1.4c0.2,0.6,0.7,1,1.2,0.9
			s0.9-0.1,1.1,0.2c0.1,0.2,0.3,1.1,0,1.4c-0.3,0.4-0.2,1,0.3,1.4s1.1,0.5,1.5,0.2c0.3-0.4,1.2-0.3,1.4-0.2c0.2,0.1,0.4,0.6,0.3,1
			c-0.1,0.5,0.3,1,1,1.1c0.6,0.1,1.2-0.1,1.3-0.6s0.9-0.8,1.2-0.9c0.3,0,0.6,0.3,0.8,0.8c0.1,0.5,0.8,0.7,1.4,0.5
			c0.6-0.2,1-0.7,0.9-1.2s0.4-1.2,0.6-1.3c0.2-0.2,0.7,0,1,0.3c0.4,0.3,1,0.2,1.4-0.3s0.5-1.1,0.2-1.5c-0.4-0.3-0.3-1.2-0.2-1.4
			s0.6-0.4,1-0.3c0.5,0.1,1-0.3,1.1-1c0.1-0.6-0.1-1.2-0.6-1.3s-0.8-0.9-0.9-1.2c0-0.3,0.3-0.6,0.8-0.8c0.5-0.1,0.7-0.8,0.5-1.4
			s-0.7-1-1.2-0.9s-1.2-0.4-1.3-0.6c-0.2-0.2,0-0.7,0.3-1c0.3-0.4,0.2-1-0.3-1.4s-1.1-0.5-1.5-0.2c-0.3,0.4-1.2,0.3-1.4,0.2
			c-0.2-0.1-0.4-0.6-0.3-1c0.1-0.5-0.3-1-1-1.1c-0.6-0.1-1.2,0.1-1.3,0.6s-0.9,0.8-1.2,0.9c-0.3,0-0.6-0.3-0.8-0.8
			c-0.1-0.5-0.8-0.7-1.4-0.5c-0.6,0.2-1,0.7-0.9,1.2s-0.4,1.2-0.6,1.3c-0.2,0.2-0.7,0-1-0.3s-1-0.2-1.4,0.3
			C27.6,29.1,27.6,29.8,27.9,30.1z M33.2,29.8c2.7-0.9,5.6,0.6,6.5,3.3s-0.6,5.6-3.3,6.5s-5.6-0.6-6.5-3.3
			C29,33.5,30.5,30.6,33.2,29.8z"/>
		<path fill="#1A171B" d="M18.1,1.5c-1.3,0.1-3.4,0.3-5.5,0.6c-1.2,0.2-2.3,0.5-3.4,0.8C6.9,3.6,4.7,4.6,3,6.3
			C0.9,8.4,0.9,10.9,3,13c0.8,0.8,1.7,1.4,2.7,1.9c2.6,1.4,5.4,2.1,8.2,2.4c5.3,0.7,10.6,0.4,15.7-1.4c1.9-0.7,3.6-1.6,5-3
			c2-2.1,2-4.6,0-6.6c-0.8-0.8-1.8-1.5-2.8-2C27.8,2.2,23.4,1.7,18.1,1.5z"/>
		<path fill="#1A171B" d="M1.4,12.9c0,1.8,0,3.4,0,5c0,1.1,0.4,2.1,1.1,3c1.2,1.4,2.7,2.4,4.4,3.1c5.5,2.2,11.3,2.7,17.1,1.8
			c7.6-1.2,12.1-5.4,12.2-7.4c0.1-1.8,0-3.6,0-5.4c-0.7,1.5-1.7,2.7-3,3.4c-1.6,0.9-3.3,1.7-5.1,2.2c-6.2,1.8-12.4,1.8-18.6,0
			C6.2,17.7,3.1,16.4,1.4,12.9z"/>
		<path fill="#1A171B" d="M1.4,29.7c0,1.9,0,3.5,0,5.1c0,1.1,0.4,2.1,1,2.9c1.1,1.5,2.7,2.4,4.3,3.1c5.2,2.2,10.7,2.6,16.3,2
			c0.5-0.1,1.1-0.2,1.5-0.2c-0.8-2-1.6-3.8-2.4-5.8c-0.3,0-0.9,0.1-1.4,0.1C16.4,37,12,36.6,7.9,35C5.2,34,2.8,32.7,1.4,29.7z"/>
		<path fill="#1A171B" d="M1.5,21.4c0,1.9-0.1,3.8,0,5.6c0.1,0.7,0.4,1.6,0.9,2.2C3,30,3.9,30.7,4.7,31.3c2.8,1.8,5.9,2.6,9.2,3
			c2.8,0.4,5.6,0.5,8.4,0.2c0.2-2.3,0.8-4.4,2.1-6.4c-0.2,0-0.4,0-0.5,0c-4.9,0.7-9.7,0.5-14.5-0.9C6.2,26.1,3.1,24.8,1.5,21.4z"/>
	</g>
</g>
</svg>
