<?xml version="1.0" encoding="utf-8"?>
<!-- Generator: Adobe Illustrator 19.2.1, SVG Export Plug-In . SVG Version: 6.00 Build 0)  -->
<!DOCTYPE svg PUBLIC "-//W3C//DTD SVG 1.0//EN" "http://www.w3.org/TR/2001/REC-SVG-20010904/DTD/svg10.dtd">
<svg version="1.0" id="Livello_1" xmlns="http://www.w3.org/2000/svg" xmlns:xlink="http://www.w3.org/1999/xlink" x="0px" y="0px"
	 viewBox="0 0 45 45" enable-background="new 0 0 45 45" xml:space="preserve">
<g id="Livello_12">
	<path fill="#06171B" d="M33,22.8c-5.5,0-10,4.5-10,10s4.5,10,10,10s10-4.5,10-10S38.5,22.8,33,22.8z M39.8,32.5l-5.2,3.6
		c-0.2,0.1-0.4,0.2-0.5,0.2c-0.2,0-0.4-0.2-0.4-0.6v-2c-0.2,0-0.4,0-0.6,0c-3.2,0-5.8,1.2-6.8,3.7c-0.3-3.6,2.9-6.8,7.4-7.4v-2
		c0-0.4,0.1-0.6,0.4-0.6c0.1,0,0.3,0,0.5,0.1l5.2,3.6C40.3,31.6,40.3,32.1,39.8,32.5z"/>
	<g>
		<path fill="#06171B" d="M1.3,2.3c2-0.4,6.1-0.7,9.9-0.7c4.7,0,7.5,0.5,10,1.9c2.3,1.2,4.1,3.5,4.1,6.6c0,3-1.8,5.8-5.6,7.2v0.1
			c3.9,1,6.7,4,6.7,8.3c0,3-1.4,5.5-3.5,7.2c-2.4,2-6.5,3-13.2,3c-3.8,0-6.6-0.2-8.3-0.5V2.3H1.3z M8.9,15.2h2.5
			c4,0,6.2-1.7,6.2-4.2c0-2.6-1.9-3.9-5.4-3.9c-1.7,0-2.6,0.1-3.3,0.2C8.9,7.3,8.9,15.2,8.9,15.2z M8.9,30.1c0.8,0.1,1.7,0.1,3,0.1
			c3.5,0,6.5-1.3,6.5-4.8c0-3.4-3.1-4.8-6.9-4.8H8.9V30.1z"/>
	</g>
</g>
</svg>
