<?xml version="1.0" encoding="utf-8"?>
<!-- Generator: Adobe Illustrator 19.1.0, SVG Export Plug-In . SVG Version: 6.00 Build 0)  -->
<svg version="1.0" id="Layer_1" xmlns="http://www.w3.org/2000/svg" xmlns:xlink="http://www.w3.org/1999/xlink" x="0px" y="0px"
	 viewBox="14 -13 45 45" enable-background="new 14 -13 45 45" xml:space="preserve">
<g id="Layer_29">
	<path id="XMLID_3947_" d="M21-4.6c0.6,0.6,0.5,2.1,0.3,2.5c-0.2,0.4-1,0.6-1.8,0.5c-0.8-0.2-1.7,0.6-1.9,1.7
		c-0.2,1.1,0.2,2.1,1,2.3c0.8,0.2,1.5,1.5,1.5,2s-0.6,1.1-1.3,1.3C18,5.9,17.7,7,18,8.1s1.3,1.7,2,1.5c0.8-0.3,1.6-0.1,1.8,0.3
		c0.2,0.4,0.5,1.9,0,2.5c-0.6,0.6-0.3,1.7,0.5,2.5c0.8,0.8,2,0.9,2.5,0.3s2.1-0.5,2.5-0.3c0.4,0.2,0.6,1,0.5,1.8
		c-0.2,0.8,0.6,1.7,1.7,1.9c1.1,0.2,2.1-0.2,2.3-1c0.2-0.8,1.5-1.5,2-1.5s1.1,0.6,1.3,1.3c0.3,0.8,1.3,1.1,2.4,0.8
		c1.1-0.3,1.7-1.3,1.5-2c-0.3-0.8,0.6-2,1-2.3c0.4-0.3,1.2,0,1.8,0.5c0.6,0.6,1.7,0.3,2.5-0.5c0.8-0.8,0.9-2,0.3-2.5
		c-0.6-0.6-0.5-2.1-0.3-2.5c0.2-0.4,1-0.6,1.8-0.5c0.8,0.2,1.7-0.6,1.9-1.7s-0.2-2.1-1-2.3c-0.8-0.2-1.4-1.5-1.5-2
		c0-0.5,0.6-1.1,1.3-1.3c0.8-0.3,1.1-1.3,0.8-2.4s-1.3-1.7-2-1.5c-0.8,0.3-2-0.6-2.3-1s0-1.2,0.5-1.8c0.6-0.6,0.3-1.7-0.5-2.5
		s-2-0.9-2.5-0.3c-0.6,0.6-2.1,0.5-2.5,0.3s-0.6-1-0.5-1.8c0.2-0.8-0.6-1.7-1.7-1.9s-2.1,0.2-2.3,1s-1.5,1.5-2,1.5s-1.1-0.6-1.3-1.3
		c-0.3-0.8-1.3-1.1-2.4-0.8c-1.1,0.3-1.7,1.3-1.5,2c0.3,0.8-0.6,2-1,2.3c-0.4,0.3-1.2,0-1.8-0.5c-0.6-0.6-1.7-0.4-2.5,0.4
		C20.5-6.3,20.4-5.2,21-4.6z M30.1-5.2c4.7-1.5,9.7,1.1,11.3,5.8c1.5,4.7-1.1,9.7-5.8,11.3c-4.7,1.5-9.7-1.1-11.2-5.8
		C22.8,1.3,25.4-3.7,30.1-5.2z"/>
	<path id="XMLID_584_" d="M40.2,18c0.3,0.3,0.3,1.2,0.2,1.4s-0.6,0.4-1,0.3c-0.4-0.1-0.9,0.3-1.1,0.9c-0.1,0.6,0.1,1.2,0.6,1.3
		c0.4,0.1,0.8,0.9,0.8,1.1c0,0.3-0.3,0.6-0.7,0.7c-0.4,0.1-0.6,0.7-0.4,1.3c0.2,0.6,0.7,1,1.1,0.8c0.4-0.1,0.9-0.1,1,0.2
		c0.1,0.2,0.3,1.1,0,1.4c-0.3,0.3-0.2,1,0.3,1.4s1.1,0.5,1.4,0.2c0.3-0.3,1.2-0.3,1.4-0.2s0.4,0.6,0.3,1s0.3,0.9,0.9,1.1
		c0.6,0.1,1.2-0.1,1.3-0.6c0.1-0.4,0.9-0.8,1.1-0.8c0.3,0,0.6,0.3,0.7,0.7c0.1,0.4,0.7,0.6,1.3,0.4c0.6-0.2,1-0.7,0.8-1.1
		c-0.1-0.4,0.3-1.1,0.6-1.3c0.2-0.2,0.7,0,1,0.3s1,0.2,1.4-0.3s0.5-1.1,0.2-1.4c-0.3-0.3-0.3-1.2-0.2-1.4s0.6-0.4,1-0.3
		c0.4,0.1,0.9-0.3,1.1-0.9c0.1-0.6-0.1-1.2-0.6-1.3c-0.4-0.1-0.8-0.9-0.8-1.1c0-0.3,0.3-0.6,0.7-0.7c0.4-0.1,0.6-0.7,0.4-1.3
		c-0.2-0.6-0.7-1-1.1-0.8c-0.4,0.1-1.1-0.3-1.3-0.6c-0.2-0.2,0-0.7,0.3-1s0.2-1-0.3-1.4s-1.1-0.5-1.4-0.2c-0.3,0.3-1.2,0.3-1.4,0.2
		c-0.2-0.1-0.4-0.6-0.3-1c0.1-0.4-0.3-0.9-0.9-1.1c-0.6-0.1-1.2,0.1-1.3,0.6c-0.1,0.4-0.9,0.8-1.1,0.8c-0.3,0-0.6-0.3-0.7-0.7
		c-0.1-0.4-0.7-0.6-1.3-0.4c-0.6,0.2-1,0.7-0.8,1.1c0.1,0.4-0.3,1.1-0.6,1.3c-0.2,0.2-0.7,0-1-0.3c-0.3-0.3-1-0.2-1.4,0.3
		C39.9,17.1,39.8,17.7,40.2,18z M45.2,17.7c2.6-0.8,5.4,0.6,6.3,3.2c0.8,2.6-0.6,5.4-3.2,6.3C45.7,28,42.9,26.6,42,24
		C41.2,21.4,42.6,18.6,45.2,17.7z"/>
</g>
</svg>
