<?xml version="1.0" encoding="utf-8"?>
<!-- Generator: Adobe Illustrator 19.1.0, SVG Export Plug-In . SVG Version: 6.00 Build 0)  -->
<svg version="1.0" id="Layer_1" xmlns="http://www.w3.org/2000/svg" xmlns:xlink="http://www.w3.org/1999/xlink" x="0px" y="0px"
	 viewBox="14 -13 45 45" enable-background="new 14 -13 45 45" xml:space="preserve">
<g id="Layer_17">
	<g>
		<path d="M39.9,16.2c-2.3-1.9-4.6-3.8-6.9-5.7c0.1-0.2,0.2-0.3,0.3-0.4c5.6-6.2,11.3-12.4,17.6-18c1.3-1.1,2.6-2.2,3.9-3.3
			c1-0.8,1.7-0.9,2.5-0.3C58-11,58-10.2,57.4-9.1C54.2-3.4,50.6,2.1,46.7,7.4c-2.1,2.8-4.3,5.6-6.5,8.4C40.1,15.9,40,16,39.9,16.2z"
			/>
		<path d="M15.5,31c2.6-0.9,4-2.9,4.8-5.3c0.7-1.8,1.4-3.6,2.7-5.1c1.3-1.6,3-2.5,5.1-2.1c0.3,0.1,0.6,0.2,0.9,0.4
			c1,0.8,2,1.7,3.1,2.5c0.5,0.4,0.7,0.9,0.8,1.5c0.1,1.8-0.7,3.3-1.9,4.6c-2.1,2.2-4.8,3.2-7.8,3.4C20.5,31.1,18,31,15.5,31z"/>
		<path d="M29.3,16.3c0.8-1.4,1.5-2.7,2.3-4.1c2.3,1.9,4.5,3.7,6.8,5.6c-1.2,1.1-2.3,2.1-3.5,3.1C33,19.4,31.2,17.9,29.3,16.3z"/>
	</g>
</g>
</svg>
