<?xml version="1.0" encoding="utf-8"?>
<!-- Generator: Adobe Illustrator 19.1.0, SVG Export Plug-In . SVG Version: 6.00 Build 0)  -->
<svg version="1.0" id="Layer_1" xmlns="http://www.w3.org/2000/svg" xmlns:xlink="http://www.w3.org/1999/xlink" x="0px" y="0px"
	 viewBox="-275 398.9 45 45" enable-background="new -275 398.9 45 45" xml:space="preserve">
<g>
	<path d="M-240,417.8c0,0.1,0,0.3,0,0.4c-0.3,0.9-0.9,1.1-1.8,1.1c-0.5,0-1,0-1.5,0c-1.1,0-2.3,0-3.4,0c-0.1,0-0.3,0.1-0.3,0.2
		c-0.2,0.6-0.3,1.1-0.4,1.7c0.1,0,0.2,0.1,0.3,0.1c1.3,0.5,2.5,1.2,3.5,2.2c1.7,1.8,2.4,3.9,2.3,6.3c0,0.9-1.2,1.4-2,0.9
		c-0.4-0.3-0.6-0.7-0.6-1.2c0-1.7-0.6-3.3-1.9-4.4c-0.8-0.7-1.8-1.2-2.8-1.5c-1.6,2.7-3.8,4.7-6.9,5.7c0-0.2,0-0.3,0-0.4
		c0-3.1,0-6.2,0-9.3c0-0.7,0-1.5-0.3-2.2c-0.2-0.5-0.4-0.9-1-0.9c-0.5,0-0.8,0.5-1,0.9c-0.3,0.7-0.3,1.4-0.3,2.2c0,3.1,0,6.2,0,9.3
		c0,0.1,0,0.3,0,0.4c-1.3-0.4-2.5-1-3.6-1.8c-1.3-1-2.4-2.2-3.2-3.6c-0.1-0.1-0.1-0.2-0.3-0.2c-1.4,0.5-2.6,1.1-3.4,2.3
		c-0.8,1.1-1.1,2.3-1.1,3.6c0,0.8-0.5,1.4-1.3,1.4c-0.7,0-1.3-0.6-1.2-1.4c0-0.4,0-0.9,0.1-1.3c0.5-3.3,2.4-5.5,5.5-6.8
		c0.2-0.1,0.4-0.1,0.6-0.2c-0.1-0.5-0.3-1.1-0.4-1.6c-0.1-0.3-0.2-0.3-0.4-0.3c-1.7,0-3.3,0-5,0c-0.9,0-1.4-0.3-1.7-1.1
		c0-0.1,0-0.3,0-0.4c0.3-0.9,1-1.1,1.8-1.1c1.5,0,3,0,4.5,0c0.1,0,0.2,0,0.4,0c0-0.7,0-1.4,0-2.1c0-0.1-0.1-0.2-0.2-0.3
		c-0.6-0.5-1.2-1-1.7-1.6c-1.8-2.2-2.3-4.9-2.3-7.6c0-0.7,0.5-1.2,1.3-1.2c0.6,0,1.2,0.4,1.2,1c0.1,0.7,0.1,1.5,0.2,2.3
		c0.2,1.5,0.7,2.9,1.6,4.1c0.6,0.8,1.5,1.2,2.3,1.6c3.3,1.5,6.8,2,10.4,1.4c1.6-0.2,3.1-0.7,4.6-1.3c1-0.4,1.8-1,2.5-1.8
		c1-1.3,1.4-2.8,1.6-4.4c0.1-0.6,0.1-1.2,0.1-1.8c0.1-0.6,0.7-1,1.3-1c0.6,0,1.2,0.5,1.2,1.1c0,0.8,0,1.6-0.1,2.4
		c-0.4,2.8-1.5,5.3-3.9,7c-0.1,0.1-0.1,0.2-0.1,0.2c0,0.7,0,1.4,0,2.2c0.2,0,0.3,0,0.4,0c1.5,0,3.1,0,4.6,0
		C-240.8,416.6-240.2,416.9-240,417.8z"/>
	<path d="M-256.8,412.6c-1.4-0.1-2.8-0.1-4.1-0.5c-1.1-0.3-2.1-0.8-2.8-1.8c-0.5-0.9-0.6-1.8-0.6-2.8c0-1.8,1.1-2.9,2.6-3.7
		c0.4-0.2,0.7-0.3,1.1-0.5c0.1-0.1,0.2-0.2,0.3-0.3c0.4-1.7,1.8-2.9,3.5-2.9c1.8,0,3.2,1.1,3.6,2.9c0,0.1,0.2,0.2,0.3,0.3
		c0.8,0.3,1.6,0.7,2.2,1.3c1.2,1.1,1.6,2.4,1.4,4c-0.2,1.3-0.7,2.4-2,3.1c-0.7,0.4-1.5,0.6-2.3,0.7
		C-254.7,412.4-255.7,412.5-256.8,412.6z"/>
</g>
<g>
	<path d="M-246.9,440.6v-1.9h-3.6v-1.2l3.1-5h2.3v4.8h1v1.4h-1v1.9H-246.9z M-246.9,437.2v-1.8c0-0.5,0-1,0.1-1.5h-0.1
		c-0.3,0.5-0.5,1-0.8,1.5l-1.1,1.8v0H-246.9z"/>
	<path d="M-242,436.3c-0.8-0.4-1.2-1.1-1.2-1.8c0-1.4,1.2-2.3,2.9-2.3c1.9,0,2.7,1.1,2.7,2.1c0,0.7-0.4,1.4-1.2,1.8v0
		c0.8,0.3,1.5,1,1.5,2c0,1.5-1.2,2.5-3.1,2.5c-2.1,0-3-1.2-3-2.3C-243.4,437.4-242.9,436.8-242,436.3L-242,436.3z M-239.2,438.4
		c0-0.7-0.5-1.1-1.3-1.3c-0.6,0.2-1,0.6-1,1.2c0,0.6,0.4,1.1,1.2,1.1C-239.6,439.4-239.2,438.9-239.2,438.4z M-241.3,434.5
		c0,0.6,0.5,0.9,1.2,1.1c0.4-0.1,0.8-0.5,0.8-1c0-0.5-0.3-1-1-1C-241,433.5-241.3,434-241.3,434.5z"/>
	<path d="M-230.9,434h-3.2l-0.2,1.3c0.2,0,0.3,0,0.5,0c0.8,0,1.6,0.2,2.2,0.6c0.6,0.4,1,1.1,1,2.1c0,1.5-1.3,2.9-3.5,2.9
		c-1,0-1.8-0.2-2.3-0.5l0.3-1.4c0.4,0.2,1.1,0.4,1.8,0.4c0.8,0,1.6-0.4,1.6-1.2c0-0.8-0.7-1.4-2.3-1.4c-0.5,0-0.8,0-1.1,0.1l0.5-4.3
		h4.5V434z"/>
</g>
</svg>
