<?xml version="1.0" encoding="utf-8"?>
<!-- Generator: Adobe Illustrator 19.1.0, SVG Export Plug-In . SVG Version: 6.00 Build 0)  -->
<svg version="1.1" id="Layer_1" xmlns="http://www.w3.org/2000/svg" xmlns:xlink="http://www.w3.org/1999/xlink" x="0px" y="0px"
	 viewBox="14 -13 45 45" style="enable-background:new 14 -13 45 45;" xml:space="preserve">
<style type="text/css">
	.st0{fill:#1A171B;}
</style>
<g id="Livello_7">
	<g id="XMLID_8_">
		<rect id="XMLID_9852_" x="38.3" y="18.4" class="st0" width="2.6" height="12.6"/>
		<g id="XMLID_5665_">
			<g id="XMLID_48_">
				<path id="XMLID_50_" class="st0" d="M44-8v2c0,1.6,1.3,2.9,2.9,2.9h2c1.6,0,2.9-1.3,2.9-2.9v-2c0-1.6-1.3-2.9-2.9-2.9h-2
					C45.3-10.8,44-9.6,44-8z"/>
				<rect id="XMLID_49_" x="41.4" y="-8.3" class="st0" width="2.8" height="2.7"/>
			</g>
		</g>
		<g id="XMLID_10_">
			<g id="XMLID_52_">
				<path id="XMLID_54_" class="st0" d="M44,23.8v2c0,1.6,1.3,2.9,2.9,2.9h2c1.6,0,2.9-1.3,2.9-2.9v-2c0-1.6-1.3-2.9-2.9-2.9h-2
					C45.3,20.9,44,22.2,44,23.8z"/>
				<rect id="XMLID_53_" x="41.4" y="23.4" class="st0" width="2.8" height="2.7"/>
			</g>
		</g>
		<polygon id="XMLID_5661_" class="st0" points="38.3,2 38.3,-12 40.8,-12 40.8,2 		"/>
		<g id="XMLID_1170_">
			<path id="XMLID_1345_" class="st0" d="M26.1,3.9h-2c-1.6,0-2.9,1.3-2.9,2.9v2c0,1.6,1.3,2.9,2.9,2.9h2c1.6,0,2.9-1.3,2.9-2.9v-2
				C29,5.2,27.7,3.9,26.1,3.9z"/>
			<rect id="XMLID_1313_" x="28.7" y="6.4" class="st0" width="7.6" height="2.7"/>
		</g>
		<rect id="XMLID_1169_" x="38.3" y="3.9" class="st0" width="2.6" height="12.8"/>
	</g>
</g>
</svg>
