<?xml version="1.0" encoding="utf-8"?>
<!-- Generator: Adobe Illustrator 19.1.0, SVG Export Plug-In . SVG Version: 6.00 Build 0)  -->
<svg version="1.1" id="Livello_1" xmlns="http://www.w3.org/2000/svg" xmlns:xlink="http://www.w3.org/1999/xlink" x="0px" y="0px"
	 viewBox="-283 374 45 45" style="enable-background:new -283 374 45 45;" xml:space="preserve">
<style type="text/css">
	.st0{fill:#1A171B;}
</style>
<g id="XMLID_13_">
	<path d="M-248.7,407.7c1.4,0,2.5,1.1,2.5,2.5v2.1c0,1.4-1.1,2.5-2.5,2.5h-2.1c-1.2,0-2.2-0.9-2.4-2.2l-0.1-0.4h-0.4h-2.2v-1.9h2.2
		h0.4l0.1-0.4c0.2-1.2,1.2-2.2,2.4-2.2L-248.7,407.7 M-248.7,407.2h-2.1c-1.5,0-2.7,1.2-2.9,2.6h-2.7v2.9h2.7
		c0.2,1.5,1.4,2.6,2.9,2.6h2.1c1.7,0,3-1.3,3-3v-2.1C-245.7,408.5-247,407.2-248.7,407.2L-248.7,407.2z"/>
</g>
<g id="XMLID_12_">
	<path d="M-258.5,405.2v12.2h-1.7v-12.2H-258.5 M-258,404.7h-2.7v13.2h2.7V404.7L-258,404.7z"/>
</g>
<path d="M-248.7,378.8c1.4,0,2.5,1.1,2.5,2.5v2c0,1.4-1.1,2.5-2.5,2.5h-2.1c-1.2,0-2.2-0.9-2.4-2.2l-0.1-0.4h-0.4h-2.2v-1.8h2.2h0.4
	l0.1-0.4c0.2-1.2,1.2-2.2,2.4-2.2H-248.7 M-248.7,378.3h-2.1c-1.5,0-2.7,1.2-2.9,2.6h-2.7v2.8h2.7c0.2,1.5,1.4,2.6,2.9,2.6h2.1
	c1.7,0,3-1.3,3-3v-2C-245.7,379.6-247,378.3-248.7,378.3L-248.7,378.3z"/>
<path d="M-258.6,375.5v13.6h-1.6v-13.6H-258.6 M-258.1,375h-2.6v14.6h2.6V375L-258.1,375z"/>
<g id="XMLID_6609_">
	<path id="XMLID_5662_" class="st0" d="M-261.6,395.7h-7.7c-0.2-1.5-1.4-2.6-2.9-2.6h-2.1c-1.7,0-3,1.3-3,3v2.1c0,1.7,1.3,3,3,3h2.1
		c1.5,0,2.7-1.2,2.9-2.6h7.7V395.7z"/>
	<rect id="XMLID_5_" x="-260.7" y="390.4" class="st0" width="2.7" height="13.4"/>
</g>
</svg>
