<?xml version="1.0" encoding="utf-8"?>
<!-- Generator: Adobe Illustrator 19.1.0, SVG Export Plug-In . SVG Version: 6.00 Build 0)  -->
<svg version="1.0" id="Layer_1" xmlns="http://www.w3.org/2000/svg" xmlns:xlink="http://www.w3.org/1999/xlink" x="0px" y="0px"
	 viewBox="-17 18 45 45" enable-background="new -17 18 45 45" xml:space="preserve">
<g id="Layer_35">
	<path d="M27,30.3c0-2-0.9-3.6-2.6-4.7c-0.7-0.5-1.6-0.7-2.4-0.8c-0.3,0-0.7,0-1,0c-10.4,0-20.9,0-31.3,0c-1.5,0-2.8,0.4-3.9,1.4
		c-0.9,0.8-1.5,1.7-1.7,2.9c0,0.1-0.1,0.3-0.1,0.4c0,7.6,0,15.2,0,22.8c0.2,0.6,0.4,1.3,0.7,1.9c0.9,1.7,2.4,2.6,4.3,2.8
		c0.2,0,0.4,0,0.5,0c10.6,0,21.2,0,31.8,0c1.5,0,2.8-0.4,3.9-1.4c1-1,1.6-2.2,1.7-3.6c0-0.2,0-0.3,0-0.5C27,44.4,27,37.4,27,30.3z
		 M22.1,27.6C16.6,32.4,11,37.1,5.5,41.8C0,37.1-5.6,32.3-11.1,27.6C-10.6,27.4,21.6,27.4,22.1,27.6z M-13.3,30.1
		c0-0.2,0.1-0.4,0.1-0.8c3.8,3.3,7.6,6.5,11.4,9.8c-3.8,4.3-7.6,8.7-11.4,13C-13.4,51.7-13.5,31.9-13.3,30.1z M21.3,54.3
		c-3.7,0-7.4,0-11.1,0c-6.8,0-13.7,0-20.5,0c-0.3,0-0.7-0.1-1-0.1v-0.1c3.9-4.4,7.7-8.8,11.6-13.3c0.6,0.5,1.2,1,1.8,1.5
		c0.8,0.7,1.7,1.4,2.5,2.1c0.6,0.6,1.4,0.6,2,0c1.4-1.2,2.7-2.3,4.1-3.5c0.1,0,0.1-0.1,0.2-0.1c3.9,4.4,7.7,8.8,11.7,13.3
		C22,54.3,21.7,54.3,21.3,54.3z M24.2,52.1L24.2,52.1c-3.9-4.3-7.7-8.6-11.5-13c3.8-3.2,7.6-6.5,11.3-9.7h0.1c0,0.3,0.1,0.6,0.1,0.9
		c0,7.1,0,14.1,0,21.2C24.3,51.7,24.3,51.9,24.2,52.1z"/>
</g>
</svg>
