<?xml version="1.0" encoding="utf-8"?>
<!-- Generator: Adobe Illustrator 19.1.0, SVG Export Plug-In . SVG Version: 6.00 Build 0)  -->
<svg version="1.1" id="Layer_1" xmlns="http://www.w3.org/2000/svg" xmlns:xlink="http://www.w3.org/1999/xlink" x="0px" y="0px"
	 viewBox="14 -13 45 45" style="enable-background:new 14 -13 45 45;" xml:space="preserve">
<style type="text/css">
	.st0{stroke:#000000;stroke-width:0.25;stroke-miterlimit:10;}
</style>
<g id="Layer_43">
	<g>
		<path class="st0" d="M23.9-12l2.2,3.4c0.6,0.9,1.1,1.7,1.6,2.6h0.1c0.5-0.9,1-1.8,1.6-2.6l2.2-3.4h3.1l-5.4,7.6l5.5,8.1h-3.3
			l-2.3-3.5c-0.6-0.9-1.1-1.8-1.7-2.7h-0.1c-0.5,1-1.1,1.8-1.7,2.7l-2.3,3.5h-2.9l5.6-8L20.7-12H23.9z"/>
		<path d="M36.6-7.2v-2h16.8v2H36.6z M36.6-0.8v-2h16.8v2H36.6z"/>
		<path class="st0" d="M23.9,8.1l2.2,3.4c0.6,0.9,1.1,1.7,1.6,2.6h0.1c0.5-0.9,1-1.8,1.6-2.6l2.2-3.4h3.1l-5.4,7.6l5.5,8.1h-3.3
			l-2.3-3.5c-0.6-0.9-1.1-1.8-1.7-2.7h-0.1c-0.5,1-1.1,1.8-1.7,2.7l-2.3,3.5h-2.9l5.6-8l-5.3-7.7C20.8,8.1,23.9,8.1,23.9,8.1z"/>
		<path class="st0" d="M39.2,8.1l3.4,9.3c0.4,1,0.7,2.3,1,3.2h0.1c0.3-0.9,0.6-2.1,1-3.3l3.1-9.2h3l-4.3,11.2
			c-2,5.4-3.4,8.2-5.4,9.9c-1.4,1.2-2.8,1.7-3.5,1.9l-0.7-2.4c0.7-0.2,1.7-0.7,2.5-1.4c0.8-0.6,1.8-1.7,2.4-3.2
			c0.1-0.3,0.2-0.5,0.2-0.7s-0.1-0.4-0.2-0.7L36,8.2h3.2V8.1z"/>
	</g>
</g>
</svg>
