<?xml version="1.0" encoding="utf-8"?>
<!-- Generator: Adobe Illustrator 19.1.0, SVG Export Plug-In . SVG Version: 6.00 Build 0)  -->
<svg version="1.0" id="Layer_1" xmlns="http://www.w3.org/2000/svg" xmlns:xlink="http://www.w3.org/1999/xlink" x="0px" y="0px"
	 viewBox="-17 18 45 45" enable-background="new -17 18 45 45" xml:space="preserve">
<g id="Layer_14">
	<path d="M-2.2,22.3c0.5,0,1,0,1.5,0c6.3,0,12.5,0,18.8,0c1.6,0,2.5,0.9,2.6,2.2s-0.9,2.4-2.6,2.4c-2.9,0-5.9,0-8.8,0
		c-3.6,0-7.3,0-10.9,0c-0.6,0-0.6,0-0.6,0.6c0,0.4,0,0.8,0,1.3c0,0.3-0.1,0.4-0.4,0.4c-1.3,0-2.6,0-3.8,0c-0.3,0-0.4-0.2-0.4-0.4
		c0-0.5,0-0.9,0-1.4c0-0.4-0.2-0.5-0.5-0.5c-2,0-4,0-5.9,0c-1.1,0-2-0.3-2.5-1.3c-0.7-1.3,0.1-3,1.6-3.2c1-0.1,1.9-0.1,2.9-0.1
		c1.3,0,2.7,0,4,0c0.4,0,0.5-0.1,0.5-0.5c0-0.5,0-0.9,0-1.4c0-0.3,0.1-0.4,0.5-0.4c1.2,0,2.4,0,3.7,0c0.4,0,0.5,0.1,0.5,0.5
		C-2.2,21.1-2.2,21.6-2.2,22.3z"/>
	<path d="M10.8,29.6c-5.3,0-10,2.6-12.9,6.5c-3.8,0-7.5,0-11.3,0c-0.4,0-0.8,0.1-1.1,0.2c-1.2,0.4-1.8,2-1.2,3.2
		c0.5,0.8,1.2,1.2,2.2,1.2c3,0,6,0,9,0C-5,42.3-5.3,44-5.3,45.8c0,1.4,0.2,2.7,0.5,4c-2.9,0-5.8,0-8.6,0c-1.7,0-2.6,1.1-2.5,2.4
		c0.1,1.3,0.9,2.2,2.5,2.2c3.4,0,6.9,0,10.3,0c0.1,0,0.2,0,0.3,0c0.2,0.3,0.4,0.7,0.7,1c0,0.3,0.9,1.3,1.1,1.3
		c3,3.2,7.2,5.2,11.9,5.2C19.7,62,27,54.7,27,45.8S19.7,29.6,10.8,29.6z M23.1,45.6c-2.6,2-5.4,4-8,6c-0.3,0.2-0.6,0.5-0.9,0.3
		s-0.3-0.5-0.3-0.9c0-0.7,0-1.4,0-2.1c0-0.5-0.4-0.9-0.9-1c-2-0.3-3.9-0.2-5.8,0.3c-1.8,0.5-3.5,1.2-5.1,2.3
		c-0.5,0.3-0.9,0.7-1.4,1.1c-0.1,0.1-0.1,0.1-0.2,0.2c-0.4,0.2-0.8,0.3-1.1,0c-0.2-0.2-0.3-0.7-0.1-1.1c0.2-0.4,0.4-0.8,0.7-1.2
		c1.2-1.9,2.7-3.5,4.5-4.9c2.5-1.9,5.3-3.2,8.4-3.8c0.7-0.2,1-0.5,1-1.2c0-0.6,0-1.3,0-1.9c0-0.1,0-0.3,0.1-0.4
		c0.1-0.3,0.2-0.4,0.5-0.3c0.2,0.1,0.4,0.2,0.5,0.3c2.7,2.1,5.6,4.2,8.4,6.2c0.2,0.2,0.7,0.4,0.7,0.6c0,0.2,0,0.3,0,0.5
		C23.4,45.4,23.4,45.4,23.1,45.6z"/>
</g>
</svg>
