<?xml version="1.0" encoding="utf-8"?>
<!-- Generator: Adobe Illustrator 19.1.0, SVG Export Plug-In . SVG Version: 6.00 Build 0)  -->
<svg version="1.0" id="Layer_1" xmlns="http://www.w3.org/2000/svg" xmlns:xlink="http://www.w3.org/1999/xlink" x="0px" y="0px"
	 viewBox="-275 398.9 45 45" enable-background="new -275 398.9 45 45" xml:space="preserve">
<g id="Layer_68">
	<g>
		<g>
			<path d="M-252.5,443.9c-12.4,0-22.5-10.1-22.5-22.5c0-12.4,10.1-22.5,22.5-22.5S-230,409-230,421.4
				C-230,433.8-240.1,443.9-252.5,443.9z M-252.5,400.9c-11.3,0-20.5,9.2-20.5,20.5c0,11.3,9.2,20.5,20.5,20.5
				c11.3,0,20.5-9.2,20.5-20.5C-232,410.1-241.2,400.9-252.5,400.9z"/>
		</g>
	</g>
	<path d="M-265.8,415.2h2.7l1.9,2.8c0.5,0.7,0.9,1.4,1.3,2.2h0.1c0.4-0.8,0.9-1.5,1.3-2.2l1.9-2.8h2.6l-4.5,6.4l4.6,6.8h-2.7l-1.9-3
		c-0.5-0.8-1-1.5-1.4-2.3h-0.1c-0.4,0.8-0.9,1.5-1.4,2.3l-1.9,3h-2.8l4.7-6.7L-265.8,415.2z"/>
	<path d="M-242.3,431.2c-1.2,3.2-2,4.8-3.2,5.8c-0.8,0.7-1.6,1-2.1,1.1l-0.4-1.5c0.4-0.1,1-0.4,1.5-0.8s1-1,1.4-1.9
		c0.1-0.2,0.1-0.3,0.1-0.4c0-0.1,0-0.2-0.1-0.4l-3.4-8.5h1.8l2,5.4c0.2,0.6,0.4,1.3,0.6,1.9l0,0c0.2-0.6,0.4-1.3,0.6-1.9l1.8-5.4
		h1.8L-242.3,431.2z"/>
	<g>
		<path d="M-248.9,415l3.8-5c0.4-0.5,0.7-0.9,1.1-1.3l0,0h-4.6v-1.3h6.4v1l-3.8,4.9c-0.3,0.5-0.7,0.9-1.1,1.3l0,0h4.9v1.3h-6.9V415
			H-248.9z"/>
	</g>
</g>
</svg>
