<?xml version="1.0" encoding="utf-8"?>
<!-- Generator: Adobe Illustrator 19.1.0, SVG Export Plug-In . SVG Version: 6.00 Build 0)  -->
<svg version="1.0" id="Layer_1" xmlns="http://www.w3.org/2000/svg" xmlns:xlink="http://www.w3.org/1999/xlink" x="0px" y="0px"
	 viewBox="14 -13 45 45" enable-background="new 14 -13 45 45" xml:space="preserve">
<g id="Layer_19">
	<g>
		<path d="M55.8-4.1l-0.1-0.6c0,0-8.7,0.7-18.8-7.9c-0.1-0.1-0.1-0.1-0.2-0.2c-0.4-0.6-0.7-0.1-0.7-0.1s-0.1,0.1-0.2,0.2
			c-1.2,1.3-8.7,7.7-18.3,7.5c-0.7,0-0.6,0.1-0.6,0.3c0,0.1,0,7.7,1.7,15.1c0.9,4.1,3.4,10.4,9,15.5c3,2.7,4.5,3.5,7.1,4.8
			c0.2,0.1,0.4,0.2,0.7,0.3c0.5,0.3,0.8,0.1,0.8,0.1s0.4-0.1,1.1-0.4c2.8-1.1,9.9-4.7,14.1-13.6C56.7,5.7,55.8-4.1,55.8-4.1z
			 M47.4,15.5c-3.4,8-9.6,10.7-10.9,11.2c-0.2,0.1-0.5,0.3-0.8,0.1c-0.1,0-0.1-0.1-0.2-0.1c-3-1.6-7.1-4.4-10.5-11.1
			c-3.3-6.7-2.9-17.5-2.9-17.7c0-0.2-0.1-0.1,0.4-0.2c17.4-3.5,28.1,0.4,28.1,0.4v0.5C50.6-1.4,51.3,6.5,47.4,15.5z"/>
		<path d="M43.7,1.1c0,0-3.3-1.4-8.9,0s-7.5,6.5-7.5,6.5s0.2,5.6,4.4,10c0.2,0.2,1.2,1,1.2,1s1.1,0.2,3.1-1.2c1.1-0.8-1,3.2-1,3.2
			l0.9,0.8c0,0,5.2-3.5,6-10.8c0.1-0.6-0.2-0.4-0.2-0.4l-3.5,0.1l-0.4,2.4c0,0-0.1,1.8-2.6,2.5c-0.8,0.3-1.6,0-2.1-0.4
			c-0.6-0.5-1-1.2-1.4-1.8c-0.2-0.4-0.8-1.9-0.3-3.7c0.2-0.6,0.5-1.2,1-1.9c0.8-1,2-2.1,3.9-2.6c4.6-1.2,5.8,0.5,5.8,0.5
			s0.3,0.4,0.4-0.2C42.9,4.4,43.7,1.1,43.7,1.1z"/>
	</g>
</g>
</svg>
