<?xml version="1.0" encoding="utf-8"?>
<!-- Generator: Adobe Illustrator 19.0.0, SVG Export Plug-In . SVG Version: 6.00 Build 0)  -->
<!DOCTYPE svg PUBLIC "-//W3C//DTD SVG 1.0//EN" "http://www.w3.org/TR/2001/REC-SVG-20010904/DTD/svg10.dtd">
<svg version="1.0" xmlns="http://www.w3.org/2000/svg" xmlns:xlink="http://www.w3.org/1999/xlink" x="0px" y="0px"
	 viewBox="0 0 45 45" enable-background="new 0 0 45 45" xml:space="preserve">
<g id="Livello_1" display="none">
	<circle id="XMLID_9061_" display="inline" fill="#1A171B" cx="22.9" cy="8" r="6.9"/>
	<circle id="XMLID_9062_" display="inline" fill="#1A171B" cx="9.2" cy="37.3" r="6.9"/>
	<circle id="XMLID_9063_" display="inline" fill="#1A171B" cx="36.3" cy="37.8" r="6.9"/>
	<g id="XMLID_913_" display="inline">
		
			<rect id="XMLID_4_" x="12.6" y="15.7" transform="matrix(0.8584 0.513 -0.513 0.8584 13.392 -3.8323)" fill="#1A171B" width="2.1" height="13.4"/>
	</g>
	<g id="XMLID_912_" display="inline">
		
			<rect id="XMLID_3_" x="24.5" y="21.5" transform="matrix(0.488 0.8729 -0.8729 0.488 35.7201 -15.7555)" fill="#1A171B" width="13.7" height="2.1"/>
	</g>
	<g id="XMLID_911_" display="inline">
		
			<rect id="XMLID_2_" x="18.4" y="36.6" transform="matrix(1 1.204686e-03 -1.204686e-03 1 4.492000e-02 -2.755192e-02)" fill="#1A171B" width="8.9" height="1.4"/>
	</g>
</g>
<g id="Livello_2" display="none">
	<polygon id="XMLID_916_" display="inline" fill="#1A171B" points="35.7,42.2 34.5,43.5 30.4,42.8 26,38.2 26.6,31.2 26.3,30.6 
		24.6,30.9 14.1,20.4 14,18.7 13.5,18.1 11.9,18.1 11.1,18.9 5.9,18.6 1.5,13.8 1.5,10.4 3.4,8.8 7.8,13 12.9,7.9 8.7,3.4 10.6,1.5 
		13.8,1.5 18.7,6 18.7,11.3 17.8,13.1 18.5,13.9 20.2,14 30.6,24.2 30.7,26.1 31.3,26.6 38.3,25.8 42.8,30.3 43.5,34.4 42.3,35.7 
		41.3,35.8 37,31.4 31.6,36.7 35.8,41.3 	"/>
</g>
<g id="Livello_3">
	<g id="XMLID_757_">
		<g id="XMLID_148_">
			<path id="XMLID_152_" fill="#1A171B" d="M1.2,26h2.7v2.8h3V26h2.7v7.8H6.9v-2.9h-3v2.9H1.2V26z M13.8,26h2.9l3.5,7.8h-2.7
				L17,32.5h-3.5l-0.5,1.3h-2.7L13.8,26z M16.4,31.1L15.2,28L14,31.1H16.4z M27.1,33.2c-0.8,0.5-1.8,0.7-2.9,0.7
				c-3.3,0-4.4-2.2-4.4-4c0-2.3,1.7-4,4.5-4c1,0,1.9,0.2,2.7,0.5v2.3c-0.8-0.5-1.5-0.7-2.3-0.7c-1.4,0-2.2,0.7-2.2,1.9
				c0,1.2,0.9,1.9,2.2,1.9c0.8,0,1.4-0.2,2.3-0.7V33.2z M35.4,33.2c-0.8,0.5-1.8,0.7-2.9,0.7c-3.2,0-4.4-2.2-4.4-4
				c0-2.3,1.7-4,4.5-4c1,0,1.9,0.2,2.7,0.5v2.3c-0.8-0.5-1.5-0.7-2.3-0.7c-1.4,0-2.2,0.7-2.2,1.9c0,1.2,0.9,1.9,2.2,1.9
				c0.8,0,1.4-0.2,2.3-0.7V33.2z M36.7,26h4c2.3,0,3.1,1.2,3.1,2.4c0,1.2-0.8,2.6-3.2,2.6h-1.1v2.8h-2.7V26z M40.1,29.6
				c0.9,0,1.2-0.4,1.2-1.1c0-0.7-0.3-1-1.2-1h-0.7v2.1H40.1z"/>
			<path id="XMLID_149_" fill="#1A171B" d="M22.5,2.1L22,2.4L1,17.7l1.6,5h1.7c-0.1-0.4-1.1-3.5-1.4-4.3C3.8,17.6,21.6,4.7,22.5,4
				c0.9,0.6,18.7,13.6,19.6,14.3c-0.3,0.8-1.3,4-1.4,4.3h1.7l1.6-5L22.5,2.1z M34.6,41.3H10.4c-0.2-0.6-0.9-2.7-1.2-3.8H7.5l1.7,5.4
				h26.6l1.7-5.4h-1.7C35.5,38.6,34.8,40.7,34.6,41.3z"/>
		</g>
	</g>
</g>
</svg>
