<?xml version="1.0" encoding="utf-8"?>
<!-- Generator: Adobe Illustrator 19.1.0, SVG Export Plug-In . SVG Version: 6.00 Build 0)  -->
<svg version="1.0" id="Layer_1" xmlns="http://www.w3.org/2000/svg" xmlns:xlink="http://www.w3.org/1999/xlink" x="0px" y="0px"
	 viewBox="-275 398.9 45 45" enable-background="new -275 398.9 45 45" xml:space="preserve">
<g id="Layer_62">
	<g>
		<path d="M-255.8,443.6c-0.8-0.1-1.6-0.3-2.5-0.5c0.4-1.5,0.8-2.9,1.2-4.3c6.5,1.6,12.4,0.1,17.6-4.8c0.7-0.6,1.3-1.3,1.8-2.1
			c6.5-9.7,3-21.8-6.4-26.7c-7.7-4-17-2.1-22.5,4.7c-5.3,6.6-4.8,15.2-1.4,20.6c0.7-0.7,1.4-1.4,2.1-2.1c1,3.8,2,7.5,3,11.3
			c-3.8-1-7.5-2-11.2-3c1-1,1.9-1.9,2.9-2.8c-2.2-3.3-3.5-7-3.7-11c-0.1-0.3-0.1-0.5-0.1-0.6c0-0.7,0-1.4,0-2c0-0.2,0-0.4,0.1-0.6
			c0.1-0.8,0.1-1.7,0.3-2.5c0.8-4.5,2.8-8.4,6-11.6c3.6-3.7,7.9-5.9,13-6.6c0.7-0.1,5.5-0.3,8,0.5c10.5,3.2,16.1,9.2,17.6,18.6
			c0.4,2.5,0,6.5-0.2,7.3c-0.8,4.4-2.8,8.3-6,11.6c-3.6,3.7-7.9,5.8-12.9,6.6C-250.3,443.8-254.2,443.9-255.8,443.6z"/>
		<path d="M-265.4,415.9c0.6-1,1.1-2,1.7-3c1.2,0.7,2.5,1.4,3.7,2.1c1.8,1,3.6,2.1,5.5,3.1c1.3-0.5,2.5-0.3,3.4,0.6
			c0.9,0.9,1.1,2.1,0.7,3.4c0.9,1.7,1.9,3.3,2.8,5c0.1,0.1,0.1,0.3,0.2,0.4c-0.7,0.4-1.5,0.8-2.2,1.3c-0.8,0.5-0.8,0.5-1.3-0.3
			c-0.9-1.5-1.8-3-2.7-4.5c-1.3-0.1-2.5-1.1-2.8-2.4c-0.1-0.3-0.2-0.5-0.4-0.6c-2.8-1.6-5.5-3.2-8.3-4.8
			C-265,416.1-265.2,416-265.4,415.9z"/>
	</g>
</g>
</svg>
