<?xml version="1.0" encoding="utf-8"?>
<!-- Generator: Adobe Illustrator 19.1.0, SVG Export Plug-In . SVG Version: 6.00 Build 0)  -->
<svg version="1.0" id="Layer_1" xmlns="http://www.w3.org/2000/svg" xmlns:xlink="http://www.w3.org/1999/xlink" x="0px" y="0px"
	 viewBox="-17 18 45 45" enable-background="new -17 18 45 45" xml:space="preserve">
<g id="Layer_16">
	<path d="M5.5,18.5c-12.2,0-22,9.9-22,22c0,12.2,9.9,22,22,22c12.2-0.1,22-9.9,22-22C27.4,28.3,17.6,18.5,5.5,18.5z M10.1,52.5
		c0,0.1-0.1,0.2-0.2,0.2c-1.2,0.4-2.4,0.9-3.7,1.2c-1.4,0.3-2.8,0.2-4.1-0.6c-1.1-0.7-1.5-1.8-1.5-3.1c0.1-1.6,0.6-3.1,1-4.6
		c0.4-1.4,0.8-2.9,1.1-4.3c0.1-0.5,0.1-1,0-1.5c0-0.6-0.4-0.9-1-1.1c-0.9-0.2-1.8,0-2.6,0.3c-0.1,0-0.2,0-0.3,0.1
		c0.1-0.5,0.2-0.9,0.3-1.3c0-0.1,0.1-0.3,0.3-0.3c1.5-0.6,3-1.2,4.6-1.3c1.4,0,2.6,0.2,3.6,1.2C8.3,38.1,8.5,39,8.5,40
		c0,1.7-0.6,3.3-1,4.9s-0.8,3.2-1.1,4.8c-0.2,1.1,0.3,1.8,1.4,1.9c0.6,0,1.2-0.1,1.9-0.2c0.2,0,0.5-0.1,0.8-0.2
		C10.3,51.6,10.2,52,10.1,52.5z M8,33.2c-0.2,0-0.3,0-0.5,0c-1.2,0-2.3-0.6-2.9-1.5c-0.4-0.5-0.5-1.2-0.5-1.9
		c0.1-1.4,1.2-2.5,2.7-2.9c1.6-0.4,3.4,0.6,3.9,2.1C11.3,31,10,33,8,33.2z"/>
</g>
</svg>
