<?xml version="1.0" encoding="utf-8"?>
<!-- Generator: Adobe Illustrator 20.1.0, SVG Export Plug-In . SVG Version: 6.00 Build 0)  -->
<!DOCTYPE svg PUBLIC "-//W3C//DTD SVG 1.0//EN" "http://www.w3.org/TR/2001/REC-SVG-20010904/DTD/svg10.dtd">
<svg version="1.0" id="Livello_1" xmlns="http://www.w3.org/2000/svg" xmlns:xlink="http://www.w3.org/1999/xlink" x="0px" y="0px"
	 viewBox="0 0 45 45" enable-background="new 0 0 45 45" xml:space="preserve">
<g id="Livello_21">
	<g>
		<path d="M35.1,1.8c0.3,0,0.6,0,0.9,0h0.1c0.4,0.1,0.8,0.1,1.2,0.2c2.6,0.7,4.7,2.9,5.2,5.6c0,0.3,0.1,0.5,0.1,0.8
			c0,0.3,0,0.6,0,0.9v0.1c-0.1,0.4-0.1,0.9-0.2,1.3c-0.7,2.6-2.9,4.6-5.5,5c-0.3,0-0.5,0.1-0.8,0.1s-0.6,0-0.9,0h-0.1
			c-0.3,0-0.7-0.1-1-0.1c-2.7-0.6-4.9-2.9-5.4-5.6c0-0.3-0.1-0.5-0.1-0.8s0-0.6,0-0.9V8.3c0-0.3,0.1-0.6,0.1-1
			c0.6-2.7,2.9-4.9,5.6-5.4C34.5,1.8,34.8,1.8,35.1,1.8z M34,8.7c0,0.7,0,1.5,0,2.2c0,0.2,0,0.3,0.2,0.4c0.1,0.1,0.3,0,0.4-0.1
			c1-0.7,2.1-1.5,3.1-2.2c0.3-0.2,0.3-0.5,0-0.6c-1-0.7-2.1-1.5-3.1-2.2c-0.1-0.1-0.3-0.1-0.4-0.1C34.1,6.2,34,6.4,34,6.5
			C34,7.3,34,8,34,8.7z"/>
	</g>
	<g id="Livello_5">
		<path id="XMLID_914_" fill="#1A171B" d="M39.3,35.8c-1.4-0.5-2.3-0.9-3.4-1.5v1.1H11c0.4-1.6,1-3.8,1.2-4.9c1.9,0.6,9,2.7,9,2.7
			s1.3-7.7,1.7-9.8c2.2,0.5,12,2.9,12,2.9l2.5-8.5L34.8,17c0,0-1.2,4-1.8,6c-2-0.5-12.3-3-12.3-3s-1.3,7.5-1.6,9.6
			c-2-0.6-8.8-2.7-8.8-2.7l-1,4.1V8.4h1.1C10.2,8,9.5,6.4,9,5C8.5,3.4,8.1,2.1,8,1.2C7.9,2.1,7.6,3.4,7,5C6.6,6.4,6.1,7.3,5.6,8.4h1
			v27H1.9v2.8h4.7v5.3h2.7v-5.3h26.5v1.1c0.4-0.2,2-1,3.4-1.5c1.5-0.5,2.8-0.9,3.7-1C42.1,36.7,40.7,36.3,39.3,35.8z"/>
	</g>
</g>
</svg>
