<?xml version="1.0" encoding="utf-8"?>
<!-- Generator: Adobe Illustrator 19.1.0, SVG Export Plug-In . SVG Version: 6.00 Build 0)  -->
<svg version="1.0" id="Layer_1" xmlns="http://www.w3.org/2000/svg" xmlns:xlink="http://www.w3.org/1999/xlink" x="0px" y="0px"
	 viewBox="-275 398.9 45 45" enable-background="new -275 398.9 45 45" xml:space="preserve">
<g id="Layer_67">
	<path id="XMLID_4884_" d="M-245,432.6c0.3,0.2,0.2,0.9,0.1,1.1c-0.1,0.2-0.4,0.3-0.8,0.2c-0.4-0.1-0.7,0.3-0.8,0.7
		c-0.1,0.5,0.1,0.9,0.5,1s0.6,0.7,0.7,0.9c0,0.2-0.2,0.5-0.6,0.6c-0.3,0.1-0.5,0.6-0.4,1.1c0.2,0.5,0.6,0.8,0.9,0.7
		c0.3-0.1,0.7-0.1,0.8,0.1c0.1,0.2,0.2,0.8,0,1.1c-0.2,0.3-0.1,0.8,0.2,1.1c0.4,0.3,0.9,0.4,1.1,0.1c0.2-0.3,0.9-0.2,1.1-0.1
		s0.3,0.4,0.2,0.8c-0.1,0.4,0.3,0.7,0.7,0.8c0.5,0.1,0.9-0.1,1-0.5c0.1-0.4,0.7-0.6,0.9-0.7c0.2,0,0.5,0.2,0.6,0.6
		c0.1,0.3,0.6,0.5,1.1,0.4c0.5-0.2,0.8-0.6,0.7-0.9c-0.1-0.3,0.3-0.9,0.4-1c0.2-0.1,0.5,0,0.8,0.2c0.3,0.2,0.8,0.1,1.1-0.2
		c0.3-0.4,0.4-0.9,0.1-1.1c-0.3-0.2-0.2-0.9-0.1-1.1c0.1-0.2,0.4-0.3,0.8-0.2c0.4,0.1,0.7-0.3,0.8-0.7c0.1-0.5-0.1-0.9-0.5-1
		c-0.4-0.1-0.6-0.7-0.7-0.9c0-0.2,0.2-0.5,0.6-0.6c0.3-0.1,0.5-0.6,0.4-1.1c-0.2-0.5-0.6-0.8-0.9-0.7c-0.3,0.1-0.9-0.3-1-0.4
		c-0.1-0.2,0-0.5,0.2-0.8s0.1-0.8-0.2-1.1c-0.4-0.3-0.9-0.4-1.1-0.1c-0.2,0.3-0.9,0.2-1.1,0.1c-0.2-0.1-0.3-0.4-0.2-0.8
		c0.1-0.4-0.3-0.7-0.7-0.8c-0.5-0.1-0.9,0.1-1,0.5c-0.1,0.4-0.7,0.6-0.9,0.7c-0.2,0-0.5-0.2-0.6-0.6c-0.1-0.3-0.6-0.5-1.1-0.3
		c-0.5,0.2-0.8,0.6-0.7,0.9c0.1,0.3-0.3,0.9-0.4,1c-0.2,0.1-0.5,0-0.8-0.2c-0.3-0.2-0.8-0.1-1.1,0.2
		C-245.2,431.9-245.3,432.4-245,432.6z M-241,432.4c2.1-0.7,4.3,0.5,5,2.6c0.7,2.1-0.5,4.3-2.6,5c-2.1,0.7-4.3-0.5-5-2.6
		C-244.2,435.3-243,433-241,432.4z"/>
	<path d="M-250.5,399.9h-21.3V436l23.8-0.1c0.2-4.1,3.1-7.5,7.1-8.3v-18.2L-250.5,399.9z M-242.2,409.5h-8.8v-8.7L-242.2,409.5z
		 M-242.2,426.4h-28.4v-11.6h28.4V426.4z"/>
	<g>
		<path d="M-266.7,415.8h0.7v8.6h4.1v0.5h-4.8V415.8z"/>
		<path d="M-253.6,420.3c0,3.2-2,4.8-4.1,4.8c-2.3,0-4-1.8-4-4.6c0-3,1.8-4.8,4.1-4.8C-255.3,415.7-253.6,417.5-253.6,420.3z
			 M-261,420.5c0,2.1,1.2,4.1,3.4,4.1c2.2,0,3.4-2,3.4-4.2c0-1.9-1.1-4.1-3.4-4.1C-259.9,416.2-261,418.4-261,420.5z"/>
		<path d="M-245.4,424.6c-0.5,0.2-1.4,0.5-2.7,0.5c-1.2,0-2.3-0.3-3.3-1.2c-0.7-0.7-1.3-2-1.3-3.4c0-2.5,1.7-4.7,4.8-4.7
			c1,0,1.8,0.2,2.1,0.4l-0.2,0.5c-0.5-0.2-1.1-0.4-2-0.4c-2.5,0-4.1,1.6-4.1,4.1c0,2.6,1.5,4.1,4,4.1c1,0,1.6-0.1,1.9-0.3V421h-2.1
			v-0.5h2.8v4.1H-245.4z"/>
	</g>
</g>
</svg>
