<?xml version="1.0" encoding="utf-8"?>
<!-- Generator: Adobe Illustrator 19.1.0, SVG Export Plug-In . SVG Version: 6.00 Build 0)  -->
<svg version="1.0" id="Layer_1" xmlns="http://www.w3.org/2000/svg" xmlns:xlink="http://www.w3.org/1999/xlink" x="0px" y="0px"
	 viewBox="14 -13 45 45" enable-background="new 14 -13 45 45" xml:space="preserve">
<g id="Layer_31">
	<g>
		<g>
			<rect id="XMLID_4520_" x="19.4" y="4.1" width="3.9" height="3.9"/>
			<rect id="XMLID_4445_" x="27.6" y="4.6" width="16.1" height="2.8"/>
		</g>
		<g>
			<rect id="XMLID_3765_" x="19.4" y="-1.9" width="3.9" height="3.9"/>
			<rect id="XMLID_95_" x="27.6" y="-1.4" width="16.1" height="2.8"/>
		</g>
		<rect id="XMLID_4519_" x="19.3" y="10.1" width="3.9" height="3.9"/>
		<rect id="XMLID_4482_" x="19.3" y="16.1" width="3.9" height="3.9"/>
		<polygon points="35.6,22.2 16.5,22.2 16.5,-4 46.2,-4 46.2,9.8 48.1,7.8 48.1,-6 15,-6 15,24.3 35.2,24.3 		"/>
		<polygon points="39.2,16.9 27.4,16.9 27.4,19.5 36.7,19.5 		"/>
		<polygon points="43.8,12.1 43.8,10.7 27.5,10.7 27.5,13.5 42.5,13.5 		"/>
		<g>
			<path d="M55.6,12.4c-4.2,4.2-8.4,8.5-12.6,12.8c-1.5-1.5-3-3-4.5-4.5c4.2-4.3,8.4-8.5,12.7-12.8c0.2,0.2,0.4,0.4,0.6,0.6
				c-4,4-8,8.1-12,12.1c0.2,0.2,0.4,0.4,0.6,0.6c4-4,8-8.1,12-12.1C53.4,10.2,54.5,11.3,55.6,12.4z"/>
			<path d="M56.2,11.6c-1.5-1.5-3-3-4.5-4.5c0.4-0.5,0.9-1,1.4-1.5c0.6-0.6,1.6-0.4,2.2,0.2c0.7,0.7,1.4,1.4,2.2,2.1
				c0.6,0.6,0.7,1.6,0.2,2.3C57.2,10.8,56.7,11.2,56.2,11.6z"/>
			<path d="M37.8,21.3c1.5,1.5,3,3,4.5,4.5c-1.7,0.3-3.5,0.5-5.3,0.8C37.3,24.8,37.5,23,37.8,21.3z"/>
		</g>
	</g>
</g>
</svg>
