<?xml version="1.0" encoding="utf-8"?>
<!-- Generator: Adobe Illustrator 19.1.0, SVG Export Plug-In . SVG Version: 6.00 Build 0)  -->
<svg version="1.0" id="Layer_1" xmlns="http://www.w3.org/2000/svg" xmlns:xlink="http://www.w3.org/1999/xlink" x="0px" y="0px"
	 viewBox="14 -13 45 45" enable-background="new 14 -13 45 45" xml:space="preserve">
<g id="Layer_57">
	<g>
		<g>
			<path d="M16.2,19.5L16.2,19.5c-0.7,0-1.2-0.5-1.2-1.2C15.1,6.6,24.8-3,36.5-3c3.9,0,7.6,1,10.9,3c0.6,0.3,0.8,1.1,0.4,1.6
				c-0.3,0.6-1.1,0.8-1.6,0.4c-2.9-1.7-6.3-2.7-9.7-2.7c-10.4,0-19,8.5-19.1,18.9C17.4,19,16.8,19.5,16.2,19.5z"/>
		</g>
		<g>
			<path d="M56.8,19.5c-0.7,0-1.2-0.5-1.2-1.2c0-3.5-1-6.8-2.8-9.8c-0.3-0.6-0.2-1.3,0.4-1.6c0.6-0.3,1.3-0.2,1.6,0.4
				c2,3.3,3.1,7.1,3.1,11C58,19,57.5,19.5,56.8,19.5L56.8,19.5z"/>
		</g>
		<path d="M51.5,3.2c0,0-16.6,12.1-17.2,12.7c-0.5,0.5-0.8,1.3-0.8,2.1c0,1.7,1.4,3.1,3.1,3.1c0.9,0,1.6-0.3,2.2-0.9
			C39.4,19.5,51.5,3.2,51.5,3.2z"/>
	</g>
</g>
</svg>
