<?xml version="1.0" encoding="utf-8"?>
<!-- Generator: Adobe Illustrator 19.2.1, SVG Export Plug-In . SVG Version: 6.00 Build 0)  -->
<!DOCTYPE svg PUBLIC "-//W3C//DTD SVG 1.0//EN" "http://www.w3.org/TR/2001/REC-SVG-20010904/DTD/svg10.dtd">
<svg version="1.0" id="Livello_1" xmlns="http://www.w3.org/2000/svg" xmlns:xlink="http://www.w3.org/1999/xlink" x="0px" y="0px"
	 viewBox="0 0 45 45" enable-background="new 0 0 45 45" xml:space="preserve">
<path fill="#1A171B" d="M34,23.9c-5.5,0-10,4.5-10,10s4.5,10,10,10s10-4.5,10-10S39.5,23.9,34,23.9z M40.8,33.5l-5.2,3.6
	c-0.2,0.1-0.4,0.2-0.5,0.2c-0.2,0-0.4-0.2-0.4-0.6v-2c-0.2,0-0.4,0-0.6,0c-3.2,0-5.8,1.2-6.8,3.7c-0.3-3.6,2.9-6.8,7.4-7.4v-2
	c0-0.4,0.1-0.6,0.4-0.6c0.1,0,0.3,0,0.5,0.1l5.2,3.6C41.3,32.6,41.3,33.1,40.8,33.5z"/>
<g>
	<path fill="#1A171B" d="M28.8,21.5c-0.1-3.8-0.3-8.4-0.3-13h-0.1c-1,4-2.3,8.5-3.5,12.2L21,33h-5.6L12,20.8
		c-1-3.7-2.1-8.2-2.9-12.3l0,0c-0.2,4.3-0.3,9.1-0.6,13.1L8,33.5H1.4L3.4,2h9.5L16,12.5c1,3.7,2,7.6,2.7,11.3h0.1
		c0.9-3.7,2-7.8,3-11.3L25.2,2h9.3l1.7,25.3h-7L28.8,21.5z"/>
</g>
</svg>
