<?xml version="1.0" encoding="utf-8"?>
<!-- Generator: Adobe Illustrator 19.0.0, SVG Export Plug-In . SVG Version: 6.00 Build 0)  -->
<!DOCTYPE svg PUBLIC "-//W3C//DTD SVG 1.0//EN" "http://www.w3.org/TR/2001/REC-SVG-20010904/DTD/svg10.dtd">
<svg version="1.0" xmlns="http://www.w3.org/2000/svg" xmlns:xlink="http://www.w3.org/1999/xlink" x="0px" y="0px"
	 viewBox="0 0 45 45" enable-background="new 0 0 45 45" xml:space="preserve">
<g id="Livello_1" display="none">
	<circle id="XMLID_9061_" display="inline" fill="#1A171B" cx="22.9" cy="8" r="6.9"/>
	<circle id="XMLID_9062_" display="inline" fill="#1A171B" cx="9.2" cy="37.3" r="6.9"/>
	<circle id="XMLID_9063_" display="inline" fill="#1A171B" cx="36.3" cy="37.8" r="6.9"/>
	<g id="XMLID_913_" display="inline">
		
			<rect id="XMLID_4_" x="12.6" y="15.7" transform="matrix(0.8584 0.513 -0.513 0.8584 13.392 -3.8323)" fill="#1A171B" width="2.1" height="13.4"/>
	</g>
	<g id="XMLID_912_" display="inline">
		
			<rect id="XMLID_3_" x="24.5" y="21.5" transform="matrix(0.488 0.8729 -0.8729 0.488 35.7201 -15.7555)" fill="#1A171B" width="13.7" height="2.1"/>
	</g>
	<g id="XMLID_911_" display="inline">
		
			<rect id="XMLID_2_" x="18.4" y="36.6" transform="matrix(1 1.204686e-03 -1.204686e-03 1 4.492000e-02 -2.755192e-02)" fill="#1A171B" width="8.9" height="1.4"/>
	</g>
</g>
<g id="Livello_2">
	<polygon id="XMLID_916_" fill="#1A171B" points="35.7,42.2 34.5,43.5 30.4,42.8 26,38.2 26.6,31.2 26.3,30.6 24.6,30.9 14.1,20.4 
		14,18.7 13.5,18.1 11.9,18.1 11.1,18.9 5.9,18.6 1.5,13.8 1.5,10.4 3.4,8.8 7.8,13 12.9,7.9 8.7,3.4 10.6,1.5 13.8,1.5 18.7,6 
		18.7,11.3 17.8,13.1 18.5,13.9 20.2,14 30.6,24.2 30.7,26.1 31.3,26.6 38.3,25.8 42.8,30.3 43.5,34.4 42.3,35.7 41.3,35.8 37,31.4 
		31.6,36.7 35.8,41.3 	"/>
</g>
</svg>
