<?xml version="1.0" encoding="utf-8"?>
<!-- Generator: Adobe Illustrator 19.1.0, SVG Export Plug-In . SVG Version: 6.00 Build 0)  -->
<svg version="1.0" id="Layer_1" xmlns="http://www.w3.org/2000/svg" xmlns:xlink="http://www.w3.org/1999/xlink" x="0px" y="0px"
	 viewBox="14 -13 45 45" enable-background="new 14 -13 45 45" xml:space="preserve">
<g id="Layer_34">
	<g>
		<path id="XMLID_4279_" d="M15.1,23.8c0-2.2,1.5-3.2,3.4-3.7c2.7-0.7,5.1-2,7.4-3.6c0.4-0.3,0.6-0.6,0.7-1.2c0.3-2,0.1-4-0.8-5.7
			c-0.3-0.7-0.8-1.3-1.1-1.9c-0.3-0.8-0.4-1.4-0.1-2.2c0.1-0.4,0-0.8,0-1.2c0-1,0-2,0.1-3c0.3-2,1.8-3,3.5-4
			c0.2-0.1,0.4-0.2,0.6-0.3c0.3-0.1,0.3-0.4,0.4-0.5c0.2,0,0.6,0,1.1-0.1c0.4,0.1,1,0.1,1.4,0.2c1.4,0.4,2.7,0.9,3.8,1.8
			c1.6,1.5,2.2,3.5,1.8,5.7c-0.1,0.6-0.3,1.1,0,1.6c0.2,0.3,0.2,0.9,0,1.3c-0.4,0.8-0.2,1.8-1.2,2.4c-0.3,0.2-0.2,0.8-0.4,1.2
			c-0.7,1.5-0.6,3.3-0.4,4.9c0,0.3,0.3,0.7,0.5,0.9c2.3,1.5,4.5,3,7.3,3.7c0.9,0.2,1.7,0.8,2.5,1.4c0.8,0.5,1.1,1.4,1.2,2.2
			c0,0.2,0,0.6,0,0.8c-0.2,0-0.2,0-0.6,0c-10.1,0-20.2,0-30.3,0c-0.5,0-0.4,0-1,0C15.1,24.1,15.1,24,15.1,23.8z"/>
		<path d="M56.8,19.7c-0.8-0.6-1.6-1.2-2.5-1.4c-2.8-0.7-5-2.1-7.3-3.7c-0.2-0.2-0.5-0.6-0.5-0.9c-0.2-1.6-0.3-3.4,0.4-4.9
			c0.2-0.4,0.1-1,0.4-1.2c1-0.6,0.8-1.6,1.2-2.4c0.2-0.4,0.2-1,0-1.3c-0.3-0.6-0.1-1.1,0-1.6c0.4-2.2-0.2-4.1-1.8-5.7
			c-1.1-1-2.4-1.4-3.8-1.8c-0.5-0.1-1.1-0.1-1.4-0.2c-0.5,0.1-0.9,0.1-1.1,0.1c-0.1,0.1-0.1,0.4-0.4,0.5c-0.2,0.1-0.4,0.2-0.6,0.3
			C38.6-4,37.8-3.6,37.2-3c0.1,0.1,0.1,0.1,0.2,0.2c1.7,1.7,2.3,3.8,1.9,6.2c-0.1,0.6-0.3,1.1,0,1.8c0.2,0.3,0.2,0.9,0,1.4
			c-0.4,0.8-0.2,2-1.2,2.6c-0.3,0.2-0.2,0.7-0.3,1.1c0.2,1,0.2,2.1,0,3.3c-0.1,0.5-0.3,0.8-0.6,1.1c0,0.4,0.1,0.8,0.1,1.2
			c0,0.3,0.3,0.7,0.5,0.9c2.4,1.7,4.7,3.2,7.6,4c0.9,0.2,1.8,0.8,2.6,1.5c0.2,0.1,0.4,0.3,0.6,0.5c2.9,0,5.9,0,8.8,0
			c0.4,0,0.4,0,0.6,0c0-0.2,0-0.6,0-0.8C57.9,21.1,57.6,20.2,56.8,19.7z"/>
	</g>
</g>
</svg>
