<?xml version="1.0" encoding="utf-8"?>
<!-- Generator: Adobe Illustrator 19.2.1, SVG Export Plug-In . SVG Version: 6.00 Build 0)  -->
<!DOCTYPE svg PUBLIC "-//W3C//DTD SVG 1.0//EN" "http://www.w3.org/TR/2001/REC-SVG-20010904/DTD/svg10.dtd">
<svg version="1.0" id="Livello_1" xmlns="http://www.w3.org/2000/svg" xmlns:xlink="http://www.w3.org/1999/xlink" x="0px" y="0px"
	 viewBox="0 0 45 45" enable-background="new 0 0 45 45" xml:space="preserve">
<g id="Livello_18">
	<g>
		<path fill="#1A171B" d="M15.2,22.3c0-3.3-2.7-6-6-6s-6,2.7-6,6s2.7,6,6,6C12.6,28.3,15.2,25.6,15.2,22.3z M14.7,22.3
			c0,1.1-0.3,2.2-0.9,3l-2-7.8C13.5,18.4,14.7,20.2,14.7,22.3z M6.9,17.5l-2.2,7.9c-0.6-0.9-0.9-1.9-0.9-3
			C3.9,20.2,5.1,18.3,6.9,17.5z M5.2,25.9l2.4-8.7c0.5-0.2,1.1-0.3,1.7-0.3s1.2,0.1,1.8,0.3l2.2,8.7c-1,1.1-2.4,1.8-4,1.8
			C7.6,27.7,6.2,27,5.2,25.9z"/>
		<path fill="#1A171B" d="M41.4,22.3c0-3.3-2.7-6-6-6s-6,2.7-6,6s2.7,6,6,6S41.4,25.6,41.4,22.3z M40.8,22.3c0,1.1-0.3,2.2-0.9,3
			l-2-7.8C39.6,18.4,40.8,20.2,40.8,22.3z M33.1,17.5l-2.2,7.9c-0.6-0.9-0.9-1.9-0.9-3C30,20.2,31.2,18.3,33.1,17.5z M31.3,25.9
			l2.4-8.7c0.5-0.2,1.1-0.3,1.7-0.3c0.6,0,1.2,0.1,1.8,0.3l2.2,8.7c-1,1.1-2.4,1.8-4,1.8C33.8,27.7,32.3,27,31.3,25.9z"/>
	</g>
	<g>
		<polygon fill="#1A171B" points="22.7,9 22.7,0.8 21.5,0.8 21.5,9 8.7,9 8.7,16.6 9.9,16.6 9.9,10.2 34.8,10.2 34.8,16.6 
			35.9,16.6 35.9,9 		"/>
		<polygon fill="#1A171B" points="34.8,34.7 9.9,34.7 9.9,28.3 8.7,28.3 8.7,35.9 21.5,35.9 21.5,43.8 22.7,43.8 22.7,35.9 
			35.9,35.9 35.9,28.3 34.8,28.3 		"/>
	</g>
</g>
</svg>
