<?xml version="1.0" encoding="utf-8"?>
<!-- Generator: Adobe Illustrator 19.1.0, SVG Export Plug-In . SVG Version: 6.00 Build 0)  -->
<svg version="1.1" id="Layer_1" xmlns="http://www.w3.org/2000/svg" xmlns:xlink="http://www.w3.org/1999/xlink" x="0px" y="0px"
	 viewBox="14 -13 45 45" style="enable-background:new 14 -13 45 45;" xml:space="preserve">
<g id="Livello_9">
	<g id="XMLID_23_">
		<g id="XMLID_28_">
			<path id="XMLID_30_" d="M31-6.3c4.4-6,12.8-7.2,18.8-2.8l0,0c6,4.4,7.2,12.8,2.8,18.8l0,0c-4.4,6-12.8,7.2-18.8,2.8l0,0
				C27.8,8,26.6-0.4,31-6.3L31-6.3z M34-4.1c-3.2,4.3-2.3,10.3,2,13.5l0,0c4.3,3.2,10.3,2.3,13.5-2l0,0c3.2-4.3,2.3-10.3-2-13.5l0,0
				C43.2-9.2,37.2-8.3,34-4.1L34-4.1z"/>
		</g>
		<path id="XMLID_15_" d="M32.4,14.4c-0.9-0.6-1.6-1.4-2.3-2.1L19.8,25.9c-1,1.4-0.7,3.4,0.6,4.4c1.4,1,3.4,0.7,4.4-0.6L35.1,16
			C34.1,15.5,33.2,15,32.4,14.4z"/>
	</g>
</g>
</svg>
