<?xml version="1.0" encoding="utf-8"?>
<!-- Generator: Adobe Illustrator 19.1.0, SVG Export Plug-In . SVG Version: 6.00 Build 0)  -->
<svg version="1.1" id="Layer_1" xmlns="http://www.w3.org/2000/svg" xmlns:xlink="http://www.w3.org/1999/xlink" x="0px" y="0px"
	 viewBox="-283 374 45 45" style="enable-background:new -283 374 45 45;" xml:space="preserve">
<style type="text/css">
	.st0{fill:#1A171B;}
</style>
<g id="XMLID_3076_">
	<path id="XMLID_4236_" class="st0" d="M-264.7,408.4h2.2c0.1,1.2,1.1,2.1,2.3,2.1h1.6c1.3,0,2.4-1.1,2.4-2.3v-1.6
		c0-1.3-1.1-2.3-2.4-2.3h-1.6c-1.2,0-2.1,0.9-2.3,2.1h-2.2C-264.7,406.4-264.7,408.4-264.7,408.4z"/>
	<rect id="XMLID_4233_" x="-268.1" y="402.2" class="st0" width="2.1" height="10.4"/>
</g>
<path id="XMLID_2956_" class="st0" d="M-258.7,381.5h-1.6c-1.2,0-2.2,0.9-2.3,2.1h-2.2v2.2h2.2c0.1,1.2,1.1,2.1,2.3,2.1h1.6
	c1.3,0,2.3-1.1,2.3-2.3V384C-256.3,382.5-257.4,381.5-258.7,381.5z"/>
<polygon id="XMLID_2940_" class="st0" points="-268.1,390.4 -268.1,378.9 -266,378.9 -266,390.4 "/>
<g id="XMLID_87_">
	<path id="XMLID_2939_" class="st0" d="M-268.8,395.1h-6c-0.1-1.2-1.1-2.1-2.3-2.1h-1.6c-1.3,0-2.4,1.1-2.4,2.3v1.6
		c0,1.3,1.1,2.3,2.3,2.3h1.7c1.2,0,2.1-0.9,2.3-2.1h6.1L-268.8,395.1L-268.8,395.1z"/>
	<rect id="XMLID_2938_" x="-268.1" y="390.9" class="st0" width="2.1" height="10.5"/>
</g>
<path id="XMLID_4440_" d="M-240.4,404.8c1,0,1.9,0.8,1.9,1.8v1.6c0,0.9-0.9,1.8-1.9,1.8h-1.6c-0.9,0-1.7-0.7-1.8-1.6v-0.5h-0.5h-1.7
	v-1h1.6h0.4l0.1-0.4c0.2-1,0.9-1.7,1.8-1.7H-240.4 M-240.4,404.3h-1.7c-1.2,0-2.1,0.9-2.3,2.1h-2.1v2h2.2c0.1,1.2,1.1,2.1,2.3,2.1
	h1.6c1.3,0,2.4-1.1,2.4-2.3v-1.6C-238,405.3-239.1,404.3-240.4,404.3L-240.4,404.3z"/>
<path id="XMLID_4438_" d="M-248.3,402.7v9.4h-1.1v-9.4H-248.3 M-247.8,402.2h-2.1v10.4h2.1V402.2L-247.8,402.2z"/>
<path id="XMLID_4357_" d="M-240.5,382c0.5,0,1,0.2,1.3,0.6s0.5,0.9,0.5,1.4v1.6c0,1-0.8,1.8-1.8,1.8h-1.6c-0.9,0-1.7-0.7-1.8-1.6
	v-0.5h-0.5h-1.7v-1.2h1.7h0.5v-0.5c0.1-0.9,0.9-1.6,1.8-1.6H-240.5 M-240.5,381.5h-1.6c-1.2,0-2.2,0.9-2.3,2.1h-2.2v2.2h2.2
	c0.1,1.2,1.1,2.1,2.3,2.1h1.6c1.3,0,2.3-1.1,2.3-2.3V384C-238.1,382.5-239.2,381.5-240.5,381.5L-240.5,381.5z"/>
<path id="XMLID_4300_" d="M-248.3,379.4v10.5h-1.1v-10.5H-248.3 M-247.8,378.9h-2.1v11.5h2.1V378.9L-247.8,378.9z"/>
<g id="XMLID_2941_">
	<path id="XMLID_4288_" d="M-259,393.5c0.9,0,1.7,0.7,1.8,1.6v0.5h0.5h5.5v1h-5.6h-0.4l-0.1,0.4c-0.2,1-0.9,1.7-1.8,1.7h-1.6
		c-1,0-1.8-0.8-1.8-1.8v-1.6c0-0.9,0.9-1.8,1.9-1.8H-259 M-259,393h-1.6c-1.3,0-2.4,1.1-2.4,2.3v1.6c0,1.3,1.1,2.3,2.3,2.3h1.6
		c1.2,0,2.1-0.9,2.3-2.1h6.2v-2h-6.1C-256.8,393.9-257.8,393-259,393L-259,393z"/>
	<path id="XMLID_4286_" d="M-248.3,391.4v9.5h-1.1v-9.5H-248.3 M-247.8,390.9h-2.1v10.5h2.1V390.9L-247.8,390.9z"/>
</g>
</svg>
