<?xml version="1.0" encoding="utf-8"?>
<!-- Generator: Adobe Illustrator 19.1.0, SVG Export Plug-In . SVG Version: 6.00 Build 0)  -->
<svg version="1.0" id="Layer_1" xmlns="http://www.w3.org/2000/svg" xmlns:xlink="http://www.w3.org/1999/xlink" x="0px" y="0px"
	 viewBox="14 -13 45 45" enable-background="new 14 -13 45 45" xml:space="preserve">
<g id="Layer_36">
	<g>
		<path d="M17.8,30c1-1.5,2-2.8,2.9-4.3c1-1.5,1.8-3.1,2.7-4.7c0.5-0.9,0.3-1.4-0.6-1.9c-3.4-2.1-6.1-5-7.2-9
			c-1.7-5.8,0.2-10.7,4.6-14.7C25.5-9.4,32-10.9,39-10.4c4.5,0.4,8.7,1.8,12.4,4.5c8.8,6.4,8.9,17.7,0.1,24.2
			c-4.1,3-8.7,4.3-13.7,4.7c-0.7,0-1.5,0.3-2.1,0.7C30.5,26.8,25,29,19,30C18.6,30,18.3,30,17.8,30z M42.6,13.1c0-4.6,0-9.2,0-13.8
			c-0.6,0-1.2,0-1.8,0c-2.3,0-2.3,0-2.8,2.3c-0.5,2.4-1,4.7-1.5,7.1c-0.8-2.8-1.3-5.6-1.9-8.4C34.5,0,34.2-0.6,34-0.6
			c-1.2-0.1-2.5,0-3.7,0c0,4.7,0,9.2,0,13.8c0.8,0,1.6,0,2.6,0c0-3.4,0-6.6,0-9.9c0.8,2.7,1.4,5.5,2.1,8.2c0.4,1.9,0.4,1.9,2.6,1.6
			c0.7-3.3,1.5-6.6,2.2-9.9c0.1,0,0.2,0,0.3,0c0,3.3,0,6.6,0,9.9C41,13.1,41.8,13.1,42.6,13.1z M53,3c-0.1-0.5-0.1-1-0.2-1.4
			c-0.5-1.8-2.2-2.8-4.5-2.6c-2.2,0.2-3.6,1.3-3.8,3.2C44.2,4.7,45,6,47.3,7c0.8,0.3,1.7,0.6,2.4,1.1c0.8,0.5,1,1.3,0.7,2.2
			c-0.3,0.9-1,1.1-1.8,1.1c-1-0.1-1.4-0.6-1.5-1.6c0-0.3-0.1-0.5-0.2-0.8c-0.9,0-1.8,0-2.6,0c-0.1,2.4,0.6,3.6,2.4,4.2
			c2.4,0.7,5.2,0,6.2-1.6c0.1-0.2,0.3-0.5,0.3-0.8c0.7-2.4,0-4.1-2.2-5.2c-1-0.5-2-0.8-3-1.4c-0.9-0.5-1-1.5-0.6-2.3
			c0.4-0.9,1.3-1,2-0.6c0.6,0.3,0.8,1.1,1.3,1.9c0.5,0,1.1,0,1.8,0C52.5,3.1,52.7,3.1,53,3z M28.3,3c0.2-1.9-0.5-3.1-2-3.6
			c-1.4-0.6-2.8-0.6-4.3,0c-1.1,0.4-1.7,1.1-2,2.2c-0.7,2.4,0.2,4.3,2.5,5.3c0.8,0.4,1.7,0.6,2.5,1c0.9,0.5,1.1,1.4,0.9,2.3
			c-0.3,0.9-1,1.2-1.9,1.1c-1-0.1-1.4-0.7-1.4-1.6c0-0.3-0.1-0.5-0.2-0.8c-0.9,0-1.7,0-2.6,0c-0.3,2.3,0.6,3.9,2.5,4.2
			c1.2,0.2,2.5,0.2,3.7,0c1.9-0.4,2.7-1.6,2.9-3.5c0.1-1.8-0.6-3.1-2.3-3.9c-1-0.5-2.1-0.9-3.1-1.4c-0.8-0.4-1.2-1.7-0.7-2.4
			c0.4-0.4,1.4-0.8,1.8-0.6c0.6,0.3,0.9,1.1,1.5,1.8C26.8,3,27.5,3,28.3,3z"/>
	</g>
</g>
</svg>
