<?xml version="1.0" encoding="utf-8"?>
<!-- Generator: Adobe Illustrator 19.1.0, SVG Export Plug-In . SVG Version: 6.00 Build 0)  -->
<svg version="1.0" id="Layer_1" xmlns="http://www.w3.org/2000/svg" xmlns:xlink="http://www.w3.org/1999/xlink" x="0px" y="0px"
	 viewBox="14 -13 45 45" enable-background="new 14 -13 45 45" xml:space="preserve">
<g id="Layer_18">
	<path d="M37.6,31.4c-0.7-0.2-1.4-0.4-2-0.6c-1.1-0.5-1.8-1.3-2.2-2.4c-0.5-1.5,0-3.3,1.3-4.2c2.1-1.6,4.9-1.6,7,0
		c0.5,0.4,0.8,1,1.2,1.6c0.1,0.1,0.3,0.3,0.4,0.3c0.9,0,1.8,0,2.7,0c0.3,0,0.6-0.2,0.8-0.3c1.4-0.8,2.4-2,3.4-3.3
		c1.3-1.8,2.1-3.9,2.5-6.1c0-0.1,0-0.1,0-0.2c-0.3,0-0.6,0-0.9,0.1c-1.1,0.1-1.9-0.6-1.9-1.7c0-3.9,0-7.9,0-11.8
		c0-0.8,0.5-1.3,1.2-1.6c-2-5.3-7.6-10.1-14.5-10.3C29.7-9.3,23.9-4.6,21.7,1l0.1,0.1c0.7,0.3,1.1,0.9,1.1,1.7c0,3.9,0,7.8,0,11.7
		c0,1.1-0.8,1.8-1.9,1.7c-3.8-0.2-6-3-6.4-6.3c0-0.1-0.1-0.3-0.1-0.4c0-0.5,0-1.1,0-1.6c0-0.2,0.1-0.3,0.1-0.5
		c0.3-2.2,1.2-4,3.1-5.3C17.8,1.9,18,1.7,18,1.6C18.5,0,19.2-1.6,20.1-3c1.8-3,4.2-5.4,7.3-7.1c3.9-2.2,8.1-2.9,12.4-2.1
		c4.1,0.7,7.6,2.7,10.5,5.7c2.2,2.3,3.7,5,4.7,8c0.1,0.2,0.2,0.4,0.3,0.5c1.5,1,2.4,2.4,2.9,4.1c0.2,0.6,0.2,1.1,0.4,1.7
		c0,0.5,0,1.1,0,1.6c0,0.1-0.1,0.2-0.1,0.3c-0.3,2.1-1.1,4-2.9,5.3c-0.1,0.1-0.2,0.2-0.2,0.4c-0.3,2.1-0.8,4.1-1.7,6
		c-1.3,2.5-3,4.7-5.4,6.2c-0.8,0.5-1.6,0.8-2.5,0.7c-0.8,0-1.5,0-2.3,0c-0.2,0-0.4,0.1-0.4,0.3c-0.6,1.3-1.7,2.1-3.1,2.5
		c-0.3,0.1-0.7,0.2-1,0.3C38.4,31.4,38,31.4,37.6,31.4z"/>
</g>
</svg>
