<?xml version="1.0" encoding="utf-8"?>
<!-- Generator: Adobe Illustrator 19.1.0, SVG Export Plug-In . SVG Version: 6.00 Build 0)  -->
<svg version="1.0" id="Layer_1" xmlns="http://www.w3.org/2000/svg" xmlns:xlink="http://www.w3.org/1999/xlink" x="0px" y="0px"
	 viewBox="-275 398.9 45 45" enable-background="new -275 398.9 45 45" xml:space="preserve">
<g id="Layer_61">
	<g>
		<path d="M-275,439.7c0-0.7,0-1.3,0-2c0-10.5,0-21,0-31.6c0-2.4,1.4-3.8,3.8-3.8c12.6,0,25.3,0,37.9,0c2,0,3.3,1.3,3.3,3.2
			c0,11.2,0,22.4,0,33.7c0,0.2,0,0.3,0,0.5C-245,439.7-260,439.7-275,439.7z M-273.3,411.6c0,8.9,0,17.7,0,26.5
			c13.9,0,27.8,0,41.6,0c0-8.9,0-17.7,0-26.5C-245.6,411.6-259.4,411.6-273.3,411.6z M-263.2,405.7c-0.9,0-1.7,0.7-1.7,1.7
			c0,0.9,0.7,1.7,1.7,1.7s1.7-0.7,1.7-1.7S-262.3,405.7-263.2,405.7z M-268.3,407.3c0-0.9-0.7-1.6-1.7-1.6c-0.9,0-1.7,0.8-1.7,1.7
			c0,0.9,0.8,1.7,1.7,1.7C-269,409.1-268.3,408.3-268.3,407.3z M-256.5,405.7c-0.9,0-1.7,0.7-1.7,1.7s0.7,1.7,1.7,1.7
			c0.9,0,1.7-0.7,1.7-1.7S-255.5,405.7-256.5,405.7z"/>
		<path d="M-269.7,430c0-4.9,0-9.7,0-14.6c4.4,0,8.9,0,13.4,0c0,4.8,0,9.7,0,14.6C-260.8,430-265.2,430-269.7,430z M-259.1,417
			c-2.7,0-5.2,0-7.9,0c1.3,1.5,2.6,2.9,3.9,4.4C-261.7,419.9-260.4,418.5-259.1,417z M-268,418.2c0,3,0,5.9,0,8.8
			c1.3-1.5,2.6-3,3.9-4.4C-265.4,421.2-266.7,419.8-268,418.2z M-258,427.1c0-3,0-5.9,0-8.8c-1.3,1.5-2.6,3-3.9,4.4
			C-260.6,424.1-259.3,425.6-258,427.1z M-263,423.9c-1.3,1.5-2.6,2.9-3.9,4.4c2.7,0,5.2,0,7.9,0
			C-260.4,426.8-261.7,425.4-263,423.9z"/>
		<path d="M-243.7,417.4c-2.7,0-5.4,0-8,0c-0.1,0-0.1,0-0.2,0c-0.6,0-1-0.4-0.9-0.8c0-0.5,0.4-0.8,0.9-0.8c1.7,0,3.4,0,5.1,0
			c3.7,0,7.5,0,11.2,0c0.1,0,0.3,0,0.4,0c0.5,0.1,0.7,0.3,0.8,0.8c0,0.4-0.3,0.8-0.8,0.8c-0.2,0-0.4,0-0.6,0
			C-238.5,417.4-241.1,417.4-243.7,417.4L-243.7,417.4z"/>
		<path d="M-243.7,419.1c2.7,0,5.5,0,8.2,0c0.6,0,1,0.3,1,0.7c0.1,0.5-0.4,0.9-1,0.9c-1.9,0-3.8,0-5.7,0c-3.5,0-7,0-10.6,0
			c-0.1,0-0.2,0-0.3,0c-0.6,0-1-0.4-0.9-0.9c0-0.5,0.4-0.8,0.9-0.8c1.4,0,2.8,0,4.2,0C-246.4,419.1-245,419.1-243.7,419.1z"/>
		<path d="M-243.7,424.1c-2.7,0-5.4,0-8.1,0c-0.2,0-0.5,0-0.6-0.1c-0.2-0.2-0.5-0.5-0.5-0.8c0-0.2,0.3-0.5,0.5-0.7
			c0.1-0.1,0.3-0.1,0.5-0.1c5.5,0,10.9,0,16.4,0c0.4,0,0.8,0.1,1,0.5c0.3,0.6-0.1,1.1-0.9,1.2c-1.7,0-3.4,0-5.1,0
			C-241.6,424.1-242.6,424.1-243.7,424.1L-243.7,424.1z"/>
		<path d="M-243.7,425.8c2.6,0,5.3,0,7.9,0c0.2,0,0.4,0,0.6,0c0.4,0.1,0.8,0.4,0.7,0.8c0,0.4-0.3,0.7-0.7,0.8c-0.1,0-0.2,0-0.4,0
			c-5.4,0-10.9,0-16.3,0c-0.1,0-0.1,0-0.2,0c-0.6,0-0.9-0.4-0.9-0.9s0.4-0.8,0.9-0.8c2,0,4,0,6,0
			C-245.2,425.8-244.4,425.8-243.7,425.8z"/>
		<path d="M-243.7,430.8c-2.7,0-5.4,0-8,0c-0.1,0-0.2,0-0.3,0c-0.5,0-0.9-0.4-0.9-0.8c0-0.5,0.4-0.8,0.9-0.8c1.5,0,3,0,4.5,0
			c4,0,8,0,11.9,0c0.1,0,0.2,0,0.3,0c0.5,0,0.9,0.4,0.9,0.8c0,0.5-0.4,0.8-0.9,0.8c-1.1,0-2.2,0-3.4,0
			C-240.3,430.8-242,430.8-243.7,430.8L-243.7,430.8z"/>
		<path d="M-243.6,432.6c2.7,0,5.4,0,8.1,0c0.3,0,0.6,0,0.8,0.2c0.2,0.2,0.3,0.6,0.3,0.8c-0.1,0.5-0.5,0.6-0.9,0.6
			c-2.2,0-4.3,0-6.5,0c-3.3,0-6.6,0-9.8,0c-0.1,0-0.2,0-0.3,0c-0.5,0-0.9-0.4-0.9-0.8c0-0.5,0.4-0.8,0.9-0.8c1.1,0,2.2,0,3.4,0
			C-247,432.6-245.3,432.6-243.6,432.6L-243.6,432.6z"/>
		<path d="M-262.9,434.2c-2,0-3.9,0-5.9,0c-0.7,0-1.2-0.5-0.9-1.1c0.2-0.4,0.5-0.5,0.9-0.5c1.7,0,3.4,0,5.1,0c2.2,0,4.4,0,6.6,0
			c0.1,0,0.2,0,0.4,0c0.5,0.1,0.8,0.4,0.8,0.8c0,0.5-0.3,0.7-0.8,0.8c-0.3,0-0.6,0-0.9,0C-259.3,434.2-261.1,434.2-262.9,434.2z"/>
	</g>
</g>
</svg>
