<?xml version="1.0" encoding="utf-8"?>
<!-- Generator: Adobe Illustrator 19.1.0, SVG Export Plug-In . SVG Version: 6.00 Build 0)  -->
<svg version="1.0" id="Layer_1" xmlns="http://www.w3.org/2000/svg" xmlns:xlink="http://www.w3.org/1999/xlink" x="0px" y="0px"
	 viewBox="-275 398.9 45 45" enable-background="new -275 398.9 45 45" xml:space="preserve">
<path d="M-259.4,410.8c-1.1,0-2.2-0.1-3.2-0.4c-0.9-0.2-1.7-0.6-2.2-1.4c-0.4-0.7-0.5-1.4-0.5-2.2c0-1.4,0.8-2.3,2-2.9
	c0.3-0.2,0.6-0.2,0.9-0.4c0.1,0,0.2-0.1,0.2-0.2c0.3-1.4,1.4-2.3,2.8-2.3c1.4,0,2.5,0.9,2.8,2.3c0,0.1,0.1,0.2,0.2,0.2
	c0.6,0.2,1.2,0.5,1.8,1c1,0.8,1.2,1.9,1.1,3.1c-0.1,1.1-0.6,1.9-1.5,2.4c-0.6,0.3-1.2,0.5-1.8,0.5
	C-257.7,410.6-258.6,410.7-259.4,410.8z"/>
<g>
	<path d="M-233.1,438.4l-11.1-10.6c2.4-4.1,1.6-9.3-1.8-12.6c-1.9-1.9-4.5-2.9-7.2-2.9c-2.8,0-5.5,1.1-7.5,3.2
		c-1.9,2-2.9,4.6-2.9,7.4c0.1,2.8,1.2,5.3,3.2,7.3c1.9,1.9,4.5,2.9,7.2,2.9c2,0,3.9-0.5,5.5-1.6l11.1,10.6c0.5,0.5,1.1,0.7,1.7,0.7
		c0.7,0,1.3-0.3,1.8-0.8c0.5-0.5,0.7-1.1,0.7-1.8C-232.4,439.5-232.7,438.9-233.1,438.4z M-253.2,430.5c-1.3,0-2.5-0.3-3.6-0.9
		c0,0,0,0,0,0c0,0,0,0-0.1,0c-0.6-0.3-1.2-0.8-1.7-1.3c-1.5-1.4-2.3-3.3-2.4-5.4c0-2.1,0.7-4,2.1-5.5c1.5-1.5,3.4-2.4,5.6-2.4
		c2,0,3.9,0.8,5.3,2.2c0.8,0.7,1.4,1.6,1.8,2.6c0,0,0,0,0,0.1c0.1,0.1,0.1,0.3,0.2,0.4l0,0c0.3,0.8,0.4,1.6,0.4,2.5
		C-245.5,427-248.9,430.5-253.2,430.5z"/>
	<g>
		<path d="M-251.5,416c0.4,0,0.7,0,1.1,0c-0.9-0.4-1.9-0.6-2.9-0.6c-1.9,0-3.7,0.8-5.1,2.1c0,2,0,3.9,0,5.9c0,0.1,0,0.2,0,0.3
			c2.4-0.7,4.1-2.3,5.4-4.4c0.8,0.2,1.5,0.6,2.2,1.2c1.1,0.9,1.5,2.1,1.5,3.5c0,0.4,0.1,0.7,0.5,1c0.6,0.4,1.5,0,1.5-0.7
			c0.1-1.9-0.5-3.5-1.8-4.9c-0.8-0.8-1.7-1.4-2.8-1.7c-0.1,0-0.2-0.1-0.2-0.1c0.1-0.5,0.2-0.9,0.3-1.3
			C-251.7,416-251.5,416-251.5,416z"/>
		<path d="M-253.2,412.7c-2,0-3.8,0.6-5.4,1.6c0,0,0,0,0,0.1c0.2,0.5,0.3,1.1,0.3,1.7c0,0.1,0,0.2,0,0.4c1.4-1.2,3.2-1.9,5.1-1.9
			c1.6,0,3.2,0.5,4.5,1.4c0.4,0,0.8,0,1.1,0c0.5,0,1-0.1,1.2-0.5c-0.6-0.6-1.4-1.1-2.1-1.5c-0.9,0-1.8,0-2.6,0c-0.1,0-0.2,0-0.4,0
			c0-0.4,0-0.7,0-1.1C-252.1,412.8-252.7,412.7-253.2,412.7z"/>
		<path d="M-263.1,422.3c0.6,0.4,1.2,0.8,1.9,1c0-0.2-0.1-0.3-0.1-0.5c0-1.4,0.3-2.7,0.9-3.8c0-1,0-1.9,0-2.9c0-0.1,0-0.2,0-0.4
			c0,0,0,0,0,0C-262.1,417.5-263.1,419.9-263.1,422.3z"/>
		<path d="M-246.5,414.4c-0.1-0.1-0.2-0.2-0.4-0.3C-246.8,414.2-246.7,414.3-246.5,414.4z"/>
		<path d="M-261,415.3c0.2-0.2,0.5-0.4,0.8-0.7c0-0.1,0-0.1,0-0.2c0.1-0.3,0.3-0.7,0.8-0.7c0.1,0,0.1,0.1,0.2,0.1
			c1.7-1.2,3.8-1.8,6-1.8c0.6,0,1.2,0.1,1.8,0.2c0,0,0,0,0,0c1.9-1.4,2.7-3.3,3-5.5c0.1-0.6,0.1-1.2,0.1-1.9c0-0.5-0.4-0.8-0.9-0.9
			c-0.5,0-1,0.3-1,0.8c-0.1,0.5-0.1,0.9-0.1,1.4c-0.1,1.3-0.5,2.4-1.2,3.5c-0.5,0.7-1.1,1.1-1.9,1.4c-1.2,0.5-2.4,0.8-3.6,1
			c-2.8,0.4-5.5,0.1-8.1-1.1c-0.7-0.3-1.4-0.6-1.8-1.2c-0.7-0.9-1.1-2-1.3-3.2c-0.1-0.6-0.1-1.2-0.2-1.8c-0.1-0.5-0.5-0.8-1-0.8
			c-0.6,0-1,0.4-1,0.9c0,2.2,0.4,4.2,1.8,6c0.4,0.5,0.9,0.8,1.3,1.3c0.1,0.1,0.2,0.2,0.2,0.2c0,0.5,0,1.1,0,1.7c-0.1,0-0.2,0-0.3,0
			c-1.2,0-2.3,0-3.5,0c-0.7,0-1.2,0.1-1.4,0.8c0,0.1,0,0.2,0,0.3c0.2,0.7,0.6,0.9,1.3,0.9c1.3,0,2.6,0,3.9,0c0.2,0,0.3,0,0.3,0.2
			c0.1,0.4,0.2,0.8,0.3,1.2c-0.1,0.1-0.3,0.1-0.4,0.2c-2.4,1-3.9,2.7-4.3,5.3c-0.1,0.3-0.1,0.7-0.1,1c0,0.6,0.4,1.1,1,1.1
			c0.6,0,1-0.4,1-1.1c0-1,0.2-2,0.9-2.9c0.7-0.9,1.6-1.5,2.7-1.8c0.2-0.1,0.2,0,0.3,0.1c0.5,0.8,1.2,1.6,1.9,2.2
			C-263.6,419.3-262.7,417-261,415.3z"/>
	</g>
</g>
</svg>
