<?xml version="1.0" encoding="utf-8"?>
<!-- Generator: Adobe Illustrator 19.1.0, SVG Export Plug-In . SVG Version: 6.00 Build 0)  -->
<svg version="1.1" id="Layer_1" xmlns="http://www.w3.org/2000/svg" xmlns:xlink="http://www.w3.org/1999/xlink" x="0px" y="0px"
	 viewBox="14 -13 45 45" style="enable-background:new 14 -13 45 45;" xml:space="preserve">
<g id="Layer_45">
	<g>
		<path d="M36.5,31C24.7,31,15,21.3,15,9.5S24.7-12,36.5-12S58-2.4,58,9.5S48.4,31,36.5,31z M36.5-8.6c-10,0-18.1,8.1-18.1,18.1
			s8.1,18.1,18.1,18.1s18.1-8.1,18.1-18.1S46.5-8.6,36.5-8.6z"/>
		<path d="M36.9,12.1c-0.3,0-0.6-0.1-0.9-0.3l-8.6-5.6c-0.8-0.5-1-1.6-0.5-2.3c0.5-0.8,1.6-1,2.3-0.5l7.7,5l10.6-6.5
			c0.8-0.5,1.8-0.2,2.3,0.6c0.5,0.8,0.2,1.8-0.6,2.3l-11.5,7.1C37.6,12,37.3,12.1,36.9,12.1z"/>
		<path d="M36.9,26.7c-0.9,0-1.7-0.8-1.7-1.7v-2.7c0-0.9,0.8-1.7,1.7-1.7c0.9,0,1.7,0.8,1.7,1.7V25C38.6,25.9,37.9,26.7,36.9,26.7z"
			/>
		<path d="M21.7,12.3c-0.9,0-1.7-0.8-1.7-1.7c0-0.9,0.8-1.7,1.7-1.7h2.7l0,0c0.9,0,1.7,0.8,1.7,1.7c0,0.9-0.8,1.7-1.7,1.7H21.7
			L21.7,12.3z"/>
		<path d="M37-2c-0.9,0-1.7-0.8-1.7-1.7v-2.7c0-0.9,0.8-1.7,1.7-1.7s1.7,0.8,1.7,1.7v2.7C38.7-2.7,37.9-2,37-2z"/>
		<path d="M49.5,11.9c-0.9,0-1.7-0.8-1.7-1.7c0-0.9,0.8-1.7,1.7-1.7h2.7l0,0c0.9,0,1.7,0.8,1.7,1.7c0,0.9-0.8,1.7-1.7,1.7H49.5
			L49.5,11.9z"/>
	</g>
</g>
</svg>
