<?xml version="1.0" encoding="utf-8"?>
<!-- Generator: Adobe Illustrator 19.1.0, SVG Export Plug-In . SVG Version: 6.00 Build 0)  -->
<svg version="1.0" id="Layer_1" xmlns="http://www.w3.org/2000/svg" xmlns:xlink="http://www.w3.org/1999/xlink" x="0px" y="0px"
	 viewBox="14 -13 45 45" enable-background="new 14 -13 45 45" xml:space="preserve">
<g id="Layer_49">
	<path id="XMLID_33_" d="M15.1,26.9c0-3,2.1-4.3,4.6-5c3.6-0.9,6.9-2.7,10-4.8c0.5-0.4,0.8-0.8,0.9-1.6c0.4-2.7,0.1-5.3-1-7.7
		c-0.4-0.9-1-1.7-1.4-2.6c-0.4-1-0.5-2-0.1-3c0.1-0.5,0-1,0-1.6c0-1.3,0-2.7,0.1-4c0.4-2.7,2.5-4,4.7-5.3c0.3-0.1,0.5-0.3,0.8-0.4
		C34-9.2,34-9.6,34.2-9.7c0.3,0,0.8,0,1.4-0.1c0.5,0.1,1.3,0.1,2,0.3C39.4-9,41.2-8.3,42.7-7c2.2,2.1,3,4.7,2.5,7.7
		c-0.1,0.8-0.4,1.4,0,2.2c0.3,0.4,0.3,1.2,0,1.7c-0.5,1-0.3,2.5-1.6,3.3c-0.4,0.3-0.3,1-0.5,1.6c-0.9,2.1-0.8,4.4-0.5,6.6
		c0,0.4,0.4,0.9,0.7,1.2c3.1,2.1,6.1,4,9.9,5c1.2,0.3,2.3,1,3.4,1.8c1,0.7,1.4,1.8,1.6,3c0,0.3,0,0.8,0,1c-0.3,0-0.3,0-0.8,0
		c-13.7,0-27.2,0-40.9,0c-0.7,0-0.5,0-1.3,0C15.1,27.3,15.1,27.1,15.1,26.9z"/>
</g>
</svg>
