<?xml version="1.0" encoding="utf-8"?>
<!-- Generator: Adobe Illustrator 19.1.0, SVG Export Plug-In . SVG Version: 6.00 Build 0)  -->
<svg version="1.0" id="Layer_1" xmlns="http://www.w3.org/2000/svg" xmlns:xlink="http://www.w3.org/1999/xlink" x="0px" y="0px"
	 viewBox="14 -13 45 45" enable-background="new 14 -13 45 45" xml:space="preserve">
<g id="Layer_21">
	<path d="M55.8,1.9c-1-1.7-1.1-1.7-3.1-1.4c-0.4,0.1-0.9,0.1-1.3,0.3C50,1.2,49,0.7,48,0c-1.9-1.4-4-2.5-6-3.7
		c-0.9-0.6-1.9-0.7-2.9-0.4c-1.9,0.7-3.9,0.8-5.8,0c-1-0.4-1.9-0.2-2.8,0.3c-2.3,1.4-4.6,2.9-7,4.3c-0.4,0.3-1,0.4-1.6,0.3
		c-1.1-0.1-2.2-0.4-3.3-0.5c-0.4,0-0.9,0.1-1.2,0.4c-2.1,2.4-3,11.3-1.9,12.5l0.1,0.1c0,0,1.8,1.1,2.6,1.3c0.6,0.1,1.2,0.2,1.9,0.2
		c0.1,0.1,0.1,0.3,0.3,0.4c0.4,0.4,1.1,0.6,1.6,0.9c0.3,0.2,0.7,0.5,0.8,0.8c0.5,1.6,0.9,2,2.6,2.2c0.3,0,0.7,0.4,0.8,0.7
		c0.4,1.8,1.4,2.4,3.2,2c0.6-0.2,1-0.1,1.3,0.5c0.5,1.1,1.3,1.3,2.4,1.1c0.5-0.1,1.1,0,1.6,0c1.1,0,2.2,0.4,3.2,0.1
		c0.8-0.2,1.5-0.4,2.3-0.3c1.3,0.1,2.5-0.3,3.3-1.4c0.2-0.2,0.6-0.4,0.8-0.5c1.2-0.1,2.2-0.6,2.8-1.6c0.6-0.9,1.3-1.5,2.3-2
		c0.7-0.3,1.3-1.1,1.7-1.8c0.4-0.7,0.5-1.6,1.6-1.8c0.2-0.1,3.3-0.4,4.6-0.3c0.2,0,0.7-0.4,0.7-0.7C58.1,10.7,57,3.9,55.8,1.9z
		 M49.8,16.5c-0.5,0.4-1.3,1-1.7,0.8c-1.6-0.7-3.2-1.6-4.8-2.4c-0.9-0.5-1.8-1-2.6-1.5c-0.1,0.2-0.2,0.3-0.3,0.5
		c2.3,1.3,4.5,2.7,6.9,4.1c-0.4,0.6-0.7,1.2-1.2,1.7c-1,1.1-1.6,1.1-2.9,0.3c-1.6-1.1-3.2-2.2-4.9-3.3c-0.2-0.1-0.5-0.3-0.7-0.4
		c-0.1,0.1-0.2,0.2-0.3,0.2c0.2,0.3,0.3,0.7,0.6,0.9c1.1,0.9,2.3,1.7,3.5,2.5c0.5,0.3,1,0.6,1.4,0.9c-0.9,1.7-2.7,2.2-4.2,1.1
		c-0.8-0.5-1.5-1.2-2.3-1.7c-0.2-0.1-0.5-0.1-0.8-0.2c0.1,0.3,0.1,0.6,0.3,0.8c0.6,0.6,1.3,1.1,1.9,1.6c-1,0.8-2.2,0.8-3.6-0.1
		c0-0.1,0.1-0.2,0.1-0.4c0.2-0.9,0.4-1.8-0.6-2.3s-1.6,0.2-2.2,0.8c-0.3,0.2-0.6,0.4-0.9,0.6c-0.1-0.1-0.1-0.1-0.2-0.2
		c0.2-0.3,0.3-0.6,0.5-0.9c0.6-1,1.2-2,1.8-3c0.4-0.8-0.1-2-0.9-2c-1,0-2.1,0-2.8,1c-0.7,0.9-1.6,1.7-2.4,2.5
		c-0.1-0.1-0.1-0.1-0.2-0.2c0.7-1,1.4-2,2.1-3.1c0.4-0.6-0.3-1.2-0.4-1.3c-0.2-0.2-0.4-0.4-0.6-0.6c-0.2-0.2-1.3-0.2-1.6,0
		c-0.3,0.3-0.6,0.6-1,0.9c-0.6,0.6-1.2,1.1-1.7,1.7c-0.1-0.1-0.2-0.2-0.3-0.2c0.2-0.2,0.3-0.5,0.5-0.7c0.9-0.6,1.1-1.4,1-2.4
		c0-0.3-0.7-0.8-0.9-0.8c-0.6,0-1,0.1-1.3,0.3c-0.4,0.2-2.1,1.7-2.2,2c-0.6,0-1.2-0.1-1.8-0.2c-0.8-0.2-1.4-0.5-2-0.9L16,12.8l0,0
		c-0.3-0.2-0.7-0.8-0.7-1.8c0-1.7,0.2-3.8,0.6-5.4c0.3-1.3,0.7-2.7,1.3-4c0.2-0.5,0.7-0.7,1.3-0.5c1,0.3,2.1,0.3,3.1,0.6
		c0.8,0.2,1.2-0.1,1.8-0.4c2.4-1.5,4.8-3,7.1-4.5c1.1-0.7,2.1-0.2,3.4,0.3c-3.5,1.1-5.2,3.8-6.7,6.6c-1,1.7,0.1,2.1,0.6,2.2
		c1.9,0.5,3.5,0,5.1-1c1.2-0.8,2.5-1.3,3.8-2c0.7-0.3,1.1-0.1,1.4,0.5c2,3.2,5,5.3,7.7,7.5c0.6,0.4,1.8,1.5,4.5,2.8
		c0.1,0.5,0.1,0.9,0.2,1.2C50.6,15.5,50.3,16.1,49.8,16.5z"/>
</g>
</svg>
