<?xml version="1.0" encoding="utf-8"?>
<!-- Generator: Adobe Illustrator 19.0.0, SVG Export Plug-In . SVG Version: 6.00 Build 0)  -->
<!DOCTYPE svg PUBLIC "-//W3C//DTD SVG 1.0//EN" "http://www.w3.org/TR/2001/REC-SVG-20010904/DTD/svg10.dtd">
<svg version="1.0" id="Livello_1" xmlns="http://www.w3.org/2000/svg" xmlns:xlink="http://www.w3.org/1999/xlink" x="0px" y="0px"
	 viewBox="0 0 745 201" enable-background="new 0 0 745 201" xml:space="preserve">
<g id="XMLID_32_">
	<path id="XMLID_47_" fill="#FFFFFF" d="M472,200.6v-14.1h71.8c21.6,0,39.2-18,39.2-40.2s-17.6-40.2-39.2-40.2h-40.1v0.2l-2.6-0.2
		l-0.5-0.1c-16-1.4-28.6-15.3-28.6-31.8c0-17.7,14.1-32.1,31.3-32.1h60.3v14h-60.3c-9.7,0-17.6,8.1-17.6,18.1
		c0,9.2,6.7,16.9,15.7,17.9l42.4,0c29.2,0,52.9,24.3,52.9,54.2c0,29.9-23.7,54.2-52.9,54.2H472z"/>
	<path id="XMLID_46_" fill="#00A1DF" d="M473.4,199.1V188h70.4c22.4,0,40.6-18.7,40.6-41.6c0-23-18.2-41.6-40.6-41.6h-41.5v0.1
		l-0.5-0.1h-0.5l-0.5-0.1c-15.4-1.3-27.4-14.7-27.4-30.4c0-16.9,13.4-30.6,29.9-30.6h58.8v11.1h-58.8c-10.5,0-19,8.8-19,19.5
		c0,9.9,7.3,18.2,16.9,19.3h42.6c28.4,0,51.5,23.7,51.5,52.8c0,29.1-23.1,52.8-51.5,52.8H473.4z"/>
	<path id="XMLID_45_" fill="#FFFFFF" d="M620.1,200.6v-14.1h71.8c21.6,0,39.2-18,39.2-40.2s-17.6-40.2-39.2-40.2h-40.1v0.2l-2.6-0.2
		l-0.5-0.1c-16-1.4-28.6-15.3-28.6-31.8c0-17.7,14.1-32.1,31.3-32.1h60.3v14h-60.3c-9.7,0-17.6,8.1-17.6,18.1
		c0,9.2,6.7,16.9,15.7,17.9l42.4,0c29.2,0,52.9,24.3,52.9,54.2c0,29.9-23.8,54.2-52.9,54.2H620.1z"/>
	<path id="XMLID_44_" fill="#00A1DF" d="M621.5,199.1V188h70.4c22.4,0,40.6-18.7,40.6-41.6c0-23-18.2-41.6-40.6-41.6h-41.5v0.1
		l-0.5-0.1h-0.5l-0.5-0.1c-15.4-1.3-27.4-14.7-27.4-30.4c0-16.9,13.4-30.6,29.9-30.6h58.8v11.1h-58.8c-10.5,0-19,8.8-19,19.5
		c0,9.9,7.3,18.2,16.9,19.3h42.6c28.4,0,51.5,23.7,51.5,52.8c0,29.1-23.1,52.8-51.5,52.8H621.5z"/>
	<path id="XMLID_41_" fill="#FFFFFF" d="M351.3,200.6c-32.7,0-59.2-26.5-59.2-59.2v-40.1c0-32.6,26.6-59.2,59.3-59.2h39.9
		c32.7,0,59.3,26.5,59.3,59.2v40.1c0,32.6-26.6,59.2-59.3,59.2H351.3z M351.4,56.3c-24.9,0-45.2,20.2-45.2,45v40.1
		c0,24.8,20.3,45.1,45.2,45.1h39.9c24.9,0,45.2-20.2,45.2-45.1v-40.1c0-24.8-20.3-45-45.2-45H351.4z"/>
	<path id="XMLID_38_" fill="#00A1DF" d="M391.2,43.6h-39.9c-31.9,0-57.8,25.9-57.8,57.7v40.1c0,31.8,25.9,57.7,57.8,57.7h39.9
		c31.9,0,57.8-25.9,57.8-57.7v-40.1C449,69.5,423.1,43.6,391.2,43.6z M437.9,141.4c0,25.6-21,46.5-46.7,46.5h-39.9
		c-25.7,0-46.6-20.9-46.6-46.5v-40.1c0-25.6,21-46.5,46.7-46.5h39.9c25.7,0,46.7,20.8,46.7,46.5V141.4z"/>
	<path id="XMLID_37_" fill="#FFFFFF" d="M30.5,89.4C14.2,89.4,1,76.2,1,59.9V40.5C1,24.2,14.2,11,30.5,11h19.4
		c16.3,0,29.5,13.2,29.5,29.5v19.5c0,16.2-13.2,29.5-29.5,29.5H30.5z"/>
	<path id="XMLID_36_" fill="#FFFFFF" d="M182.8,200.6c-34.3,0-62.2-27.9-62.2-62.2V-0.2l27.9,0.1v138.4c0,18.9,15.4,34.3,34.3,34.3
		h36.7c18.9,0,34.3-15.4,34.3-34.3V98.6c0-18.9-15.4-34.3-34.3-34.3H174V36.4h45.5c34.3,0,62.2,27.9,62.2,62.2v39.7
		c0,34.3-27.9,62.2-62.2,62.2H182.8z"/>
	<path id="XMLID_35_" fill="#00A1DF" d="M219.5,199.1h-36.7c-33.5,0-60.8-27.3-60.8-60.8V1.3l25,0.1v137c0,19.7,16,35.7,35.7,35.7
		h36.7c19.7,0,35.7-16,35.7-35.7V98.6c0-19.7-16-35.7-35.7-35.7h-44v-25h44c33.5,0,60.7,27.3,60.7,60.8v39.7
		C280.3,171.8,253,199.1,219.5,199.1L219.5,199.1z"/>
	<rect id="XMLID_34_" x="73.6" y="35.7" fill="#FFFFFF" width="30.8" height="29"/>
	<path id="XMLID_33_" fill="#00A1DF" d="M102.9,37.1H77.7C76,23.3,64.2,12.4,49.8,12.4H30.5C15,12.4,2.4,25,2.4,40.5v19.5
		c0,15.5,12.6,28,28,28h19.4c14.3,0,26.2-10.8,27.8-24.7h25.3V37.1z"/>
</g>
</svg>
