<?xml version="1.0" encoding="utf-8"?>
<!-- Generator: Adobe Illustrator 22.0.1, SVG Export Plug-In . SVG Version: 6.00 Build 0)  -->
<svg version="1.0" id="Livello_1" xmlns="http://www.w3.org/2000/svg" xmlns:xlink="http://www.w3.org/1999/xlink" x="0px" y="0px"
	 width="30px" height="30px" viewBox="0 0 30 30" enable-background="new 0 0 30 30" xml:space="preserve">
<circle fill="#3F4760" cx="15" cy="15" r="15"/>
<path fill="#FFFFFF" d="M30,15c0,8.3-6.7,15-15,15S0,23.3,0,15S6.7,0,15,0S30,6.7,30,15z M29.5,15C29.5,7,23,0.5,15,0.5
	S0.5,7,0.5,15S7,29.5,15,29.5S29.5,23,29.5,15z M20.8,19.4v-8.7c0-0.8-0.6-1.4-1.4-1.4h-8.7c-0.8,0-1.4,0.6-1.4,1.4v8.7
	c0,0.8,0.6,1.4,1.4,1.4h8.7C20.1,20.8,20.8,20.1,20.8,19.4z"/>
</svg>
