<?xml version="1.0" encoding="utf-8"?>
<!-- Generator: Adobe Illustrator 22.0.1, SVG Export Plug-In . SVG Version: 6.00 Build 0)  -->
<svg version="1.0" id="Livello_1" xmlns="http://www.w3.org/2000/svg" xmlns:xlink="http://www.w3.org/1999/xlink" x="0px" y="0px"
	 width="30px" height="30px" viewBox="0 0 30 30" enable-background="new 0 0 30 30" xml:space="preserve">
<path fill="#979797" d="M26.7,15.7c-1.3,0-3.1,0-5,0c0-0.2,0-0.4,0-0.7c0-0.4,0-0.7-0.2-0.9c3.9-0.9,8.5-2.6,8.5-5.4
	C30,3.9,26.1,0,21.3,0c0,0-0.2,0-0.4,0c-1.3,0-5.2,0.2-5.2,3.3c0,1.3,0,3.1,0,5c-0.2,0-0.4,0-0.7,0l0,0c-0.4,0-0.7,0-0.9,0.2
	C13.3,4.6,11.6,0,8.8,0C4,0,0.2,3.9,0.2,8.7c0,0-0.4,5.6,3.3,5.6c1.3,0,3.1,0,5,0c-0.2,0.6,0,1.1,0,1.7C4.6,16.9,0,18.5,0,21.3
	C0,26.1,3.9,30,8.7,30c0,0,0.2,0,0.4,0c1.3,0,5.2-0.2,5.2-3.3c0-1.3,0-3.1,0-5c0.2,0,0.4,0,0.7,0l0,0c0.4,0,0.7,0,0.9-0.2
	c0.9,3.9,2.6,8.5,5.3,8.5c4.8,0,8.7-3.9,8.7-8.7C30,21.3,30.4,15.7,26.7,15.7z M18,3.3c0-1.1,2.6-1.1,2.9-1.1c0.2,0,0.2,0,0.4,0l0,0
	l0,0c3.5,0,6.4,2.8,6.4,6.5c0,0.4-0.9,1.7-5.3,2.8c-0.7,0.2-1.5,0.4-2.2,0.6L18,9.8V3.3z M3.5,12c-0.4,0-0.4-0.2-0.6-0.2
	c-0.6-0.6-0.7-2-0.7-3l0,0l0,0c0-3.5,2.8-6.5,6.4-6.5c0.4,0,1.7,0.9,2.8,5.4c0.2,0.7,0.4,1.5,0.6,2.2l-2.2,2.2H3.5V12z M12.1,26.7
	c0,1.1-2.8,1.1-2.9,1.1s-0.4,0-0.4,0l0,0l0,0c-3.5,0-6.4-2.8-6.4-6.5c0-0.4,0.9-1.7,5.3-2.8c0.7-0.2,1.5-0.4,2.2-0.6l2.2,2.2V26.7z
	 M15.8,19.1c0,0-0.2,0.2-0.4,0.2l0,0l0,0h-0.2c-0.2,0-0.2,0-0.4,0c-0.2,0-0.2,0-0.4,0c-0.2,0-0.4-0.2-0.4-0.2L11,15.9
	c-0.2-0.2-0.2-0.4-0.4-0.6l0,0c0-0.4,0-0.6,0.2-0.9l0,0l0,0c0,0,0,0,0-0.2l3.1-3.1c0,0,0.2-0.2,0.4-0.2l0,0l0,0h0.2
	c0.2,0,0.2,0,0.4,0c0.2,0,0.2,0,0.4,0c0.2,0,0.4,0.2,0.4,0.2l3.1,3.1c0,0,0.2,0.2,0.2,0.4l0,0l0,0v0.2c0,0.2,0,0.2,0,0.4
	c0,0.2,0,0.2,0,0.4c0,0.2-0.2,0.2-0.2,0.4l0,0l0,0c0,0,0,0,0,0.2L15.8,19.1z M27.8,21.1L27.8,21.1L27.8,21.1c0,3.7-2.9,6.5-6.4,6.5
	c-0.4,0-1.7-0.9-2.8-5.4c-0.2-0.7-0.4-1.5-0.6-2.2l2.2-2.2h6.4c0.4,0,0.4,0.2,0.6,0.2C27.6,18.7,27.8,20.2,27.8,21.1z"/>
</svg>
