<?xml version="1.0" encoding="utf-8"?>
<!-- Generator: Adobe Illustrator 22.0.1, SVG Export Plug-In . SVG Version: 6.00 Build 0)  -->
<svg version="1.0" id="Livello_1" xmlns="http://www.w3.org/2000/svg" xmlns:xlink="http://www.w3.org/1999/xlink" x="0px" y="0px"
	 width="30px" height="30px" viewBox="0 0 30 30" enable-background="new 0 0 30 30" xml:space="preserve">
<rect fill="#979797" fill-opacity="0" width="30" height="30"/>
<path fill="#979797" d="M12.9,30H9.6V17.9c-0.4-0.1-0.7-0.4-0.7-0.9v-5c-0.1-0.1-0.3-0.3-0.3-0.6v-0.6H7c-0.4,0-0.7-0.3-0.7-0.7v-5
	c0-0.4,0.3-0.7,0.7-0.7h1.3V2c0-0.6,0.4-1,1-1h0.1V0.3l1-0.3h1.7l0.9,0.3V1h0.3c0.4,0,0.7,0.3,0.9,0.6h3.9c0.4,0,0.7,0.3,0.7,0.7
	v5.5c0,0.1,0,0.3-0.1,0.3l-1.3,2.5c-0.1,0.3-0.4,0.3-0.6,0.3H14v0.6c0,0.3-0.1,0.4-0.3,0.6V14h10.2v3.3H13.7
	c-0.1,0.3-0.3,0.4-0.6,0.6V30H12.9z M10.5,29h1.5V18.1h-0.1v-0.4c0-0.3,0.3-0.6,0.6-0.6h0.3v-0.1v-0.4h10.2V15H12.6v-3.8h0.3v-0.1
	c0-0.6,0.4-1,1-1h2.8l1.2-2.2V2.6h-4.7V2h-1.2V1.2l0,0h-1.6V2H9.2v2.5c0,0.6-0.4,1-1,1h-1V10h1.3c0.6,0,1,0.4,1,1v0.1h0.3V17H10
	c0.3,0,0.6,0.3,0.6,0.6v0.4h-0.1C10.5,18.1,10.5,29,10.5,29z"/>
</svg>
