<?xml version="1.0" encoding="utf-8"?>
<!-- Generator: Adobe Illustrator 22.0.1, SVG Export Plug-In . SVG Version: 6.00 Build 0)  -->
<svg version="1.0" id="Livello_1" xmlns="http://www.w3.org/2000/svg" xmlns:xlink="http://www.w3.org/1999/xlink" x="0px" y="0px"
	 width="30px" height="30px" viewBox="0 0 30 30" enable-background="new 0 0 30 30" xml:space="preserve">
<rect fill="#979797" fill-opacity="0" width="30" height="30"/>
<path fill="#979797" d="M6.3,10.1v-5c0-0.4,0.3-0.7,0.7-0.7h1.3V2c0-0.6,0.4-1,1-1h0.1V0.3l1-0.3h1.7L13,0.3V1h0.3
	c0.4,0,0.7,0.3,0.9,0.6h3.9c0.4,0,0.7,0.3,0.7,0.7v5.4l-1.7,1.7l0.8-1.5V2.6h-4.7V2H12V1.2h-1.6V2H9.2v2.5c0,0.6-0.4,1-1,1h-1V10
	h1.3c0.6,0,1,0.4,1,1v0.1h0.3v5.6L9,17.5C9,17.3,8.9,17.2,8.9,17v-5c-0.1-0.1-0.3-0.3-0.3-0.6v-0.6H7C6.6,10.8,6.3,10.5,6.3,10.1z
	 M12.9,11.1v0.1h-0.3v2.7l1.1-1.1v-0.7c0.2-0.2,0.3-0.3,0.3-0.6v-0.6h1.6l0.8-0.8h-2.5C13.3,10.1,12.9,10.5,12.9,11.1z M12,21.5V29
	h-1.5c0,0,0-3.1,0-6l-0.9,0.9V30h3.3h0.2v-9.6L12,21.5z M18.5,15H23v1.6h-6.1l-0.7,0.7h7.7V14h-4.4L18.5,15z M1.4,29.9l-1.4-1.4
	L28.6,0.1l1.4,1.4L1.4,29.9z"/>
</svg>
