<?xml version="1.0" encoding="utf-8"?>
<!-- Generator: Adobe Illustrator 19.2.1, SVG Export Plug-In . SVG Version: 6.00 Build 0)  -->
<!DOCTYPE svg PUBLIC "-//W3C//DTD SVG 1.0//EN" "http://www.w3.org/TR/2001/REC-SVG-20010904/DTD/svg10.dtd">
<svg version="1.0" id="Livello_1" xmlns="http://www.w3.org/2000/svg" xmlns:xlink="http://www.w3.org/1999/xlink" x="0px" y="0px"
	 viewBox="0 0 34 34" enable-background="new 0 0 34 34" xml:space="preserve">
<g id="Livello_13">
	<path fill="#DE0613" d="M17,0.5C7.9,0.5,0.5,7.9,0.5,17S7.9,33.5,17,33.5S33.5,26.1,33.5,17S26.1,0.5,17,0.5z"/>
	<g>
		<path fill="#FFFFFF" d="M28.5,9.3V9c0,0-5.2,0.4-11.1-4.7l-0.1-0.1c-0.2-0.4-0.4-0.1-0.4-0.1s0,0-0.1,0.1c-0.8,0.7-5.2,4.5-11,4.4
			c-0.4,0-0.3,0.1-0.3,0.2c0,0.1,0,4.6,1,8.9c0.6,2.4,2,6.2,5.3,9.2c1.8,1.6,2.6,2.1,4.2,2.8c0.1,0.1,0.3,0.1,0.4,0.2
			c0.3,0.2,0.5,0,0.5,0s0.2-0.1,0.7-0.2c1.6-0.7,5.8-2.8,8.3-8C29,15.1,28.5,9.3,28.5,9.3z M23.5,20.8c-2,4.7-5.7,6.3-6.4,6.6
			c-0.1,0-0.3,0.2-0.5,0.1c0,0-0.1,0-0.1-0.1c-1.8-1-4.2-2.6-6.2-6.6c-2-3.8-1.7-10.2-1.7-10.3s0-0.1,0.3-0.1
			c10.3-2.1,16.6,0.2,16.6,0.2v0.3C25.4,10.8,25.8,15.5,23.5,20.8z"/>
		<path fill="#FFFFFF" d="M21.3,12.3c0,0-1.9-0.8-5.2,0s-4.4,3.9-4.4,3.9s0.1,3.3,2.6,5.9c0.1,0.1,0.7,0.6,0.7,0.6s0.7,0.1,1.8-0.7
			c0.7-0.5-0.6,1.9-0.6,1.9l0.5,0.5c0,0,3.1-2.1,3.5-6.4c0-0.3-0.1-0.2-0.1-0.2L18,17.9l-0.2,1.4c0,0-0.1,1-1.6,1.5
			c-0.5,0.2-1,0-1.2-0.2c-0.3-0.3-0.6-0.7-0.8-1.1c-0.1-0.3-0.5-1.1-0.2-2.2c0.1-0.3,0.3-0.7,0.6-1.1c0.5-0.6,1.2-1.3,2.3-1.5
			c2.7-0.7,3.4,0.3,3.4,0.3s0.2,0.3,0.3-0.1C20.9,14.3,21.3,12.3,21.3,12.3z"/>
	</g>
</g>
</svg>
