<?xml version="1.0" encoding="utf-8"?>
<!-- Generator: Adobe Illustrator 19.1.0, SVG Export Plug-In . SVG Version: 6.00 Build 0)  -->
<svg version="1.1" id="Layer_1" xmlns="http://www.w3.org/2000/svg" xmlns:xlink="http://www.w3.org/1999/xlink" x="0px" y="0px"
	 viewBox="-17 18 45 45" style="enable-background:new -17 18 45 45;" xml:space="preserve">
<g id="Layer_24">
	<path d="M5.5,19C-6.4,19-16,28.6-16,40.5S-6.4,62,5.5,62S27,52.4,27,40.5S17.4,19,5.5,19z M4.1,49.7c-2.5,0-4.7-0.7-5.8-1.4
		l0.9-3.4c0.8,0.4,2.7,1.2,4.6,1.2c2.4,0,3.6-1,3.6-2.5c0-1.9-1.9-2.6-4-2.6H2v-4h1.3c1.5,0,3.5-0.4,3.5-2.1c0-1.2-1-2-2.9-2
		c-1.6,0-3.3,0.7-4.1,1.2l-0.9-3.3C0.1,30,2.4,29.3,5,29.3c4.2,0,6.6,2.2,6.6,4.9c0,2.1-1.5,3.7-3.5,4.6v0.1c2,0.4,4.2,2.2,4.2,4.8
		C12.2,47.2,9.1,49.7,4.1,49.7z"/>
</g>
</svg>
