<?xml version="1.0" encoding="utf-8"?>
<!-- Generator: Adobe Illustrator 19.1.0, SVG Export Plug-In . SVG Version: 6.00 Build 0)  -->
<svg version="1.1" id="Layer_1" xmlns="http://www.w3.org/2000/svg" xmlns:xlink="http://www.w3.org/1999/xlink" x="0px" y="0px"
	 viewBox="-17 18 45 45" style="enable-background:new -17 18 45 45;" xml:space="preserve">
<g id="Layer_26">
	<path d="M5.5,19C-6.4,19-16,28.6-16,40.5S-6.4,62,5.5,62S27,52.4,27,40.5S17.4,19,5.5,19z M3.9,49.7c-2.4,0-4.4-0.5-5.5-1.1
		l0.8-3.4c0.9,0.4,2.7,1,4.4,1c1.9,0,3.9-0.9,3.9-3c0-2-1.6-3.3-5.5-3.3c-1.1,0-1.8,0.2-2.7,0.3L0.7,30H12v3H3.9l-0.4,3.3
		c0.4-0.1,0.8,0.1,1.3,0.1c1.9,0,3.8,0.5,5.2,1.5c1.5,1,2.4,2.7,2.4,5C12.3,46.4,9.1,49.7,3.9,49.7z"/>
</g>
</svg>
