<?xml version="1.0" encoding="utf-8"?>
<!-- Generator: Adobe Illustrator 19.1.0, SVG Export Plug-In . SVG Version: 6.00 Build 0)  -->
<svg version="1.0" id="Layer_1" xmlns="http://www.w3.org/2000/svg" xmlns:xlink="http://www.w3.org/1999/xlink" x="0px" y="0px"
	 viewBox="-17 18 45 45" enable-background="new -17 18 45 45" xml:space="preserve">
<g id="Layer_11">
	<g>
		<path d="M9.9,38.5L18.6,25c0.9-1.4,0.5-3.2-0.9-4.1s-3.2-0.5-4.1,0.9L-1.6,45.7L-9.1,36h-7.4c0.1,0,0.1,0,0.2,0.1l12.5,16.4
			c0.6,0.7,1.4,1.1,2.4,1.1h0.1c1,0,1.8-0.6,2.4-1.4l2.5-3.8C3.8,44.1,6.3,40.5,9.9,38.5z"/>
	</g>
	<g>
		<circle cx="15.6" cy="42.7" r="0.6"/>
		<path d="M15.4,37.6C9,37.6,3.8,42.8,3.8,49.2S9,60.8,15.4,60.8S27,55.6,27,49.2C27,42.8,21.8,37.6,15.4,37.6z M15.6,57.3
			c-1.3,0-2.3-1.3-2.3-2.3H18C17.9,56,16.9,57.3,15.6,57.3z M22,53.8c0,0.2,0,0.2-0.2,0.2H9.4C9.2,54,9,53.9,9,53.8V53
			c0-0.2,0.2-0.4,0.3-0.5c0.7-0.4,2.7-1.8,2.7-5.7c0-0.1,0-0.2,0-0.3c0.1-0.8,0.5-1.6,1.2-2.2c0.1-0.1,0.8-0.9,0.8-1.5
			c0,0,0,0,0-0.1c0-0.9,0.7-1.6,1.6-1.6c0.9,0,1.6,0.7,1.6,1.6c0,0,0,0,0,0.1c0,0.7,0.7,1.5,0.8,1.6c0.6,0.5,1,1.3,1.1,2.2
			c0,0.1,0,0.2,0,0.3c0,3.9,1.8,5.3,2.6,5.7c0.2,0.1,0.2,0.3,0.2,0.5v0.7H22z"/>
	</g>
</g>
</svg>
