<?xml version="1.0" encoding="utf-8"?>
<!-- Generator: Adobe Illustrator 19.1.0, SVG Export Plug-In . SVG Version: 6.00 Build 0)  -->
<svg version="1.1" id="Layer_1" xmlns="http://www.w3.org/2000/svg" xmlns:xlink="http://www.w3.org/1999/xlink" x="0px" y="0px"
	 viewBox="14 -13 45 45" style="enable-background:new 14 -13 45 45;" xml:space="preserve">
<style type="text/css">
	.st0{fill:#1A171B;}
</style>
<g id="Livello_4">
	<g id="XMLID_771_">
		<path id="XMLID_779_" class="st0" d="M53.9,19.5c-2-1.1-7.1-5-7.1-15.5c0-0.3,0-0.5-0.1-0.8c-0.3-2.3-1.5-4.3-3.1-5.8
			c-0.3-0.3-2.2-2.4-2.2-4.3c0-0.1,0-0.1,0-0.2c0-2.4-2-4.3-4.4-4.3s-4.4,2-4.4,4.4c0,0.1,0,0.1,0,0.2c-0.1,1.8-1.9,3.9-2.2,4.2
			c-1.6,1.5-2.8,3.5-3.1,5.8c-0.1,0.3-0.1,0.5-0.1,0.8c0,10.6-5.1,14.4-7.1,15.5c-0.4,0.2-0.8,0.8-0.8,1.3v2.1
			c0,0.5,0.4,0.9,0.9,0.9h33.6c0.5,0,0.9-0.4,0.9-0.9v-2.1C54.7,20.3,54.3,19.7,53.9,19.5z M37-5.3c-1,0-1.8-0.8-1.8-1.8
			S36-8.8,37-8.8S38.8-8,38.8-7S38-5.3,37-5.3z"/>
		<path id="XMLID_778_" class="st0" d="M36.7,30.6c2.4,0,4.3-1.9,4.3-4.2h-8.6C32.5,28.7,34.4,30.6,36.7,30.6z"/>
	</g>
</g>
</svg>
