<?xml version="1.0" encoding="utf-8"?>
<!-- Generator: Adobe Illustrator 19.1.0, SVG Export Plug-In . SVG Version: 6.00 Build 0)  -->
<svg version="1.0" id="Layer_1" xmlns="http://www.w3.org/2000/svg" xmlns:xlink="http://www.w3.org/1999/xlink" x="0px" y="0px"
	 viewBox="14 -13 45 45" enable-background="new 14 -13 45 45" xml:space="preserve">
<g id="Layer_40">
	<path d="M36.5,7.7c-0.6-0.2-1.1-0.2-1.6-0.5c-6.1-2.8-12.3-5.7-18.4-8.6c-0.1,0-0.2-0.1-0.3-0.1c-0.3-0.2-0.5-0.5-0.8-0.7
		C15.8-2.5,16-2.8,16.3-3c6.2-2.9,12.3-5.8,18.5-8.6c1.1-0.5,2.2-0.5,3.4,0c6.2,2.9,12.4,5.8,18.6,8.7c0.1,0.1,0.3,0.1,0.4,0.2
		c0.5,0.3,0.5,0.7,0,1c-0.3,0.2-0.6,0.3-0.8,0.4c-6.1,2.8-12.1,5.7-18.2,8.5C37.6,7.4,37.1,7.5,36.5,7.7z"/>
	<path d="M36.6,31c-0.6-0.2-1.2-0.3-1.7-0.5c-6.2-2.9-12.5-5.8-18.7-8.7c-0.1-0.1-0.3-0.1-0.4-0.2c-0.5-0.3-0.5-0.8,0-1
		c1.4-0.7,2.8-1.3,4.2-1.9c0.8-0.3,1.6-0.2,2.4,0.2c4.1,1.9,8.2,3.8,12.4,5.8c1.2,0.5,2.3,0.5,3.4,0c4.1-1.9,8.2-3.8,12.3-5.7
		c1-0.5,2.1-0.5,3.1,0s2.1,0.9,3.1,1.5c0.3,0.2,0.5,0.5,0.8,0.8c-0.3,0.2-0.5,0.6-0.8,0.7c-6,2.8-12,5.6-18,8.4
		C38,30.5,37.3,30.7,36.6,31z"/>
	<path d="M20.9,6.8C21.5,7,22,7.1,22.6,7.3c4.1,1.9,8.3,3.8,12.4,5.8c1,0.5,2,0.5,3,0c4.1-1.9,8.3-3.9,12.4-5.8
		c1.1-0.5,2.2-0.5,3.2,0c1.1,0.5,2.1,1,3.2,1.5c0.3,0.1,0.7,0.5,0.6,0.6c0,0.3-0.4,0.6-0.6,0.7c-4.6,2.2-9.3,4.3-13.9,6.5
		c-1.6,0.7-3.2,1.5-4.8,2.2c-1.1,0.5-2.2,0.5-3.2,0c-6.2-2.8-12.3-5.7-18.4-8.6c-0.4-0.2-0.7-0.5-1-0.8c0.3-0.3,0.6-0.6,1-0.8
		c1-0.5,1.9-0.9,2.9-1.4C19.8,7,20.4,6.9,20.9,6.8z"/>
</g>
</svg>
