<?xml version="1.0" encoding="utf-8"?>
<!-- Generator: Adobe Illustrator 19.1.0, SVG Export Plug-In . SVG Version: 6.00 Build 0)  -->
<svg version="1.1" id="Layer_1" xmlns="http://www.w3.org/2000/svg" xmlns:xlink="http://www.w3.org/1999/xlink" x="0px" y="0px"
	 viewBox="14 -13 45 45" style="enable-background:new 14 -13 45 45;" xml:space="preserve">
<g id="Layer_13">
	<g>
		<path d="M31-8.5c0.6,0,1.2,0,1.8,0c7.5,0,15,0,22.5,0c2,0,3,1.1,3.1,2.7s-1,2.9-3.1,2.9c-3.5,0-7,0-10.5,0c-4.4,0-8.7,0-13.1,0
			C31-3,31-3,31-2.2c0,0.5,0,1,0,1.5c0,0.4-0.2,0.5-0.5,0.5c-1.5,0-3.1,0-4.6,0c-0.4,0-0.4-0.2-0.4-0.5c0-0.5,0-1.1,0-1.6
			s-0.2-0.6-0.6-0.6c-2.4,0-4.7,0-7.1,0c-1.3,0-2.3-0.3-3-1.6c-0.8-1.6,0.1-3.6,1.9-3.8c1.1-0.2,2.3-0.2,3.4-0.2c1.6,0,3.2,0,4.8,0
			c0.4,0,0.6-0.1,0.6-0.6c0-0.6,0-1.1,0-1.7c0-0.4,0.2-0.5,0.5-0.5c1.5,0,2.9,0,4.4,0c0.5,0,0.6,0.2,0.6,0.6C31-9.9,31-9.3,31-8.5z"
			/>
		<path d="M36.5,30.1c0,0.9,0,1.8,0,2.7c-0.5,0-0.9,0-1.4,0c-1.2,0-2.4,0-3.6,0c-0.4,0-0.5-0.1-0.5-0.5c0-0.7,0-1.4,0-2.2
			c-0.4,0-0.7-0.1-1.1-0.1c-4.1,0-8.3,0-12.4,0c-1.9,0-2.9-1.1-3-2.7c-0.1-1.5,1-2.9,3-2.9c4,0,8,0,12.1,0c0.3,0,0.7,0,1,0
			s0.4-0.1,0.4-0.5c0-0.6,0-1.2,0-1.8c0-0.3,0.1-0.5,0.5-0.5c1.5,0,3,0,4.5,0c0.4,0,0.5,0.1,0.5,0.5c0,0.6,0,1.1,0,1.7
			c0,0.5,0.2,0.6,0.6,0.6c0.6,0,1.3,0,1.9,0c5.5,0,10.9,0,16.4,0c2.1,0,3.1,1.3,3.1,2.8c0,1.2-0.9,2.4-2.2,2.6
			C55.6,30,54.9,30,54.2,30c-5.7,0-11.4,0-17.1,0C36.9,30,36.7,30.1,36.5,30.1z"/>
		<path d="M41.9,8c0-0.8,0-1.5,0-2.2c0-0.4,0.1-0.6,0.5-0.6c1.5,0,3,0,4.5,0c0.3,0,0.5,0.1,0.5,0.5c0,0.6,0,1.1,0,1.7
			C47.4,7.9,47.5,8,48,8c2.5,0,4.9,0,7.4,0c1.6,0,2.7,1,3,2.4c0.2,1-0.6,2.5-1.6,2.9c-0.4,0.1-0.9,0.2-1.4,0.2c-2.5,0-4.9,0-7.4,0
			c-0.5,0-0.6,0.1-0.6,0.6c0,0.6,0,1.1,0,1.7c0,0.3-0.1,0.4-0.4,0.4c-1.5,0-3.1,0-4.6,0c-0.3,0-0.5-0.1-0.4-0.5c0-0.7,0-1.5,0-2.3
			c-0.3,0-0.5,0-0.7,0c-7.9,0-15.9,0-23.8,0c-1.2,0-2-0.5-2.6-1.5c-0.8-1.3-0.1-3.3,1.4-3.8c0.4-0.1,0.9-0.2,1.4-0.2
			c7.8,0,15.7,0,23.5,0C41.4,8,41.6,8,41.9,8z"/>
	</g>
</g>
</svg>
