<?xml version="1.0" encoding="utf-8"?>
<!-- Generator: Adobe Illustrator 19.1.0, SVG Export Plug-In . SVG Version: 6.00 Build 0)  -->
<svg version="1.0" id="Layer_1" xmlns="http://www.w3.org/2000/svg" xmlns:xlink="http://www.w3.org/1999/xlink" x="0px" y="0px"
	 viewBox="14 -13 45 45" enable-background="new 14 -13 45 45" xml:space="preserve">
<g id="Layer_54">
	<path fill="#1A171B" d="M55.9,17.8c0,0.5-0.1,1-0.3,1.5l1.8,1.2l-0.8,1.6l-2.1-0.7c-0.3,0.4-0.6,0.8-1,1.2l1,2l-1.4,1L51.6,24
		c-0.5,0.2-1,0.4-1.5,0.5L50,26.8L48.3,27l-0.5-2.1c-0.5,0-1-0.1-1.5-0.3L45,26.4l-1.6-0.8l0.7-2.1c-0.4-0.3-0.8-0.6-1.2-1l-2,1
		l-1-1.5l1.6-1.5c-0.2-0.5-0.4-1-0.5-1.5l-2.2,0l-0.2-1.8l2.1-0.5c0-0.5,0.1-1,0.3-1.5L39.2,14l0.7-1.6l2.1,0.7
		c0.3-0.4,0.6-0.8,1-1.2l-1-2l1.5-1l1.5,1.6c0.5-0.2,1-0.4,1.5-0.5l0.1-2.2l1.8-0.2l0.5,2.1c0.5,0,1,0.1,1.5,0.3l1.2-1.8L53.2,9
		l-0.7,2.1c0.4,0.3,0.8,0.6,1.2,1l2-1l1,1.4L55.1,14c0.2,0.5,0.4,1,0.5,1.5l2.2,0.1l0.2,1.8L55.9,17.8L55.9,17.8z M39.1,6.3l2.9-1
		l-0.5-2.4l-3.1,0.2c-0.3-0.7-0.6-1.4-1-2l2-2.3l-1.6-1.9l-2.6,1.7c-0.6-0.5-1.2-0.9-1.8-1.2l0.6-3l-2.4-0.8l-1.4,2.8
		c-0.7-0.1-1.5-0.2-2.2-0.1l-1-2.9l-2.4,0.5L24.8-3c-0.7,0.3-1.4,0.6-2,1l-2.3-2l-1.9,1.6L20.3,0c-0.5,0.6-0.9,1.2-1.2,1.8l-3-0.6
		l-0.8,2.4L18.1,5C18,5.7,17.9,6.5,18,7.2l-2.9,1l0.5,2.4l3.1-0.2c0.3,0.7,0.6,1.4,1,2l-2,2.3l1.6,1.9l2.5-1.6
		c0.6,0.5,1.2,0.9,1.8,1.2l-0.6,3l2.4,0.8l1.4-2.8c0.7,0.1,1.5,0.2,2.2,0.1l1,2.9l2.4-0.5l-0.2-3.1c0.7-0.3,1.4-0.6,2-1l2.3,2
		l1.9-1.6l-1.7-2.6c0.5-0.6,0.9-1.2,1.2-1.8l3,0.6l0.8-2.4L39,8.5C39.1,7.8,39.1,7.1,39.1,6.3L39.1,6.3z M28.5,1.9
		c2.7,0,4.9,2.2,4.9,4.9s-2.2,4.9-4.9,4.9s-4.9-2.2-4.9-4.9S25.8,1.9,28.5,1.9L28.5,1.9z M48.7,13.8c-1.9-0.2-3.7,1.2-3.9,3.1
		c-0.2,1.9,1.2,3.7,3.1,3.9s3.7-1.2,3.9-3.1C52,15.8,50.6,14,48.7,13.8z"/>
</g>
</svg>
