<?xml version="1.0" encoding="utf-8"?>
<!-- Generator: Adobe Illustrator 19.1.0, SVG Export Plug-In . SVG Version: 6.00 Build 0)  -->
<svg version="1.0" id="Layer_1" xmlns="http://www.w3.org/2000/svg" xmlns:xlink="http://www.w3.org/1999/xlink" x="0px" y="0px"
	 viewBox="14 -13 45 45" enable-background="new 14 -13 45 45" xml:space="preserve">
<g id="Layer_46">
	<path d="M15,9.5C15-2.4,24.7-12,36.6-12C48.4-12,58-2.4,58,9.5C58,21.3,48.3,31,36.5,31S15,21.4,15,9.5z M23.6,15.3
		c-1.4,0-3.1,0.8-4.4,2.3c-0.1,0.2-0.2,0.4,0,0.7c1.9,3.7,4.8,6.6,8.5,8.5c0.3,0.1,0.4,0.1,0.7-0.1c2.1-1.7,2.9-4.6,1.9-7.1
		C29.4,17,26.9,15.3,23.6,15.3z M48.8,15.3c-0.2,0-0.6,0-1,0.1c-2.6,0.5-4.4,2.1-5.1,4.6c-0.7,2.6,0,4.9,2.1,6.7
		c0.2,0.2,0.4,0.2,0.6,0.1c3.7-2,6.6-4.8,8.5-8.5c0.1-0.3,0.1-0.5-0.1-0.7C52.5,16.1,50.9,15.3,48.8,15.3z M27.7-0.4
		c0.1,0.2,0.1,0.3,0.1,0.3c1.9,3.7,3.7,7.4,5.6,11.1c0.3,0.5,0.8,1,1.3,1.3c1.5,1,3.7,0.5,4.7-1.1c1-1.5,0.5-3.5-0.9-4.5
		c-3.1-2.1-6.3-4.3-9.4-6.4C28.6,0.2,28.2,0,27.7-0.4z M49.6,8.3c0,1,0.8,1.8,1.8,1.8s1.9-0.8,1.9-1.8s-0.8-1.8-1.8-1.8
		C50.4,6.5,49.6,7.3,49.6,8.3z M44.1-2.8c1,0,1.9-0.8,1.9-1.8s-0.8-1.8-1.9-1.8c-1,0-1.9,0.8-1.9,1.8S43.1-2.8,44.1-2.8z M49.7,2.4
		c1,0,1.9-0.8,1.9-1.8s-0.8-1.8-1.8-1.8c-1.1,0-1.9,0.8-1.9,1.8C47.9,1.7,48.7,2.4,49.7,2.4z M38.2-6.2c0-1-0.8-1.8-1.8-1.8
		s-1.9,0.8-1.9,1.8s0.9,1.8,1.9,1.8S38.2-5.2,38.2-6.2z M21.3,6.3c-1,0-1.9,0.7-1.9,1.7s0.8,1.8,1.8,1.9c1,0,1.9-0.8,1.9-1.8
		C23.1,7.2,22.3,6.3,21.3,6.3z M28.6-6.2c-1,0-1.8,0.8-1.9,1.8c0,1,0.8,1.8,1.9,1.8c1,0,1.8-0.8,1.8-1.8C30.4-5.5,29.6-6.3,28.6-6.2
		z M23.2,2.5c1,0,1.9-0.8,1.9-1.8s-0.8-1.8-1.9-1.8c-1,0-1.9,0.8-1.9,1.8S22.1,2.5,23.2,2.5z"/>
</g>
</svg>
