<?xml version="1.0" encoding="utf-8"?>
<!-- Generator: Adobe Illustrator 19.2.1, SVG Export Plug-In . SVG Version: 6.00 Build 0)  -->
<!DOCTYPE svg PUBLIC "-//W3C//DTD SVG 1.0//EN" "http://www.w3.org/TR/2001/REC-SVG-20010904/DTD/svg10.dtd">
<svg version="1.0" id="Livello_1" xmlns="http://www.w3.org/2000/svg" xmlns:xlink="http://www.w3.org/1999/xlink" x="0px" y="0px"
	 viewBox="0 0 45 45" enable-background="new 0 0 45 45" xml:space="preserve">
<g id="Livello_15">
	<g>
		<g id="XMLID_3080_">
			<path fill="#1A171B" d="M33.3,5.4c1.2,0,2.1,0.9,2.1,2.1v2.1c0,1.2-0.9,2.1-2.1,2.1h-2.1c-1.1,0-1.9-0.8-2-1.9L29,9h-0.9h-1.9
				V8.1h1.9H29l0.1-0.9c0.1-1.1,1-1.9,2-1.9L33.3,5.4 M33.3,4.4h-2.1c-1.6,0-2.8,1.2-3,2.7h-2.8V10h2.8c0.2,1.5,1.4,2.7,3,2.7h2.1
				c1.7,0,3.1-1.4,3.1-3.1V7.5C36.4,5.8,35,4.4,33.3,4.4L33.3,4.4z"/>
		</g>
		<g id="XMLID_3078_">
			<path fill="#1A171B" d="M21.9,2h0.8v13.1h-0.8V2 M20.9,1v15.1h2.8V1H20.9L20.9,1z"/>
		</g>
		<g id="XMLID_14_">
			<path id="XMLID_3076_" fill="#1A171B" d="M20,22.3h-8c-0.2-1.5-1.4-2.7-3-2.7H6.9c-1.7,0-3.1,1.4-3.1,3.1v2.1
				c0,1.7,1.4,3.1,3.1,3.1H9c1.6,0,2.8-1.2,3-2.7h8V22.3z"/>
			<rect id="XMLID_90_" x="20.9" y="16.9" fill="#1A171B" width="2.8" height="13.8"/>
		</g>
		<path id="XMLID_4586_" fill="#1A171B" d="M25.1,30.2c0.4,0.3,0.3,1.2,0.2,1.5c-0.1,0.3-0.6,0.4-1.1,0.3c-0.5-0.1-1,0.3-1.1,1
			s0.1,1.3,0.6,1.4c0.5,0.1,0.9,0.9,0.9,1.2s-0.3,0.6-0.8,0.8s-0.7,0.8-0.5,1.4c0.2,0.6,0.7,1,1.2,0.9s1-0.1,1.1,0.2
			c0.1,0.2,0.3,1.1,0,1.5s-0.2,1,0.3,1.5c0.5,0.4,1.2,0.5,1.5,0.2c0.3-0.4,1.2-0.3,1.5-0.2s0.4,0.6,0.3,1.1s0.3,1,1,1.1
			s1.3-0.1,1.4-0.6s0.9-0.9,1.2-0.9s0.6,0.3,0.8,0.8c0.1,0.5,0.8,0.7,1.4,0.5c0.6-0.2,1-0.8,0.9-1.2c-0.1-0.5,0.4-1.2,0.6-1.4
			c0.2-0.2,0.7,0,1.1,0.3c0.4,0.3,1,0.2,1.5-0.3c0.4-0.5,0.5-1.2,0.2-1.5c-0.4-0.3-0.3-1.2-0.2-1.5s0.6-0.4,1.1-0.3
			c0.5,0.1,1-0.3,1.1-1s-0.1-1.3-0.6-1.4c-0.5-0.1-0.9-0.9-0.9-1.2s0.3-0.6,0.8-0.8c0.5-0.1,0.7-0.8,0.5-1.4c-0.2-0.6-0.8-1-1.2-0.9
			c-0.5,0.1-1.2-0.4-1.4-0.6s0-0.7,0.3-1.1s0.2-1-0.3-1.5c-0.5-0.4-1.2-0.5-1.5-0.2c-0.3,0.4-1.2,0.3-1.5,0.2
			C35.1,28,35,27.5,35.1,27s-0.3-1-1-1.1s-1.3,0.1-1.4,0.6c-0.1,0.5-0.9,0.9-1.2,0.9c-0.3,0-0.6-0.3-0.8-0.8
			c-0.1-0.5-0.8-0.7-1.4-0.5s-1,0.8-0.9,1.2c0.2,0.5-0.4,1.2-0.6,1.4c-0.2,0.2-0.7,0-1.1-0.3s-1-0.2-1.5,0.3
			C24.8,29.3,24.8,29.9,25.1,30.2z M30.5,29.9c2.8-0.9,5.8,0.6,6.7,3.4s-0.6,5.8-3.4,6.7c-2.8,0.9-5.8-0.6-6.7-3.4
			C26.2,33.8,27.7,30.8,30.5,29.9z"/>
	</g>
</g>
</svg>
