<?xml version="1.0" encoding="utf-8"?>
<!-- Generator: Adobe Illustrator 19.1.0, SVG Export Plug-In . SVG Version: 6.00 Build 0)  -->
<svg version="1.0" id="Layer_1" xmlns="http://www.w3.org/2000/svg" xmlns:xlink="http://www.w3.org/1999/xlink" x="0px" y="0px"
	 viewBox="-275 398.9 45 45" enable-background="new -275 398.9 45 45" xml:space="preserve">
<g id="Layer_63">
	<g>
		<rect id="XMLID_5164_" x="-274" y="400.5" width="4.9" height="4.9"/>
		<rect id="XMLID_5152_" x="-274" y="412.9" width="4.9" height="4.9"/>
		<rect id="XMLID_5148_" x="-274" y="425.8" width="4.9" height="4.9"/>
		<rect id="XMLID_5146_" x="-263.8" y="401" width="20.2" height="3.5"/>
		<rect id="XMLID_5142_" x="-263.8" y="413.7" width="20.3" height="3.4"/>
		<path d="M-253.1,426.9H-264v3.2h10.4C-253.6,429-253.4,428-253.1,426.9z"/>
		<path d="M-231,441.2c-0.9,0.9-1.8,1.8-2.7,2.7c-2-2-4.1-4-6.1-6.1c-1.1-1.1-1.9-1.8-3.8-1.2c-3.8,1.2-7.6-1.4-8.6-5.3
			c-0.9-3.7,1.5-7.6,5.3-8.5c2.7-0.6,5.2,0.1,7,2.3c1.9,2.2,2.3,4.7,1.2,7.4c-0.3,0.7-0.2,1,0.3,1.5c2.4,2.4,4.8,4.8,7.2,7.1
			C-231.1,441.1-231.1,441.1-231,441.2z M-245.2,433.9c2.4,0,4.2-1.8,4.3-4.2c0-3.4-4.1-5.9-7.6-2.9
			C-250.8,430.4-248.5,433.9-245.2,433.9z"/>
	</g>
</g>
</svg>
