<?xml version="1.0" encoding="utf-8"?>
<!-- Generator: Adobe Illustrator 19.1.0, SVG Export Plug-In . SVG Version: 6.00 Build 0)  -->
<svg version="1.1" id="Layer_1" xmlns="http://www.w3.org/2000/svg" xmlns:xlink="http://www.w3.org/1999/xlink" x="0px" y="0px"
	 viewBox="14 -13 45 45" style="enable-background:new 14 -13 45 45;" xml:space="preserve">
<style type="text/css">
	.st0{fill:#1A171B;}
</style>
<g id="Livello_5">
	<path id="XMLID_914_" class="st0" d="M53.3,22.8c-1.4-0.5-2.3-0.9-3.4-1.5v1.1H25c0.4-1.6,1-3.8,1.2-4.9c1.9,0.6,9,2.7,9,2.7
		s1.3-7.7,1.7-9.8c2.2,0.5,12,2.9,12,2.9l4.6-15l-2.6-0.8c0,0-3.2,10.6-3.8,12.6c-2-0.5-12.3-3-12.3-3s-1.3,7.5-1.6,9.6
		c-2-0.6-8.8-2.7-8.8-2.7l-1,4.1V-4.6h1.1c-0.3-0.4-1-2-1.5-3.4c-0.5-1.6-0.9-2.9-1-3.8c-0.1,0.9-0.4,2.2-1,3.8
		c-0.4,1.4-0.9,2.3-1.4,3.4h1v27h-4.7v2.8h4.7v5.3h2.7v-5.3h26.5v1.1c0.4-0.2,2-1,3.4-1.5c1.5-0.5,2.8-0.9,3.7-1
		C56.1,23.7,54.7,23.3,53.3,22.8z"/>
</g>
</svg>
