<?xml version="1.0" encoding="utf-8"?>
<!-- Generator: Adobe Illustrator 19.1.0, SVG Export Plug-In . SVG Version: 6.00 Build 0)  -->
<svg version="1.0" id="Layer_1" xmlns="http://www.w3.org/2000/svg" xmlns:xlink="http://www.w3.org/1999/xlink" x="0px" y="0px"
	 viewBox="14 -13 45 45" enable-background="new 14 -13 45 45" xml:space="preserve">
<g id="Layer_51">
	<g>
		<path id="XMLID_235_" d="M45.5,16.8c0.3,0.3,0.2,1,0.1,1.2c-0.1,0.2-0.5,0.3-0.8,0.2c-0.4-0.1-0.8,0.3-0.9,0.8s0.1,1,0.5,1.1
			s0.7,0.7,0.7,0.9s-0.3,0.5-0.6,0.6c-0.4,0.1-0.5,0.6-0.4,1.1c0.2,0.5,0.6,0.8,0.9,0.7c0.4-0.1,0.7-0.1,0.9,0.1
			c0.1,0.2,0.2,0.9,0,1.2c-0.3,0.3-0.1,0.8,0.2,1.1c0.4,0.3,0.9,0.4,1.2,0.1c0.3-0.3,1-0.2,1.2-0.1c0.2,0.1,0.3,0.5,0.2,0.8
			c-0.1,0.4,0.3,0.8,0.8,0.9c0.5,0.1,1-0.1,1.1-0.5s0.7-0.7,0.9-0.7s0.5,0.3,0.6,0.6c0.1,0.4,0.6,0.5,1.1,0.4
			c0.5-0.2,0.8-0.6,0.7-0.9c-0.1-0.4,0.3-0.9,0.5-1.1c0.2-0.1,0.5,0,0.8,0.2c0.3,0.3,0.8,0.1,1.1-0.2c0.3-0.4,0.4-0.9,0.1-1.2
			c-0.3-0.3-0.2-1-0.1-1.2c0.1-0.2,0.5-0.3,0.8-0.2c0.4,0.1,0.8-0.3,0.9-0.8c0.1-0.5-0.1-1-0.5-1.1s-0.7-0.7-0.7-0.9
			s0.3-0.5,0.6-0.6c0.4-0.1,0.5-0.6,0.4-1.1c-0.2-0.5-0.6-0.8-0.9-0.7c-0.4,0.1-0.9-0.3-1.1-0.5c-0.1-0.2,0-0.5,0.2-0.8
			c0.3-0.3,0.1-0.8-0.2-1.1c-0.4-0.3-0.9-0.4-1.2-0.1s-1,0.2-1.2,0.1s-0.3-0.5-0.2-0.8c0.1-0.4-0.3-0.8-0.8-0.9s-1,0.1-1.1,0.5
			s-0.7,0.7-0.9,0.7s-0.5-0.3-0.6-0.6c-0.1-0.4-0.6-0.5-1.1-0.4c-0.5,0.2-0.8,0.6-0.7,0.9c0.1,0.4-0.3,0.9-0.5,1.1
			c-0.2,0.1-0.5,0-0.8-0.2c-0.3-0.3-0.8-0.1-1.1,0.2C45.3,16,45.2,16.5,45.5,16.8z M49.7,16.5c2.2-0.7,4.5,0.5,5.2,2.7
			s-0.5,4.5-2.7,5.2C50,25,47.7,23.8,47,21.7C46.3,19.5,47.5,17.2,49.7,16.5z"/>
		<g>
			<circle cx="30.4" cy="-0.7" r="4.4"/>
		</g>
		<g>
			<circle cx="28.6" cy="12.3" r="5.3"/>
		</g>
		<g>
			<circle cx="39.5" cy="4.5" r="4"/>
		</g>
		<path d="M40.9,22.9c-2.3,1.2-4.9,1.9-7.6,1.9c-8.9,0-16.1-7.2-16.1-16.1S24.4-7.5,33.3-7.5S49.5-0.3,49.5,8.6c0,0.5,0,1-0.1,1.5
			c0.7-0.2,1.4-0.3,2.1-0.3c0-0.4,0.1-0.8,0.1-1.2c0-10.1-8.2-18.3-18.3-18.3C23.2-9.6,15-1.4,15,8.6s8.2,18.3,18.3,18.3
			c2.9,0,5.7-0.7,8.1-1.9C41.2,24.3,41,23.6,40.9,22.9z"/>
		<path d="M44.8,12.4c-0.7-1.2-1.9-2-3.4-2c-2.2,0-3.9,1.8-3.9,3.9s1.6,3.7,3.6,3.9C41.7,15.9,43,13.9,44.8,12.4z"/>
	</g>
</g>
</svg>
