<?xml version="1.0" encoding="utf-8"?>
<!-- Generator: Adobe Illustrator 19.1.0, SVG Export Plug-In . SVG Version: 6.00 Build 0)  -->
<svg version="1.0" id="Layer_1" xmlns="http://www.w3.org/2000/svg" xmlns:xlink="http://www.w3.org/1999/xlink" x="0px" y="0px"
	 viewBox="-275 398.9 45 45" enable-background="new -275 398.9 45 45" xml:space="preserve">
<g id="Layer_65">
	<g>
		<path d="M-271.3,432.9l18.7,10V417l-18.7-8.5V432.9z M-266.7,419.2h2.3l1.6,2.4c0.4,0.6,0.8,1.2,1.1,1.8h0.1
			c0.4-0.7,0.7-1.2,1.1-1.8l1.6-2.4h2.2l-3.8,5.4l3.9,5.8h-2.3l-1.7-2.5c-0.4-0.6-0.8-1.3-1.2-1.9l0,0c-0.4,0.7-0.8,1.3-1.2,1.9
			l-1.6,2.5h-2.3l4-5.7L-266.7,419.2z"/>
		<path d="M-232.4,408.5l-18.7,8.5v25.9l18.7-10.1V408.5z M-238.3,425.9c-1.4,3.6-2.3,5.5-3.6,6.6c-0.9,0.8-1.9,1.2-2.4,1.2
			l-0.5-1.6c0.5-0.2,1.1-0.5,1.7-0.9c0.5-0.4,1.2-1.2,1.6-2.1c0.1-0.2,0.2-0.4,0.2-0.5s0-0.3-0.1-0.5l-3.9-9.8h2.1l2.3,6.3
			c0.2,0.7,0.5,1.5,0.7,2.2l0,0c0.2-0.6,0.4-1.4,0.7-2.2l2.1-6.2h2L-238.3,425.9z"/>
		<path d="M-240.7,404.3c-3.6-1.5-11.2-4.4-11.2-4.4l-18.7,7.3l18.8,8.7l18.6-8.6C-233.1,407.2-238.3,405.2-240.7,404.3z"/>
	</g>
</g>
</svg>
