<?xml version="1.0" encoding="utf-8"?>
<!-- Generator: Adobe Illustrator 19.1.0, SVG Export Plug-In . SVG Version: 6.00 Build 0)  -->
<svg version="1.0" id="Layer_1" xmlns="http://www.w3.org/2000/svg" xmlns:xlink="http://www.w3.org/1999/xlink" x="0px" y="0px"
	 viewBox="-275 398.9 45 45" enable-background="new -275 398.9 45 45" xml:space="preserve">
<g>
	<path d="M-230.3,430.9c0,0.1,0,0.2,0,0.3c-0.2,0.6-0.6,0.7-1.2,0.7c-0.3,0-0.7,0-1,0c-0.7,0-1.5,0-2.2,0c-0.1,0-0.2,0.1-0.2,0.1
		c-0.1,0.4-0.2,0.7-0.3,1.1c0.1,0,0.1,0.1,0.2,0.1c0.9,0.3,1.7,0.8,2.3,1.5c1.1,1.1,1.6,2.5,1.5,4.1c0,0.6-0.8,0.9-1.3,0.6
		c-0.3-0.2-0.4-0.5-0.4-0.8c0-1.1-0.4-2.1-1.2-2.9c-0.5-0.5-1.1-0.8-1.8-1c-1.1,1.8-2.5,3.1-4.5,3.7c0-0.1,0-0.2,0-0.3
		c0-2,0-4,0-6.1c0-0.5,0-1-0.2-1.4c-0.1-0.3-0.3-0.6-0.6-0.6c-0.4,0-0.5,0.3-0.6,0.6c-0.2,0.5-0.2,0.9-0.2,1.4c0,2,0,4,0,6.1
		c0,0.1,0,0.2,0,0.3c-0.9-0.2-1.6-0.7-2.3-1.2c-0.9-0.6-1.5-1.4-2.1-2.4c-0.1-0.1-0.1-0.2-0.2-0.1c-0.9,0.3-1.7,0.7-2.2,1.5
		c-0.5,0.7-0.7,1.5-0.7,2.4c0,0.5-0.4,0.9-0.9,0.9c-0.5,0-0.8-0.4-0.8-0.9c0-0.3,0-0.6,0.1-0.9c0.3-2.2,1.6-3.6,3.6-4.4
		c0.1-0.1,0.2-0.1,0.4-0.1c-0.1-0.4-0.2-0.7-0.3-1c0-0.2-0.1-0.2-0.3-0.2c-1.1,0-2.2,0-3.3,0c-0.6,0-0.9-0.2-1.1-0.7
		c0-0.1,0-0.2,0-0.3c0.2-0.6,0.6-0.7,1.2-0.7c1,0,2,0,2.9,0c0.1,0,0.2,0,0.3,0c0-0.5,0-0.9,0-1.4c0-0.1-0.1-0.1-0.1-0.2
		c-0.4-0.4-0.8-0.7-1.1-1.1c-1.2-1.5-1.5-3.2-1.5-5c0-0.5,0.3-0.8,0.8-0.8c0.4,0,0.8,0.3,0.8,0.7c0.1,0.5,0.1,1,0.1,1.5
		c0.1,1,0.5,1.9,1.1,2.7c0.4,0.5,1,0.8,1.5,1c2.2,1,4.5,1.3,6.8,0.9c1-0.2,2-0.5,3-0.9c0.7-0.3,1.2-0.7,1.6-1.2
		c0.7-0.9,0.9-1.8,1-2.9c0-0.4,0-0.8,0.1-1.2c0.1-0.4,0.4-0.7,0.9-0.7c0.4,0,0.8,0.3,0.8,0.7c0,0.5,0,1-0.1,1.6
		c-0.2,1.9-1,3.5-2.5,4.6c0,0-0.1,0.1-0.1,0.1c0,0.5,0,0.9,0,1.4c0.1,0,0.2,0,0.3,0c1,0,2,0,3,0
		C-230.9,430.1-230.5,430.3-230.3,430.9z"/>
	<path d="M-241.3,427.5c-0.9,0-1.8-0.1-2.7-0.3c-0.7-0.2-1.4-0.5-1.8-1.2c-0.3-0.6-0.4-1.2-0.4-1.8c0-1.2,0.7-1.9,1.7-2.4
		c0.2-0.1,0.5-0.2,0.7-0.3c0.1,0,0.2-0.1,0.2-0.2c0.3-1.1,1.2-1.9,2.3-1.9c1.1,0,2.1,0.7,2.3,1.9c0,0.1,0.1,0.2,0.2,0.2
		c0.5,0.2,1,0.5,1.5,0.8c0.8,0.7,1,1.6,0.9,2.6c-0.1,0.9-0.5,1.6-1.3,2c-0.5,0.2-1,0.4-1.5,0.5
		C-239.9,427.4-240.6,427.4-241.3,427.5z"/>
</g>
<path stroke="#1F1D21" stroke-width="0.25" stroke-miterlimit="10" d="M-266.1,416.3l-0.1,0.4l1.5,0.2l-4.2,2.9
	c-0.3-0.4-0.8-0.6-1.4-0.6c-1,0-1.9,0.9-1.9,1.9s0.9,1.9,1.9,1.9s1.9-0.9,1.9-1.9c0-0.4-0.1-0.7-0.3-1l4.2-2.9l-0.3,1.5l0.4,0.1
	l0.5-2.2L-266.1,416.3z M-270.3,422.6c-0.8,0-1.5-0.7-1.5-1.5s0.7-1.5,1.5-1.5s1.5,0.7,1.5,1.5S-269.4,422.6-270.3,422.6z"/>
<path stroke="#1F1D21" stroke-width="0.25" stroke-miterlimit="10" d="M-263.5,419l0.2,0.3l1.2-0.9l-0.9,5c-0.5,0-1,0.2-1.4,0.5
	c-0.7,0.7-0.7,1.9,0,2.7c0.7,0.7,1.9,0.7,2.7,0c0.7-0.7,0.7-1.9,0-2.7c-0.3-0.3-0.6-0.4-0.9-0.5l0.9-5l0.8,1.3l0.3-0.2l-1.2-1.9
	L-263.5,419z M-261.9,426.4c-0.6,0.6-1.6,0.6-2.2,0c-0.6-0.6-0.6-1.6,0-2.2c0.6-0.6,1.6-0.6,2.2,0
	C-261.3,424.8-261.3,425.8-261.9,426.4z"/>
<path stroke="#1F1D21" stroke-width="0.25" stroke-miterlimit="10" d="M-259.6,419.1l0.4,0.1l0.2-1.5l2.9,4.2
	c-0.4,0.3-0.6,0.8-0.6,1.4c0,1,0.9,1.9,1.9,1.9s1.9-0.9,1.9-1.9c0-1-0.9-1.9-1.9-1.9c-0.4,0-0.7,0.1-1,0.3l-2.9-4.2l1.5,0.3l0.1-0.4
	l-2.2-0.5L-259.6,419.1z M-253.3,423.2c0,0.8-0.7,1.5-1.5,1.5c-0.8,0-1.5-0.7-1.5-1.5c0-0.8,0.7-1.5,1.5-1.5
	C-254,421.7-253.3,422.4-253.3,423.2z"/>
<path stroke="#1F1D21" stroke-width="0.25" stroke-miterlimit="10" d="M-256.6,415.6l0.3-0.3l-1.1-1.1l5.1,0c0.1,0.5,0.3,1,0.8,1.3
	c0.9,0.6,2,0.4,2.6-0.5c0.6-0.9,0.4-2-0.5-2.6s-2-0.4-2.6,0.5c-0.2,0.3-0.3,0.6-0.3,1l-5.1,0l1.1-1l-0.3-0.3l-1.6,1.5L-256.6,415.6z
	 M-249.6,412.8c0.7,0.5,0.9,1.4,0.4,2.1c-0.5,0.7-1.4,0.9-2.1,0.4c-0.7-0.5-0.9-1.4-0.4-2.1S-250.3,412.3-249.6,412.8z"/>
<path stroke="#1F1D21" stroke-width="0.25" stroke-miterlimit="10" d="M-257.4,411.4l0-0.4l-1.5,0.2l3.3-4c0.4,0.3,1,0.4,1.5,0.2
	c1-0.3,1.6-1.3,1.3-2.3c-0.3-1-1.3-1.6-2.3-1.3c-1,0.3-1.6,1.3-1.3,2.3c0.1,0.4,0.3,0.6,0.6,0.9l-3.2,3.9l-0.1-1.5l-0.4,0l0.1,2.2
	L-257.4,411.4z M-255.2,404.2c0.8-0.2,1.7,0.2,1.9,1.1s-0.2,1.7-1.1,1.9c-0.8,0.2-1.7-0.2-1.9-1.1S-256,404.4-255.2,404.2z"/>
<path stroke="#1F1D21" stroke-width="0.25" stroke-miterlimit="10" d="M-262.5,409.5l-0.4-0.1l-0.5,1.5l-2.2-4.6
	c0.4-0.3,0.7-0.7,0.8-1.3c0.2-1-0.5-2-1.6-2.2c-1-0.2-2,0.5-2.2,1.6c-0.2,1,0.5,2,1.6,2.2c0.4,0.1,0.7,0,1-0.1l2.2,4.6l-1.4-0.6
	l-0.1,0.3l2.1,0.8L-262.5,409.5z M-268.1,404.4c0.1-0.8,0.9-1.4,1.8-1.3c0.8,0.1,1.4,0.9,1.3,1.8c-0.1,0.8-0.9,1.4-1.8,1.3
	S-268.2,405.3-268.1,404.4z"/>
<path stroke="#1F1D21" stroke-width="0.25" stroke-miterlimit="10" d="M-265.9,412l-0.3,0.2l0.8,1.3l-5-1.3c0.1-0.5-0.1-1-0.4-1.5
	c-0.7-0.8-1.9-0.9-2.7-0.2s-0.9,1.9-0.2,2.7c0.7,0.8,1.9,0.9,2.7,0.2c0.3-0.2,0.5-0.5,0.6-0.9l4.9,1.3l-1.4,0.7l0.2,0.3l2-1
	L-265.9,412z M-273.4,413c-0.5-0.6-0.5-1.6,0.2-2.2s1.6-0.5,2.2,0.2s0.5,1.6-0.2,2.2C-271.8,413.7-272.8,413.6-273.4,413z"/>
</svg>
