<?xml version="1.0" encoding="utf-8"?>
<!-- Generator: Adobe Illustrator 19.1.0, SVG Export Plug-In . SVG Version: 6.00 Build 0)  -->
<svg version="1.1" id="Layer_1" xmlns="http://www.w3.org/2000/svg" xmlns:xlink="http://www.w3.org/1999/xlink" x="0px" y="0px"
	 viewBox="14 -13 45 45" style="enable-background:new 14 -13 45 45;" xml:space="preserve">
<style type="text/css">
	.st0{fill:#1A171B;}
</style>
<g id="Livello_6">
	<g id="XMLID_6_">
		<g id="XMLID_935_">
			<path id="XMLID_9_" class="st0" d="M36.2,25.1c-0.2,0-0.5-0.1-0.7-0.3L28.6,18c-0.2-0.2-0.3-0.4-0.3-0.7V-5.1c0-0.5,0.4-1,1-1h9
				c0.5,0,1,0.4,1,1v18.7c0,0.3-0.1,0.5-0.3,0.7l-2.2,2.2c-0.4,0.4-1,0.4-1.3,0l-2.3-2.2c-0.2-0.2-0.3-0.4-0.3-0.7V0.9
				c0-0.5,0.4-1,1-1s1,0.4,1,1v12.2l1.3,1.3l1.2-1.2V-4.2h-7v21l5.9,5.9L42,17V-2.4c0-0.5,0.4-1,1-1c0.5,0,1,0.4,1,1v19.8
				c0,0.3-0.1,0.5-0.3,0.7L37,24.8C36.7,25,36.4,25.1,36.2,25.1z"/>
		</g>
		<g id="XMLID_943_">
			<path id="XMLID_7_" class="st0" d="M26,0.9h-9.5c-0.5,0-1-0.4-1-1s0.4-1,1-1H26c0.5,0,1,0.4,1,1S26.6,0.9,26,0.9z"/>
		</g>
		<g id="XMLID_942_">
			<path id="XMLID_5_" class="st0" d="M56.6,0.9h-9.3c-0.5,0-1-0.4-1-1s0.4-1,1-1h9.3c0.5,0,1,0.4,1,1S57.1,0.9,56.6,0.9z"/>
		</g>
	</g>
</g>
</svg>
