<?xml version="1.0" encoding="utf-8"?>
<!-- Generator: Adobe Illustrator 19.1.0, SVG Export Plug-In . SVG Version: 6.00 Build 0)  -->
<svg version="1.0" id="Layer_1" xmlns="http://www.w3.org/2000/svg" xmlns:xlink="http://www.w3.org/1999/xlink" x="0px" y="0px"
	 viewBox="-275 398.9 45 45" enable-background="new -275 398.9 45 45" xml:space="preserve">
<g id="Layer_60">
	<g>
		<path d="M-252.1,405.3c-0.1,1.1-0.3,2.1-0.4,3.2c-0.1,0-0.3,0-0.5,0c-5.1,0-10.1,0-15.2,0c-2.2,0-3.5,1.3-3.5,3.5
			c0,8.4,0,16.7,0,25.1c0,2.3,1.3,3.6,3.6,3.6c8.4,0,16.7,0,25.1,0c2.1,0,3.5-1.4,3.5-3.5c0-5.1,0-10.2,0-15.3c0-0.2,0-0.3,0-0.5
			c1.1-0.1,2.1-0.3,3.2-0.4c0,0.1,0,0.3,0,0.4c0,5.3,0,10.6,0,15.9c0,3.7-2.8,6.5-6.5,6.5c-8.5,0-17,0-25.6,0c-3.1,0-5.6-2-6.3-5
			c-0.2-0.4-0.3-0.9-0.3-1.4c0-8.5,0-17,0-25.6c0-3.6,2.8-6.5,6.4-6.5c5.4,0,10.7,0,16.1,0C-252.4,405.3-252.2,405.3-252.1,405.3z"
			/>
		<path d="M-230,408.5c0,5.3-4.3,9.6-9.5,9.7c-5.4,0-9.7-4.3-9.8-9.6c0-5.3,4.3-9.7,9.5-9.7C-234.4,398.9-230,403.2-230,408.5z
			 M-239.7,415c3.5,0,6.4-2.8,6.5-6.3c0-3.6-2.8-6.5-6.4-6.5c-3.5,0-6.5,2.8-6.5,6.3S-243.3,414.9-239.7,415z"/>
	</g>
</g>
</svg>
