<?xml version="1.0" encoding="utf-8"?>
<!-- Generator: Adobe Illustrator 19.1.0, SVG Export Plug-In . SVG Version: 6.00 Build 0)  -->
<svg version="1.0" id="Layer_1" xmlns="http://www.w3.org/2000/svg" xmlns:xlink="http://www.w3.org/1999/xlink" x="0px" y="0px"
	 viewBox="-17 18 45 45" enable-background="new -17 18 45 45" xml:space="preserve">
<g id="Layer_15">
	<g id="XMLID_83_">
		<path id="XMLID_11153_" d="M-16,49.8c0.7-6.4,1.4-12.5,2.2-18.8c3.1,0,5.7,0,8.6,0c0-4,0-7.7,0-11.6c7.8,0,15.3,0,23.1,0
			c0,3.7,0,7.4,0,11.4c2.4,0,4.6,0,6.6,0c1.9,3.9,3.1,14.2,2.4,19C12.7,49.8-1.3,49.8-16,49.8z M-3.2,21.4c0,5.6,0,10.8,0,16.1
			c6.5,0,12.7,0,18.9,0c0-5.5,0-10.7,0-16.1C9.4,21.4,3.2,21.4-3.2,21.4z"/>
		<path id="XMLID_11137_" d="M-9.8,62c0.4-2,0.7-3.7,1.1-5.7c-1.7-0.2-3.5,0.1-4.6-0.7c-1-0.7-1.2-2.6-1.9-4.2c14,0,27.7,0,41.4,0
			c-0.3,3.7-1.1,4.5-5.7,4.9c0.3,1.8,0.6,3.7,1,5.7C11.2,62,0.8,62-9.8,62z M17.9,53.9c-8.1,0-15.9,0-24,0c-0.5,2-0.9,4-1.4,6.2
			c9,0,17.7,0,26.7,0C18.8,58,18.4,56,17.9,53.9z"/>
	</g>
</g>
</svg>
