<?xml version="1.0" encoding="utf-8"?>
<!-- Generator: Adobe Illustrator 19.1.0, SVG Export Plug-In . SVG Version: 6.00 Build 0)  -->
<svg version="1.0" id="Layer_1" xmlns="http://www.w3.org/2000/svg" xmlns:xlink="http://www.w3.org/1999/xlink" x="0px" y="0px"
	 viewBox="14 -13 45 45" enable-background="new 14 -13 45 45" xml:space="preserve">
<g id="Layer_33">
	<path d="M44.8-12H29.1c-1,0-1.8,0.8-1.8,1.8v39.4c0,1,0.8,1.8,1.8,1.8h15.7c1,0,1.8-0.8,1.8-1.8v-39.4C46.6-11.2,45.8-12,44.8-12z
		 M37.2,26.6c-2.7,0-4.8-2.2-4.8-4.8c0-2.7,2.2-4.8,4.8-4.8c2.7,0,4.8,2.2,4.8,4.8C42,24.5,39.8,26.6,37.2,26.6z M37.2,14.2
		c-2.7,0-4.8-2.2-4.8-4.8s2.2-4.8,4.8-4.8c2.7,0,4.8,2.2,4.8,4.8S39.8,14.2,37.2,14.2z M37.2,1.9c-2.7,0-4.8-2.2-4.8-4.8
		c0-2.7,2.2-4.8,4.8-4.8c2.7,0,4.8,2.2,4.8,4.8C42-0.2,39.8,1.9,37.2,1.9z"/>
	<path d="M48.1-6.4v4.8c0,0.6,0.8,1,1.2,0.5l4.8-4.8c0.5-0.5,0.1-1.2-0.5-1.2h-4.8C48.5-7.1,48.1-6.8,48.1-6.4z"/>
	<path d="M48.1,6.5v4.8c0,0.6,0.8,1,1.2,0.5L54.1,7c0.5-0.5,0.1-1.2-0.5-1.2h-4.8C48.5,5.8,48.1,6.1,48.1,6.5z"/>
	<path d="M48.1,19.4v4.8c0,0.6,0.8,1,1.2,0.5l4.8-4.8c0.5-0.5,0.1-1.2-0.5-1.2h-4.8C48.5,18.7,48.1,19,48.1,19.4z"/>
	<path d="M25.6-6.6v5.3c0,0.5-0.6,0.8-1,0.4l-5.3-5.3c-0.4-0.4-0.1-1,0.4-1H25C25.3-7.1,25.6-6.9,25.6-6.6z"/>
	<path d="M25.6,6.3v5.3c0,0.5-0.6,0.8-1,0.4l-5.3-5.3c-0.4-0.4-0.1-1,0.4-1H25C25.3,5.8,25.6,6,25.6,6.3z"/>
	<path d="M25.6,19.2v5.3c0,0.5-0.6,0.8-1,0.4l-5.3-5.3c-0.4-0.4-0.1-1,0.4-1H25C25.3,18.7,25.6,18.9,25.6,19.2z"/>
</g>
</svg>
