<?xml version="1.0" encoding="utf-8"?>
<!-- Generator: Adobe Illustrator 19.1.0, SVG Export Plug-In . SVG Version: 6.00 Build 0)  -->
<svg version="1.0" id="Layer_1" xmlns="http://www.w3.org/2000/svg" xmlns:xlink="http://www.w3.org/1999/xlink" x="0px" y="0px"
	 viewBox="14 -13 45 45" enable-background="new 14 -13 45 45" xml:space="preserve">
<g id="Layer_38">
	<g>
		<g>
			<g>
				<path fill="#1A171B" d="M33.6-12h-5.9c-4.8,0-8.6,3.8-8.6,8.6v14.8l0,0h1.7V-3.4c0-3.8,3.1-6.9,6.9-6.9h5.9V-12z"/>
			</g>
		</g>
		<path fill="#1A171B" d="M43.5-7.5h-6c-5.7,0-10.4,4.7-10.4,10.4v6.2l0,0V31h5.1V9.1V2.9c0-2.9,2.4-5.3,5.3-5.3h6
			c2.9,0,5.3,2.4,5.3,5.3v6.2c0,2.9-2.4,5.3-5.3,5.3v5.1c5.7,0,10.4-4.7,10.4-10.4V2.9C53.9-2.8,49.2-7.5,43.5-7.5z"/>
	</g>
</g>
</svg>
