<?xml version="1.0" encoding="utf-8"?>
<!-- Generator: Adobe Illustrator 19.1.0, SVG Export Plug-In . SVG Version: 6.00 Build 0)  -->
<svg version="1.1" id="Livello_1" xmlns="http://www.w3.org/2000/svg" xmlns:xlink="http://www.w3.org/1999/xlink" x="0px" y="0px"
	 viewBox="-283 374 45 45" style="enable-background:new -283 374 45 45;" xml:space="preserve">
<style type="text/css">
	.st0{fill:#1A171B;}
</style>
<g id="Livello_3">
	<g id="XMLID_699_">
		<g id="XMLID_715_">
			<path class="st0" d="M-248,417.6h-24.6c-1.8,0-3.3-1.5-3.3-3.3v-30c0-1.1,0.5-2.1,1.4-3l5.4-4.8c0.7-0.7,1.7-1.1,2.8-1.1h18.8
				c0.9,0,1.7,0.4,2.3,1c0.6,0.6,0.9,1.4,0.8,2.2l0,35.4C-244.4,416-246,417.6-248,417.6z M-266.3,376.6c-0.8,0-1.5,0.3-2,0.7
				l-5.4,4.8c-0.4,0.4-1,1.2-1,2.1v30c0,1.2,0.9,2.1,2.1,2.1h24.6c1.4,0,2.4-1,2.4-2.4v-35.4c0-0.5-0.1-1-0.5-1.4
				c-0.4-0.4-0.9-0.6-1.4-0.6H-266.3z"/>
		</g>
		<g id="XMLID_712_">
			<rect x="-272.2" y="392" class="st0" width="24.3" height="1.2"/>
		</g>
		<g id="XMLID_709_">
			<rect x="-259.1" y="382.2" class="st0" width="11.1" height="1.2"/>
		</g>
		<g id="XMLID_706_">
			<polygon class="st0" points="-273.6,383.2 -267,377.3 -266.8,377.3 -266.8,383.3 -273.6,383.3 			"/>
		</g>
		<g id="XMLID_703_">
			<rect x="-272.3" y="411.3" class="st0" width="23.8" height="1.2"/>
		</g>
		<g id="XMLID_700_">
			<rect x="-272.3" y="400.9" class="st0" width="24.4" height="1.2"/>
		</g>
	</g>
</g>
</svg>
