<?xml version="1.0" encoding="utf-8"?>
<!-- Generator: Adobe Illustrator 19.1.0, SVG Export Plug-In . SVG Version: 6.00 Build 0)  -->
<svg version="1.0" id="Layer_1" xmlns="http://www.w3.org/2000/svg" xmlns:xlink="http://www.w3.org/1999/xlink" x="0px" y="0px"
	 viewBox="-17 18 45 45" enable-background="new -17 18 45 45" xml:space="preserve">
<g id="Layer_12">
	<path d="M3.8,44.5c-0.1,0-0.2,0-0.3,0c-6,0-11.1-4.7-11.5-10.7c0-0.3,0-0.6,0-0.9c0-6.3,5.2-11.4,11.6-11.4c6,0,11.1,4.7,11.5,10.7
		l0.2,3L10.5,31c-0.2-0.1-0.4-0.2-0.6-0.2c-0.3,0-0.5,0.1-0.7,0.3c-0.3,0.4-0.3,0.9,0.1,1.2l6.2,5.3c0.2,0.2,0.4,0.2,0.6,0.2
		c0.2,0,0.4-0.1,0.5-0.2l6.3-5.1c0.4-0.3,0.4-0.9,0.1-1.2c-0.2-0.2-0.4-0.3-0.7-0.3c-0.1,0-0.3,0-0.5,0.2l-4,3.3L17.7,32
		c-0.4-7.7-6.5-13.5-14.1-13.5c-8,0-14.5,6.5-14.5,14.5c0,0.2,0,0.5,0,0.7c0.4,7.2,6,13,13.1,13.7C2.6,46.4,3.1,45.4,3.8,44.5z"/>
	<g>
		<circle cx="12.6" cy="45.5" r="0.6"/>
		<path d="M12.6,40.8c-5.9,0-10.7,4.8-10.7,10.7s4.8,10.7,10.7,10.7s10.7-4.8,10.7-10.7S18.5,40.8,12.6,40.8z M12.6,59.1
			c-1.2,0-2.1-1.1-2.2-2.1h4.3C14.7,58,13.7,59.1,12.6,59.1z M19,55.7c0,0.2-0.5,0.3-0.7,0.3H6.8c-0.2,0-0.2-0.1-0.2-0.3V55
			c0-0.2,0.3-0.3,0.4-0.4c0.7-0.4,2.3-1.7,2.3-5.3c0-0.1,0-0.2,0-0.3c0.1-0.8,0.5-1.5,1-2c0.1-0.1,0.7-0.8,0.7-1.4c0,0,0,0,0-0.1
			c0-0.8,0.7-1.5,1.5-1.5s1.5,0.7,1.5,1.5c0,0,0,0,0,0.1c0,0.6,0.6,1.4,0.7,1.5c0.6,0.5,0.9,1.2,1.1,2c0,0.1,0,0.2,0,0.3
			c0,3.6,1.9,4.9,2.6,5.3c0.1,0.1,0.5,0.3,0.5,0.4v0.6H19z"/>
	</g>
</g>
</svg>
