<?xml version="1.0" encoding="utf-8"?>
<!-- Generator: Adobe Illustrator 19.1.0, SVG Export Plug-In . SVG Version: 6.00 Build 0)  -->
<svg version="1.0" id="Layer_1" xmlns="http://www.w3.org/2000/svg" xmlns:xlink="http://www.w3.org/1999/xlink" x="0px" y="0px"
	 viewBox="14 -13 45 45" enable-background="new 14 -13 45 45" xml:space="preserve">
<g id="Layer_20">
	<path d="M26-12c0.5,0.2,1,0.6,1.2,1.2c0.2,0.7-0.1,1.2-0.6,1.6s-1.1,0.4-1.7,0.1c-0.1-0.1-0.2-0.1-0.3-0.1c-1,0.3-2,0.5-2.9,0.8
		c-1.2,0.5-1.8,1.4-2,2.6c-0.2,1.3-0.2,2.5,0,3.8c0.3,2.2,1.1,4.3,2.1,6.2c0.4,0.8,1,1.6,1.4,2.3c0,0.1,0.1,0.2,0.2,0.2
		c0.5,0.1,0.9,0.4,1.2,0.8c0.8,0.8,1.6,1.6,2.7,2.1c2,1,3.9,0.7,5.6-0.6c0.7-0.5,1.2-1.1,1.9-1.7c0.3-0.2,0.6-0.4,0.9-0.6
		c0.1-0.1,0.3-0.2,0.4-0.3c1.9-2.7,3.1-5.6,3.5-8.8c0.1-1.1,0.1-2.2,0-3.3c-0.1-1.6-1.1-2.4-2.6-2.8c-0.7-0.2-1.5-0.4-2.2-0.6
		c-0.1,0-0.3,0-0.4,0c-0.8,0.5-1.7,0.2-2.2-0.6c-0.4-0.7-0.1-1.7,0.7-2.1c0.1-0.1,0.3-0.1,0.4-0.2c0.2,0,0.5,0,0.7,0
		c0.4,0.2,0.8,0.4,1,0.8c0.1,0.1,0.3,0.2,0.4,0.2c1,0.3,1.9,0.5,2.9,0.8c1.8,0.6,2.9,1.9,3.2,3.7c0.4,1.9,0.2,3.8-0.1,5.7
		c-0.4,2-1.1,3.9-2.1,5.7c-0.5,0.9-1.1,1.8-1.6,2.7c-0.1,0.1-0.1,0.3-0.2,0.4c-0.1,0.3-0.1,0.7-0.4,1c-1.5,1.7-3.2,3.1-5.5,3.8
		c-0.3,0.1-0.5,0.1-0.8,0.2c-0.2,0-0.3,0.1-0.3,0.3c0,2.4,0,4.8,0,7.2c0.1,2.5,1,4.6,2.9,6.2c2.6,2.3,5.7,2.9,9,1.7
		c3.2-1.2,5-3.5,5.6-6.8c0.1-0.6,0.1-1.1,0.1-1.7c0-1.8,0-3.7,0-5.5c0-0.3-0.1-0.4-0.4-0.5c-2.1-0.5-3.6-1.8-4.3-3.9
		c-0.7-2.1-0.3-4.1,1.2-5.8c1.6-1.8,3.7-2.4,6-1.8c2.2,0.6,3.6,2,4.2,4.2c0.9,3.2-1,6.5-4.3,7.3C50.1,14,50,14.1,50,14.5
		c0,1.8,0,3.6,0,5.5c0,2.3-0.6,4.4-1.9,6.4c-1.1,1.6-2.5,2.8-4.3,3.7c-1.1,0.5-2.3,0.9-3.6,1c-0.1,0-0.1,0-0.2,0.1
		c-0.6,0-1.1,0-1.7,0c-0.7-0.1-1.3-0.2-2-0.4c-1.7-0.4-3.2-1.3-4.5-2.5c-1.4-1.3-2.4-2.8-3-4.6c-0.4-1.2-0.5-2.3-0.5-3.5
		c0-2.2,0-4.4,0-6.6c0-0.2,0-0.3-0.3-0.4c-1.7-0.3-3.2-1-4.5-2.1c-0.6-0.5-1.2-1.1-1.8-1.7c-0.2-0.2-0.3-0.6-0.4-1
		c-0.1-0.2-0.1-0.4-0.2-0.5c-1.7-2.4-2.9-5.1-3.6-7.9c-0.5-2.2-0.7-4.4-0.1-6.6c0.4-1.6,1.4-2.7,2.9-3.2c1-0.4,2-0.6,3-0.9
		c0.2-0.1,0.4-0.2,0.6-0.4c0.3-0.3,0.6-0.4,0.9-0.6C25.6-12,25.8-12,26-12z"/>
</g>
</svg>
