<?xml version="1.0" encoding="utf-8"?>
<!-- Generator: Adobe Illustrator 19.1.0, SVG Export Plug-In . SVG Version: 6.00 Build 0)  -->
<svg version="1.0" id="Layer_1" xmlns="http://www.w3.org/2000/svg" xmlns:xlink="http://www.w3.org/1999/xlink" x="0px" y="0px"
	 viewBox="14 -13 45 45" enable-background="new 14 -13 45 45" xml:space="preserve">
<g id="Layer_47">
	<path stroke="#000000" stroke-width="0.25" stroke-miterlimit="10" d="M31.6-1.6l2.9,4.4c0.8,1.1,1.4,2.2,2.1,3.3h0.1
		c0.7-1.2,1.3-2.3,2-3.4l2.9-4.3h4l-6.9,9.8l7.2,10.5h-4.2l-3-4.6c-0.8-1.2-1.5-2.3-2.2-3.5h-0.1c-0.7,1.3-1.4,2.3-2.1,3.5l-2.9,4.6
		h-4.1l7.2-10.4l-6.9-10h4V-1.6z"/>
	<g>
		<g>
			<path d="M23.3-8.6c-3,4.1-5.2,9.5-5.2,17c0,7.4,2.3,12.7,5.2,16.9h-2.9C17.8,21.8,15,16.5,15,8.4c0-8.2,2.8-13.5,5.4-17
				C20.4-8.6,23.3-8.6,23.3-8.6z"/>
		</g>
		<g>
			<path d="M49.7,25.8c3-4.1,5.2-9.5,5.2-17c0-7.4-2.3-12.7-5.2-16.9h2.9C55.2-4.7,58,0.7,58,8.8c0,8.2-2.8,13.5-5.4,17H49.7z"/>
		</g>
	</g>
</g>
</svg>
