<?xml version="1.0" encoding="utf-8"?>
<!-- Generator: Adobe Illustrator 22.0.1, SVG Export Plug-In . SVG Version: 6.00 Build 0)  -->
<svg version="1.0" id="Livello_1" xmlns="http://www.w3.org/2000/svg" xmlns:xlink="http://www.w3.org/1999/xlink" x="0px" y="0px"
	 width="30px" height="30px" viewBox="0 0 30 30" enable-background="new 0 0 30 30" xml:space="preserve">
<circle fill="#3F4760" cx="15" cy="15" r="15"/>
<path fill="#FFFFFF" d="M30,15c0,8.3-6.7,15-15,15S0,23.3,0,15S6.7,0,15,0S30,6.7,30,15z M29.5,15C29.5,7,23,0.5,15,0.5
	S0.5,7,0.5,15S7,29.5,15,29.5S29.5,23,29.5,15z"/>
<path fill="#FFFFFF" d="M19.5,13.7L12,9.4c-0.5-0.2-1-0.2-1.5,0c-0.4,0.3-0.7,0.7-0.7,1.3v8.6c0,0.5,0.3,1,0.7,1.3
	c0.2,0.1,0.5,0.2,0.7,0.2c0.3,0,0.5-0.1,0.7-0.2l7.4-4.3c0.4-0.3,0.7-0.8,0.7-1.3C20.2,14.5,19.9,14,19.5,13.7z"/>
</svg>
