<?xml version="1.0" encoding="utf-8"?>
<!-- Generator: Adobe Illustrator 19.2.1, SVG Export Plug-In . SVG Version: 6.00 Build 0)  -->
<!DOCTYPE svg PUBLIC "-//W3C//DTD SVG 1.0//EN" "http://www.w3.org/TR/2001/REC-SVG-20010904/DTD/svg10.dtd">
<svg version="1.0" id="Livello_1" xmlns="http://www.w3.org/2000/svg" xmlns:xlink="http://www.w3.org/1999/xlink" x="0px" y="0px"
	 viewBox="0 0 700 680" enable-background="new 0 0 700 680" xml:space="preserve">
<path id="XMLID_407_" fill="#ECECEC" stroke="#FFFFFF" stroke-width="0.7082" stroke-miterlimit="10" d="M693.7,628.6L649,514.4
	c-0.1-0.2-0.1-0.5-0.1-0.8V168.4c0-0.3,0-0.5,0.1-0.8l44.6-114.1c3.4-8.7,1.3-18.7-5.3-25.3l-16.9-16.9C665,4.9,655.5,2.7,647,5.7
	L532.4,45.3c-0.2,0.1-0.5,0.1-0.7,0.1H168.9c-0.2,0-0.5,0-0.7-0.1L53.6,5.7c-8.5-3-18-0.8-24.4,5.6L12.2,28.2
	c-6.6,6.6-8.7,16.6-5.3,25.3l44.5,113.6c0.2,0.6,0.3,1.2,0.3,1.8v344c0,0.7-0.1,1.5-0.4,2.2L6.9,628.6c-3.4,8.7-1.3,18.5,5.2,25.1
	l15.8,15.8c7,7,17.7,8.8,26.7,4.5l113.5-54.6c0.3-0.1,0.6-0.2,0.9-0.2h362.6c0.3,0,0.6,0.1,0.9,0.2L646,674c9,4.3,19.7,2.5,26.7-4.5
	l15.8-15.8C695,647.1,697.1,637.3,693.7,628.6z"/>
</svg>
