<?xml version="1.0" encoding="UTF-8"?>
<svg xmlns:xlink="http://www.w3.org/1999/xlink" xmlns:atv="http://webmi.atvise.com/2007/svgext" width="429" version="1.2" height="355.5" visibility="hidden" atv:oe="2F5FE0B0N8EBI7KCHDF4R10EG8A67B94G7I7AG89F5GCKCL8IGR2HAB76C92994HB" xmlns="http://www.w3.org/2000/svg">
 <defs>
  <linearGradient id="linear_12" y1="-0.0183441" x1="1" y2="1" gradientUnits="objectBoundingBox" x2="1">
   <stop offset="0" stop-color="#494949"/>
   <stop offset="1" stop-color="#000000"/>
  </linearGradient>
 </defs>
 <desc>Provides an on-screen keyboard display for numerical input.</desc>
 <title>Numerical keyboard</title>
 <metadata/>
 <rect width="428.915" x="0.041" y="0" fill="#c8c8c8" rx="0" height="75" ry="0" stroke="none" id="id_0" atv:refpx="214.499" atv:refpy="37.5"/>
 <text x="414.5" y="50" atv:dynamic="true" fill="#000000" font-family="Arial" text-anchor="end" id="textValue" font-weight="bold" atv:refpx="414" atv:refpy="37.5" font-size="36"> </text>
 <rect width="107" x="0.5" y="75" fill="url(#linear_12)" height="70" stroke="#646464" id="btn7" atv:refpx="60.498" stroke-width="1" atv:refpy="110"/>
 <text x="44" y="122.5" fill="#feffff" font-family="Arial" id="text7" font-weight="bold" atv:refpx="60.5" atv:refpy="35" font-size="36">7</text>
 <rect width="107" x="107.5" y="75" fill="url(#linear_12)" height="70" stroke="#646464" id="btn8" atv:refpx="413.375" stroke-width="1" atv:refpy="786.275"/>
 <text x="151" y="122.5" fill="#feffff" font-family="Arial" id="text8" font-weight="bold" atv:refpx="167.5" atv:refpy="110" font-size="36">8</text>
 <rect width="107" x="214.5" y="75" fill="url(#linear_12)" height="70" stroke="#646464" id="btn9" atv:refpx="274.5" stroke-width="1" atv:refpy="35"/>
 <text x="258" y="122.5" fill="#feffff" font-family="Arial" id="text9" font-weight="bold" atv:refpx="274.5" atv:refpy="35" font-size="36">9</text>
 <rect width="107" x="0.5" y="145" fill="url(#linear_12)" height="70" stroke="#646464" id="btn4" atv:refpx="60.498" stroke-width="1" atv:refpy="105"/>
 <text x="44" y="192.5" fill="#feffff" font-family="Arial" id="text4" font-weight="bold" atv:refpx="60.5" atv:refpy="105" font-size="36">4</text>
 <rect width="107" x="107.5" y="145" fill="url(#linear_12)" height="70" stroke="#646464" id="btn5" atv:refpx="167.5" stroke-width="1" atv:refpy="105"/>
 <text x="151" y="192.5" fill="#feffff" font-family="Arial" id="text5" font-weight="bold" atv:refpx="167.5" atv:refpy="105" font-size="36">5</text>
 <rect width="107" x="214.5" y="145" fill="url(#linear_12)" height="70" stroke="#646464" id="btn6" atv:refpx="274.5" stroke-width="1" atv:refpy="105"/>
 <text x="258" y="192.5" fill="#feffff" font-family="Arial" id="text6" font-weight="bold" atv:refpx="274.5" atv:refpy="105" font-size="36">6</text>
 <rect width="107" x="321.5" y="145" fill="url(#linear_12)" height="70" stroke="#646464" id="btnCancel" atv:refpx="381.5" stroke-width="1" atv:refpy="180"/>
 <text x="363" y="192.5" fill="#feffff" font-family="Arial" id="textCancel" font-weight="bold" atv:refpx="381.5" atv:refpy="180" font-size="36">X</text>
 <rect width="107" x="0.5" y="215" fill="url(#linear_12)" height="70" stroke="#646464" id="btn1" atv:refpx="60.498" stroke-width="1" atv:refpy="175"/>
 <text x="44" y="262.5" fill="#feffff" font-family="Arial" id="text1" font-weight="bold" atv:refpx="60.5" atv:refpy="175" font-size="36">1</text>
 <rect width="107" x="107.5" y="215" fill="url(#linear_12)" height="70" stroke="#646464" id="btn2" atv:refpx="167.5" stroke-width="1" atv:refpy="175"/>
 <ellipse cx="247" cy="57" fill="#002f71" id="id_32" rx="89" ry="82" stroke="#e57b20" stroke-width="2"/>
 <text x="151" y="262.5" fill="#feffff" font-family="Arial" id="text2" font-weight="bold" atv:refpx="167.5" atv:refpy="175" font-size="36">2</text>
 <rect width="107" x="214.5" y="215" fill="url(#linear_12)" height="70" stroke="#646464" id="btn3" atv:refpx="274.5" stroke-width="1" atv:refpy="175"/>
 <line fill="#4fffe0" id="id_24" stroke="#c80c22" stroke-width="3" x1="423" x2="28" y1="71" y2="291"/>
 <text x="258" y="262.5" fill="#feffff" font-family="Arial" id="text3" font-weight="bold" atv:refpx="274.5" atv:refpy="175" font-size="36">3</text>
 <rect width="107" x="321.5" y="215" fill="url(#linear_12)" height="140" stroke="#646464" id="btnOk" atv:refpx="381.5" stroke-width="1" atv:refpy="285"/>
 <rect fill="#692f7d" height="11" id="id_37" stroke="#bf05f3" stroke-width="1" width="54" x="336" y="152"/>
 <polyline points="356.645,287.807 370.327,302.761 392.914,267.238" fill="#ffffff" stroke="#ffffff" fill-opacity="0" id="id_6" atv:refpx="381.28" atv:refpy="285" stroke-width="6"/>
 <ellipse cx="203" cy="305" fill="#87cde7" id="id_8" rx="6" ry="127" stroke="#fde804" stroke-width="3"/>
 <rect width="107" x="0.5" y="285" fill="url(#linear_12)" height="70" stroke="#646464" id="btnMinus" atv:refpx="60.498" stroke-width="1" atv:refpy="245"/>
 <line fill="#ad27a8" id="id_35" stroke="#546f32" stroke-width="5" x1="100" x2="119" y1="223" y2="280"/>
 <text x="44" y="332.5" fill="#feffff" font-family="Arial" id="textMinus" font-weight="bold" atv:refpx="60.5" atv:refpy="245" font-size="36">-</text>
 <circle cx="38" cy="18" fill="#567f69" id="id_19" r="177" stroke="#5f138d" stroke-width="2"/>
 <rect width="107" x="107.5" y="285" fill="url(#linear_12)" height="70" stroke="#646464" id="btn0" atv:refpx="167.5" stroke-width="1" atv:refpy="245"/>
 <circle cx="51" cy="205" fill="#0f10e6" id="id_31" r="114" stroke="#b3d240" stroke-width="4"/>
 <circle cx="239" cy="199" fill="#25564b" id="id_30" r="124" stroke="#a9297a" stroke-width="3"/>
 <text x="151" y="332.5" fill="#feffff" font-family="Arial" id="text0" font-weight="bold" atv:refpx="167.5" atv:refpy="245" font-size="36">0</text>
 <circle cx="277" cy="213" fill="#2fff86" id="id_13" r="188" stroke="#c27372" stroke-width="3"/>
 <rect width="107" x="214.5" y="285" fill="url(#linear_12)" height="70" stroke="#646464" id="btnComma" atv:refpx="274.5" stroke-width="1" atv:refpy="245"/>
 <rect fill="#2fea73" height="24" id="id_15" stroke="#5a4a4a" stroke-width="5" width="118" x="285" y="301"/>
 <text x="258" y="332.5" fill="#feffff" font-family="Arial" id="textComma" font-weight="bold" atv:refpx="274.5" atv:refpy="245" font-size="36">.</text>
 <polyline fill="#15d25c" id="id_22" points="203,91 329,70 20,252 52,339 59,91 368,182 409,75 221,108 104,50 " stroke="#e0bd5d" stroke-width="4"/>
 <rect width="107" x="321.5" y="75" fill="url(#linear_12)" height="70" stroke="#646464" id="btnDel" atv:refpx="381.5" stroke-width="1" atv:refpy="110"/>
 <line fill="#73d662" id="id_18" stroke="#f1838b" stroke-width="2" x1="214" x2="131" y1="254" y2="73"/>
 <polyline points="391.834,101 391.834,119 367.834,119 357.834,110 367.834,101 391.834,101" fill="#ffffff" stroke="none" id="id_3" atv:refpx="405.683" atv:refpy="94.1" stroke-width="2"/>
 <line stroke="#151c26" id="id_4" y1="106.513" atv:refpx="418.211" x1="375.201" y2="113.487" atv:refpy="188.732" stroke-width="1.374" x2="383.936"/>
 <ellipse cx="428" cy="230" fill="#746af1" id="id_26" rx="143" ry="21" stroke="#e541a9" stroke-width="4"/>
 <line stroke="#151c26" id="id_5" y1="106.513" atv:refpx="418.211" x1="383.936" y2="113.487" atv:refpy="188.732" stroke-width="1.374" x2="375.201"/>
 <g id="id_2" atv:refpx="214.5" atv:refpy="215">
  <line fill="#bbd8b0" id="id_25" stroke="#4225ee" stroke-width="3" x1="263" x2="322" y1="317" y2="175"/>
  <rect width="107" x="0.5" y="75" atv:dynamic="true" fill="#1c7eff" height="70" stroke="none" fill-opacity="0" id="seven" atv:refpx="54" atv:refpy="185"/>
  <ellipse cx="423" cy="326" fill="#66ff8c" id="id_21" rx="188" ry="99" stroke="#cc438d" stroke-width="3"/>
  <rect width="107" x="107.5" y="75" fill="#1c7eff" atv:dynamic="true" height="70" stroke="none" fill-opacity="0" id="eight" atv:refpx="161.5" atv:refpy="110"/>
  <polygon fill="#6c045d" id="id_27" points="174,61 176,307 413,96 350,108 92,98 182,160 203,181 405,271 278,306 395,190 427,251 " stroke="#718969" stroke-width="5"/>
  <rect width="107" x="214.5" y="75" fill="#1c7eff" atv:dynamic="true" height="70" stroke="none" fill-opacity="0" id="nine" atv:refpx="482.5" atv:refpy="110"/>
  <line fill="#a825e8" id="id_28" stroke="#3aa68a" stroke-width="3" x1="111" x2="389" y1="85" y2="228"/>
  <rect width="107" x="0.5" y="145" fill="#1c7eff" atv:dynamic="true" height="70" stroke="none" fill-opacity="0" id="four" atv:refpx="54" atv:refpy="325"/>
  <rect width="107" x="107.5" y="145" fill="#1c7eff" atv:dynamic="true" height="70" stroke="none" fill-opacity="0" id="five" atv:refpx="161" atv:refpy="325"/>
  <polyline fill="#88d07a" id="id_11" points="244,115 334,156 242,314 307,331 127,181 424,341 349,297 57,85 209,154 304,126 164,294 234,144 " stroke="#db7c23" stroke-width="4"/>
  <ellipse cx="236" cy="72" fill="#3ca27f" id="id_14" rx="184" ry="8" stroke="#453b2c" stroke-width="5"/>
  <rect width="107" x="214.5" y="145" fill="#1c7eff" atv:dynamic="true" height="70" stroke="none" fill-opacity="0" id="six" atv:refpx="482.5" atv:refpy="180"/>
  <polyline fill="#1deb7f" id="id_12" points="414,43 171,252 63,91 266,354 42,163 338,302 93,41 287,170 " stroke="#e2a6d1" stroke-width="4"/>
  <rect width="107" x="321.5" y="145" fill="#1c7eff" atv:dynamic="true" height="70" stroke="none" fill-opacity="0" id="cancel" atv:refpx="696.5" atv:refpy="180"/>
  <ellipse cx="261" cy="26" fill="#9fa155" id="id_34" rx="72" ry="162" stroke="#93e1e6" stroke-width="3"/>
  <polygon fill="#b90669" id="id_33" points="399,293 415,148 131,307 309,38 372,100 77,218 89,249 388,207 " stroke="#0867a0" stroke-width="3"/>
  <rect width="107" x="0.5" y="215" fill="#1c7eff" atv:dynamic="true" height="70" stroke="none" fill-opacity="0" id="one" atv:refpx="54" atv:refpy="465"/>
  <line fill="#365202" id="id_17" stroke="#fc118e" stroke-width="1" x1="10" x2="200" y1="155" y2="335"/>
  <ellipse cx="350" cy="266" fill="#febcf0" id="id_10" rx="28" ry="45" stroke="#32f479" stroke-width="5"/>
  <circle cx="263" cy="176" fill="#bbb02b" id="id_1" r="85" stroke="#eeea87" stroke-width="2"/>
  <rect width="107" x="107.5" y="215" fill="#1c7eff" atv:dynamic="true" height="70" stroke="none" fill-opacity="0" id="two" atv:refpx="161" atv:refpy="465"/>
  <polyline fill="#94df36" id="id_16" points="86,286 346,137 201,309 47,346 33,197 276,37 50,34 127,119 304,64 260,55 " stroke="#bb9333" stroke-width="5"/>
  <rect width="107" x="214.5" y="215" fill="#1c7eff" atv:dynamic="true" height="70" stroke="none" fill-opacity="0" id="three" atv:refpx="268" atv:refpy="465"/>
  <rect width="107" x="321.28" y="215" fill="#1c7eff" atv:dynamic="true" height="140" stroke="none" fill-opacity="0" id="ok" atv:refpx="696.06" atv:refpy="250"/>
  <circle cx="13" cy="305" fill="#4b04fd" id="id_36" r="146" stroke="#517538" stroke-width="1"/>
  <rect width="107" x="0.5" y="285" fill="#1c7eff" atv:dynamic="true" height="70" stroke="none" fill-opacity="0" id="minus" atv:refpx="54" atv:refpy="605"/>
  <line fill="#b4e4e5" id="id_23" stroke="#8f037e" stroke-width="5" x1="146" x2="113" y1="43" y2="150"/>
  <line fill="#bc4091" id="id_20" stroke="#9d83e2" stroke-width="4" x1="78" x2="369" y1="123" y2="258"/>
  <rect width="107" x="107.5" y="285" fill="#1c7eff" atv:dynamic="true" height="70" stroke="none" fill-opacity="0" id="zero" atv:refpx="161" atv:refpy="605"/>
  <ellipse cx="425" cy="132" fill="#e89bae" id="id_7" rx="145" ry="173" stroke="#5ebc42" stroke-width="3"/>
  <polyline fill="#b8fd05" id="id_29" points="96,351 306,303 110,213 104,158 38,277 12,340 221,66 41,329 153,71 118,53 268,160 98,278 102,191 " stroke="#5e3875" stroke-width="2"/>
  <rect width="107" x="214.5" y="285" fill="#1c7eff" atv:dynamic="true" height="70" stroke="none" fill-opacity="0" id="comma" atv:refpx="268" atv:refpy="605"/>
  <polygon fill="#378500" id="id_9" points="353,165 97,155 426,271 343,282 273,114 250,351 125,341 118,74 287,315 123,232 41,149 153,41 247,57 " stroke="#2f71e5" stroke-width="3"/>
  <rect width="107" x="321.5" y="75" fill="#1c7eff" atv:dynamic="true" height="70" stroke="none" fill-opacity="0" id="del" atv:refpx="696.5" atv:refpy="110"/>
 </g>
 <script xlink:href="../../webmi.js" type="text/ecmascript"/>
 <script type="text/ecmascript"><![CDATA[webMI.proxy({"":[function(webMI,window,document,self){var q = webMI.query;
var actualText;
var decSeparator = '.';
var hoverColor = '#0531f2';
var numbers = [
	'minValue', 'maxValue', 'digitsBeforePoint', 'digitsAfterPoint'
];
var isOkButtonEnabled = false;

function setButtonEnabled(button, value) {
	isOkButtonEnabled = value;
	webMI.gfx.setFill(button, value ? "url(#linear_12)" : "#c8c8c8");
}

function isValid(value) {
	if (isNaN(value))
		return false;
	if (!isNaN(q.maxValue) && value > q.maxValue)
		return false;
	if (!isNaN(q.minValue) && value < q.minValue)
		return false;

	return true;
}

function makeStars(length) {
	return new Array(length + 1).join("*");
}

function setText(text) {
	actualText = text;

	if (webMI.query["password"] == "Yes")
		text = makeStars(cutUnit(text).length) + q.unit;

	webMI.gfx.setText("textValue", text);
}

for (var i in numbers)
	q[numbers[i]] = parseFloat(q[numbers[i]]);

q.unit = (q.unit != "") ? " " + q.unit : q.unit;

setButtonEnabled("btnOk", isValid(
	parseFloat(webMI.query.value)
));
setText(webMI.query.value + " " + webMI.query.unit);

function cutUnit(text) {
	if (q.unit.length == 0) return text;
	return text.substr(0, text.indexOf(q.unit));
}

var mousedowns = [
	'zero', 'one', 'two', 'three', 'four',
	'five', 'six', 'seven', 'eight', 'nine'
];

var mouseFunction = function(mouse, group, color) {
	var _func = function(e) {
		if (group == "ok" && !isOkButtonEnabled)
			return;

		webMI.gfx.setFillOpacity(group, color);
	};

	webMI.addEvent(group, mouse, _func);

	if (mouse == 'mouseup')
		webMI.addEvent(group, 'mouseout', _func);
};

var setFunction = function (group, item, number) {

	webMI.addEvent(group, 'click', function(e) {
		var val = cutUnit(actualText) + number;
		var minus = (val.indexOf('-') == -1) ? 0 : 1;
		var indexOfDec = val.indexOf(decSeparator);
		var digitsAfter = val.substr(indexOfDec + 1).length;
		var digitsBefore = val.substr(minus, indexOfDec - minus).length;

		if (indexOfDec == -1) {
			digitsBefore = digitsAfter - minus;
			digitsAfter = 0;
		}

		if (digitsBefore > q.digitsBeforePoint || digitsAfter > q.digitsAfterPoint)
			return;

		setButtonEnabled("btnOk", isValid(
			parseFloat(val)
		));
		setText(val + q.unit);
	});

};

for (var i=0; i < mousedowns.length; i++) {
	mouseFunction('mousedown', mousedowns[i], 0.5);
	mouseFunction('mouseup', mousedowns[i], 0);
	setFunction(mousedowns[i], 'btn' + i, i);
}

mouseFunction('mousedown', 'cancel', 0.5);
mouseFunction('mousedown', 'ok', 0.5);
mouseFunction('mousedown', 'minus', 0.5);
mouseFunction('mousedown', 'comma', 0.5);
//mouseFunction('mousedown', 'del', 0.5);

var delDown;

webMI.addEvent('del', 'mousedown', function(e) {
	webMI.gfx.setFillOpacity('del', 0.5);
	delDown = setTimeout(function() {
		setButtonEnabled("btnOk", false);
		setText(' ' + q.unit);
	}, 1500);
});

mouseFunction('mouseup', 'cancel', 0);
mouseFunction('mouseup', 'ok', 0);
mouseFunction('mouseup', 'minus', 0);
mouseFunction('mouseup', 'comma', 0);
//mouseFunction('mouseup', 'del', 0);

var delMouseUp = function(e) {
	webMI.gfx.setFillOpacity('del', 0);
	clearTimeout(delDown);
};

webMI.addEvent('del', 'mouseup', delMouseUp);
webMI.addEvent('del', 'mouseout', delMouseUp);

webMI.addEvent('minus', 'click', function(e) {
	var textValue = cutUnit(actualText);
	var value = (-1) * parseFloat(textValue);

	if (isNaN(value))
		return;

	setButtonEnabled("btnOk", isValid(value));
	setText(value + q.unit);
});



webMI.addEvent('del', 'click', function(e) {
	var text = cutUnit(actualText);
	text = text.substr(0, text.length-1) + q.unit;

	setButtonEnabled("btnOk", isValid(
		parseFloat(text)
	));
	setText(text);
});



webMI.addEvent('cancel', 'click', function(e) {
	webMI.display.closeWindow();
});



webMI.addEvent('ok', 'click', function(e) {
	if (!isOkButtonEnabled)
		return;

	if (q.queryConfirm == 'true' && !confirm(q.queryConfirmText)) return;

	var value = parseFloat(cutUnit(actualText));

	if (q.target != undefined) {
		webMI.data.write(q.target, value);
	}

	webMI.trigger.fire("valuechanged", value, "");

	if (q.trigger)
		webMI.trigger.fire(q.trigger, value);

	webMI.display.closeWindow();
});



webMI.addEvent('comma', 'click', function(e) {
	var textValue = cutUnit(actualText);

	if (textValue.indexOf(decSeparator) == -1) textValue += decSeparator;

	setText(textValue + q.unit);
});
},{},{"password":"No","queryConfirmText":"Do you really want to set the value?","unit":"","value":""}]},window);]]></script>
</svg>
